<?xml version="1.0" encoding="UTF-8" standalone="no"?>
<svg
   width="648pt"
   height="346.32pt"
   viewBox="0 0 648 346.32"
   version="1.1"
   id="svg326"
   sodipodi:docname="01_PDOS_spd.svg"
   inkscape:version="1.2.2 (b0a8486541, 2022-12-01)"
   xmlns:inkscape="http://www.inkscape.org/namespaces/inkscape"
   xmlns:sodipodi="http://sodipodi.sourceforge.net/DTD/sodipodi-0.dtd"
   xmlns:xlink="http://www.w3.org/1999/xlink"
   xmlns="http://www.w3.org/2000/svg"
   xmlns:svg="http://www.w3.org/2000/svg"
   xmlns:rdf="http://www.w3.org/1999/02/22-rdf-syntax-ns#"
   xmlns:cc="http://creativecommons.org/ns#"
   xmlns:dc="http://purl.org/dc/elements/1.1/">
  <sodipodi:namedview
     id="namedview328"
     pagecolor="#ffffff"
     bordercolor="#666666"
     borderopacity="1.0"
     inkscape:showpageshadow="2"
     inkscape:pageopacity="0.0"
     inkscape:pagecheckerboard="0"
     inkscape:deskcolor="#d1d1d1"
     inkscape:document-units="pt"
     showgrid="false"
     inkscape:zoom="0.72278758"
     inkscape:cx="284.3159"
     inkscape:cy="408.14204"
     inkscape:window-width="1920"
     inkscape:window-height="1052"
     inkscape:window-x="0"
     inkscape:window-y="0"
     inkscape:window-maximized="1"
     inkscape:current-layer="g1148" />
  <metadata
     id="metadata2">
    <rdf:RDF>
      <cc:Work>
        <dc:type
           rdf:resource="http://purl.org/dc/dcmitype/StillImage" />
        <dc:date>2025-12-15T12:49:53.048224</dc:date>
        <dc:format>image/svg+xml</dc:format>
        <dc:creator>
          <cc:Agent>
            <dc:title>Matplotlib v3.6.3, https://matplotlib.org/</dc:title>
          </cc:Agent>
        </dc:creator>
      </cc:Work>
    </rdf:RDF>
  </metadata>
  <defs
     id="defs6">
    <rect
       x="135.3"
       y="-96.475981"
       width="629.73709"
       height="276.44389"
       id="rect864" />
    <style
       type="text/css"
       id="style4">*{stroke-linejoin: round; stroke-linecap: butt}</style>
    <rect
       x="135.3"
       y="-96.475981"
       width="629.73709"
       height="276.44389"
       id="rect926" />
    <rect
       x="135.3"
       y="-96.475981"
       width="629.73709"
       height="276.44389"
       id="rect934" />
    <rect
       x="135.3"
       y="-96.475981"
       width="629.73709"
       height="276.44389"
       id="rect942" />
    <rect
       x="135.3"
       y="-96.475981"
       width="629.73709"
       height="276.44389"
       id="rect950" />
    <rect
       x="135.3"
       y="-96.475981"
       width="629.73709"
       height="276.44389"
       id="rect958" />
    <rect
       x="135.3"
       y="-96.475981"
       width="629.73709"
       height="276.44389"
       id="rect966" />
  </defs>
  <defs
     id="defs324">
    <clipPath
       id="p04b4e47dfd">
      <rect
         x="67.275"
         y="17.316"
         width="559.125"
         height="269.4081"
         id="rect321" />
    </clipPath>
  </defs>
  <g
     id="g1188">
    <g
       id="figure_1" />
    <g
       id="g1148">
      <g
         id="legend_1" />
      <g
         id="g774">
        <path
           d="M 0,346.32001 H 648 V -14.756268 H 0 Z"
           style="fill:#ffffff;stroke-width:1.02108"
           id="path8" />
        <g
           id="patch_2">
          <path
             d="M 67.275,286.7241 H 626.4 V 17.316 H 67.275 Z"
             style="fill:#ffffff"
             id="path11" />
        </g>
        <g
           id="matplotlib.axis_1">
          <g
             id="xtick_1">
            <g
               id="line2d_1">
              <defs
                 id="defs15">
                <path
                   id="mdd3e338b1c"
                   d="M 0,0 V 6"
                   style="stroke:#000000;stroke-width:1.2" />
              </defs>
              <g
                 id="g19">
                <use
                   xlink:href="#mdd3e338b1c"
                   x="94.108459"
                   y="286.72409"
                   style="stroke:#000000;stroke-width:1.2"
                   id="use17" />
              </g>
            </g>
            <g
               id="text_1">
              <!-- −20 -->
              <g
                 transform="matrix(0.2,0,0,-0.2,73.003774,311.42097)"
                 id="g33">
                <defs
                   id="defs25">
                  <path
                     id="DejaVuSans-2212"
                     d="M 678,2272 H 4684 V 1741 H 678 Z"
                     transform="scale(0.015625)" />
                  <path
                     id="DejaVuSans-32"
                     d="M 1228,531 H 3431 V 0 H 469 v 531 q 359,372 979,998 621,627 780,809 303,340 423,576 121,236 121,464 0,372 -261,606 -261,235 -680,235 -297,0 -627,-103 -329,-103 -704,-313 v 638 q 381,153 712,231 332,78 607,78 725,0 1156,-363 431,-362 431,-968 0,-288 -108,-546 -107,-257 -392,-607 -78,-91 -497,-524 Q 1991,1309 1228,531 Z"
                     transform="scale(0.015625)" />
                  <path
                     id="DejaVuSans-30"
                     d="m 2034,4250 q -487,0 -733,-480 -245,-479 -245,-1442 0,-959 245,-1439 246,-480 733,-480 491,0 736,480 246,480 246,1439 0,963 -246,1442 -245,480 -736,480 z m 0,500 q 785,0 1199,-621 414,-620 414,-1801 0,-1178 -414,-1799 -414,-620 -1199,-620 -784,0 -1198,620 -414,621 -414,1799 0,1181 414,1801 414,621 1198,621 z"
                     transform="scale(0.015625)" />
                </defs>
                <use
                   xlink:href="#DejaVuSans-2212"
                   id="use27" />
                <use
                   xlink:href="#DejaVuSans-32"
                   x="83.789062"
                   id="use29" />
                <use
                   xlink:href="#DejaVuSans-30"
                   x="147.41211"
                   id="use31" />
              </g>
            </g>
          </g>
          <g
             id="xtick_2">
            <g
               id="line2d_2">
              <g
                 id="g39">
                <use
                   xlink:href="#mdd3e338b1c"
                   x="161.86659"
                   y="286.72409"
                   style="stroke:#000000;stroke-width:1.2"
                   id="use37" />
              </g>
            </g>
            <g
               id="text_2">
              <!-- −15 -->
              <g
                 transform="matrix(0.2,0,0,-0.2,140.76191,311.42097)"
                 id="g52">
                <defs
                   id="defs44">
                  <path
                     id="DejaVuSans-31"
                     d="M 794,531 H 1825 V 4091 L 703,3866 v 575 l 1116,225 h 631 V 531 H 3481 V 0 H 794 Z"
                     transform="scale(0.015625)" />
                  <path
                     id="DejaVuSans-35"
                     d="M 691,4666 H 3169 V 4134 H 1269 V 2991 q 137,47 274,70 138,23 276,23 781,0 1237,-428 457,-428 457,-1159 Q 3513,744 3044,326 2575,-91 1722,-91 1428,-91 1123,-41 819,9 494,109 v 635 q 281,-153 581,-228 300,-75 634,-75 541,0 856,284 316,284 316,772 0,487 -316,771 -315,285 -856,285 -253,0 -505,-56 -251,-56 -513,-175 z"
                     transform="scale(0.015625)" />
                </defs>
                <use
                   xlink:href="#DejaVuSans-2212"
                   id="use46" />
                <use
                   xlink:href="#DejaVuSans-31"
                   x="83.789062"
                   id="use48" />
                <use
                   xlink:href="#DejaVuSans-35"
                   x="147.41211"
                   id="use50" />
              </g>
            </g>
          </g>
          <g
             id="xtick_3">
            <g
               id="line2d_3">
              <g
                 id="g58">
                <use
                   xlink:href="#mdd3e338b1c"
                   x="229.62474"
                   y="286.72409"
                   style="stroke:#000000;stroke-width:1.2"
                   id="use56" />
              </g>
            </g>
            <g
               id="text_3">
              <!-- −10 -->
              <g
                 transform="matrix(0.2,0,0,-0.2,208.52005,311.42097)"
                 id="g67">
                <use
                   xlink:href="#DejaVuSans-2212"
                   id="use61" />
                <use
                   xlink:href="#DejaVuSans-31"
                   x="83.789062"
                   id="use63" />
                <use
                   xlink:href="#DejaVuSans-30"
                   x="147.41211"
                   id="use65" />
              </g>
            </g>
          </g>
          <g
             id="xtick_4">
            <g
               id="line2d_4">
              <g
                 id="g73">
                <use
                   xlink:href="#mdd3e338b1c"
                   x="297.38287"
                   y="286.72409"
                   style="stroke:#000000;stroke-width:1.2"
                   id="use71" />
              </g>
            </g>
            <g
               id="text_4">
              <!-- −5 -->
              <g
                 transform="matrix(0.2,0,0,-0.2,282.64069,311.42097)"
                 id="g80">
                <use
                   xlink:href="#DejaVuSans-2212"
                   id="use76" />
                <use
                   xlink:href="#DejaVuSans-35"
                   x="83.789062"
                   id="use78" />
              </g>
            </g>
          </g>
          <g
             id="xtick_5">
            <g
               id="line2d_5">
              <g
                 id="g86">
                <use
                   xlink:href="#mdd3e338b1c"
                   x="365.14102"
                   y="286.72409"
                   style="stroke:#000000;stroke-width:1.2"
                   id="use84" />
              </g>
            </g>
            <g
               id="text_5">
              <!-- 0 -->
              <g
                 transform="matrix(0.2,0,0,-0.2,358.77852,311.42097)"
                 id="g91">
                <use
                   xlink:href="#DejaVuSans-30"
                   id="use89" />
              </g>
            </g>
          </g>
          <g
             id="xtick_6">
            <g
               id="line2d_6">
              <g
                 id="g97">
                <use
                   xlink:href="#mdd3e338b1c"
                   x="432.89917"
                   y="286.72409"
                   style="stroke:#000000;stroke-width:1.2"
                   id="use95" />
              </g>
            </g>
            <g
               id="text_6">
              <!-- 5 -->
              <g
                 transform="matrix(0.2,0,0,-0.2,426.53665,311.42097)"
                 id="g102">
                <use
                   xlink:href="#DejaVuSans-35"
                   id="use100" />
              </g>
            </g>
          </g>
          <g
             id="xtick_7">
            <g
               id="line2d_7">
              <g
                 id="g108">
                <use
                   xlink:href="#mdd3e338b1c"
                   x="500.65729"
                   y="286.72409"
                   style="stroke:#000000;stroke-width:1.2"
                   id="use106" />
              </g>
            </g>
            <g
               id="text_7">
              <!-- 10 -->
              <g
                 transform="matrix(0.2,0,0,-0.2,487.93229,311.42097)"
                 id="g115">
                <use
                   xlink:href="#DejaVuSans-31"
                   id="use111" />
                <use
                   xlink:href="#DejaVuSans-30"
                   x="63.623047"
                   id="use113" />
              </g>
            </g>
          </g>
          <g
             id="xtick_8">
            <g
               id="line2d_8">
              <g
                 id="g121">
                <use
                   xlink:href="#mdd3e338b1c"
                   x="568.41541"
                   y="286.72409"
                   style="stroke:#000000;stroke-width:1.2"
                   id="use119" />
              </g>
            </g>
            <g
               id="text_8">
              <!-- 15 -->
              <g
                 transform="matrix(0.2,0,0,-0.2,555.69043,311.42097)"
                 id="g128">
                <use
                   xlink:href="#DejaVuSans-31"
                   id="use124" />
                <use
                   xlink:href="#DejaVuSans-35"
                   x="63.623047"
                   id="use126" />
              </g>
            </g>
          </g>
          <g
             id="text_9">
            <!-- $\mathrm{E - E_F\ (eV)}$ -->
            <g
               transform="matrix(0.2,0,0,-0.2,293.4375,334.77722)"
               id="g156">
              <defs
                 id="defs138">
                <path
                   id="DejaVuSans-45"
                   d="M 628,4666 H 3578 V 4134 H 1259 V 2753 H 3481 V 2222 H 1259 V 531 H 3634 V 0 H 628 Z"
                   transform="scale(0.015625)" />
                <path
                   id="DejaVuSans-46"
                   d="M 628,4666 H 3309 V 4134 H 1259 V 2759 H 3109 V 2228 H 1259 V 0 H 628 Z"
                   transform="scale(0.015625)" />
                <path
                   id="DejaVuSans-28"
                   d="m 1984,4856 q -418,-718 -622,-1422 -203,-703 -203,-1425 0,-721 205,-1429 205,-708 620,-1424 h -500 q -468,735 -701,1444 -233,709 -233,1409 0,697 231,1403 232,707 703,1444 z"
                   transform="scale(0.015625)" />
                <path
                   id="DejaVuSans-65"
                   d="M 3597,1894 V 1613 H 953 q 38,-594 358,-905 320,-311 892,-311 331,0 642,81 311,81 618,244 V 178 Q 3153,47 2828,-22 2503,-91 2169,-91 1331,-91 842,396 353,884 353,1716 q 0,859 464,1363 464,505 1252,505 706,0 1117,-455 411,-454 411,-1235 z m -575,169 q -6,471 -264,752 -258,282 -683,282 -481,0 -770,-272 -289,-272 -333,-766 z"
                   transform="scale(0.015625)" />
                <path
                   id="DejaVuSans-56"
                   d="M 1831,0 50,4666 H 709 L 2188,738 3669,4666 h 656 L 2547,0 Z"
                   transform="scale(0.015625)" />
                <path
                   id="DejaVuSans-29"
                   d="m 513,4856 h 500 q 468,-737 701,-1444 233,-706 233,-1403 0,-700 -233,-1409 -233,-709 -701,-1444 H 513 q 415,716 620,1424 205,708 205,1429 0,722 -205,1425 -205,704 -620,1422 z"
                   transform="scale(0.015625)" />
              </defs>
              <use
                 xlink:href="#DejaVuSans-45"
                 transform="translate(0,0.125)"
                 id="use140" />
              <use
                 xlink:href="#DejaVuSans-2212"
                 transform="translate(82.666016,0.125)"
                 id="use142" />
              <use
                 xlink:href="#DejaVuSans-45"
                 transform="translate(185.9375,0.125)"
                 id="use144" />
              <use
                 xlink:href="#DejaVuSans-46"
                 transform="matrix(0.7,0,0,0.7,250.07812,-16.28125)"
                 id="use146" />
              <use
                 xlink:href="#DejaVuSans-28"
                 transform="translate(325.54655,0.125)"
                 id="use148" />
              <use
                 xlink:href="#DejaVuSans-65"
                 transform="translate(364.56022,0.125)"
                 id="use150" />
              <use
                 xlink:href="#DejaVuSans-56"
                 transform="translate(426.08366,0.125)"
                 id="use152" />
              <use
                 xlink:href="#DejaVuSans-29"
                 transform="translate(494.49186,0.125)"
                 id="use154" />
            </g>
          </g>
        </g>
        <g
           id="matplotlib.axis_2">
          <g
             id="ytick_1">
            <g
               id="line2d_9">
              <defs
                 id="defs161">
                <path
                   id="m72e7970713"
                   d="M 0,0 H -6"
                   style="stroke:#000000;stroke-width:1.2" />
              </defs>
              <g
                 id="g165">
                <use
                   xlink:href="#m72e7970713"
                   x="67.275002"
                   y="274.47827"
                   style="stroke:#000000;stroke-width:1.2"
                   id="use163" />
              </g>
            </g>
            <g
               id="text_10">
              <!-- 0 -->
              <g
                 transform="matrix(0.2,0,0,-0.2,45.05,282.07671)"
                 id="g170">
                <use
                   xlink:href="#DejaVuSans-30"
                   id="use168" />
              </g>
            </g>
          </g>
          <g
             id="ytick_2">
            <g
               id="line2d_10">
              <g
                 id="g176">
                <use
                   xlink:href="#m72e7970713"
                   x="67.275002"
                   y="202.65857"
                   style="stroke:#000000;stroke-width:1.2"
                   id="use174" />
              </g>
            </g>
            <g
               id="text_11">
              <!-- 1 -->
              <g
                 transform="matrix(0.2,0,0,-0.2,45.05,210.25701)"
                 id="g181">
                <use
                   xlink:href="#DejaVuSans-31"
                   id="use179" />
              </g>
            </g>
          </g>
          <g
             id="ytick_3">
            <g
               id="line2d_11">
              <g
                 id="g187">
                <use
                   xlink:href="#m72e7970713"
                   x="67.275002"
                   y="130.83887"
                   style="stroke:#000000;stroke-width:1.2"
                   id="use185" />
              </g>
            </g>
            <g
               id="text_12">
              <!-- 2 -->
              <g
                 transform="matrix(0.2,0,0,-0.2,45.05,138.43731)"
                 id="g192">
                <use
                   xlink:href="#DejaVuSans-32"
                   id="use190" />
              </g>
            </g>
          </g>
          <g
             id="ytick_4">
            <g
               id="line2d_12">
              <g
                 id="g198">
                <use
                   xlink:href="#m72e7970713"
                   x="67.275002"
                   y="59.019169"
                   style="stroke:#000000;stroke-width:1.2"
                   id="use196" />
              </g>
            </g>
            <g
               id="text_13">
              <!-- 3 -->
              <g
                 transform="matrix(0.2,0,0,-0.2,45.05,66.617605)"
                 id="g206">
                <defs
                   id="defs202">
                  <path
                     id="DejaVuSans-33"
                     d="m 2597,2516 q 453,-97 707,-404 255,-306 255,-756 0,-690 -475,-1069 -475,-378 -1350,-378 -293,0 -604,58 -311,58 -642,174 v 609 q 262,-153 574,-231 313,-78 654,-78 593,0 904,234 311,234 311,681 0,413 -289,645 -289,233 -804,233 h -544 v 519 h 569 q 465,0 712,186 247,186 247,536 0,359 -255,551 -254,193 -729,193 -260,0 -557,-57 -297,-56 -653,-174 v 562 q 360,100 674,150 314,50 592,50 719,0 1137,-327 419,-326 419,-882 0,-388 -222,-655 -222,-267 -631,-370 z"
                     transform="scale(0.015625)" />
                </defs>
                <use
                   xlink:href="#DejaVuSans-33"
                   id="use204" />
              </g>
            </g>
          </g>
          <g
             id="text_14">
            <!-- PDOS (arb. units) -->
            <g
               transform="matrix(0,-0.2,-0.2,0,36.890625,238.47786)"
               id="g260">
              <defs
                 id="defs224">
                <path
                   id="DejaVuSans-50"
                   d="M 1259,4147 V 2394 h 794 q 441,0 681,228 241,228 241,650 0,419 -241,647 -240,228 -681,228 z m -631,519 h 1425 q 785,0 1186,-355 402,-355 402,-1039 0,-691 -402,-1044 -401,-353 -1186,-353 H 1259 V 0 H 628 Z"
                   transform="scale(0.015625)" />
                <path
                   id="DejaVuSans-44"
                   d="M 1259,4147 V 519 h 763 q 966,0 1414,437 448,438 448,1382 0,937 -448,1373 -448,436 -1414,436 z m -631,519 h 1297 q 1356,0 1990,-564 635,-564 635,-1764 Q 4550,1131 3912,565 3275,0 1925,0 H 628 Z"
                   transform="scale(0.015625)" />
                <path
                   id="DejaVuSans-4f"
                   d="m 2522,4238 q -688,0 -1093,-513 -404,-512 -404,-1397 0,-881 404,-1394 405,-512 1093,-512 687,0 1089,512 402,513 402,1394 0,885 -402,1397 -402,513 -1089,513 z m 0,512 q 981,0 1568,-658 588,-658 588,-1764 0,-1103 -588,-1761 -587,-658 -1568,-658 -984,0 -1574,656 -589,657 -589,1763 0,1106 589,1764 590,658 1574,658 z"
                   transform="scale(0.015625)" />
                <path
                   id="DejaVuSans-53"
                   d="m 3425,4513 v -616 q -359,172 -678,256 -319,85 -616,85 -515,0 -795,-200 -280,-200 -280,-569 0,-310 186,-468 186,-157 705,-254 l 381,-78 q 706,-135 1042,-474 336,-339 336,-907 0,-679 -455,-1029 -454,-350 -1332,-350 -331,0 -705,75 -373,75 -773,222 v 650 q 384,-215 753,-325 369,-109 725,-109 540,0 834,212 294,213 294,607 0,343 -211,537 -211,194 -692,291 l -385,75 q -706,140 -1022,440 -315,300 -315,835 0,619 436,975 436,356 1201,356 329,0 669,-60 341,-59 697,-177 z"
                   transform="scale(0.015625)" />
                <path
                   id="DejaVuSans-20"
                   transform="scale(0.015625)"
                   d="" />
                <path
                   id="DejaVuSans-61"
                   d="m 2194,1759 q -697,0 -966,-159 -269,-159 -269,-544 0,-306 202,-486 202,-179 548,-179 479,0 768,339 289,339 289,901 v 128 z m 1147,238 V 0 H 2766 V 531 Q 2569,213 2275,61 1981,-91 1556,-91 q -537,0 -855,302 -317,302 -317,808 0,590 395,890 396,300 1180,300 h 807 v 57 q 0,397 -261,614 -261,217 -733,217 -300,0 -585,-72 -284,-72 -546,-216 v 532 q 315,122 612,182 297,61 578,61 760,0 1135,-394 375,-393 375,-1193 z"
                   transform="scale(0.015625)" />
                <path
                   id="DejaVuSans-72"
                   d="m 2631,2963 q -97,56 -211,82 -114,27 -251,27 -488,0 -749,-317 -261,-317 -261,-911 V 0 H 581 v 3500 h 578 v -544 q 182,319 472,473 291,155 707,155 59,0 131,-8 72,-7 159,-23 z"
                   transform="scale(0.015625)" />
                <path
                   id="DejaVuSans-62"
                   d="m 3116,1747 q 0,634 -261,995 -261,361 -717,361 -457,0 -718,-361 -261,-361 -261,-995 0,-634 261,-995 261,-361 718,-361 456,0 717,361 261,361 261,995 z M 1159,2969 q 182,312 458,463 277,152 661,152 638,0 1036,-506 399,-506 399,-1331 Q 3713,922 3314,415 2916,-91 2278,-91 1894,-91 1617,61 1341,213 1159,525 V 0 H 581 v 4863 h 578 z"
                   transform="scale(0.015625)" />
                <path
                   id="DejaVuSans-2e"
                   d="m 684,794 h 660 V 0 H 684 Z"
                   transform="scale(0.015625)" />
                <path
                   id="DejaVuSans-75"
                   d="m 544,1381 v 2119 h 575 V 1403 q 0,-497 193,-746 194,-248 582,-248 465,0 735,297 271,297 271,810 v 1984 h 575 V 0 H 2900 V 538 Q 2691,219 2414,64 2138,-91 1772,-91 1169,-91 856,284 544,659 544,1381 Z m 1447,2203 z"
                   transform="scale(0.015625)" />
                <path
                   id="DejaVuSans-6e"
                   d="M 3513,2113 V 0 h -575 v 2094 q 0,497 -194,743 -194,247 -581,247 -466,0 -735,-297 -269,-296 -269,-809 V 0 H 581 v 3500 h 578 v -544 q 207,316 486,472 280,156 646,156 603,0 912,-373 310,-373 310,-1098 z"
                   transform="scale(0.015625)" />
                <path
                   id="DejaVuSans-69"
                   d="m 603,3500 h 575 V 0 H 603 Z m 0,1363 h 575 V 4134 H 603 Z"
                   transform="scale(0.015625)" />
                <path
                   id="DejaVuSans-74"
                   d="M 1172,4494 V 3500 H 2356 V 3053 H 1172 V 1153 q 0,-428 117,-550 117,-122 477,-122 h 590 V 0 H 1766 Q 1100,0 847,248 594,497 594,1153 V 3053 H 172 v 447 h 422 v 994 z"
                   transform="scale(0.015625)" />
                <path
                   id="DejaVuSans-73"
                   d="m 2834,3397 v -544 q -243,125 -506,187 -262,63 -544,63 -428,0 -642,-131 -214,-131 -214,-394 0,-200 153,-314 153,-114 616,-217 l 197,-44 q 612,-131 870,-370 258,-239 258,-667 0,-488 -386,-773 Q 2250,-91 1575,-91 1294,-91 989,-36 684,19 347,128 v 594 q 319,-166 628,-249 309,-82 613,-82 406,0 624,139 219,139 219,392 0,234 -158,359 -157,125 -692,241 l -200,47 q -534,112 -772,345 -237,233 -237,639 0,494 350,762 350,269 994,269 318,0 599,-47 282,-46 519,-140 z"
                   transform="scale(0.015625)" />
              </defs>
              <use
                 xlink:href="#DejaVuSans-50"
                 id="use226" />
              <use
                 xlink:href="#DejaVuSans-44"
                 x="60.302734"
                 id="use228" />
              <use
                 xlink:href="#DejaVuSans-4f"
                 x="137.30469"
                 id="use230" />
              <use
                 xlink:href="#DejaVuSans-53"
                 x="216.01562"
                 id="use232" />
              <use
                 xlink:href="#DejaVuSans-20"
                 x="279.49219"
                 id="use234" />
              <use
                 xlink:href="#DejaVuSans-28"
                 x="311.2793"
                 id="use236" />
              <use
                 xlink:href="#DejaVuSans-61"
                 x="350.29297"
                 id="use238" />
              <use
                 xlink:href="#DejaVuSans-72"
                 x="411.57227"
                 id="use240" />
              <use
                 xlink:href="#DejaVuSans-62"
                 x="452.68555"
                 id="use242" />
              <use
                 xlink:href="#DejaVuSans-2e"
                 x="516.16211"
                 id="use244" />
              <use
                 xlink:href="#DejaVuSans-20"
                 x="547.94922"
                 id="use246" />
              <use
                 xlink:href="#DejaVuSans-75"
                 x="579.73633"
                 id="use248" />
              <use
                 xlink:href="#DejaVuSans-6e"
                 x="643.11523"
                 id="use250" />
              <use
                 xlink:href="#DejaVuSans-69"
                 x="706.49414"
                 id="use252" />
              <use
                 xlink:href="#DejaVuSans-74"
                 x="734.27734"
                 id="use254" />
              <use
                 xlink:href="#DejaVuSans-73"
                 x="773.48633"
                 id="use256" />
              <use
                 xlink:href="#DejaVuSans-29"
                 x="825.58594"
                 id="use258" />
            </g>
          </g>
        </g>
        <g
           id="line2d_13">
          <path
             d="m 92.689773,274.47828 21.867637,-0.0741 0.50855,-0.22037 0.25428,-0.26229 0.25427,-0.45946 0.25427,-0.77444 0.25428,-1.25547 0.25427,-1.95644 0.50855,-7.13715 0.50855,-13.4499 0.50855,-21.26565 1.52565,-76.70567 0.25428,-4.83557 0.25427,-0.40922 0.25428,4.05958 0.50855,19.46734 1.52565,78.0943 0.50855,14.12297 0.50855,7.61016 0.50855,3.47507 0.50855,1.35396 0.50855,0.45213 0.76282,0.15154 3.0513,0.0187 203.67417,-0.0869 0.50854,-0.19841 0.50855,-0.52831 0.50855,-1.20174 0.50855,-2.32093 0.50855,-3.76815 1.52565,-14.62424 0.25428,-1.13299 0.25427,-0.32285 0.25428,0.52075 0.25427,1.31053 0.50855,4.40659 1.27138,12.34888 0.50855,2.85243 0.50855,1.5758 0.50855,0.73676 0.50855,0.29368 0.76282,0.11965 3.30557,0.0195 114.16942,-0.0717 0.50855,-0.18475 0.50855,-0.54049 0.25427,-0.5357 0.25428,-0.8187 0.50855,-2.89336 0.50855,-5.23081 0.50855,-7.90524 1.27137,-22.7037 0.25428,-2.37465 0.25427,-0.92914 0.25427,0.61239 0.25428,2.09047 0.50855,7.65371 1.27137,22.85883 0.50855,5.50661 0.50855,3.10086 0.50855,1.47627 0.50855,0.59879 0.50855,0.20796 1.0171,0.078 11.95092,0.004 64.58582,-0.0816 0.50855,-0.1768 0.50855,-0.45226 0.50854,-0.98705 0.50855,-1.8252 0.50855,-2.82713 1.27138,-8.60845 0.25427,-1.01647 0.25428,-0.49534 0.25427,0.0767 0.25428,0.64085 0.50855,2.66545 1.52565,9.86347 0.50855,1.69898 0.50855,0.89834 0.50855,0.40291 0.76282,0.18698 2.0342,0.0365 43.22673,7e-5 v 0"
             clip-path="url(#p04b4e47dfd)"
             style="fill:none;stroke:#243c6e;stroke-width:2.5;stroke-linecap:square"
             id="path264" />
        </g>
        <g
           id="line2d_14">
          <path
             d="m 92.689773,274.47828 23.139007,-0.0825 0.76283,-0.28282 0.50855,-0.4609 0.50855,-0.79695 0.76282,-1.80922 0.76283,-1.85476 0.50855,-0.6265 0.25427,-0.0188 0.25428,0.18697 0.50855,0.89662 1.52565,3.59683 0.50855,0.65047 0.50855,0.35051 0.76282,0.19909 1.52565,0.0511 59.50032,8.6e-4 94.84452,-0.0739 0.50855,-0.22891 0.25428,-0.27871 0.25427,-0.49662 0.25428,-0.85161 0.25427,-1.40481 0.25428,-2.22819 0.25427,-3.39607 0.50855,-11.94876 0.50855,-21.47599 0.50855,-32.2495 1.27138,-91.20741 0.25427,-9.213635 0.25427,-3.333248 0.25428,2.891928 0.25427,8.817725 0.50855,31.39855 1.27138,91.92418 0.50855,21.86023 0.50855,12.23784 0.50855,5.794 0.50855,2.33762 0.50855,0.80764 0.50855,0.23974 1.0171,0.0748 15.76504,0.003 24.15611,-0.0975 0.50855,-0.29792 0.25428,-0.35988 0.25427,-0.63752 0.25427,-1.08673 0.25428,-1.78194 0.25427,-2.80916 0.25428,-4.25509 0.50855,-14.82059 0.50855,-26.28546 0.50855,-38.89923 1.27137,-106.184815 0.25428,-9.845869 0.25427,-2.805602 0.25428,4.525346 0.25427,11.388714 0.50855,38.293936 1.27138,107.31374 0.50855,24.78802 0.50855,13.69394 0.50855,6.40256 0.50855,2.5521 0.50854,0.8714 0.50856,0.2557 1.01709,0.0787 15.2565,0.002 1.27137,-0.0718 0.50855,-0.23533 0.25428,-0.29307 0.25427,-0.53119 0.25427,-0.92671 0.25428,-1.55553 0.25427,-2.51113 0.25428,-3.89647 0.50855,-14.11583 0.50855,-26.36054 0.50855,-41.27039 1.52565,-144.814725 0.25427,-8.332692 0.25428,0.144888 0.25427,8.607432 0.50855,38.353418 1.52565,147.876669 0.50855,26.12225 0.50855,13.94838 0.50855,6.31444 0.50855,2.43976 0.50855,0.80807 0.50855,0.23013 1.0171,0.0684 18.56206,0.003 69.41704,-0.0694 0.50855,-0.16199 0.50855,-0.43881 0.50855,-1.01599 0.50855,-1.99894 0.50855,-3.31074 1.0171,-9.52902 0.50855,-4.03625 0.25428,-1.19423 0.25427,-0.46727 0.25427,0.30797 0.25428,1.05132 0.50855,3.84912 1.27137,11.49589 0.50855,2.76932 0.50855,1.55946 0.50855,0.74242 0.50855,0.30114 0.76283,0.12507 3.0513,0.0209 24.15611,-0.0778 0.50855,-0.21141 0.25427,-0.23973 0.25428,-0.40499 0.25427,-0.65804 0.25428,-1.0278 0.50855,-3.76367 0.50855,-7.12753 0.50855,-11.32941 1.52564,-41.4749 0.25428,-2.73643 0.25428,-0.36199 0.25427,2.04999 0.50855,10.27931 1.52565,42.16225 0.50855,7.72297 0.50855,4.18218 0.50855,1.91873 0.50855,0.75098 0.50855,0.25189 1.0171,0.0907 10.93382,0.005 27.46168,-0.0742 0.50855,-0.21597 0.25428,-0.25414 0.25427,-0.4414 0.25428,-0.7376 0.25427,-1.18529 0.25428,-1.83073 0.50854,-6.58236 0.50855,-12.17169 0.50855,-18.85334 1.27138,-57.40723 0.25427,-6.77854 0.25428,-3.30336 0.25427,0.51167 0.25428,4.27356 0.50855,17.77397 1.27137,57.54416 0.50855,14.3568 0.50855,7.58795 0.25428,1.55503 0.25427,0.16037 0.25428,-1.28026 0.25427,-2.88305 0.25428,-4.75088 0.50855,-16.39999 0.50855,-27.09195 1.52565,-105.62071 0.25427,-8.21146 0.25428,-2.363228 0.25427,3.729888 0.25427,9.4376 0.50855,31.79104 1.27138,89.2186 0.50855,20.62841 0.50855,11.40107 0.50855,5.33279 0.50855,2.12655 0.50855,0.72639 0.50855,0.21322 1.0171,0.0657 3.55984,-0.0412 0.50855,-0.14057 0.25428,-0.17442 0.25427,-0.31526 0.25428,-0.54843 0.25427,-0.91797 0.25428,-1.4776 0.25427,-2.28605 0.50855,-8.24214 0.50855,-15.2958 0.50855,-23.78526 1.52565,-81.87832 0.25428,-4.39671 0.25427,0.44321 0.25428,5.23713 0.50855,22.3121 1.52564,83.79518 0.50855,14.56684 0.50856,7.72986 0.50855,3.47863 0.50854,1.33638 0.50855,0.44015 0.76283,0.14531 3.30557,0.0176 h 18.05352 v 0"
             clip-path="url(#p04b4e47dfd)"
             style="fill:none;stroke:#7d7c78;stroke-width:2.5;stroke-linecap:square"
             id="path267" />
        </g>
        <g
           id="line2d_15">
          <path
             d="m 92.689773,274.47828 25.427487,-0.10565 2.0342,-0.11349 5.84832,0.21913 155.36194,-0.0787 0.76283,-0.25016 0.50855,-0.38648 0.50855,-0.63623 1.77992,-2.78184 0.25427,-0.0787 0.25428,0.0683 0.50855,0.53526 1.77992,2.87499 0.50855,0.39463 0.76283,0.25722 1.27137,0.078 15.00222,0.004 28.73306,-0.10488 1.0171,-0.26146 1.52565,-0.4654 0.76282,0.0526 3.0513,0.75392 3.30557,0.0252 116.45789,-0.0697 0.76283,-0.25633 0.50855,-0.43853 0.50855,-0.7928 0.50855,-1.19814 1.27137,-3.44104 0.25428,-0.35991 0.25427,-0.14083 0.25427,0.0928 0.25428,0.31684 0.50855,1.16002 1.27137,3.46455 0.50855,0.8346 0.50855,0.46998 0.76283,0.28013 1.27137,0.0753 17.79924,0.003 9.66245,-0.0892 0.50855,-0.19877 0.50855,-0.51976 0.50855,-1.16037 0.50855,-2.19747 0.50855,-3.49295 1.52564,-12.78706 0.25428,-0.84366 0.25428,-0.11161 0.25427,0.63203 0.50855,3.1692 1.52565,12.99897 0.50855,2.38105 0.50855,1.28941 0.50855,0.59156 0.50855,0.23153 1.0171,0.10005 7.88252,0.007 32.03863,-0.0847 0.50855,-0.16533 0.50855,-0.39091 0.50855,-0.78615 0.50855,-1.33293 0.76283,-2.9406 0.76282,-2.87606 0.25427,-0.58281 0.25428,-0.28402 0.25427,0.044 0.25428,0.36744 0.50855,1.52827 1.52565,5.65331 0.50855,0.96829 0.50855,0.49691 0.50855,0.18262 0.50855,-0.0217 0.50855,-0.18375 0.76282,-0.55679 1.27138,-1.1213 0.50855,-0.13443 0.50854,0.16741 0.76283,0.65137 1.0171,0.88704 0.76282,0.34701 1.0171,0.14483 3.30558,0.023 3.30557,-0.0813 0.50855,-0.19578 0.50855,-0.54301 0.50855,-1.28822 0.50855,-2.59978 0.50855,-4.42447 0.76282,-9.81433 0.76283,-9.68648 0.25427,-1.99124 0.25428,-0.99662 0.25427,0.10047 0.25428,1.18711 0.50855,5.05752 1.52564,18.99401 0.50855,3.30189 0.50856,1.75214 0.50855,0.78851 0.50854,0.30292 0.76283,0.11849 3.30557,0.0182 h 18.56207 v 0"
             clip-path="url(#p04b4e47dfd)"
             style="fill:none;stroke:#d6c35d;stroke-width:2.5;stroke-linecap:square"
             id="path270" />
        </g>
        <g
           id="line2d_16">
          <path
             d="M 365.14102,286.7241 V 17.316"
             clip-path="url(#p04b4e47dfd)"
             style="fill:none;stroke:#000000;stroke-width:1.2;stroke-dasharray:4.44, 1.92;stroke-dashoffset:0"
             id="path273" />
        </g>
        <g
           id="patch_3">
          <path
             d="M 67.275,286.7241 V 17.316"
             style="fill:none;stroke:#000000;stroke-width:1.2;stroke-linecap:square;stroke-linejoin:miter"
             id="path276" />
        </g>
        <g
           id="patch_4">
          <path
             d="M 67.275,286.7241 H 626.4"
             style="fill:none;stroke:#000000;stroke-width:1.2;stroke-linecap:square;stroke-linejoin:miter"
             id="path279" />
        </g>
        <g
           id="line2d_17"
           transform="translate(11.007873,-4.5117561)">
          <path
             d="m 83.475,40.893188 h 18 18"
             style="fill:none;stroke:#243c6e;stroke-width:2.5;stroke-linecap:square"
             id="path282" />
        </g>
        <g
           id="text_15"
           transform="translate(3.5078734,-4.5117561)">
          <!--  s -->
          <g
             transform="matrix(0.18,0,0,-0.18,133.875,47.193188)"
             id="g289">
            <use
               xlink:href="#DejaVuSans-20"
               id="use285" />
            <use
               xlink:href="#DejaVuSans-73"
               x="31.787109"
               id="use287" />
          </g>
        </g>
        <g
           id="line2d_18"
           transform="translate(11.007873,-4.5117561)">
          <path
             d="m 83.475,67.313812 h 18 18"
             style="fill:none;stroke:#7d7c78;stroke-width:2.5;stroke-linecap:square"
             id="path292" />
        </g>
        <g
           id="text_16"
           transform="translate(3.5078734,-4.5117561)">
          <!--  p -->
          <g
             transform="matrix(0.18,0,0,-0.18,133.875,73.613812)"
             id="g302">
            <defs
               id="defs296">
              <path
                 id="DejaVuSans-70"
                 d="M 1159,525 V -1331 H 581 v 4831 h 578 v -531 q 182,312 458,463 277,152 661,152 638,0 1036,-506 399,-506 399,-1331 0,-825 -399,-1332 -398,-506 -1036,-506 -384,0 -661,152 -276,152 -458,464 z m 1957,1222 q 0,634 -261,995 -261,361 -717,361 -457,0 -718,-361 -261,-361 -261,-995 0,-634 261,-995 261,-361 718,-361 456,0 717,361 261,361 261,995 z"
                 transform="scale(0.015625)" />
            </defs>
            <use
               xlink:href="#DejaVuSans-20"
               id="use298" />
            <use
               xlink:href="#DejaVuSans-70"
               x="31.787109"
               id="use300" />
          </g>
        </g>
        <g
           id="line2d_19"
           transform="translate(11.007873,-4.5117561)">
          <path
             d="m 83.475,93.734438 h 18 18"
             style="fill:none;stroke:#d6c35d;stroke-width:2.5;stroke-linecap:square"
             id="path305" />
        </g>
        <g
           id="text_17"
           transform="translate(3.5078734,-4.5117561)">
          <!--  d -->
          <g
             transform="matrix(0.18,0,0,-0.18,133.875,100.03444)"
             id="g315">
            <defs
               id="defs309">
              <path
                 id="DejaVuSans-64"
                 d="m 2906,2969 v 1894 h 575 V 0 H 2906 V 525 Q 2725,213 2448,61 2172,-91 1784,-91 1150,-91 751,415 353,922 353,1747 q 0,825 398,1331 399,506 1033,506 388,0 664,-152 277,-151 458,-463 z M 947,1747 q 0,-634 261,-995 261,-361 717,-361 456,0 718,361 263,361 263,995 0,634 -263,995 -262,361 -718,361 -456,0 -717,-361 -261,-361 -261,-995 z"
                 transform="scale(0.015625)" />
            </defs>
            <use
               xlink:href="#DejaVuSans-20"
               id="use311" />
            <use
               xlink:href="#DejaVuSans-64"
               x="31.787109"
               id="use313" />
          </g>
        </g>
        <text
           xml:space="preserve"
           transform="matrix(0.43104577,0,0,0.43104577,49.538675,163.06512)"
           id="text862"
           style="font-size:40px;line-height:1.25;font-family:'CMU Serif';-inkscape-font-specification:'CMU Serif, Normal';letter-spacing:0px;word-spacing:0px;white-space:pre;shape-inside:url(#rect864);stroke-linecap:butt;stroke-linejoin:round"><tspan
             x="135.30078"
             y="-59.484375"
             id="tspan1025"><tspan
               style="font-family:sans-serif;-inkscape-font-specification:'sans-serif, Normal'"
               id="tspan1021">2a</tspan><tspan
               style="font-size:65%;baseline-shift:sub"
               id="tspan1023">1</tspan></tspan></text>
        <text
           xml:space="preserve"
           transform="matrix(0.43104577,0,0,0.43104577,215.83139,113.09388)"
           id="text924"
           style="font-size:40px;line-height:1.25;font-family:'CMU Serif';-inkscape-font-specification:'CMU Serif, Normal';letter-spacing:0px;word-spacing:0px;white-space:pre;shape-inside:url(#rect926);stroke-linecap:butt;stroke-linejoin:round"><tspan
             x="135.30078"
             y="-59.484375"
             id="tspan1031"><tspan
               style="font-family:sans-serif;-inkscape-font-specification:'sans-serif, Normal'"
               id="tspan1027">1b</tspan><tspan
               style="font-size:65%;baseline-shift:sub"
               id="tspan1029">2</tspan></tspan></text>
        <text
           xml:space="preserve"
           transform="matrix(0.43104577,0,0,0.43104577,266.62427,81.014576)"
           id="text932"
           style="font-size:40px;line-height:1.25;font-family:'CMU Serif';-inkscape-font-specification:'CMU Serif, Normal';letter-spacing:0px;word-spacing:0px;white-space:pre;shape-inside:url(#rect934);stroke-linecap:butt;stroke-linejoin:round"><tspan
             x="135.30078"
             y="-59.484375"
             id="tspan1037"><tspan
               style="font-family:sans-serif;-inkscape-font-specification:'sans-serif, Normal'"
               id="tspan1033">3a</tspan><tspan
               style="font-size:65%;baseline-shift:sub"
               id="tspan1035">1</tspan></tspan></text>
        <text
           xml:space="preserve"
           transform="matrix(0.43104577,0,0,0.43104577,294.65993,35.29213)"
           id="text940"
           style="font-size:40px;line-height:1.25;font-family:'CMU Serif';-inkscape-font-specification:'CMU Serif, Normal';letter-spacing:0px;word-spacing:0px;white-space:pre;shape-inside:url(#rect942);stroke-linecap:butt;stroke-linejoin:round"><tspan
             x="135.30078"
             y="-59.484375"
             id="tspan1043"><tspan
               style="font-family:sans-serif;-inkscape-font-specification:'sans-serif, Normal'"
               id="tspan1039">1b</tspan><tspan
               style="font-size:65%;baseline-shift:sub"
               id="tspan1041">1</tspan></tspan></text>
        <text
           xml:space="preserve"
           transform="matrix(0.43104577,0,0,0.43104577,395.42332,247.25346)"
           id="text948"
           style="font-size:40px;line-height:1.25;font-family:'CMU Serif';-inkscape-font-specification:'CMU Serif, Normal';letter-spacing:0px;word-spacing:0px;white-space:pre;shape-inside:url(#rect950);stroke-linecap:butt;stroke-linejoin:round"><tspan
             x="135.30078"
             y="-59.484375"
             id="tspan1049"><tspan
               style="font-family:sans-serif;-inkscape-font-specification:'sans-serif, Normal'"
               id="tspan1045">4a</tspan><tspan
               style="font-size:65%;baseline-shift:sub"
               id="tspan1047">1</tspan></tspan></text>
        <text
           xml:space="preserve"
           transform="matrix(0.43104577,0,0,0.43104577,432.4674,223.01248)"
           id="text956"
           style="font-size:40px;line-height:1.25;font-family:'CMU Serif';-inkscape-font-specification:'CMU Serif, Normal';letter-spacing:0px;word-spacing:0px;white-space:pre;shape-inside:url(#rect958);stroke-linecap:butt;stroke-linejoin:round"><tspan
             x="135.30078"
             y="-59.484375"
             id="tspan1055"><tspan
               style="font-family:sans-serif;-inkscape-font-specification:'sans-serif, Normal'"
               id="tspan1051">2b</tspan><tspan
               style="font-size:65%;baseline-shift:sub"
               id="tspan1053">2</tspan></tspan></text>
        <text
           xml:space="preserve"
           transform="matrix(0.43104577,0,0,0.43104577,367.45008,96.003099)"
           id="text964"
           style="font-size:40px;line-height:1.05;font-family:'CMU Serif';-inkscape-font-specification:'CMU Serif, Normal';letter-spacing:0px;word-spacing:0px;white-space:pre;shape-inside:url(#rect966);stroke-linecap:butt;stroke-linejoin:round"
           x="68.632812"
           y="0"><tspan
             x="380.15918"
             y="-63.484376"
             id="tspan1059"><tspan
               style="font-family:sans-serif;-inkscape-font-specification:'sans-serif, Normal';text-align:center;text-anchor:middle"
               id="tspan1057">Artificial
</tspan></tspan><tspan
             x="407.95215"
             y="-20.522367"
             id="tspan1063"><tspan
               style="font-family:sans-serif;-inkscape-font-specification:'sans-serif, Normal';text-align:center;text-anchor:middle"
               id="tspan1061">MOs</tspan></tspan></text>
      </g>
    </g>
  </g>
</svg>
