<?xml version="1.0" encoding="UTF-8" standalone="no"?>
<!-- Created with Inkscape (http://www.inkscape.org/) -->

<svg
   width="210mm"
   height="297mm"
   viewBox="0 0 210 297"
   version="1.1"
   id="svg5"
   xml:space="preserve"
   inkscape:version="1.2.2 (b0a8486541, 2022-12-01)"
   sodipodi:docname="02_PDOS_O_H_spd.svg"
   xmlns:inkscape="http://www.inkscape.org/namespaces/inkscape"
   xmlns:sodipodi="http://sodipodi.sourceforge.net/DTD/sodipodi-0.dtd"
   xmlns:xlink="http://www.w3.org/1999/xlink"
   xmlns="http://www.w3.org/2000/svg"
   xmlns:svg="http://www.w3.org/2000/svg"><sodipodi:namedview
     id="namedview7"
     pagecolor="#ffffff"
     bordercolor="#666666"
     borderopacity="1.0"
     inkscape:showpageshadow="2"
     inkscape:pageopacity="0.0"
     inkscape:pagecheckerboard="0"
     inkscape:deskcolor="#d1d1d1"
     inkscape:document-units="mm"
     showgrid="false"
     inkscape:zoom="0.14866305"
     inkscape:cx="-1631.2056"
     inkscape:cy="114.35256"
     inkscape:window-width="1920"
     inkscape:window-height="1002"
     inkscape:window-x="1920"
     inkscape:window-y="0"
     inkscape:window-maximized="1"
     inkscape:current-layer="layer1" /><defs
     id="defs2"><style
       type="text/css"
       id="style134">*{stroke-linejoin: round; stroke-linecap: butt}</style><path
       id="ma62cdb22c3"
       d="M 0 0  L 0 6  "
       style="stroke: #000000; stroke-width: 1.2" /><path
       id="DejaVuSans-2212"
       d="M 678 2272  L 4684 2272  L 4684 1741  L 678 1741  L 678 2272  z "
       transform="scale(0.015625)" /><path
       id="DejaVuSans-32"
       d="M 1228 531  L 3431 531  L 3431 0  L 469 0  L 469 531  Q 828 903 1448 1529  Q 2069 2156 2228 2338  Q 2531 2678 2651 2914  Q 2772 3150 2772 3378  Q 2772 3750 2511 3984  Q 2250 4219 1831 4219  Q 1534 4219 1204 4116  Q 875 4013 500 3803  L 500 4441  Q 881 4594 1212 4672  Q 1544 4750 1819 4750  Q 2544 4750 2975 4387  Q 3406 4025 3406 3419  Q 3406 3131 3298 2873  Q 3191 2616 2906 2266  Q 2828 2175 2409 1742  Q 1991 1309 1228 531  z "
       transform="scale(0.015625)" /><path
       id="DejaVuSans-30"
       d="M 2034 4250  Q 1547 4250 1301 3770  Q 1056 3291 1056 2328  Q 1056 1369 1301 889  Q 1547 409 2034 409  Q 2525 409 2770 889  Q 3016 1369 3016 2328  Q 3016 3291 2770 3770  Q 2525 4250 2034 4250  z M 2034 4750  Q 2819 4750 3233 4129  Q 3647 3509 3647 2328  Q 3647 1150 3233 529  Q 2819 -91 2034 -91  Q 1250 -91 836 529  Q 422 1150 422 2328  Q 422 3509 836 4129  Q 1250 4750 2034 4750  z "
       transform="scale(0.015625)" /><path
       id="DejaVuSans-31"
       d="M 794 531  L 1825 531  L 1825 4091  L 703 3866  L 703 4441  L 1819 4666  L 2450 4666  L 2450 531  L 3481 531  L 3481 0  L 794 0  L 794 531  z "
       transform="scale(0.015625)" /><path
       id="DejaVuSans-45"
       d="M 628 4666  L 3578 4666  L 3578 4134  L 1259 4134  L 1259 2753  L 3481 2753  L 3481 2222  L 1259 2222  L 1259 531  L 3634 531  L 3634 0  L 628 0  L 628 4666  z "
       transform="scale(0.015625)" /><path
       id="DejaVuSans-46"
       d="M 628 4666  L 3309 4666  L 3309 4134  L 1259 4134  L 1259 2759  L 3109 2759  L 3109 2228  L 1259 2228  L 1259 0  L 628 0  L 628 4666  z "
       transform="scale(0.015625)" /><path
       id="DejaVuSans-28"
       d="M 1984 4856  Q 1566 4138 1362 3434  Q 1159 2731 1159 2009  Q 1159 1288 1364 580  Q 1569 -128 1984 -844  L 1484 -844  Q 1016 -109 783 600  Q 550 1309 550 2009  Q 550 2706 781 3412  Q 1013 4119 1484 4856  L 1984 4856  z "
       transform="scale(0.015625)" /><path
       id="DejaVuSans-65"
       d="M 3597 1894  L 3597 1613  L 953 1613  Q 991 1019 1311 708  Q 1631 397 2203 397  Q 2534 397 2845 478  Q 3156 559 3463 722  L 3463 178  Q 3153 47 2828 -22  Q 2503 -91 2169 -91  Q 1331 -91 842 396  Q 353 884 353 1716  Q 353 2575 817 3079  Q 1281 3584 2069 3584  Q 2775 3584 3186 3129  Q 3597 2675 3597 1894  z M 3022 2063  Q 3016 2534 2758 2815  Q 2500 3097 2075 3097  Q 1594 3097 1305 2825  Q 1016 2553 972 2059  L 3022 2063  z "
       transform="scale(0.015625)" /><path
       id="DejaVuSans-56"
       d="M 1831 0  L 50 4666  L 709 4666  L 2188 738  L 3669 4666  L 4325 4666  L 2547 0  L 1831 0  z "
       transform="scale(0.015625)" /><path
       id="DejaVuSans-29"
       d="M 513 4856  L 1013 4856  Q 1481 4119 1714 3412  Q 1947 2706 1947 2009  Q 1947 1309 1714 600  Q 1481 -109 1013 -844  L 513 -844  Q 928 -128 1133 580  Q 1338 1288 1338 2009  Q 1338 2731 1133 3434  Q 928 4138 513 4856  z "
       transform="scale(0.015625)" /><path
       id="m73fc911fe3"
       d="M 0 0  L -6 0  "
       style="stroke: #000000; stroke-width: 1.2" /><path
       id="DejaVuSans-33"
       d="M 2597 2516  Q 3050 2419 3304 2112  Q 3559 1806 3559 1356  Q 3559 666 3084 287  Q 2609 -91 1734 -91  Q 1441 -91 1130 -33  Q 819 25 488 141  L 488 750  Q 750 597 1062 519  Q 1375 441 1716 441  Q 2309 441 2620 675  Q 2931 909 2931 1356  Q 2931 1769 2642 2001  Q 2353 2234 1838 2234  L 1294 2234  L 1294 2753  L 1863 2753  Q 2328 2753 2575 2939  Q 2822 3125 2822 3475  Q 2822 3834 2567 4026  Q 2313 4219 1838 4219  Q 1578 4219 1281 4162  Q 984 4106 628 3988  L 628 4550  Q 988 4650 1302 4700  Q 1616 4750 1894 4750  Q 2613 4750 3031 4423  Q 3450 4097 3450 3541  Q 3450 3153 3228 2886  Q 3006 2619 2597 2516  z "
       transform="scale(0.015625)" /><path
       id="DejaVuSans-50"
       d="M 1259 4147  L 1259 2394  L 2053 2394  Q 2494 2394 2734 2622  Q 2975 2850 2975 3272  Q 2975 3691 2734 3919  Q 2494 4147 2053 4147  L 1259 4147  z M 628 4666  L 2053 4666  Q 2838 4666 3239 4311  Q 3641 3956 3641 3272  Q 3641 2581 3239 2228  Q 2838 1875 2053 1875  L 1259 1875  L 1259 0  L 628 0  L 628 4666  z "
       transform="scale(0.015625)" /><path
       id="DejaVuSans-44"
       d="M 1259 4147  L 1259 519  L 2022 519  Q 2988 519 3436 956  Q 3884 1394 3884 2338  Q 3884 3275 3436 3711  Q 2988 4147 2022 4147  L 1259 4147  z M 628 4666  L 1925 4666  Q 3281 4666 3915 4102  Q 4550 3538 4550 2338  Q 4550 1131 3912 565  Q 3275 0 1925 0  L 628 0  L 628 4666  z "
       transform="scale(0.015625)" /><path
       id="DejaVuSans-4f"
       d="M 2522 4238  Q 1834 4238 1429 3725  Q 1025 3213 1025 2328  Q 1025 1447 1429 934  Q 1834 422 2522 422  Q 3209 422 3611 934  Q 4013 1447 4013 2328  Q 4013 3213 3611 3725  Q 3209 4238 2522 4238  z M 2522 4750  Q 3503 4750 4090 4092  Q 4678 3434 4678 2328  Q 4678 1225 4090 567  Q 3503 -91 2522 -91  Q 1538 -91 948 565  Q 359 1222 359 2328  Q 359 3434 948 4092  Q 1538 4750 2522 4750  z "
       transform="scale(0.015625)" /><path
       id="DejaVuSans-53"
       d="M 3425 4513  L 3425 3897  Q 3066 4069 2747 4153  Q 2428 4238 2131 4238  Q 1616 4238 1336 4038  Q 1056 3838 1056 3469  Q 1056 3159 1242 3001  Q 1428 2844 1947 2747  L 2328 2669  Q 3034 2534 3370 2195  Q 3706 1856 3706 1288  Q 3706 609 3251 259  Q 2797 -91 1919 -91  Q 1588 -91 1214 -16  Q 841 59 441 206  L 441 856  Q 825 641 1194 531  Q 1563 422 1919 422  Q 2459 422 2753 634  Q 3047 847 3047 1241  Q 3047 1584 2836 1778  Q 2625 1972 2144 2069  L 1759 2144  Q 1053 2284 737 2584  Q 422 2884 422 3419  Q 422 4038 858 4394  Q 1294 4750 2059 4750  Q 2388 4750 2728 4690  Q 3069 4631 3425 4513  z "
       transform="scale(0.015625)" /><path
       id="DejaVuSans-20"
       transform="scale(0.015625)" /><path
       id="DejaVuSans-61"
       d="M 2194 1759  Q 1497 1759 1228 1600  Q 959 1441 959 1056  Q 959 750 1161 570  Q 1363 391 1709 391  Q 2188 391 2477 730  Q 2766 1069 2766 1631  L 2766 1759  L 2194 1759  z M 3341 1997  L 3341 0  L 2766 0  L 2766 531  Q 2569 213 2275 61  Q 1981 -91 1556 -91  Q 1019 -91 701 211  Q 384 513 384 1019  Q 384 1609 779 1909  Q 1175 2209 1959 2209  L 2766 2209  L 2766 2266  Q 2766 2663 2505 2880  Q 2244 3097 1772 3097  Q 1472 3097 1187 3025  Q 903 2953 641 2809  L 641 3341  Q 956 3463 1253 3523  Q 1550 3584 1831 3584  Q 2591 3584 2966 3190  Q 3341 2797 3341 1997  z "
       transform="scale(0.015625)" /><path
       id="DejaVuSans-72"
       d="M 2631 2963  Q 2534 3019 2420 3045  Q 2306 3072 2169 3072  Q 1681 3072 1420 2755  Q 1159 2438 1159 1844  L 1159 0  L 581 0  L 581 3500  L 1159 3500  L 1159 2956  Q 1341 3275 1631 3429  Q 1922 3584 2338 3584  Q 2397 3584 2469 3576  Q 2541 3569 2628 3553  L 2631 2963  z "
       transform="scale(0.015625)" /><path
       id="DejaVuSans-62"
       d="M 3116 1747  Q 3116 2381 2855 2742  Q 2594 3103 2138 3103  Q 1681 3103 1420 2742  Q 1159 2381 1159 1747  Q 1159 1113 1420 752  Q 1681 391 2138 391  Q 2594 391 2855 752  Q 3116 1113 3116 1747  z M 1159 2969  Q 1341 3281 1617 3432  Q 1894 3584 2278 3584  Q 2916 3584 3314 3078  Q 3713 2572 3713 1747  Q 3713 922 3314 415  Q 2916 -91 2278 -91  Q 1894 -91 1617 61  Q 1341 213 1159 525  L 1159 0  L 581 0  L 581 4863  L 1159 4863  L 1159 2969  z "
       transform="scale(0.015625)" /><path
       id="DejaVuSans-2e"
       d="M 684 794  L 1344 794  L 1344 0  L 684 0  L 684 794  z "
       transform="scale(0.015625)" /><path
       id="DejaVuSans-75"
       d="M 544 1381  L 544 3500  L 1119 3500  L 1119 1403  Q 1119 906 1312 657  Q 1506 409 1894 409  Q 2359 409 2629 706  Q 2900 1003 2900 1516  L 2900 3500  L 3475 3500  L 3475 0  L 2900 0  L 2900 538  Q 2691 219 2414 64  Q 2138 -91 1772 -91  Q 1169 -91 856 284  Q 544 659 544 1381  z M 1991 3584  L 1991 3584  z "
       transform="scale(0.015625)" /><path
       id="DejaVuSans-6e"
       d="M 3513 2113  L 3513 0  L 2938 0  L 2938 2094  Q 2938 2591 2744 2837  Q 2550 3084 2163 3084  Q 1697 3084 1428 2787  Q 1159 2491 1159 1978  L 1159 0  L 581 0  L 581 3500  L 1159 3500  L 1159 2956  Q 1366 3272 1645 3428  Q 1925 3584 2291 3584  Q 2894 3584 3203 3211  Q 3513 2838 3513 2113  z "
       transform="scale(0.015625)" /><path
       id="DejaVuSans-69"
       d="M 603 3500  L 1178 3500  L 1178 0  L 603 0  L 603 3500  z M 603 4863  L 1178 4863  L 1178 4134  L 603 4134  L 603 4863  z "
       transform="scale(0.015625)" /><path
       id="DejaVuSans-74"
       d="M 1172 4494  L 1172 3500  L 2356 3500  L 2356 3053  L 1172 3053  L 1172 1153  Q 1172 725 1289 603  Q 1406 481 1766 481  L 2356 481  L 2356 0  L 1766 0  Q 1100 0 847 248  Q 594 497 594 1153  L 594 3053  L 172 3053  L 172 3500  L 594 3500  L 594 4494  L 1172 4494  z "
       transform="scale(0.015625)" /><path
       id="DejaVuSans-73"
       d="M 2834 3397  L 2834 2853  Q 2591 2978 2328 3040  Q 2066 3103 1784 3103  Q 1356 3103 1142 2972  Q 928 2841 928 2578  Q 928 2378 1081 2264  Q 1234 2150 1697 2047  L 1894 2003  Q 2506 1872 2764 1633  Q 3022 1394 3022 966  Q 3022 478 2636 193  Q 2250 -91 1575 -91  Q 1294 -91 989 -36  Q 684 19 347 128  L 347 722  Q 666 556 975 473  Q 1284 391 1588 391  Q 1994 391 2212 530  Q 2431 669 2431 922  Q 2431 1156 2273 1281  Q 2116 1406 1581 1522  L 1381 1569  Q 847 1681 609 1914  Q 372 2147 372 2553  Q 372 3047 722 3315  Q 1072 3584 1716 3584  Q 2034 3584 2315 3537  Q 2597 3491 2834 3397  z "
       transform="scale(0.015625)" /><path
       id="DejaVuSans-70"
       d="M 1159 525  L 1159 -1331  L 581 -1331  L 581 3500  L 1159 3500  L 1159 2969  Q 1341 3281 1617 3432  Q 1894 3584 2278 3584  Q 2916 3584 3314 3078  Q 3713 2572 3713 1747  Q 3713 922 3314 415  Q 2916 -91 2278 -91  Q 1894 -91 1617 61  Q 1341 213 1159 525  z M 3116 1747  Q 3116 2381 2855 2742  Q 2594 3103 2138 3103  Q 1681 3103 1420 2742  Q 1159 2381 1159 1747  Q 1159 1113 1420 752  Q 1681 391 2138 391  Q 2594 391 2855 752  Q 3116 1113 3116 1747  z "
       transform="scale(0.015625)" /><path
       id="DejaVuSans-64"
       d="M 2906 2969  L 2906 4863  L 3481 4863  L 3481 0  L 2906 0  L 2906 525  Q 2725 213 2448 61  Q 2172 -91 1784 -91  Q 1150 -91 751 415  Q 353 922 353 1747  Q 353 2572 751 3078  Q 1150 3584 1784 3584  Q 2172 3584 2448 3432  Q 2725 3281 2906 2969  z M 947 1747  Q 947 1113 1208 752  Q 1469 391 1925 391  Q 2381 391 2643 752  Q 2906 1113 2906 1747  Q 2906 2381 2643 2742  Q 2381 3103 1925 3103  Q 1469 3103 1208 2742  Q 947 2381 947 1747  z "
       transform="scale(0.015625)" /><clipPath
       id="p9f455bdc63"><rect
         x="67.275"
         y="17.316"
         width="415.125"
         height="269.4081"
         id="rect398" /></clipPath><style
       type="text/css"
       id="style795">*{stroke-linejoin: round; stroke-linecap: butt}</style><path
       id="m1cc72958b1"
       d="M 0 0  L 0 6  "
       style="stroke: #000000; stroke-width: 1.2" /><path
       id="DejaVuSans-2212-9"
       d="M 678 2272  L 4684 2272  L 4684 1741  L 678 1741  L 678 2272  z "
       transform="scale(0.015625)" /><path
       id="DejaVuSans-32-1"
       d="M 1228 531  L 3431 531  L 3431 0  L 469 0  L 469 531  Q 828 903 1448 1529  Q 2069 2156 2228 2338  Q 2531 2678 2651 2914  Q 2772 3150 2772 3378  Q 2772 3750 2511 3984  Q 2250 4219 1831 4219  Q 1534 4219 1204 4116  Q 875 4013 500 3803  L 500 4441  Q 881 4594 1212 4672  Q 1544 4750 1819 4750  Q 2544 4750 2975 4387  Q 3406 4025 3406 3419  Q 3406 3131 3298 2873  Q 3191 2616 2906 2266  Q 2828 2175 2409 1742  Q 1991 1309 1228 531  z "
       transform="scale(0.015625)" /><path
       id="DejaVuSans-30-2"
       d="M 2034 4250  Q 1547 4250 1301 3770  Q 1056 3291 1056 2328  Q 1056 1369 1301 889  Q 1547 409 2034 409  Q 2525 409 2770 889  Q 3016 1369 3016 2328  Q 3016 3291 2770 3770  Q 2525 4250 2034 4250  z M 2034 4750  Q 2819 4750 3233 4129  Q 3647 3509 3647 2328  Q 3647 1150 3233 529  Q 2819 -91 2034 -91  Q 1250 -91 836 529  Q 422 1150 422 2328  Q 422 3509 836 4129  Q 1250 4750 2034 4750  z "
       transform="scale(0.015625)" /><path
       id="DejaVuSans-31-3"
       d="M 794 531  L 1825 531  L 1825 4091  L 703 3866  L 703 4441  L 1819 4666  L 2450 4666  L 2450 531  L 3481 531  L 3481 0  L 794 0  L 794 531  z "
       transform="scale(0.015625)" /><path
       id="DejaVuSans-45-7"
       d="M 628 4666  L 3578 4666  L 3578 4134  L 1259 4134  L 1259 2753  L 3481 2753  L 3481 2222  L 1259 2222  L 1259 531  L 3634 531  L 3634 0  L 628 0  L 628 4666  z "
       transform="scale(0.015625)" /><path
       id="DejaVuSans-46-9"
       d="M 628 4666  L 3309 4666  L 3309 4134  L 1259 4134  L 1259 2759  L 3109 2759  L 3109 2228  L 1259 2228  L 1259 0  L 628 0  L 628 4666  z "
       transform="scale(0.015625)" /><path
       id="DejaVuSans-28-2"
       d="M 1984 4856  Q 1566 4138 1362 3434  Q 1159 2731 1159 2009  Q 1159 1288 1364 580  Q 1569 -128 1984 -844  L 1484 -844  Q 1016 -109 783 600  Q 550 1309 550 2009  Q 550 2706 781 3412  Q 1013 4119 1484 4856  L 1984 4856  z "
       transform="scale(0.015625)" /><path
       id="DejaVuSans-65-0"
       d="M 3597 1894  L 3597 1613  L 953 1613  Q 991 1019 1311 708  Q 1631 397 2203 397  Q 2534 397 2845 478  Q 3156 559 3463 722  L 3463 178  Q 3153 47 2828 -22  Q 2503 -91 2169 -91  Q 1331 -91 842 396  Q 353 884 353 1716  Q 353 2575 817 3079  Q 1281 3584 2069 3584  Q 2775 3584 3186 3129  Q 3597 2675 3597 1894  z M 3022 2063  Q 3016 2534 2758 2815  Q 2500 3097 2075 3097  Q 1594 3097 1305 2825  Q 1016 2553 972 2059  L 3022 2063  z "
       transform="scale(0.015625)" /><path
       id="DejaVuSans-56-2"
       d="M 1831 0  L 50 4666  L 709 4666  L 2188 738  L 3669 4666  L 4325 4666  L 2547 0  L 1831 0  z "
       transform="scale(0.015625)" /><path
       id="DejaVuSans-29-3"
       d="M 513 4856  L 1013 4856  Q 1481 4119 1714 3412  Q 1947 2706 1947 2009  Q 1947 1309 1714 600  Q 1481 -109 1013 -844  L 513 -844  Q 928 -128 1133 580  Q 1338 1288 1338 2009  Q 1338 2731 1133 3434  Q 928 4138 513 4856  z "
       transform="scale(0.015625)" /><path
       id="mf1f5d8a465"
       d="M 0 0  L -6 0  "
       style="stroke: #000000; stroke-width: 1.2" /><path
       id="DejaVuSans-2e-2"
       d="M 684 794  L 1344 794  L 1344 0  L 684 0  L 684 794  z "
       transform="scale(0.015625)" /><path
       id="DejaVuSans-38"
       d="M 2034 2216  Q 1584 2216 1326 1975  Q 1069 1734 1069 1313  Q 1069 891 1326 650  Q 1584 409 2034 409  Q 2484 409 2743 651  Q 3003 894 3003 1313  Q 3003 1734 2745 1975  Q 2488 2216 2034 2216  z M 1403 2484  Q 997 2584 770 2862  Q 544 3141 544 3541  Q 544 4100 942 4425  Q 1341 4750 2034 4750  Q 2731 4750 3128 4425  Q 3525 4100 3525 3541  Q 3525 3141 3298 2862  Q 3072 2584 2669 2484  Q 3125 2378 3379 2068  Q 3634 1759 3634 1313  Q 3634 634 3220 271  Q 2806 -91 2034 -91  Q 1263 -91 848 271  Q 434 634 434 1313  Q 434 1759 690 2068  Q 947 2378 1403 2484  z M 1172 3481  Q 1172 3119 1398 2916  Q 1625 2713 2034 2713  Q 2441 2713 2670 2916  Q 2900 3119 2900 3481  Q 2900 3844 2670 4047  Q 2441 4250 2034 4250  Q 1625 4250 1398 4047  Q 1172 3844 1172 3481  z "
       transform="scale(0.015625)" /><path
       id="DejaVuSans-36"
       d="M 2113 2584  Q 1688 2584 1439 2293  Q 1191 2003 1191 1497  Q 1191 994 1439 701  Q 1688 409 2113 409  Q 2538 409 2786 701  Q 3034 994 3034 1497  Q 3034 2003 2786 2293  Q 2538 2584 2113 2584  z M 3366 4563  L 3366 3988  Q 3128 4100 2886 4159  Q 2644 4219 2406 4219  Q 1781 4219 1451 3797  Q 1122 3375 1075 2522  Q 1259 2794 1537 2939  Q 1816 3084 2150 3084  Q 2853 3084 3261 2657  Q 3669 2231 3669 1497  Q 3669 778 3244 343  Q 2819 -91 2113 -91  Q 1303 -91 875 529  Q 447 1150 447 2328  Q 447 3434 972 4092  Q 1497 4750 2381 4750  Q 2619 4750 2861 4703  Q 3103 4656 3366 4563  z "
       transform="scale(0.015625)" /><path
       id="DejaVuSans-34"
       d="M 2419 4116  L 825 1625  L 2419 1625  L 2419 4116  z M 2253 4666  L 3047 4666  L 3047 1625  L 3713 1625  L 3713 1100  L 3047 1100  L 3047 0  L 2419 0  L 2419 1100  L 313 1100  L 313 1709  L 2253 4666  z "
       transform="scale(0.015625)" /><path
       id="DejaVuSans-50-9"
       d="M 1259 4147  L 1259 2394  L 2053 2394  Q 2494 2394 2734 2622  Q 2975 2850 2975 3272  Q 2975 3691 2734 3919  Q 2494 4147 2053 4147  L 1259 4147  z M 628 4666  L 2053 4666  Q 2838 4666 3239 4311  Q 3641 3956 3641 3272  Q 3641 2581 3239 2228  Q 2838 1875 2053 1875  L 1259 1875  L 1259 0  L 628 0  L 628 4666  z "
       transform="scale(0.015625)" /><path
       id="DejaVuSans-44-4"
       d="M 1259 4147  L 1259 519  L 2022 519  Q 2988 519 3436 956  Q 3884 1394 3884 2338  Q 3884 3275 3436 3711  Q 2988 4147 2022 4147  L 1259 4147  z M 628 4666  L 1925 4666  Q 3281 4666 3915 4102  Q 4550 3538 4550 2338  Q 4550 1131 3912 565  Q 3275 0 1925 0  L 628 0  L 628 4666  z "
       transform="scale(0.015625)" /><path
       id="DejaVuSans-4f-7"
       d="M 2522 4238  Q 1834 4238 1429 3725  Q 1025 3213 1025 2328  Q 1025 1447 1429 934  Q 1834 422 2522 422  Q 3209 422 3611 934  Q 4013 1447 4013 2328  Q 4013 3213 3611 3725  Q 3209 4238 2522 4238  z M 2522 4750  Q 3503 4750 4090 4092  Q 4678 3434 4678 2328  Q 4678 1225 4090 567  Q 3503 -91 2522 -91  Q 1538 -91 948 565  Q 359 1222 359 2328  Q 359 3434 948 4092  Q 1538 4750 2522 4750  z "
       transform="scale(0.015625)" /><path
       id="DejaVuSans-53-8"
       d="M 3425 4513  L 3425 3897  Q 3066 4069 2747 4153  Q 2428 4238 2131 4238  Q 1616 4238 1336 4038  Q 1056 3838 1056 3469  Q 1056 3159 1242 3001  Q 1428 2844 1947 2747  L 2328 2669  Q 3034 2534 3370 2195  Q 3706 1856 3706 1288  Q 3706 609 3251 259  Q 2797 -91 1919 -91  Q 1588 -91 1214 -16  Q 841 59 441 206  L 441 856  Q 825 641 1194 531  Q 1563 422 1919 422  Q 2459 422 2753 634  Q 3047 847 3047 1241  Q 3047 1584 2836 1778  Q 2625 1972 2144 2069  L 1759 2144  Q 1053 2284 737 2584  Q 422 2884 422 3419  Q 422 4038 858 4394  Q 1294 4750 2059 4750  Q 2388 4750 2728 4690  Q 3069 4631 3425 4513  z "
       transform="scale(0.015625)" /><path
       id="DejaVuSans-20-4"
       transform="scale(0.015625)" /><path
       id="DejaVuSans-61-5"
       d="M 2194 1759  Q 1497 1759 1228 1600  Q 959 1441 959 1056  Q 959 750 1161 570  Q 1363 391 1709 391  Q 2188 391 2477 730  Q 2766 1069 2766 1631  L 2766 1759  L 2194 1759  z M 3341 1997  L 3341 0  L 2766 0  L 2766 531  Q 2569 213 2275 61  Q 1981 -91 1556 -91  Q 1019 -91 701 211  Q 384 513 384 1019  Q 384 1609 779 1909  Q 1175 2209 1959 2209  L 2766 2209  L 2766 2266  Q 2766 2663 2505 2880  Q 2244 3097 1772 3097  Q 1472 3097 1187 3025  Q 903 2953 641 2809  L 641 3341  Q 956 3463 1253 3523  Q 1550 3584 1831 3584  Q 2591 3584 2966 3190  Q 3341 2797 3341 1997  z "
       transform="scale(0.015625)" /><path
       id="DejaVuSans-72-0"
       d="M 2631 2963  Q 2534 3019 2420 3045  Q 2306 3072 2169 3072  Q 1681 3072 1420 2755  Q 1159 2438 1159 1844  L 1159 0  L 581 0  L 581 3500  L 1159 3500  L 1159 2956  Q 1341 3275 1631 3429  Q 1922 3584 2338 3584  Q 2397 3584 2469 3576  Q 2541 3569 2628 3553  L 2631 2963  z "
       transform="scale(0.015625)" /><path
       id="DejaVuSans-62-3"
       d="M 3116 1747  Q 3116 2381 2855 2742  Q 2594 3103 2138 3103  Q 1681 3103 1420 2742  Q 1159 2381 1159 1747  Q 1159 1113 1420 752  Q 1681 391 2138 391  Q 2594 391 2855 752  Q 3116 1113 3116 1747  z M 1159 2969  Q 1341 3281 1617 3432  Q 1894 3584 2278 3584  Q 2916 3584 3314 3078  Q 3713 2572 3713 1747  Q 3713 922 3314 415  Q 2916 -91 2278 -91  Q 1894 -91 1617 61  Q 1341 213 1159 525  L 1159 0  L 581 0  L 581 4863  L 1159 4863  L 1159 2969  z "
       transform="scale(0.015625)" /><path
       id="DejaVuSans-75-6"
       d="M 544 1381  L 544 3500  L 1119 3500  L 1119 1403  Q 1119 906 1312 657  Q 1506 409 1894 409  Q 2359 409 2629 706  Q 2900 1003 2900 1516  L 2900 3500  L 3475 3500  L 3475 0  L 2900 0  L 2900 538  Q 2691 219 2414 64  Q 2138 -91 1772 -91  Q 1169 -91 856 284  Q 544 659 544 1381  z M 1991 3584  L 1991 3584  z "
       transform="scale(0.015625)" /><path
       id="DejaVuSans-6e-1"
       d="M 3513 2113  L 3513 0  L 2938 0  L 2938 2094  Q 2938 2591 2744 2837  Q 2550 3084 2163 3084  Q 1697 3084 1428 2787  Q 1159 2491 1159 1978  L 1159 0  L 581 0  L 581 3500  L 1159 3500  L 1159 2956  Q 1366 3272 1645 3428  Q 1925 3584 2291 3584  Q 2894 3584 3203 3211  Q 3513 2838 3513 2113  z "
       transform="scale(0.015625)" /><path
       id="DejaVuSans-69-0"
       d="M 603 3500  L 1178 3500  L 1178 0  L 603 0  L 603 3500  z M 603 4863  L 1178 4863  L 1178 4134  L 603 4134  L 603 4863  z "
       transform="scale(0.015625)" /><path
       id="DejaVuSans-74-6"
       d="M 1172 4494  L 1172 3500  L 2356 3500  L 2356 3053  L 1172 3053  L 1172 1153  Q 1172 725 1289 603  Q 1406 481 1766 481  L 2356 481  L 2356 0  L 1766 0  Q 1100 0 847 248  Q 594 497 594 1153  L 594 3053  L 172 3053  L 172 3500  L 594 3500  L 594 4494  L 1172 4494  z "
       transform="scale(0.015625)" /><path
       id="DejaVuSans-73-3"
       d="M 2834 3397  L 2834 2853  Q 2591 2978 2328 3040  Q 2066 3103 1784 3103  Q 1356 3103 1142 2972  Q 928 2841 928 2578  Q 928 2378 1081 2264  Q 1234 2150 1697 2047  L 1894 2003  Q 2506 1872 2764 1633  Q 3022 1394 3022 966  Q 3022 478 2636 193  Q 2250 -91 1575 -91  Q 1294 -91 989 -36  Q 684 19 347 128  L 347 722  Q 666 556 975 473  Q 1284 391 1588 391  Q 1994 391 2212 530  Q 2431 669 2431 922  Q 2431 1156 2273 1281  Q 2116 1406 1581 1522  L 1381 1569  Q 847 1681 609 1914  Q 372 2147 372 2553  Q 372 3047 722 3315  Q 1072 3584 1716 3584  Q 2034 3584 2315 3537  Q 2597 3491 2834 3397  z "
       transform="scale(0.015625)" /><path
       id="DejaVuSans-70-9"
       d="M 1159 525  L 1159 -1331  L 581 -1331  L 581 3500  L 1159 3500  L 1159 2969  Q 1341 3281 1617 3432  Q 1894 3584 2278 3584  Q 2916 3584 3314 3078  Q 3713 2572 3713 1747  Q 3713 922 3314 415  Q 2916 -91 2278 -91  Q 1894 -91 1617 61  Q 1341 213 1159 525  z M 3116 1747  Q 3116 2381 2855 2742  Q 2594 3103 2138 3103  Q 1681 3103 1420 2742  Q 1159 2381 1159 1747  Q 1159 1113 1420 752  Q 1681 391 2138 391  Q 2594 391 2855 752  Q 3116 1113 3116 1747  z "
       transform="scale(0.015625)" /><path
       id="DejaVuSans-64-4"
       d="M 2906 2969  L 2906 4863  L 3481 4863  L 3481 0  L 2906 0  L 2906 525  Q 2725 213 2448 61  Q 2172 -91 1784 -91  Q 1150 -91 751 415  Q 353 922 353 1747  Q 353 2572 751 3078  Q 1150 3584 1784 3584  Q 2172 3584 2448 3432  Q 2725 3281 2906 2969  z M 947 1747  Q 947 1113 1208 752  Q 1469 391 1925 391  Q 2381 391 2643 752  Q 2906 1113 2906 1747  Q 2906 2381 2643 2742  Q 2381 3103 1925 3103  Q 1469 3103 1208 2742  Q 947 2381 947 1747  z "
       transform="scale(0.015625)" /><clipPath
       id="pf17c0af96f"><rect
         x="86.4"
         y="18.767861"
         width="396"
         height="267.956239"
         id="rect1083" /></clipPath></defs><g
     inkscape:label="Calque 1"
     inkscape:groupmode="layer"
     id="layer1"><g
       id="g4206"
       transform="matrix(1.961042,0,0,1.961042,-248.5672,-55.175017)"><path
         d="M -96.956563,179.58566 H 80.843438 V 57.411662 H -96.956563 Z"
         style="fill:#ffffff;stroke-width:0.352778"
         id="path138" /><g
         id="patch_2"
         transform="matrix(0.35277778,0,0,0.35277778,-96.956563,57.411662)"><path
           d="M 67.275,286.7241 H 482.4 V 17.316 H 67.275 Z"
           style="fill:#ffffff"
           id="path141" /></g><g
         id="matplotlib.axis_1"
         transform="matrix(0.35277778,0,0,0.35277778,-96.956563,57.411662)"><g
           id="xtick_1"><g
             id="line2d_1"><defs
               id="defs145"><path
                 id="path443"
                 d="M 0,0 V 6"
                 style="stroke:#000000;stroke-width:1.2" /></defs><g
               id="g149"><use
                 xlink:href="#ma62cdb22c3"
                 x="67.275002"
                 y="286.72409"
                 style="stroke:#000000;stroke-width:1.2"
                 id="use147" /></g></g><g
             id="text_1"><!-- −20 --><g
               transform="matrix(0.2,0,0,-0.2,46.170312,311.42097)"
               id="g163"><defs
                 id="defs155"><path
                   id="path449"
                   d="M 678,2272 H 4684 V 1741 H 678 Z"
                   transform="scale(0.015625)" /><path
                   id="path451"
                   d="M 1228,531 H 3431 V 0 H 469 v 531 q 359,372 979,998 621,627 780,809 303,340 423,576 121,236 121,464 0,372 -261,606 -261,235 -680,235 -297,0 -627,-103 -329,-103 -704,-313 v 638 q 381,153 712,231 332,78 607,78 725,0 1156,-363 431,-362 431,-968 0,-288 -108,-546 -107,-257 -392,-607 -78,-91 -497,-524 Q 1991,1309 1228,531 Z"
                   transform="scale(0.015625)" /><path
                   id="path453"
                   d="m 2034,4250 q -487,0 -733,-480 -245,-479 -245,-1442 0,-959 245,-1439 246,-480 733,-480 491,0 736,480 246,480 246,1439 0,963 -246,1442 -245,480 -736,480 z m 0,500 q 785,0 1199,-621 414,-620 414,-1801 0,-1178 -414,-1799 -414,-620 -1199,-620 -784,0 -1198,620 -414,621 -414,1799 0,1181 414,1801 414,621 1198,621 z"
                   transform="scale(0.015625)" /></defs><use
                 xlink:href="#DejaVuSans-2212"
                 id="use157" /><use
                 xlink:href="#DejaVuSans-32"
                 x="83.789062"
                 id="use159" /><use
                 xlink:href="#DejaVuSans-30"
                 x="147.41211"
                 id="use161" /></g></g></g><g
           id="xtick_2"><g
             id="line2d_2"><g
               id="g169"><use
                 xlink:href="#ma62cdb22c3"
                 x="197.00156"
                 y="286.72409"
                 style="stroke:#000000;stroke-width:1.2"
                 id="use167" /></g></g><g
             id="text_2"><!-- −10 --><g
               transform="matrix(0.2,0,0,-0.2,175.89687,311.42097)"
               id="g181"><defs
                 id="defs173"><path
                   id="path465"
                   d="M 794,531 H 1825 V 4091 L 703,3866 v 575 l 1116,225 h 631 V 531 H 3481 V 0 H 794 Z"
                   transform="scale(0.015625)" /></defs><use
                 xlink:href="#DejaVuSans-2212"
                 id="use175" /><use
                 xlink:href="#DejaVuSans-31"
                 x="83.789062"
                 id="use177" /><use
                 xlink:href="#DejaVuSans-30"
                 x="147.41211"
                 id="use179" /></g></g></g><g
           id="xtick_3"><g
             id="line2d_3"><g
               id="g187"><use
                 xlink:href="#ma62cdb22c3"
                 x="326.72812"
                 y="286.72409"
                 style="stroke:#000000;stroke-width:1.2"
                 id="use185" /></g></g><g
             id="text_3"><!-- 0 --><g
               transform="matrix(0.2,0,0,-0.2,320.36563,311.42097)"
               id="g192"><use
                 xlink:href="#DejaVuSans-30"
                 id="use190" /></g></g></g><g
           id="xtick_4"><g
             id="line2d_4"><g
               id="g198"><use
                 xlink:href="#ma62cdb22c3"
                 x="456.45468"
                 y="286.72409"
                 style="stroke:#000000;stroke-width:1.2"
                 id="use196" /></g></g><g
             id="text_4"><!-- 10 --><g
               transform="matrix(0.2,0,0,-0.2,443.72969,311.42097)"
               id="g205"><use
                 xlink:href="#DejaVuSans-31"
                 id="use201" /><use
                 xlink:href="#DejaVuSans-30"
                 x="63.623047"
                 id="use203" /></g></g></g><g
           id="text_5"><!-- $\mathrm{E - E_F\ (eV)}$ --><g
             transform="matrix(0.2,0,0,-0.2,221.4375,334.77722)"
             id="g233"><defs
               id="defs215"><path
                 id="path489"
                 d="M 628,4666 H 3578 V 4134 H 1259 V 2753 H 3481 V 2222 H 1259 V 531 H 3634 V 0 H 628 Z"
                 transform="scale(0.015625)" /><path
                 id="path491"
                 d="M 628,4666 H 3309 V 4134 H 1259 V 2759 H 3109 V 2228 H 1259 V 0 H 628 Z"
                 transform="scale(0.015625)" /><path
                 id="path493"
                 d="m 1984,4856 q -418,-718 -622,-1422 -203,-703 -203,-1425 0,-721 205,-1429 205,-708 620,-1424 h -500 q -468,735 -701,1444 -233,709 -233,1409 0,697 231,1403 232,707 703,1444 z"
                 transform="scale(0.015625)" /><path
                 id="path495"
                 d="M 3597,1894 V 1613 H 953 q 38,-594 358,-905 320,-311 892,-311 331,0 642,81 311,81 618,244 V 178 Q 3153,47 2828,-22 2503,-91 2169,-91 1331,-91 842,396 353,884 353,1716 q 0,859 464,1363 464,505 1252,505 706,0 1117,-455 411,-454 411,-1235 z m -575,169 q -6,471 -264,752 -258,282 -683,282 -481,0 -770,-272 -289,-272 -333,-766 z"
                 transform="scale(0.015625)" /><path
                 id="path497"
                 d="M 1831,0 50,4666 H 709 L 2188,738 3669,4666 h 656 L 2547,0 Z"
                 transform="scale(0.015625)" /><path
                 id="path499"
                 d="m 513,4856 h 500 q 468,-737 701,-1444 233,-706 233,-1403 0,-700 -233,-1409 -233,-709 -701,-1444 H 513 q 415,716 620,1424 205,708 205,1429 0,722 -205,1425 -205,704 -620,1422 z"
                 transform="scale(0.015625)" /></defs><use
               xlink:href="#DejaVuSans-45"
               transform="translate(0,0.125)"
               id="use217" /><use
               xlink:href="#DejaVuSans-2212"
               transform="translate(82.666016,0.125)"
               id="use219" /><use
               xlink:href="#DejaVuSans-45"
               transform="translate(185.9375,0.125)"
               id="use221" /><use
               xlink:href="#DejaVuSans-46"
               transform="matrix(0.7,0,0,0.7,250.07812,-16.28125)"
               id="use223" /><use
               xlink:href="#DejaVuSans-28"
               transform="translate(325.54655,0.125)"
               id="use225" /><use
               xlink:href="#DejaVuSans-65"
               transform="translate(364.56022,0.125)"
               id="use227" /><use
               xlink:href="#DejaVuSans-56"
               transform="translate(426.08366,0.125)"
               id="use229" /><use
               xlink:href="#DejaVuSans-29"
               transform="translate(494.49186,0.125)"
               id="use231" /></g></g></g><g
         id="matplotlib.axis_2"
         transform="matrix(0.35277778,0,0,0.35277778,-96.956563,57.411662)"><g
           id="ytick_1"><g
             id="line2d_5"><defs
               id="defs238"><path
                 id="path513"
                 d="M 0,0 H -6"
                 style="stroke:#000000;stroke-width:1.2" /></defs><g
               id="g242"><use
                 xlink:href="#m73fc911fe3"
                 x="67.275002"
                 y="274.47827"
                 style="stroke:#000000;stroke-width:1.2"
                 id="use240" /></g></g><g
             id="text_6"><!-- 0 --><g
               transform="matrix(0.2,0,0,-0.2,45.05,282.07671)"
               id="g247"><use
                 xlink:href="#DejaVuSans-30"
                 id="use245" /></g></g></g><g
           id="ytick_2"><g
             id="line2d_6"><g
               id="g253"><use
                 xlink:href="#m73fc911fe3"
                 x="67.275002"
                 y="202.65857"
                 style="stroke:#000000;stroke-width:1.2"
                 id="use251" /></g></g><g
             id="text_7"><!-- 1 --><g
               transform="matrix(0.2,0,0,-0.2,45.05,210.25701)"
               id="g258"><use
                 xlink:href="#DejaVuSans-31"
                 id="use256" /></g></g></g><g
           id="ytick_3"><g
             id="line2d_7"><g
               id="g264"><use
                 xlink:href="#m73fc911fe3"
                 x="67.275002"
                 y="130.83887"
                 style="stroke:#000000;stroke-width:1.2"
                 id="use262" /></g></g><g
             id="text_8"><!-- 2 --><g
               transform="matrix(0.2,0,0,-0.2,45.05,138.43731)"
               id="g269"><use
                 xlink:href="#DejaVuSans-32"
                 id="use267" /></g></g></g><g
           id="ytick_4"><g
             id="line2d_8"><g
               id="g275"><use
                 xlink:href="#m73fc911fe3"
                 x="67.275002"
                 y="59.019169"
                 style="stroke:#000000;stroke-width:1.2"
                 id="use273" /></g></g><g
             id="text_9"><!-- 3 --><g
               transform="matrix(0.2,0,0,-0.2,45.05,66.617605)"
               id="g283"><defs
                 id="defs279"><path
                   id="path540"
                   d="m 2597,2516 q 453,-97 707,-404 255,-306 255,-756 0,-690 -475,-1069 -475,-378 -1350,-378 -293,0 -604,58 -311,58 -642,174 v 609 q 262,-153 574,-231 313,-78 654,-78 593,0 904,234 311,234 311,681 0,413 -289,645 -289,233 -804,233 h -544 v 519 h 569 q 465,0 712,186 247,186 247,536 0,359 -255,551 -254,193 -729,193 -260,0 -557,-57 -297,-56 -653,-174 v 562 q 360,100 674,150 314,50 592,50 719,0 1137,-327 419,-326 419,-882 0,-388 -222,-655 -222,-267 -631,-370 z"
                   transform="scale(0.015625)" /></defs><use
                 xlink:href="#DejaVuSans-33"
                 id="use281" /></g></g></g><g
           id="text_10"><!-- PDOS (arb. units) --><g
             transform="matrix(0,-0.2,-0.2,0,36.890625,238.47786)"
             id="g337"><defs
               id="defs301"><path
                 id="path547"
                 d="M 1259,4147 V 2394 h 794 q 441,0 681,228 241,228 241,650 0,419 -241,647 -240,228 -681,228 z m -631,519 h 1425 q 785,0 1186,-355 402,-355 402,-1039 0,-691 -402,-1044 -401,-353 -1186,-353 H 1259 V 0 H 628 Z"
                 transform="scale(0.015625)" /><path
                 id="path549"
                 d="M 1259,4147 V 519 h 763 q 966,0 1414,437 448,438 448,1382 0,937 -448,1373 -448,436 -1414,436 z m -631,519 h 1297 q 1356,0 1990,-564 635,-564 635,-1764 Q 4550,1131 3912,565 3275,0 1925,0 H 628 Z"
                 transform="scale(0.015625)" /><path
                 id="path551"
                 d="m 2522,4238 q -688,0 -1093,-513 -404,-512 -404,-1397 0,-881 404,-1394 405,-512 1093,-512 687,0 1089,512 402,513 402,1394 0,885 -402,1397 -402,513 -1089,513 z m 0,512 q 981,0 1568,-658 588,-658 588,-1764 0,-1103 -588,-1761 -587,-658 -1568,-658 -984,0 -1574,656 -589,657 -589,1763 0,1106 589,1764 590,658 1574,658 z"
                 transform="scale(0.015625)" /><path
                 id="path553"
                 d="m 3425,4513 v -616 q -359,172 -678,256 -319,85 -616,85 -515,0 -795,-200 -280,-200 -280,-569 0,-310 186,-468 186,-157 705,-254 l 381,-78 q 706,-135 1042,-474 336,-339 336,-907 0,-679 -455,-1029 -454,-350 -1332,-350 -331,0 -705,75 -373,75 -773,222 v 650 q 384,-215 753,-325 369,-109 725,-109 540,0 834,212 294,213 294,607 0,343 -211,537 -211,194 -692,291 l -385,75 q -706,140 -1022,440 -315,300 -315,835 0,619 436,975 436,356 1201,356 329,0 669,-60 341,-59 697,-177 z"
                 transform="scale(0.015625)" /><path
                 id="path555"
                 transform="scale(0.015625)"
                 d="" /><path
                 id="path557"
                 d="m 2194,1759 q -697,0 -966,-159 -269,-159 -269,-544 0,-306 202,-486 202,-179 548,-179 479,0 768,339 289,339 289,901 v 128 z m 1147,238 V 0 H 2766 V 531 Q 2569,213 2275,61 1981,-91 1556,-91 q -537,0 -855,302 -317,302 -317,808 0,590 395,890 396,300 1180,300 h 807 v 57 q 0,397 -261,614 -261,217 -733,217 -300,0 -585,-72 -284,-72 -546,-216 v 532 q 315,122 612,182 297,61 578,61 760,0 1135,-394 375,-393 375,-1193 z"
                 transform="scale(0.015625)" /><path
                 id="path559"
                 d="m 2631,2963 q -97,56 -211,82 -114,27 -251,27 -488,0 -749,-317 -261,-317 -261,-911 V 0 H 581 v 3500 h 578 v -544 q 182,319 472,473 291,155 707,155 59,0 131,-8 72,-7 159,-23 z"
                 transform="scale(0.015625)" /><path
                 id="path561"
                 d="m 3116,1747 q 0,634 -261,995 -261,361 -717,361 -457,0 -718,-361 -261,-361 -261,-995 0,-634 261,-995 261,-361 718,-361 456,0 717,361 261,361 261,995 z M 1159,2969 q 182,312 458,463 277,152 661,152 638,0 1036,-506 399,-506 399,-1331 Q 3713,922 3314,415 2916,-91 2278,-91 1894,-91 1617,61 1341,213 1159,525 V 0 H 581 v 4863 h 578 z"
                 transform="scale(0.015625)" /><path
                 id="path563"
                 d="m 684,794 h 660 V 0 H 684 Z"
                 transform="scale(0.015625)" /><path
                 id="path565"
                 d="m 544,1381 v 2119 h 575 V 1403 q 0,-497 193,-746 194,-248 582,-248 465,0 735,297 271,297 271,810 v 1984 h 575 V 0 H 2900 V 538 Q 2691,219 2414,64 2138,-91 1772,-91 1169,-91 856,284 544,659 544,1381 Z m 1447,2203 z"
                 transform="scale(0.015625)" /><path
                 id="path567"
                 d="M 3513,2113 V 0 h -575 v 2094 q 0,497 -194,743 -194,247 -581,247 -466,0 -735,-297 -269,-296 -269,-809 V 0 H 581 v 3500 h 578 v -544 q 207,316 486,472 280,156 646,156 603,0 912,-373 310,-373 310,-1098 z"
                 transform="scale(0.015625)" /><path
                 id="path569"
                 d="m 603,3500 h 575 V 0 H 603 Z m 0,1363 h 575 V 4134 H 603 Z"
                 transform="scale(0.015625)" /><path
                 id="path571"
                 d="M 1172,4494 V 3500 H 2356 V 3053 H 1172 V 1153 q 0,-428 117,-550 117,-122 477,-122 h 590 V 0 H 1766 Q 1100,0 847,248 594,497 594,1153 V 3053 H 172 v 447 h 422 v 994 z"
                 transform="scale(0.015625)" /><path
                 id="path573"
                 d="m 2834,3397 v -544 q -243,125 -506,187 -262,63 -544,63 -428,0 -642,-131 -214,-131 -214,-394 0,-200 153,-314 153,-114 616,-217 l 197,-44 q 612,-131 870,-370 258,-239 258,-667 0,-488 -386,-773 Q 2250,-91 1575,-91 1294,-91 989,-36 684,19 347,128 v 594 q 319,-166 628,-249 309,-82 613,-82 406,0 624,139 219,139 219,392 0,234 -158,359 -157,125 -692,241 l -200,47 q -534,112 -772,345 -237,233 -237,639 0,494 350,762 350,269 994,269 318,0 599,-47 282,-46 519,-140 z"
                 transform="scale(0.015625)" /></defs><use
               xlink:href="#DejaVuSans-50"
               id="use303" /><use
               xlink:href="#DejaVuSans-44"
               x="60.302734"
               id="use305" /><use
               xlink:href="#DejaVuSans-4f"
               x="137.30469"
               id="use307" /><use
               xlink:href="#DejaVuSans-53"
               x="216.01562"
               id="use309" /><use
               xlink:href="#DejaVuSans-20"
               x="279.49219"
               id="use311" /><use
               xlink:href="#DejaVuSans-28"
               x="311.2793"
               id="use313" /><use
               xlink:href="#DejaVuSans-61"
               x="350.29297"
               id="use315" /><use
               xlink:href="#DejaVuSans-72"
               x="411.57227"
               id="use317" /><use
               xlink:href="#DejaVuSans-62"
               x="452.68555"
               id="use319" /><use
               xlink:href="#DejaVuSans-2e"
               x="516.16211"
               id="use321" /><use
               xlink:href="#DejaVuSans-20"
               x="547.94922"
               id="use323" /><use
               xlink:href="#DejaVuSans-75"
               x="579.73633"
               id="use325" /><use
               xlink:href="#DejaVuSans-6e"
               x="643.11523"
               id="use327" /><use
               xlink:href="#DejaVuSans-69"
               x="706.49414"
               id="use329" /><use
               xlink:href="#DejaVuSans-74"
               x="734.27734"
               id="use331" /><use
               xlink:href="#DejaVuSans-73"
               x="773.48633"
               id="use333" /><use
               xlink:href="#DejaVuSans-29"
               x="825.58594"
               id="use335" /></g></g></g><g
         id="line2d_9"
         transform="matrix(0.35277778,0,0,0.35277778,-96.956563,57.411662)"><path
           d="m 67.13398,274.47828 19.716322,-0.0741 0.486822,-0.22037 0.243412,-0.26229 0.243411,-0.45946 0.243411,-0.77444 0.243412,-1.25547 0.243411,-1.95644 0.486823,-7.13715 0.486823,-13.4499 0.486822,-21.26565 1.460469,-76.70567 0.243411,-4.83557 0.243412,-0.40922 0.243411,4.05958 0.486823,19.46734 1.460468,78.0943 0.486823,14.12297 0.486822,7.61016 0.486823,3.47507 0.486823,1.35396 0.486823,0.45213 0.730234,0.15154 2.920939,0.0187 194.97251,-0.0869 0.48683,-0.19841 0.48682,-0.52831 0.48682,-1.20174 0.48682,-2.32093 0.48683,-3.76815 1.70388,-15.75723 0.24341,-0.32285 0.24341,0.52075 0.24341,1.31053 0.48682,4.40659 1.21706,12.34888 0.48682,2.85243 0.48682,1.5758 0.48683,0.73676 0.48682,0.29368 0.73024,0.11965 3.16434,0.0195 109.29171,-0.0717 0.48683,-0.18475 0.48682,-0.54049 0.24341,-0.5357 0.48682,-2.02023 0.48682,-3.97477 0.48683,-6.58317 0.97364,-18.94784 0.48683,-8.0258 0.24341,-2.37465 0.24341,-0.92914 0.24341,0.61239 0.24341,2.09047 0.48682,7.65371 1.21706,22.85883 0.48682,5.50661 0.48683,3.10086 0.48682,1.47627 0.48682,0.59879 0.48683,0.20796 0.97364,0.078 11.44033,0.004 h 44.05746 v 0"
           clip-path="url(#p9f455bdc63)"
           style="fill:none;stroke:#243c6e;stroke-width:2.5;stroke-linecap:square"
           id="path341" /></g><g
         id="line2d_10"
         transform="matrix(0.35277778,0,0,0.35277778,-96.956563,57.411662)"><path
           d="m 67.13398,274.47828 20.933378,-0.0825 0.730235,-0.28282 0.486822,-0.4609 0.486823,-0.79695 0.730234,-1.80922 0.730234,-1.85476 0.486823,-0.6265 0.243412,-0.0188 0.243411,0.18697 0.486823,0.89662 1.460468,3.59683 0.486823,0.65047 0.486822,0.35051 0.730235,0.19909 1.460468,0.0511 56.958259,8.6e-4 90.79245,-0.0739 0.48682,-0.22891 0.24341,-0.27871 0.24341,-0.49662 0.24341,-0.85161 0.24342,-1.40481 0.24341,-2.22819 0.24341,-3.39607 0.48682,-11.94876 0.48682,-21.47599 0.48683,-32.2495 1.21705,-91.20741 0.24342,-9.213635 0.24341,-3.333248 0.24341,2.891928 0.24341,8.817725 0.48682,31.39855 1.21706,91.92418 0.48682,21.86023 0.48682,12.23784 0.48683,5.794 0.48682,2.33762 0.48682,0.80764 0.48683,0.23974 0.97364,0.0748 15.09151,0.003 23.12408,-0.0975 0.48682,-0.29792 0.24341,-0.35988 0.24341,-0.63752 0.24342,-1.08673 0.24341,-1.78194 0.24341,-2.80916 0.48682,-10.44329 0.48682,-20.16926 0.48683,-32.7458 1.70388,-136.932704 0.24341,-2.805602 0.24341,4.525346 0.24341,11.388714 0.48682,38.293936 1.21706,107.31374 0.48682,24.78802 0.48682,13.69394 0.48683,6.40256 0.48682,2.5521 0.48682,0.8714 0.48683,0.2557 0.97364,0.0787 14.60468,0.002 1.21706,-0.0718 0.48682,-0.23533 0.24342,-0.29307 0.24341,-0.53119 0.24341,-0.92671 0.24341,-1.55553 0.24341,-2.51113 0.24341,-3.89647 0.48682,-14.11583 0.48683,-26.36054 0.48682,-41.27039 1.46047,-144.814725 0.24341,-8.332692 0.24341,0.144888 0.24341,8.607432 0.48683,38.353418 1.46046,147.876669 0.48683,26.12225 0.48682,13.94838 0.48682,6.31444 0.48682,2.43976 0.48683,0.80807 0.48682,0.23013 0.97365,0.0684 17.76903,0.003 66.4513,-0.0694 0.48683,-0.16199 0.48682,-0.43881 0.48682,-1.01599 0.48682,-1.99894 0.48683,-3.31074 0.97364,-9.52902 0.48683,-4.03625 0.24341,-1.19423 0.24341,-0.46727 0.24341,0.30797 0.24341,1.05132 0.48682,3.84912 1.21706,11.49589 0.48682,2.76932 0.48683,1.55946 0.48682,0.74242 0.48682,0.30114 0.73024,0.12507 2.92093,0.0209 23.12408,-0.0778 0.48683,-0.21141 0.24341,-0.23973 0.24341,-0.40499 0.24341,-0.65804 0.24341,-1.0278 0.48682,-3.76367 0.48683,-7.12753 0.48682,-11.32941 1.46047,-41.4749 0.24341,-2.73643 0.24341,-0.36199 0.24341,2.04999 0.48683,10.27931 1.46046,42.16225 0.48683,7.72297 0.48682,4.18218 0.48682,1.91873 0.48682,0.75098 0.48683,0.25189 0.97364,0.0907 10.46669,0.005 h 9.24963 v 0"
           clip-path="url(#p9f455bdc63)"
           style="fill:none;stroke:#7d7c78;stroke-width:2.5;stroke-linecap:square"
           id="path344" /></g><g
         id="line2d_11"
         transform="matrix(0.35277778,0,0,0.35277778,-96.956563,57.411662)"><path
           d="m 67.13398,274.47828 23.124081,-0.10565 1.947291,-0.11349 5.598462,0.21913 148.724356,-0.0787 0.73023,-0.25016 0.48682,-0.38648 0.48683,-0.63623 1.70388,-2.78184 0.24341,-0.0787 0.24341,0.0683 0.48682,0.53526 1.94729,3.10107 0.73024,0.37148 0.97364,0.12169 4.38141,0.0144 37.97217,-0.10488 0.97365,-0.26146 1.46047,-0.4654 0.73023,0.0526 2.92094,0.75392 3.16434,0.0252 111.48242,-0.0697 0.73023,-0.25633 0.48682,-0.43853 0.48683,-0.7928 0.73023,-1.91937 0.97365,-2.71981 0.24341,-0.35991 0.24341,-0.14083 0.24341,0.0928 0.24341,0.31684 0.48682,1.16002 1.21706,3.46455 0.48682,0.8346 0.48683,0.46998 0.73023,0.28013 1.21706,0.0753 17.03879,0.003 9.24964,-0.0892 0.48682,-0.19877 0.48682,-0.51976 0.48682,-1.16037 0.48683,-2.19747 0.48682,-3.49295 1.46047,-12.78706 0.24341,-0.84366 0.24341,-0.11161 0.24341,0.63203 0.48683,3.1692 1.46046,12.99897 0.48683,2.38105 0.48682,1.28941 0.48682,0.59156 0.48682,0.23153 0.97365,0.10005 7.54575,0.007 h 12.65739 v 0"
           clip-path="url(#p9f455bdc63)"
           style="fill:none;stroke:#d6c35d;stroke-width:2.5;stroke-linecap:square"
           id="path347" /></g><g
         id="line2d_12"
         transform="matrix(0.35277778,0,0,0.35277778,-96.956563,57.411662)"><path
           d="M 326.72812,286.7241 V 17.316"
           clip-path="url(#p9f455bdc63)"
           style="fill:none;stroke:#000000;stroke-width:1.2;stroke-dasharray:4.44, 1.92;stroke-dashoffset:0"
           id="path350" /></g><g
         id="patch_3"
         transform="matrix(0.35277778,0,0,0.35277778,-96.956563,57.411662)"><path
           d="M 67.275,286.7241 V 17.316"
           style="fill:none;stroke:#000000;stroke-width:1.2;stroke-linecap:square;stroke-linejoin:miter"
           id="path353" /></g><g
         id="patch_4"
         transform="matrix(0.35277778,0,0,0.35277778,-96.956563,57.411662)"><path
           d="M 67.275,286.7241 H 482.4"
           style="fill:none;stroke:#000000;stroke-width:1.2;stroke-linecap:square;stroke-linejoin:miter"
           id="path356" /></g><g
         id="legend_1"
         transform="matrix(0.35277778,0,0,0.35277778,-206.5786,57.411662)"><g
           id="line2d_13"><path
             d="m 398.65219,40.893188 h 18 18"
             style="fill:none;stroke:#243c6e;stroke-width:2.5;stroke-linecap:square"
             id="path359" /></g><g
           id="text_11"><!--  s --><g
             transform="matrix(0.18,0,0,-0.18,449.05219,47.193188)"
             id="g366"><use
               xlink:href="#DejaVuSans-20"
               id="use362" /><use
               xlink:href="#DejaVuSans-73"
               x="31.787109"
               id="use364" /></g></g><g
           id="line2d_14"><path
             d="m 398.65219,67.313812 h 18 18"
             style="fill:none;stroke:#7d7c78;stroke-width:2.5;stroke-linecap:square"
             id="path369" /></g><g
           id="text_12"><!--  p --><g
             transform="matrix(0.18,0,0,-0.18,449.05219,73.613812)"
             id="g379"><defs
               id="defs373"><path
                 id="path616"
                 d="M 1159,525 V -1331 H 581 v 4831 h 578 v -531 q 182,312 458,463 277,152 661,152 638,0 1036,-506 399,-506 399,-1331 0,-825 -399,-1332 -398,-506 -1036,-506 -384,0 -661,152 -276,152 -458,464 z m 1957,1222 q 0,634 -261,995 -261,361 -717,361 -457,0 -718,-361 -261,-361 -261,-995 0,-634 261,-995 261,-361 718,-361 456,0 717,361 261,361 261,995 z"
                 transform="scale(0.015625)" /></defs><use
               xlink:href="#DejaVuSans-20"
               id="use375" /><use
               xlink:href="#DejaVuSans-70"
               x="31.787109"
               id="use377" /></g></g><g
           id="line2d_15"><path
             d="m 398.65219,93.734438 h 18 18"
             style="fill:none;stroke:#d6c35d;stroke-width:2.5;stroke-linecap:square"
             id="path382" /></g><g
           id="text_13"><!--  d --><g
             transform="matrix(0.18,0,0,-0.18,449.05219,100.03444)"
             id="g392"><defs
               id="defs386"><path
                 id="path625"
                 d="m 2906,2969 v 1894 h 575 V 0 H 2906 V 525 Q 2725,213 2448,61 2172,-91 1784,-91 1150,-91 751,415 353,922 353,1747 q 0,825 398,1331 399,506 1033,506 388,0 664,-152 277,-151 458,-463 z M 947,1747 q 0,-634 261,-995 261,-361 717,-361 456,0 718,361 263,361 263,995 0,634 -263,995 -262,361 -718,361 -456,0 -717,-361 -261,-361 -261,-995 z"
                 transform="scale(0.015625)" /></defs><use
               xlink:href="#DejaVuSans-20"
               id="use388" /><use
               xlink:href="#DejaVuSans-64"
               x="31.787109"
               id="use390" /></g></g></g><path
         d="M 80.843438,179.58566 H 258.64344 V 57.411662 H 80.843438 Z"
         style="fill:#ffffff;stroke-width:0.352778"
         id="path799" /><g
         id="patch_2-5"
         transform="matrix(0.35277778,0,0,0.35277778,80.843438,57.411662)"><path
           d="m 86.4,286.7241 h 396 V 18.767861 h -396 z"
           style="fill:#ffffff"
           id="path802" /></g><g
         id="matplotlib.axis_1-3"
         transform="matrix(0.35277778,0,0,0.35277778,80.843438,57.411662)"><g
           id="xtick_1-5"><g
             id="line2d_1-6"><defs
               id="defs806"><path
                 id="path1130"
                 d="M 0,0 V 6"
                 style="stroke:#000000;stroke-width:1.2" /></defs><g
               id="g810"><use
                 xlink:href="#m1cc72958b1"
                 x="86.400002"
                 y="286.72409"
                 style="stroke:#000000;stroke-width:1.2"
                 id="use808" /></g></g><g
             id="text_1-2"><!-- −20 --><g
               transform="matrix(0.2,0,0,-0.2,65.295313,311.42097)"
               id="g824"><defs
                 id="defs816"><path
                   id="path1136"
                   d="M 678,2272 H 4684 V 1741 H 678 Z"
                   transform="scale(0.015625)" /><path
                   id="path1138"
                   d="M 1228,531 H 3431 V 0 H 469 v 531 q 359,372 979,998 621,627 780,809 303,340 423,576 121,236 121,464 0,372 -261,606 -261,235 -680,235 -297,0 -627,-103 -329,-103 -704,-313 v 638 q 381,153 712,231 332,78 607,78 725,0 1156,-363 431,-362 431,-968 0,-288 -108,-546 -107,-257 -392,-607 -78,-91 -497,-524 Q 1991,1309 1228,531 Z"
                   transform="scale(0.015625)" /><path
                   id="path1140"
                   d="m 2034,4250 q -487,0 -733,-480 -245,-479 -245,-1442 0,-959 245,-1439 246,-480 733,-480 491,0 736,480 246,480 246,1439 0,963 -246,1442 -245,480 -736,480 z m 0,500 q 785,0 1199,-621 414,-620 414,-1801 0,-1178 -414,-1799 -414,-620 -1199,-620 -784,0 -1198,620 -414,621 -414,1799 0,1181 414,1801 414,621 1198,621 z"
                   transform="scale(0.015625)" /></defs><use
                 xlink:href="#DejaVuSans-2212-9"
                 id="use818" /><use
                 xlink:href="#DejaVuSans-32-1"
                 x="83.789062"
                 id="use820" /><use
                 xlink:href="#DejaVuSans-30-2"
                 x="147.41211"
                 id="use822" /></g></g></g><g
           id="xtick_2-7"><g
             id="line2d_2-0"><g
               id="g830"><use
                 xlink:href="#m1cc72958b1"
                 x="210.14999"
                 y="286.72409"
                 style="stroke:#000000;stroke-width:1.2"
                 id="use828" /></g></g><g
             id="text_2-9"><!-- −10 --><g
               transform="matrix(0.2,0,0,-0.2,189.04531,311.42097)"
               id="g842"><defs
                 id="defs834"><path
                   id="path1152"
                   d="M 794,531 H 1825 V 4091 L 703,3866 v 575 l 1116,225 h 631 V 531 H 3481 V 0 H 794 Z"
                   transform="scale(0.015625)" /></defs><use
                 xlink:href="#DejaVuSans-2212-9"
                 id="use836" /><use
                 xlink:href="#DejaVuSans-31-3"
                 x="83.789062"
                 id="use838" /><use
                 xlink:href="#DejaVuSans-30-2"
                 x="147.41211"
                 id="use840" /></g></g></g><g
           id="xtick_3-6"><g
             id="line2d_3-0"><g
               id="g848"><use
                 xlink:href="#m1cc72958b1"
                 x="333.89999"
                 y="286.72409"
                 style="stroke:#000000;stroke-width:1.2"
                 id="use846" /></g></g><g
             id="text_3-6"><!-- 0 --><g
               transform="matrix(0.2,0,0,-0.2,327.5375,311.42097)"
               id="g853"><use
                 xlink:href="#DejaVuSans-30-2"
                 id="use851" /></g></g></g><g
           id="xtick_4-2"><g
             id="line2d_4-6"><g
               id="g859"><use
                 xlink:href="#m1cc72958b1"
                 x="457.64999"
                 y="286.72409"
                 style="stroke:#000000;stroke-width:1.2"
                 id="use857" /></g></g><g
             id="text_4-1"><!-- 10 --><g
               transform="matrix(0.2,0,0,-0.2,444.925,311.42097)"
               id="g866"><use
                 xlink:href="#DejaVuSans-31-3"
                 id="use862" /><use
                 xlink:href="#DejaVuSans-30-2"
                 x="63.623047"
                 id="use864" /></g></g></g><g
           id="text_5-8"><!-- $\mathrm{E - E_F\ (eV)}$ --><g
             transform="matrix(0.2,0,0,-0.2,231,334.77722)"
             id="g894"><defs
               id="defs876"><path
                 id="path1176"
                 d="M 628,4666 H 3578 V 4134 H 1259 V 2753 H 3481 V 2222 H 1259 V 531 H 3634 V 0 H 628 Z"
                 transform="scale(0.015625)" /><path
                 id="path1178"
                 d="M 628,4666 H 3309 V 4134 H 1259 V 2759 H 3109 V 2228 H 1259 V 0 H 628 Z"
                 transform="scale(0.015625)" /><path
                 id="path1180"
                 d="m 1984,4856 q -418,-718 -622,-1422 -203,-703 -203,-1425 0,-721 205,-1429 205,-708 620,-1424 h -500 q -468,735 -701,1444 -233,709 -233,1409 0,697 231,1403 232,707 703,1444 z"
                 transform="scale(0.015625)" /><path
                 id="path1182"
                 d="M 3597,1894 V 1613 H 953 q 38,-594 358,-905 320,-311 892,-311 331,0 642,81 311,81 618,244 V 178 Q 3153,47 2828,-22 2503,-91 2169,-91 1331,-91 842,396 353,884 353,1716 q 0,859 464,1363 464,505 1252,505 706,0 1117,-455 411,-454 411,-1235 z m -575,169 q -6,471 -264,752 -258,282 -683,282 -481,0 -770,-272 -289,-272 -333,-766 z"
                 transform="scale(0.015625)" /><path
                 id="path1184"
                 d="M 1831,0 50,4666 H 709 L 2188,738 3669,4666 h 656 L 2547,0 Z"
                 transform="scale(0.015625)" /><path
                 id="path1186"
                 d="m 513,4856 h 500 q 468,-737 701,-1444 233,-706 233,-1403 0,-700 -233,-1409 -233,-709 -701,-1444 H 513 q 415,716 620,1424 205,708 205,1429 0,722 -205,1425 -205,704 -620,1422 z"
                 transform="scale(0.015625)" /></defs><use
               xlink:href="#DejaVuSans-45-7"
               transform="translate(0,0.125)"
               id="use878" /><use
               xlink:href="#DejaVuSans-2212-9"
               transform="translate(82.666016,0.125)"
               id="use880" /><use
               xlink:href="#DejaVuSans-45-7"
               transform="translate(185.9375,0.125)"
               id="use882" /><use
               xlink:href="#DejaVuSans-46-9"
               transform="matrix(0.7,0,0,0.7,250.07812,-16.28125)"
               id="use884" /><use
               xlink:href="#DejaVuSans-28-2"
               transform="translate(325.54655,0.125)"
               id="use886" /><use
               xlink:href="#DejaVuSans-65-0"
               transform="translate(364.56022,0.125)"
               id="use888" /><use
               xlink:href="#DejaVuSans-56-2"
               transform="translate(426.08366,0.125)"
               id="use890" /><use
               xlink:href="#DejaVuSans-29-3"
               transform="translate(494.49186,0.125)"
               id="use892" /></g></g></g><g
         id="ytick_1-5"
         transform="matrix(0.35277778,0,0,0.35277778,80.843438,57.411662)"><g
           id="line2d_5-9"><defs
             id="defs899"><path
               id="path1200"
               d="M 0,0 H -6"
               style="stroke:#000000;stroke-width:1.2" /></defs><g
             id="g903"><use
               xlink:href="#mf1f5d8a465"
               x="86.400002"
               y="274.54428"
               style="stroke:#000000;stroke-width:1.2"
               id="use901" /></g></g><g
           id="text_6-2"><!-- 0.0 --><g
             transform="matrix(0.2,0,0,-0.2,45.09375,282.14271)"
             id="g915"><defs
               id="defs907"><path
                 id="path1206"
                 d="m 684,794 h 660 V 0 H 684 Z"
                 transform="scale(0.015625)" /></defs><use
               xlink:href="#DejaVuSans-30-2"
               id="use909" /><use
               xlink:href="#DejaVuSans-2e-2"
               x="63.623047"
               id="use911" /><use
               xlink:href="#DejaVuSans-30-2"
               x="95.410156"
               id="use913" /></g></g></g><g
         id="ytick_2-8"
         transform="matrix(0.35277778,0,0,0.35277778,80.843438,57.411662)"><g
           id="line2d_6-9"><g
             id="g921"><use
               xlink:href="#mf1f5d8a465"
               x="86.400002"
               y="190.82915"
               style="stroke:#000000;stroke-width:1.2"
               id="use919" /></g></g><g
           id="text_7-7"><!-- 0.8 --><g
             transform="matrix(0.2,0,0,-0.2,45.09375,198.42758)"
             id="g933"><defs
               id="defs925"><path
                 id="path1218"
                 d="m 2034,2216 q -450,0 -708,-241 -257,-241 -257,-662 0,-422 257,-663 258,-241 708,-241 450,0 709,242 260,243 260,662 0,421 -258,662 -257,241 -711,241 z m -631,268 q -406,100 -633,378 -226,279 -226,679 0,559 398,884 399,325 1092,325 697,0 1094,-325 397,-325 397,-884 0,-400 -227,-679 -226,-278 -629,-378 456,-106 710,-416 255,-309 255,-755 Q 3634,634 3220,271 2806,-91 2034,-91 1263,-91 848,271 434,634 434,1313 q 0,446 256,755 257,310 713,416 z m -231,997 q 0,-362 226,-565 227,-203 636,-203 407,0 636,203 230,203 230,565 0,363 -230,566 -229,203 -636,203 -409,0 -636,-203 -226,-203 -226,-566 z"
                 transform="scale(0.015625)" /></defs><use
               xlink:href="#DejaVuSans-30-2"
               id="use927" /><use
               xlink:href="#DejaVuSans-2e-2"
               x="63.623047"
               id="use929" /><use
               xlink:href="#DejaVuSans-38"
               x="95.410156"
               id="use931" /></g></g></g><g
         id="ytick_3-3"
         transform="matrix(0.35277778,0,0,0.35277778,80.843438,57.411662)"><g
           id="line2d_7-6"><g
             id="g939"><use
               xlink:href="#mf1f5d8a465"
               x="86.400002"
               y="107.11402"
               style="stroke:#000000;stroke-width:1.2"
               id="use937" /></g></g><g
           id="text_8-1"><!-- 1.6 --><g
             transform="matrix(0.2,0,0,-0.2,45.09375,114.71246)"
             id="g951"><defs
               id="defs943"><path
                 id="path1230"
                 d="m 2113,2584 q -425,0 -674,-291 -248,-290 -248,-796 0,-503 248,-796 249,-292 674,-292 425,0 673,292 248,293 248,796 0,506 -248,796 -248,291 -673,291 z m 1253,1979 v -575 q -238,112 -480,171 -242,60 -480,60 -625,0 -955,-422 -329,-422 -376,-1275 184,272 462,417 279,145 613,145 703,0 1111,-427 408,-426 408,-1160 0,-719 -425,-1154 -425,-434 -1131,-434 -810,0 -1238,620 -428,621 -428,1799 0,1106 525,1764 525,658 1409,658 238,0 480,-47 242,-47 505,-140 z"
                 transform="scale(0.015625)" /></defs><use
               xlink:href="#DejaVuSans-31-3"
               id="use945" /><use
               xlink:href="#DejaVuSans-2e-2"
               x="63.623047"
               id="use947" /><use
               xlink:href="#DejaVuSans-36"
               x="95.410156"
               id="use949" /></g></g></g><g
         id="ytick_4-2"
         transform="matrix(0.35277778,0,0,0.35277778,80.843438,57.411662)"><g
           id="line2d_8-9"><g
             id="g957"><use
               xlink:href="#mf1f5d8a465"
               x="86.400002"
               y="23.398891"
               style="stroke:#000000;stroke-width:1.2"
               id="use955" /></g></g><g
           id="text_9-3"><!-- 2.4 --><g
             transform="matrix(0.2,0,0,-0.2,45.09375,30.99733)"
             id="g969"><defs
               id="defs961"><path
                 id="path1242"
                 d="M 2419,4116 825,1625 h 1594 z m -166,550 h 794 V 1625 h 666 V 1100 H 3047 V 0 H 2419 V 1100 H 313 v 609 z"
                 transform="scale(0.015625)" /></defs><use
               xlink:href="#DejaVuSans-32-1"
               id="use963" /><use
               xlink:href="#DejaVuSans-2e-2"
               x="63.623047"
               id="use965" /><use
               xlink:href="#DejaVuSans-34"
               x="95.410156"
               id="use967" /></g></g></g><circle
         style="fill:#ffffff;fill-opacity:0.85098;stroke:#bcbcbc;stroke-width:0.613;stroke-linecap:round;stroke-linejoin:round;stroke-dasharray:none;stroke-opacity:1;stop-color:#000000"
         id="circle7563"
         cx="-26.321545"
         cy="67.163353"
         r="2.49088" /><circle
         style="fill:#ffffff;fill-opacity:0.85098;stroke:#bcbcbc;stroke-width:0.613;stroke-linecap:round;stroke-linejoin:round;stroke-dasharray:none;stroke-opacity:1;stop-color:#000000"
         id="circle7565"
         cx="-9.648387"
         cy="74.532883"
         r="2.49088" /><path
         style="fill:none;stroke:#bcbcbc;stroke-width:0.573;stroke-linecap:butt;stroke-linejoin:miter;stroke-dasharray:none;stroke-opacity:1"
         d="m -25.686166,69.571832 2.051182,6.524501"
         id="path7922" /><path
         style="fill:none;stroke:#bcbcbc;stroke-width:0.573;stroke-linecap:butt;stroke-linejoin:miter;stroke-dasharray:none;stroke-opacity:1"
         d="m -11.810951,75.768932 -6.539448,2.879311"
         id="path7930"
         sodipodi:nodetypes="cc" /><g
         id="line2d_9-2"
         transform="matrix(0.35277778,0,0,0.35277778,80.843438,57.411662)"><path
           d="m 86.265477,274.54427 18.807983,-0.0886 0.46439,-0.26339 0.2322,-0.31349 0.2322,-0.54915 0.23219,-0.92564 0.2322,-1.50056 0.2322,-2.33836 0.46439,-8.53046 0.4644,-16.07557 0.46439,-25.41709 1.39319,-91.68003 0.23219,-5.77955 0.2322,-0.48912 0.2322,4.85209 0.46439,23.26773 1.39319,93.33974 0.46439,16.88003 0.4644,9.0958 0.46439,4.15346 0.4644,1.61828 0.46439,0.54039 0.46439,0.15514 1.39319,0.0481 139.08618,-0.005 0.92879,-0.11152 0.4644,-0.32932 0.2322,-0.38098 0.23219,-0.65331 0.2322,-1.0777 0.2322,-1.70935 0.46439,-6.4182 0.4644,-12.55639 0.46439,-20.67044 1.62538,-90.37974 0.2322,-2.55709 0.2322,2.21853 0.23219,6.76449 0.4644,24.0873 1.16099,70.51935 0.46439,16.77001 0.46439,9.38822 0.4644,4.44485 0.46439,1.7933 0.4644,0.61957 0.46439,0.18392 1.16099,0.0588 36.22278,-0.0136 0.69659,-0.0984 0.4644,-0.2579 0.46439,-0.6867 0.4644,-1.56203 0.46439,-3.01676 0.46439,-4.89787 1.62539,-20.48133 0.23219,-0.41964 0.2322,0.67686 0.2322,1.70344 0.46439,5.72771 1.16099,16.05116 0.46439,3.7076 0.4644,2.04823 0.46439,0.95765 0.4644,0.38172 0.69659,0.15552 2.32197,0.0253 104.48879,-0.0959 0.46439,-0.29918 0.2322,-0.36552 0.2322,-0.65298 0.2322,-1.12269 0.23219,-1.85689 0.2322,-2.95312 0.4644,-11.13695 0.46439,-21.91174 0.46439,-36.29109 1.62539,-161.788414 0.23219,-5.122076 0.2322,3.375901 0.2322,11.524153 0.46439,42.192659 1.16099,126.013937 0.46439,30.35633 0.4644,17.09417 0.46439,8.13819 0.4644,3.30097 0.46439,1.14641 0.4644,0.34205 0.69659,0.10131 4.64395,0.0105 19.04017,-0.0585 0.4644,-0.17489 0.2322,-0.20877 0.23219,-0.36653 0.2322,-0.61921 0.2322,-1.0061 0.23219,-1.57146 0.4644,-5.75444 0.46439,-10.89759 0.4644,-17.32206 1.39318,-63.41283 0.2322,-4.18385 0.2322,-0.55347 0.23219,3.13433 0.4644,15.71649 1.39318,64.46376 0.4644,11.808 0.46439,6.39433 0.4644,2.93363 0.46439,1.1482 0.4644,0.38513 0.69659,0.12972 3.25076,0.0161 h 15.78942 v 0"
           clip-path="url(#pf17c0af96f)"
           style="fill:none;stroke:#243c6e;stroke-width:2.5;stroke-linecap:square"
           id="path1026" /></g><g
         id="line2d_10-0"
         transform="matrix(0.35277778,0,0,0.35277778,80.843438,57.411662)"><path
           d="m 86.265477,274.54427 19.040183,-0.0766 0.46439,-0.2071 0.2322,-0.23414 0.23219,-0.39465 0.2322,-0.63978 0.2322,-0.99698 0.46439,-3.63704 0.4644,-6.85396 0.46439,-10.83681 1.39319,-39.0886 0.23219,-2.46417 0.2322,-0.20854 0.2322,2.06873 0.46439,9.92041 1.39319,39.79624 0.46439,7.19695 0.4644,3.87808 0.46439,1.77086 0.4644,0.68997 0.46439,0.2304 0.92879,0.0825 10.91327,0.004 130.72709,-0.088 0.46439,-0.18412 0.46439,-0.45893 0.4644,-0.97499 0.46439,-1.7524 0.6966,-4.20713 0.92879,-5.86671 0.23219,-0.75182 0.2322,-0.27198 0.2322,0.23597 0.23219,0.71951 0.4644,2.56206 1.16099,7.50083 0.46439,1.78375 0.46439,0.99859 0.4644,0.47278 0.69659,0.23291 1.39319,0.0491 36.91937,-0.0405 0.46439,-0.11429 0.4644,-0.35478 0.23219,-0.36664 0.4644,-1.45352 0.46439,-3.04944 0.4644,-5.40842 0.69659,-12.73788 0.69659,-13.84535 0.4644,-5.29468 0.23219,-0.57727 0.2322,0.93112 0.2322,2.34331 0.46439,7.87924 1.16099,22.08055 0.46439,5.10031 0.4644,2.81762 0.46439,1.31737 0.4644,0.52512 0.46439,0.17929 1.16099,0.0679 15.55722,-0.0351 0.46439,-0.10772 0.4644,-0.34999 0.23219,-0.37343 0.2322,-0.60283 0.4644,-2.32961 0.46439,-4.73006 0.4644,-8.10227 0.69659,-18.14333 0.69659,-18.18891 0.46439,-5.83061 0.2322,0.0348 0.2322,2.06633 0.46439,9.20723 1.39319,35.49972 0.46439,6.27098 0.4644,3.34849 0.46439,1.51586 0.4644,0.5857 0.46439,0.19399 1.16099,0.0708 29.72125,0.001 50.61901,-0.10911 0.4644,-0.28128 0.2322,-0.31004 0.23219,-0.5128 0.2322,-0.81554 0.4644,-3.0756 0.46439,-6.05119 0.46439,-10.02222 1.62539,-44.67981 0.23219,-1.41453 0.2322,0.9323 0.2322,3.18253 0.46439,11.65201 1.16099,34.80026 0.46439,8.38327 0.4644,4.72076 0.46439,2.24745 0.4644,0.91161 0.46439,0.31659 0.69659,0.1108 3.48296,0.0145 20.66556,-0.0982 0.4644,-0.2935 0.2322,-0.35037 0.23219,-0.61514 0.2322,-1.03918 0.2322,-1.68849 0.23219,-2.6373 0.4644,-9.65738 0.46439,-18.28889 0.4644,-29.07073 1.39318,-106.42257 0.2322,-7.021536 0.2322,-0.928863 0.23219,5.260189 0.4644,26.3762 1.39318,108.18628 0.4644,19.81678 0.46439,10.73127 0.4644,4.92336 0.46439,1.92698 0.4644,0.64633 0.46439,0.18637 1.16099,0.0575 18.11139,8.8e-4 v 0"
           clip-path="url(#pf17c0af96f)"
           style="fill:none;stroke:#7d7c78;stroke-width:2.5;stroke-linecap:square"
           id="path1029" /></g><g
         id="line2d_11-6"
         transform="matrix(0.35277778,0,0,0.35277778,80.843438,57.411662)"><path
           d="M 86.265477,274.54427 H 482.62628 v 0"
           clip-path="url(#pf17c0af96f)"
           style="fill:none;stroke:#d6c35d;stroke-width:2.5;stroke-linecap:square"
           id="path1032" /></g><g
         id="line2d_12-1"
         transform="matrix(0.35277778,0,0,0.35277778,80.843438,57.411662)"><path
           d="M 333.9,286.7241 V 18.767861"
           clip-path="url(#pf17c0af96f)"
           style="fill:none;stroke:#000000;stroke-width:1.2;stroke-dasharray:4.44, 1.92;stroke-dashoffset:0"
           id="path1035" /></g><g
         id="patch_3-5"
         transform="matrix(0.35277778,0,0,0.35277778,80.843438,57.411662)"><path
           d="M 86.4,286.7241 V 18.767861"
           style="fill:none;stroke:#000000;stroke-width:1.2;stroke-linecap:square;stroke-linejoin:miter"
           id="path1038" /></g><g
         id="patch_4-5"
         transform="matrix(0.35277778,0,0,0.35277778,80.843438,57.411662)"><path
           d="m 86.4,286.7241 h 396"
           style="fill:none;stroke:#000000;stroke-width:1.2;stroke-linecap:square;stroke-linejoin:miter"
           id="path1041" /></g><g
         id="legend_1-4"
         transform="matrix(0.35277778,0,0,0.35277778,82.501494,57.411662)"><g
           id="line2d_13-7"><path
             d="m 102.6,42.345049 h 18 18"
             style="fill:none;stroke:#243c6e;stroke-width:2.5;stroke-linecap:square"
             id="path1044" /></g><g
           id="text_11-6"><!--  s --><g
             transform="matrix(0.18,0,0,-0.18,153,48.645049)"
             id="g1051"><use
               xlink:href="#DejaVuSans-20-4"
               id="use1047" /><use
               xlink:href="#DejaVuSans-73-3"
               x="31.787109"
               id="use1049" /></g></g><g
           id="line2d_14-5"><path
             d="m 102.6,68.765674 h 18 18"
             style="fill:none;stroke:#7d7c78;stroke-width:2.5;stroke-linecap:square"
             id="path1054" /></g><g
           id="text_12-6"><!--  p --><g
             transform="matrix(0.18,0,0,-0.18,153,75.065674)"
             id="g1064"><defs
               id="defs1058"><path
                 id="path1318"
                 d="M 1159,525 V -1331 H 581 v 4831 h 578 v -531 q 182,312 458,463 277,152 661,152 638,0 1036,-506 399,-506 399,-1331 0,-825 -399,-1332 -398,-506 -1036,-506 -384,0 -661,152 -276,152 -458,464 z m 1957,1222 q 0,634 -261,995 -261,361 -717,361 -457,0 -718,-361 -261,-361 -261,-995 0,-634 261,-995 261,-361 718,-361 456,0 717,361 261,361 261,995 z"
                 transform="scale(0.015625)" /></defs><use
               xlink:href="#DejaVuSans-20-4"
               id="use1060" /><use
               xlink:href="#DejaVuSans-70-9"
               x="31.787109"
               id="use1062" /></g></g><g
           id="line2d_15-3"><path
             d="m 102.6,95.186299 h 18 18"
             style="fill:none;stroke:#d6c35d;stroke-width:2.5;stroke-linecap:square"
             id="path1067" /></g><g
           id="text_13-7"><!--  d --><g
             transform="matrix(0.18,0,0,-0.18,153,101.4863)"
             id="g1077"><defs
               id="defs1071"><path
                 id="path1327"
                 d="m 2906,2969 v 1894 h 575 V 0 H 2906 V 525 Q 2725,213 2448,61 2172,-91 1784,-91 1150,-91 751,415 353,922 353,1747 q 0,825 398,1331 399,506 1033,506 388,0 664,-152 277,-151 458,-463 z M 947,1747 q 0,-634 261,-995 261,-361 717,-361 456,0 718,361 263,361 263,995 0,634 -263,995 -262,361 -718,361 -456,0 -717,-361 -261,-361 -261,-995 z"
                 transform="scale(0.015625)" /></defs><use
               xlink:href="#DejaVuSans-20-4"
               id="use1073" /><use
               xlink:href="#DejaVuSans-64-4"
               x="31.787109"
               id="use1075" /></g></g></g><circle
         style="fill:#fe3843;fill-opacity:1;stroke:#000000;stroke-width:0.613;stroke-linecap:round;stroke-linejoin:round;stroke-dasharray:none;stroke-opacity:1;stop-color:#000000"
         id="path7561"
         cx="-22.399517"
         cy="80.285583"
         r="4.3676348" /><circle
         style="fill:#ffffff;fill-opacity:0.85098;stroke:#000000;stroke-width:0.613;stroke-linecap:round;stroke-linejoin:round;stroke-dasharray:none;stroke-opacity:1;stop-color:#000000"
         id="circle3879"
         cx="158.7054"
         cy="67.163353"
         r="2.49088" /><circle
         style="fill:#ffffff;fill-opacity:0.85098;stroke:#000000;stroke-width:0.613;stroke-linecap:round;stroke-linejoin:round;stroke-dasharray:none;stroke-opacity:1;stop-color:#000000"
         id="circle3881"
         cx="175.37856"
         cy="74.532883"
         r="2.49088" /><path
         style="fill:none;stroke:#000000;stroke-width:0.573;stroke-linecap:butt;stroke-linejoin:miter;stroke-dasharray:none;stroke-opacity:1"
         d="m 159.34077,69.571832 2.05118,6.524501"
         id="path3883" /><path
         style="fill:none;stroke:#000000;stroke-width:0.573;stroke-linecap:butt;stroke-linejoin:miter;stroke-dasharray:none;stroke-opacity:1"
         d="m 173.21599,75.768932 -6.53945,2.879311"
         id="path3885"
         sodipodi:nodetypes="cc" /><circle
         style="fill:#ffaeb3;fill-opacity:1;stroke:#b1b1b1;stroke-width:0.613;stroke-linecap:round;stroke-linejoin:round;stroke-dasharray:none;stroke-opacity:1;stop-color:#000000"
         id="circle3887"
         cx="162.62743"
         cy="80.285583"
         r="4.3676348" /></g></g></svg>
