<?xml version="1.0" encoding="UTF-8" standalone="no"?>
<svg
   width="648pt"
   height="346.32pt"
   viewBox="0 0 648 346.32"
   version="1.1"
   id="svg326"
   sodipodi:docname="01_PDOS_spd.svg"
   inkscape:version="1.2.2 (b0a8486541, 2022-12-01)"
   xmlns:inkscape="http://www.inkscape.org/namespaces/inkscape"
   xmlns:sodipodi="http://sodipodi.sourceforge.net/DTD/sodipodi-0.dtd"
   xmlns:xlink="http://www.w3.org/1999/xlink"
   xmlns="http://www.w3.org/2000/svg"
   xmlns:svg="http://www.w3.org/2000/svg"
   xmlns:rdf="http://www.w3.org/1999/02/22-rdf-syntax-ns#"
   xmlns:cc="http://creativecommons.org/ns#"
   xmlns:dc="http://purl.org/dc/elements/1.1/">
  <sodipodi:namedview
     id="namedview328"
     pagecolor="#ffffff"
     bordercolor="#666666"
     borderopacity="1.0"
     inkscape:showpageshadow="2"
     inkscape:pageopacity="0.0"
     inkscape:pagecheckerboard="0"
     inkscape:deskcolor="#d1d1d1"
     inkscape:document-units="pt"
     showgrid="false"
     inkscape:zoom="1.022176"
     inkscape:cx="502.35967"
     inkscape:cy="439.25899"
     inkscape:window-width="1920"
     inkscape:window-height="1002"
     inkscape:window-x="1920"
     inkscape:window-y="0"
     inkscape:window-maximized="1"
     inkscape:current-layer="svg326" />
  <metadata
     id="metadata2">
    <rdf:RDF>
      <cc:Work>
        <dc:type
           rdf:resource="http://purl.org/dc/dcmitype/StillImage" />
        <dc:date>2025-12-15T12:49:53.048224</dc:date>
        <dc:format>image/svg+xml</dc:format>
        <dc:creator>
          <cc:Agent>
            <dc:title>Matplotlib v3.6.3, https://matplotlib.org/</dc:title>
          </cc:Agent>
        </dc:creator>
      </cc:Work>
    </rdf:RDF>
  </metadata>
  <defs
     id="defs6">
    <rect
       x="135.3"
       y="-96.475981"
       width="629.73709"
       height="276.44389"
       id="rect864" />
    <style
       type="text/css"
       id="style4">*{stroke-linejoin: round; stroke-linecap: butt}</style>
    <rect
       x="135.3"
       y="-96.475981"
       width="629.73709"
       height="276.44389"
       id="rect926" />
    <rect
       x="135.3"
       y="-96.475981"
       width="629.73709"
       height="276.44389"
       id="rect934" />
    <rect
       x="135.3"
       y="-96.475981"
       width="629.73709"
       height="276.44389"
       id="rect942" />
    <rect
       x="135.3"
       y="-96.475981"
       width="629.73709"
       height="276.44389"
       id="rect950" />
    <rect
       x="135.3"
       y="-96.475981"
       width="629.73709"
       height="276.44389"
       id="rect958" />
    <rect
       x="135.3"
       y="-96.475981"
       width="629.73709"
       height="276.44389"
       id="rect966" />
  </defs>
  <defs
     id="defs324">
    <clipPath
       id="p04b4e47dfd">
      <rect
         x="67.275"
         y="17.316"
         width="559.125"
         height="269.4081"
         id="rect321" />
    </clipPath>
  </defs>
  <g
     id="g1188">
    <g
       id="figure_1">
      <g
         id="patch_1">
        <path
           d="M 0 346.32  L 648 346.32  L 648 0  L 0 0  z "
           style="fill: #ffffff"
           id="path8" />
      </g>
      <g
         id="axes_1">
        <g
           id="patch_2">
          <path
             d="M 67.275 286.7241  L 626.4 286.7241  L 626.4 17.316  L 67.275 17.316  z "
             style="fill: #ffffff"
             id="path11" />
        </g>
        <g
           id="matplotlib.axis_1">
          <g
             id="xtick_1">
            <g
               id="line2d_1">
              <defs
                 id="defs15">
                <path
                   id="mdd3e338b1c"
                   d="M 0 0  L 0 6  "
                   style="stroke: #000000; stroke-width: 1.2" />
              </defs>
              <g
                 id="g19">
                <use
                   xlink:href="#mdd3e338b1c"
                   x="94.108461"
                   y="286.7241"
                   style="stroke: #000000; stroke-width: 1.2"
                   id="use17" />
              </g>
            </g>
            <g
               id="text_1">
              <!-- −20 -->
              <g
                 transform="translate(73.003774 311.420975) scale(0.2 -0.2)"
                 id="g33">
                <defs
                   id="defs25">
                  <path
                     id="DejaVuSans-2212"
                     d="M 678 2272  L 4684 2272  L 4684 1741  L 678 1741  L 678 2272  z "
                     transform="scale(0.015625)" />
                  <path
                     id="DejaVuSans-32"
                     d="M 1228 531  L 3431 531  L 3431 0  L 469 0  L 469 531  Q 828 903 1448 1529  Q 2069 2156 2228 2338  Q 2531 2678 2651 2914  Q 2772 3150 2772 3378  Q 2772 3750 2511 3984  Q 2250 4219 1831 4219  Q 1534 4219 1204 4116  Q 875 4013 500 3803  L 500 4441  Q 881 4594 1212 4672  Q 1544 4750 1819 4750  Q 2544 4750 2975 4387  Q 3406 4025 3406 3419  Q 3406 3131 3298 2873  Q 3191 2616 2906 2266  Q 2828 2175 2409 1742  Q 1991 1309 1228 531  z "
                     transform="scale(0.015625)" />
                  <path
                     id="DejaVuSans-30"
                     d="M 2034 4250  Q 1547 4250 1301 3770  Q 1056 3291 1056 2328  Q 1056 1369 1301 889  Q 1547 409 2034 409  Q 2525 409 2770 889  Q 3016 1369 3016 2328  Q 3016 3291 2770 3770  Q 2525 4250 2034 4250  z M 2034 4750  Q 2819 4750 3233 4129  Q 3647 3509 3647 2328  Q 3647 1150 3233 529  Q 2819 -91 2034 -91  Q 1250 -91 836 529  Q 422 1150 422 2328  Q 422 3509 836 4129  Q 1250 4750 2034 4750  z "
                     transform="scale(0.015625)" />
                </defs>
                <use
                   xlink:href="#DejaVuSans-2212"
                   id="use27" />
                <use
                   xlink:href="#DejaVuSans-32"
                   x="83.789062"
                   id="use29" />
                <use
                   xlink:href="#DejaVuSans-30"
                   x="147.412109"
                   id="use31" />
              </g>
            </g>
          </g>
          <g
             id="xtick_2">
            <g
               id="line2d_2">
              <g
                 id="g39">
                <use
                   xlink:href="#mdd3e338b1c"
                   x="161.8666"
                   y="286.7241"
                   style="stroke: #000000; stroke-width: 1.2"
                   id="use37" />
              </g>
            </g>
            <g
               id="text_2">
              <!-- −15 -->
              <g
                 transform="translate(140.761912 311.420975) scale(0.2 -0.2)"
                 id="g52">
                <defs
                   id="defs44">
                  <path
                     id="DejaVuSans-31"
                     d="M 794 531  L 1825 531  L 1825 4091  L 703 3866  L 703 4441  L 1819 4666  L 2450 4666  L 2450 531  L 3481 531  L 3481 0  L 794 0  L 794 531  z "
                     transform="scale(0.015625)" />
                  <path
                     id="DejaVuSans-35"
                     d="M 691 4666  L 3169 4666  L 3169 4134  L 1269 4134  L 1269 2991  Q 1406 3038 1543 3061  Q 1681 3084 1819 3084  Q 2600 3084 3056 2656  Q 3513 2228 3513 1497  Q 3513 744 3044 326  Q 2575 -91 1722 -91  Q 1428 -91 1123 -41  Q 819 9 494 109  L 494 744  Q 775 591 1075 516  Q 1375 441 1709 441  Q 2250 441 2565 725  Q 2881 1009 2881 1497  Q 2881 1984 2565 2268  Q 2250 2553 1709 2553  Q 1456 2553 1204 2497  Q 953 2441 691 2322  L 691 4666  z "
                     transform="scale(0.015625)" />
                </defs>
                <use
                   xlink:href="#DejaVuSans-2212"
                   id="use46" />
                <use
                   xlink:href="#DejaVuSans-31"
                   x="83.789062"
                   id="use48" />
                <use
                   xlink:href="#DejaVuSans-35"
                   x="147.412109"
                   id="use50" />
              </g>
            </g>
          </g>
          <g
             id="xtick_3">
            <g
               id="line2d_3">
              <g
                 id="g58">
                <use
                   xlink:href="#mdd3e338b1c"
                   x="229.624739"
                   y="286.7241"
                   style="stroke: #000000; stroke-width: 1.2"
                   id="use56" />
              </g>
            </g>
            <g
               id="text_3">
              <!-- −10 -->
              <g
                 transform="translate(208.520051 311.420975) scale(0.2 -0.2)"
                 id="g67">
                <use
                   xlink:href="#DejaVuSans-2212"
                   id="use61" />
                <use
                   xlink:href="#DejaVuSans-31"
                   x="83.789062"
                   id="use63" />
                <use
                   xlink:href="#DejaVuSans-30"
                   x="147.412109"
                   id="use65" />
              </g>
            </g>
          </g>
          <g
             id="xtick_4">
            <g
               id="line2d_4">
              <g
                 id="g73">
                <use
                   xlink:href="#mdd3e338b1c"
                   x="297.382878"
                   y="286.7241"
                   style="stroke: #000000; stroke-width: 1.2"
                   id="use71" />
              </g>
            </g>
            <g
               id="text_4">
              <!-- −5 -->
              <g
                 transform="translate(282.64069 311.420975) scale(0.2 -0.2)"
                 id="g80">
                <use
                   xlink:href="#DejaVuSans-2212"
                   id="use76" />
                <use
                   xlink:href="#DejaVuSans-35"
                   x="83.789062"
                   id="use78" />
              </g>
            </g>
          </g>
          <g
             id="xtick_5">
            <g
               id="line2d_5">
              <g
                 id="g86">
                <use
                   xlink:href="#mdd3e338b1c"
                   x="365.141016"
                   y="286.7241"
                   style="stroke: #000000; stroke-width: 1.2"
                   id="use84" />
              </g>
            </g>
            <g
               id="text_5">
              <!-- 0 -->
              <g
                 transform="translate(358.778516 311.420975) scale(0.2 -0.2)"
                 id="g91">
                <use
                   xlink:href="#DejaVuSans-30"
                   id="use89" />
              </g>
            </g>
          </g>
          <g
             id="xtick_6">
            <g
               id="line2d_6">
              <g
                 id="g97">
                <use
                   xlink:href="#mdd3e338b1c"
                   x="432.899155"
                   y="286.7241"
                   style="stroke: #000000; stroke-width: 1.2"
                   id="use95" />
              </g>
            </g>
            <g
               id="text_6">
              <!-- 5 -->
              <g
                 transform="translate(426.536655 311.420975) scale(0.2 -0.2)"
                 id="g102">
                <use
                   xlink:href="#DejaVuSans-35"
                   id="use100" />
              </g>
            </g>
          </g>
          <g
             id="xtick_7">
            <g
               id="line2d_7">
              <g
                 id="g108">
                <use
                   xlink:href="#mdd3e338b1c"
                   x="500.657294"
                   y="286.7241"
                   style="stroke: #000000; stroke-width: 1.2"
                   id="use106" />
              </g>
            </g>
            <g
               id="text_7">
              <!-- 10 -->
              <g
                 transform="translate(487.932294 311.420975) scale(0.2 -0.2)"
                 id="g115">
                <use
                   xlink:href="#DejaVuSans-31"
                   id="use111" />
                <use
                   xlink:href="#DejaVuSans-30"
                   x="63.623047"
                   id="use113" />
              </g>
            </g>
          </g>
          <g
             id="xtick_8">
            <g
               id="line2d_8">
              <g
                 id="g121">
                <use
                   xlink:href="#mdd3e338b1c"
                   x="568.415433"
                   y="286.7241"
                   style="stroke: #000000; stroke-width: 1.2"
                   id="use119" />
              </g>
            </g>
            <g
               id="text_8">
              <!-- 15 -->
              <g
                 transform="translate(555.690433 311.420975) scale(0.2 -0.2)"
                 id="g128">
                <use
                   xlink:href="#DejaVuSans-31"
                   id="use124" />
                <use
                   xlink:href="#DejaVuSans-35"
                   x="63.623047"
                   id="use126" />
              </g>
            </g>
          </g>
          <g
             id="text_9">
            <!-- $\mathrm{E - E_F\ (eV)}$ -->
            <g
               transform="translate(293.4375 334.777225) scale(0.2 -0.2)"
               id="g156">
              <defs
                 id="defs138">
                <path
                   id="DejaVuSans-45"
                   d="M 628 4666  L 3578 4666  L 3578 4134  L 1259 4134  L 1259 2753  L 3481 2753  L 3481 2222  L 1259 2222  L 1259 531  L 3634 531  L 3634 0  L 628 0  L 628 4666  z "
                   transform="scale(0.015625)" />
                <path
                   id="DejaVuSans-46"
                   d="M 628 4666  L 3309 4666  L 3309 4134  L 1259 4134  L 1259 2759  L 3109 2759  L 3109 2228  L 1259 2228  L 1259 0  L 628 0  L 628 4666  z "
                   transform="scale(0.015625)" />
                <path
                   id="DejaVuSans-28"
                   d="M 1984 4856  Q 1566 4138 1362 3434  Q 1159 2731 1159 2009  Q 1159 1288 1364 580  Q 1569 -128 1984 -844  L 1484 -844  Q 1016 -109 783 600  Q 550 1309 550 2009  Q 550 2706 781 3412  Q 1013 4119 1484 4856  L 1984 4856  z "
                   transform="scale(0.015625)" />
                <path
                   id="DejaVuSans-65"
                   d="M 3597 1894  L 3597 1613  L 953 1613  Q 991 1019 1311 708  Q 1631 397 2203 397  Q 2534 397 2845 478  Q 3156 559 3463 722  L 3463 178  Q 3153 47 2828 -22  Q 2503 -91 2169 -91  Q 1331 -91 842 396  Q 353 884 353 1716  Q 353 2575 817 3079  Q 1281 3584 2069 3584  Q 2775 3584 3186 3129  Q 3597 2675 3597 1894  z M 3022 2063  Q 3016 2534 2758 2815  Q 2500 3097 2075 3097  Q 1594 3097 1305 2825  Q 1016 2553 972 2059  L 3022 2063  z "
                   transform="scale(0.015625)" />
                <path
                   id="DejaVuSans-56"
                   d="M 1831 0  L 50 4666  L 709 4666  L 2188 738  L 3669 4666  L 4325 4666  L 2547 0  L 1831 0  z "
                   transform="scale(0.015625)" />
                <path
                   id="DejaVuSans-29"
                   d="M 513 4856  L 1013 4856  Q 1481 4119 1714 3412  Q 1947 2706 1947 2009  Q 1947 1309 1714 600  Q 1481 -109 1013 -844  L 513 -844  Q 928 -128 1133 580  Q 1338 1288 1338 2009  Q 1338 2731 1133 3434  Q 928 4138 513 4856  z "
                   transform="scale(0.015625)" />
              </defs>
              <use
                 xlink:href="#DejaVuSans-45"
                 transform="translate(0 0.125)"
                 id="use140" />
              <use
                 xlink:href="#DejaVuSans-2212"
                 transform="translate(82.666016 0.125)"
                 id="use142" />
              <use
                 xlink:href="#DejaVuSans-45"
                 transform="translate(185.9375 0.125)"
                 id="use144" />
              <use
                 xlink:href="#DejaVuSans-46"
                 transform="translate(250.078125 -16.28125) scale(0.7)"
                 id="use146" />
              <use
                 xlink:href="#DejaVuSans-28"
                 transform="translate(325.54655 0.125)"
                 id="use148" />
              <use
                 xlink:href="#DejaVuSans-65"
                 transform="translate(364.560222 0.125)"
                 id="use150" />
              <use
                 xlink:href="#DejaVuSans-56"
                 transform="translate(426.08366 0.125)"
                 id="use152" />
              <use
                 xlink:href="#DejaVuSans-29"
                 transform="translate(494.491863 0.125)"
                 id="use154" />
            </g>
          </g>
        </g>
        <g
           id="matplotlib.axis_2">
          <g
             id="ytick_1">
            <g
               id="line2d_9">
              <defs
                 id="defs161">
                <path
                   id="m72e7970713"
                   d="M 0 0  L -6 0  "
                   style="stroke: #000000; stroke-width: 1.2" />
              </defs>
              <g
                 id="g165">
                <use
                   xlink:href="#m72e7970713"
                   x="67.275"
                   y="274.478277"
                   style="stroke: #000000; stroke-width: 1.2"
                   id="use163" />
              </g>
            </g>
            <g
               id="text_10">
              <!-- 0 -->
              <g
                 transform="translate(45.05 282.076715) scale(0.2 -0.2)"
                 id="g170">
                <use
                   xlink:href="#DejaVuSans-30"
                   id="use168" />
              </g>
            </g>
          </g>
          <g
             id="ytick_2">
            <g
               id="line2d_10">
              <g
                 id="g176">
                <use
                   xlink:href="#m72e7970713"
                   x="67.275"
                   y="202.658574"
                   style="stroke: #000000; stroke-width: 1.2"
                   id="use174" />
              </g>
            </g>
            <g
               id="text_11">
              <!-- 1 -->
              <g
                 transform="translate(45.05 210.257012) scale(0.2 -0.2)"
                 id="g181">
                <use
                   xlink:href="#DejaVuSans-31"
                   id="use179" />
              </g>
            </g>
          </g>
          <g
             id="ytick_3">
            <g
               id="line2d_11">
              <g
                 id="g187">
                <use
                   xlink:href="#m72e7970713"
                   x="67.275"
                   y="130.838871"
                   style="stroke: #000000; stroke-width: 1.2"
                   id="use185" />
              </g>
            </g>
            <g
               id="text_12">
              <!-- 2 -->
              <g
                 transform="translate(45.05 138.437308) scale(0.2 -0.2)"
                 id="g192">
                <use
                   xlink:href="#DejaVuSans-32"
                   id="use190" />
              </g>
            </g>
          </g>
          <g
             id="ytick_4">
            <g
               id="line2d_12">
              <g
                 id="g198">
                <use
                   xlink:href="#m72e7970713"
                   x="67.275"
                   y="59.019168"
                   style="stroke: #000000; stroke-width: 1.2"
                   id="use196" />
              </g>
            </g>
            <g
               id="text_13">
              <!-- 3 -->
              <g
                 transform="translate(45.05 66.617605) scale(0.2 -0.2)"
                 id="g206">
                <defs
                   id="defs202">
                  <path
                     id="DejaVuSans-33"
                     d="M 2597 2516  Q 3050 2419 3304 2112  Q 3559 1806 3559 1356  Q 3559 666 3084 287  Q 2609 -91 1734 -91  Q 1441 -91 1130 -33  Q 819 25 488 141  L 488 750  Q 750 597 1062 519  Q 1375 441 1716 441  Q 2309 441 2620 675  Q 2931 909 2931 1356  Q 2931 1769 2642 2001  Q 2353 2234 1838 2234  L 1294 2234  L 1294 2753  L 1863 2753  Q 2328 2753 2575 2939  Q 2822 3125 2822 3475  Q 2822 3834 2567 4026  Q 2313 4219 1838 4219  Q 1578 4219 1281 4162  Q 984 4106 628 3988  L 628 4550  Q 988 4650 1302 4700  Q 1616 4750 1894 4750  Q 2613 4750 3031 4423  Q 3450 4097 3450 3541  Q 3450 3153 3228 2886  Q 3006 2619 2597 2516  z "
                     transform="scale(0.015625)" />
                </defs>
                <use
                   xlink:href="#DejaVuSans-33"
                   id="use204" />
              </g>
            </g>
          </g>
          <g
             id="text_14">
            <!-- PDOS (arb. units) -->
            <g
               transform="translate(36.890625 238.477863) rotate(-90) scale(0.2 -0.2)"
               id="g260">
              <defs
                 id="defs224">
                <path
                   id="DejaVuSans-50"
                   d="M 1259 4147  L 1259 2394  L 2053 2394  Q 2494 2394 2734 2622  Q 2975 2850 2975 3272  Q 2975 3691 2734 3919  Q 2494 4147 2053 4147  L 1259 4147  z M 628 4666  L 2053 4666  Q 2838 4666 3239 4311  Q 3641 3956 3641 3272  Q 3641 2581 3239 2228  Q 2838 1875 2053 1875  L 1259 1875  L 1259 0  L 628 0  L 628 4666  z "
                   transform="scale(0.015625)" />
                <path
                   id="DejaVuSans-44"
                   d="M 1259 4147  L 1259 519  L 2022 519  Q 2988 519 3436 956  Q 3884 1394 3884 2338  Q 3884 3275 3436 3711  Q 2988 4147 2022 4147  L 1259 4147  z M 628 4666  L 1925 4666  Q 3281 4666 3915 4102  Q 4550 3538 4550 2338  Q 4550 1131 3912 565  Q 3275 0 1925 0  L 628 0  L 628 4666  z "
                   transform="scale(0.015625)" />
                <path
                   id="DejaVuSans-4f"
                   d="M 2522 4238  Q 1834 4238 1429 3725  Q 1025 3213 1025 2328  Q 1025 1447 1429 934  Q 1834 422 2522 422  Q 3209 422 3611 934  Q 4013 1447 4013 2328  Q 4013 3213 3611 3725  Q 3209 4238 2522 4238  z M 2522 4750  Q 3503 4750 4090 4092  Q 4678 3434 4678 2328  Q 4678 1225 4090 567  Q 3503 -91 2522 -91  Q 1538 -91 948 565  Q 359 1222 359 2328  Q 359 3434 948 4092  Q 1538 4750 2522 4750  z "
                   transform="scale(0.015625)" />
                <path
                   id="DejaVuSans-53"
                   d="M 3425 4513  L 3425 3897  Q 3066 4069 2747 4153  Q 2428 4238 2131 4238  Q 1616 4238 1336 4038  Q 1056 3838 1056 3469  Q 1056 3159 1242 3001  Q 1428 2844 1947 2747  L 2328 2669  Q 3034 2534 3370 2195  Q 3706 1856 3706 1288  Q 3706 609 3251 259  Q 2797 -91 1919 -91  Q 1588 -91 1214 -16  Q 841 59 441 206  L 441 856  Q 825 641 1194 531  Q 1563 422 1919 422  Q 2459 422 2753 634  Q 3047 847 3047 1241  Q 3047 1584 2836 1778  Q 2625 1972 2144 2069  L 1759 2144  Q 1053 2284 737 2584  Q 422 2884 422 3419  Q 422 4038 858 4394  Q 1294 4750 2059 4750  Q 2388 4750 2728 4690  Q 3069 4631 3425 4513  z "
                   transform="scale(0.015625)" />
                <path
                   id="DejaVuSans-20"
                   transform="scale(0.015625)" />
                <path
                   id="DejaVuSans-61"
                   d="M 2194 1759  Q 1497 1759 1228 1600  Q 959 1441 959 1056  Q 959 750 1161 570  Q 1363 391 1709 391  Q 2188 391 2477 730  Q 2766 1069 2766 1631  L 2766 1759  L 2194 1759  z M 3341 1997  L 3341 0  L 2766 0  L 2766 531  Q 2569 213 2275 61  Q 1981 -91 1556 -91  Q 1019 -91 701 211  Q 384 513 384 1019  Q 384 1609 779 1909  Q 1175 2209 1959 2209  L 2766 2209  L 2766 2266  Q 2766 2663 2505 2880  Q 2244 3097 1772 3097  Q 1472 3097 1187 3025  Q 903 2953 641 2809  L 641 3341  Q 956 3463 1253 3523  Q 1550 3584 1831 3584  Q 2591 3584 2966 3190  Q 3341 2797 3341 1997  z "
                   transform="scale(0.015625)" />
                <path
                   id="DejaVuSans-72"
                   d="M 2631 2963  Q 2534 3019 2420 3045  Q 2306 3072 2169 3072  Q 1681 3072 1420 2755  Q 1159 2438 1159 1844  L 1159 0  L 581 0  L 581 3500  L 1159 3500  L 1159 2956  Q 1341 3275 1631 3429  Q 1922 3584 2338 3584  Q 2397 3584 2469 3576  Q 2541 3569 2628 3553  L 2631 2963  z "
                   transform="scale(0.015625)" />
                <path
                   id="DejaVuSans-62"
                   d="M 3116 1747  Q 3116 2381 2855 2742  Q 2594 3103 2138 3103  Q 1681 3103 1420 2742  Q 1159 2381 1159 1747  Q 1159 1113 1420 752  Q 1681 391 2138 391  Q 2594 391 2855 752  Q 3116 1113 3116 1747  z M 1159 2969  Q 1341 3281 1617 3432  Q 1894 3584 2278 3584  Q 2916 3584 3314 3078  Q 3713 2572 3713 1747  Q 3713 922 3314 415  Q 2916 -91 2278 -91  Q 1894 -91 1617 61  Q 1341 213 1159 525  L 1159 0  L 581 0  L 581 4863  L 1159 4863  L 1159 2969  z "
                   transform="scale(0.015625)" />
                <path
                   id="DejaVuSans-2e"
                   d="M 684 794  L 1344 794  L 1344 0  L 684 0  L 684 794  z "
                   transform="scale(0.015625)" />
                <path
                   id="DejaVuSans-75"
                   d="M 544 1381  L 544 3500  L 1119 3500  L 1119 1403  Q 1119 906 1312 657  Q 1506 409 1894 409  Q 2359 409 2629 706  Q 2900 1003 2900 1516  L 2900 3500  L 3475 3500  L 3475 0  L 2900 0  L 2900 538  Q 2691 219 2414 64  Q 2138 -91 1772 -91  Q 1169 -91 856 284  Q 544 659 544 1381  z M 1991 3584  L 1991 3584  z "
                   transform="scale(0.015625)" />
                <path
                   id="DejaVuSans-6e"
                   d="M 3513 2113  L 3513 0  L 2938 0  L 2938 2094  Q 2938 2591 2744 2837  Q 2550 3084 2163 3084  Q 1697 3084 1428 2787  Q 1159 2491 1159 1978  L 1159 0  L 581 0  L 581 3500  L 1159 3500  L 1159 2956  Q 1366 3272 1645 3428  Q 1925 3584 2291 3584  Q 2894 3584 3203 3211  Q 3513 2838 3513 2113  z "
                   transform="scale(0.015625)" />
                <path
                   id="DejaVuSans-69"
                   d="M 603 3500  L 1178 3500  L 1178 0  L 603 0  L 603 3500  z M 603 4863  L 1178 4863  L 1178 4134  L 603 4134  L 603 4863  z "
                   transform="scale(0.015625)" />
                <path
                   id="DejaVuSans-74"
                   d="M 1172 4494  L 1172 3500  L 2356 3500  L 2356 3053  L 1172 3053  L 1172 1153  Q 1172 725 1289 603  Q 1406 481 1766 481  L 2356 481  L 2356 0  L 1766 0  Q 1100 0 847 248  Q 594 497 594 1153  L 594 3053  L 172 3053  L 172 3500  L 594 3500  L 594 4494  L 1172 4494  z "
                   transform="scale(0.015625)" />
                <path
                   id="DejaVuSans-73"
                   d="M 2834 3397  L 2834 2853  Q 2591 2978 2328 3040  Q 2066 3103 1784 3103  Q 1356 3103 1142 2972  Q 928 2841 928 2578  Q 928 2378 1081 2264  Q 1234 2150 1697 2047  L 1894 2003  Q 2506 1872 2764 1633  Q 3022 1394 3022 966  Q 3022 478 2636 193  Q 2250 -91 1575 -91  Q 1294 -91 989 -36  Q 684 19 347 128  L 347 722  Q 666 556 975 473  Q 1284 391 1588 391  Q 1994 391 2212 530  Q 2431 669 2431 922  Q 2431 1156 2273 1281  Q 2116 1406 1581 1522  L 1381 1569  Q 847 1681 609 1914  Q 372 2147 372 2553  Q 372 3047 722 3315  Q 1072 3584 1716 3584  Q 2034 3584 2315 3537  Q 2597 3491 2834 3397  z "
                   transform="scale(0.015625)" />
              </defs>
              <use
                 xlink:href="#DejaVuSans-50"
                 id="use226" />
              <use
                 xlink:href="#DejaVuSans-44"
                 x="60.302734"
                 id="use228" />
              <use
                 xlink:href="#DejaVuSans-4f"
                 x="137.304688"
                 id="use230" />
              <use
                 xlink:href="#DejaVuSans-53"
                 x="216.015625"
                 id="use232" />
              <use
                 xlink:href="#DejaVuSans-20"
                 x="279.492188"
                 id="use234" />
              <use
                 xlink:href="#DejaVuSans-28"
                 x="311.279297"
                 id="use236" />
              <use
                 xlink:href="#DejaVuSans-61"
                 x="350.292969"
                 id="use238" />
              <use
                 xlink:href="#DejaVuSans-72"
                 x="411.572266"
                 id="use240" />
              <use
                 xlink:href="#DejaVuSans-62"
                 x="452.685547"
                 id="use242" />
              <use
                 xlink:href="#DejaVuSans-2e"
                 x="516.162109"
                 id="use244" />
              <use
                 xlink:href="#DejaVuSans-20"
                 x="547.949219"
                 id="use246" />
              <use
                 xlink:href="#DejaVuSans-75"
                 x="579.736328"
                 id="use248" />
              <use
                 xlink:href="#DejaVuSans-6e"
                 x="643.115234"
                 id="use250" />
              <use
                 xlink:href="#DejaVuSans-69"
                 x="706.494141"
                 id="use252" />
              <use
                 xlink:href="#DejaVuSans-74"
                 x="734.277344"
                 id="use254" />
              <use
                 xlink:href="#DejaVuSans-73"
                 x="773.486328"
                 id="use256" />
              <use
                 xlink:href="#DejaVuSans-29"
                 x="825.585938"
                 id="use258" />
            </g>
          </g>
        </g>
        <g
           id="line2d_13">
          <path
             d="M 92.689773 274.478277  L 114.557411 274.404145  L 115.065961 274.183779  L 115.320236 273.921495  L 115.574511 273.462033  L 115.828785 272.687587  L 116.08306 271.432117  L 116.337335 269.475684  L 116.845885 262.338526  L 117.354435 248.88863  L 117.862984 227.622978  L 119.388634 150.917309  L 119.642908 146.081741  L 119.897183 145.672517  L 120.151458 149.732103  L 120.660008 169.199445  L 122.185657 247.293744  L 122.694207 261.416711  L 123.202756 269.026871  L 123.711306 272.501937  L 124.219856 273.855898  L 124.728406 274.308027  L 125.49123 274.459572  L 128.542529 274.478277  L 332.216695 274.39136  L 332.725245 274.192946  L 333.233795 273.664636  L 333.742344 272.462898  L 334.250894 270.141965  L 334.759444 266.373816  L 336.285093 251.749581  L 336.539368 250.61659  L 336.793643 250.293741  L 337.047918 250.814486  L 337.302193 252.125016  L 337.810742 256.531606  L 339.082117 268.880495  L 339.590666 271.732921  L 340.099216 273.308721  L 340.607766 274.045481  L 341.116316 274.339158  L 341.87914 274.458807  L 345.184713 274.478277  L 459.354128 274.406604  L 459.862677 274.221849  L 460.371227 273.681356  L 460.625502 273.145662  L 460.879777 272.326961  L 461.388327 269.4336  L 461.896876 264.202791  L 462.405426 256.29755  L 463.6768 233.593848  L 463.931075 231.219205  L 464.18535 230.290065  L 464.439625 230.902451  L 464.6939 232.992922  L 465.20245 240.646635  L 466.473824 263.505456  L 466.982374 269.012069  L 467.490923 272.112935  L 467.999473 273.589196  L 468.508023 274.187989  L 469.016572 274.395948  L 470.033672 274.473937  L 481.984591 274.478277  L 546.570406 274.396656  L 547.078956 274.219861  L 547.587506 273.767596  L 548.096055 272.780545  L 548.604605 270.955351  L 549.113155 268.128217  L 550.384529 259.519774  L 550.638804 258.503305  L 550.893079 258.007956  L 551.147354 258.08469  L 551.401629 258.725545  L 551.910178 261.390991  L 553.435828 271.254463  L 553.944377 272.953441  L 554.452927 273.851784  L 554.961477 274.254689  L 555.724301 274.441669  L 557.7585 274.478215  L 600.985227 274.478277  L 600.985227 274.478277  "
             clip-path="url(#p04b4e47dfd)"
             style="fill: none; stroke: #243c6e; stroke-width: 2.5; stroke-linecap: square"
             id="path264" />
        </g>
        <g
           id="line2d_14">
          <path
             d="M 92.689773 274.478277  L 115.828785 274.395802  L 116.59161 274.112978  L 117.10016 273.652082  L 117.608709 272.855132  L 118.371534 271.045909  L 119.134359 269.191146  L 119.642908 268.564647  L 119.897183 268.545799  L 120.151458 268.732774  L 120.660008 269.629392  L 122.185657 273.226224  L 122.694207 273.876693  L 123.202756 274.227199  L 123.965581 274.426289  L 125.49123 274.477416  L 184.991549 274.478277  L 279.836073 274.404414  L 280.344623 274.175498  L 280.598898 273.896793  L 280.853173 273.400174  L 281.107447 272.548565  L 281.361722 271.143746  L 281.615997 268.915561  L 281.870272 265.519495  L 282.378822 253.570728  L 282.887372 232.094743  L 283.395921 199.845243  L 284.667296 108.637833  L 284.92157 99.424195  L 285.175845 96.090947  L 285.43012 98.982875  L 285.684395 107.800595  L 286.192945 139.199151  L 287.464319 231.123329  L 287.972869 252.983565  L 288.481419 265.2214  L 288.989968 271.015399  L 289.498518 273.353025  L 290.007068 274.160661  L 290.515617 274.400403  L 291.532717 274.475209  L 307.297759 274.478277  L 331.453871 274.380758  L 331.96242 274.082842  L 332.216695 273.722955  L 332.47097 273.085444  L 332.725245 271.998708  L 332.97952 270.216769  L 333.233795 267.407612  L 333.48807 263.15252  L 333.996619 248.331927  L 334.505169 222.046475  L 335.013719 183.147238  L 336.285093 76.962425  L 336.539368 67.116556  L 336.793643 64.310954  L 337.047918 68.8363  L 337.302193 80.225014  L 337.810742 118.518953  L 339.082117 225.832692  L 339.590666 250.620715  L 340.099216 264.314653  L 340.607766 270.71721  L 341.116316 273.269313  L 341.624865 274.140714  L 342.133415 274.396405  L 343.150514 274.475121  L 358.407006 274.477208  L 359.678381 274.405429  L 360.18693 274.170103  L 360.441205 273.877035  L 360.69548 273.345844  L 360.949755 272.419135  L 361.20403 270.863599  L 361.458305 268.352473  L 361.71258 264.455998  L 362.221129 250.340173  L 362.729679 223.979632  L 363.238229 182.709237  L 364.763878 37.894515  L 365.018153 29.561823  L 365.272428 29.706711  L 365.526703 38.314143  L 366.035252 76.667561  L 367.560901 224.544228  L 368.069451 250.666477  L 368.578001 264.614856  L 369.086551 270.929303  L 369.5951 273.369057  L 370.10365 274.177134  L 370.6122 274.407259  L 371.629299 274.475689  L 390.191364 274.478277  L 459.608402 274.408888  L 460.116952 274.246898  L 460.625502 273.808094  L 461.134052 272.792101  L 461.642601 270.793155  L 462.151151 267.482422  L 463.168251 257.953397  L 463.6768 253.91715  L 463.931075 252.722923  L 464.18535 252.25565  L 464.439625 252.563624  L 464.6939 253.61494  L 465.20245 257.464057  L 466.473824 268.959952  L 466.982374 271.729275  L 467.490923 273.288727  L 467.999473 274.031151  L 468.508023 274.332289  L 469.270847 274.457361  L 472.322146 274.478277  L 496.478258 274.400487  L 496.986808 274.189078  L 497.241082 273.949348  L 497.495357 273.544358  L 497.749632 272.886324  L 498.003907 271.858517  L 498.512457 268.094851  L 499.021007 260.967324  L 499.529556 249.637909  L 501.055205 208.163012  L 501.30948 205.426585  L 501.563755 205.064589  L 501.81803 207.114585  L 502.32658 217.393891  L 503.852229 259.55614  L 504.360779 267.279113  L 504.869328 271.461293  L 505.377878 273.380021  L 505.886428 274.131002  L 506.394978 274.382891  L 507.412077 274.473561  L 518.345896 274.478277  L 545.807582 274.404078  L 546.316131 274.188106  L 546.570406 273.933966  L 546.824681 273.492566  L 547.078956 272.754973  L 547.333231 271.569675  L 547.587506 269.738951  L 548.096055 263.156592  L 548.604605 250.984898  L 549.113155 232.131556  L 550.384529 174.724332  L 550.638804 167.945787  L 550.893079 164.642433  L 551.147354 165.154104  L 551.401629 169.427656  L 551.910178 187.201628  L 553.181553 244.745788  L 553.690102 259.102594  L 554.198652 266.690541  L 554.452927 268.245572  L 554.707202 268.40594  L 554.961477 267.125681  L 555.215752 264.242627  L 555.470026 259.49175  L 555.978576 243.09176  L 556.487126 215.999812  L 558.012775 110.379097  L 558.26705 102.167637  L 558.521325 99.804412  L 558.7756 103.534302  L 559.029875 112.971904  L 559.538424 144.762939  L 560.809799 233.981539  L 561.318348 254.609948  L 561.826898 266.011024  L 562.335448 271.343811  L 562.843998 273.470361  L 563.352547 274.196747  L 563.861097 274.40997  L 564.878196 274.475642  L 568.438045 274.434464  L 568.946594 274.293889  L 569.200869 274.119469  L 569.455144 273.804213  L 569.709419 273.255775  L 569.963694 272.337813  L 570.217969 270.860212  L 570.472244 268.574163  L 570.980793 260.332022  L 571.489343 245.036223  L 571.997893 221.250956  L 573.523542 139.37264  L 573.777817 134.975928  L 574.032092 135.419136  L 574.286366 140.65627  L 574.794916 162.968371  L 576.320565 246.763555  L 576.829115 261.330389  L 577.337665 269.060247  L 577.846215 272.538881  L 578.354764 273.875257  L 578.863314 274.315409  L 579.626139 274.460722  L 582.931712 274.478277  L 600.985227 274.478277  L 600.985227 274.478277  "
             clip-path="url(#p04b4e47dfd)"
             style="fill: none; stroke: #7d7c78; stroke-width: 2.5; stroke-linecap: square"
             id="path267" />
        </g>
        <g
           id="line2d_15">
          <path
             d="M 92.689773 274.478277  L 118.117259 274.372628  L 120.151458 274.259138  L 125.99978 274.478271  L 281.361722 274.399541  L 282.124547 274.149379  L 282.633097 273.7629  L 283.141646 273.126674  L 284.92157 270.344831  L 285.175845 270.266125  L 285.43012 270.33441  L 285.93867 270.869674  L 287.718594 273.744659  L 288.227144 274.13929  L 288.989968 274.39651  L 290.261343 274.474498  L 305.26356 274.478277  L 333.996619 274.373403  L 335.013719 274.111945  L 336.539368 273.646541  L 337.302193 273.69912  L 340.353491 274.453038  L 343.659064 274.478275  L 460.116952 274.408546  L 460.879777 274.152217  L 461.388327 273.71369  L 461.896876 272.920893  L 462.405426 271.72275  L 463.6768 268.281706  L 463.931075 267.921798  L 464.18535 267.780974  L 464.439625 267.873789  L 464.6939 268.190628  L 465.20245 269.350648  L 466.473824 272.815202  L 466.982374 273.649802  L 467.490923 274.119779  L 468.253748 274.399912  L 469.525122 274.475203  L 487.324363 274.478277  L 496.986808 274.389115  L 497.495357 274.190342  L 498.003907 273.670583  L 498.512457 272.510214  L 499.021007 270.312738  L 499.529556 266.819785  L 501.055205 254.03273  L 501.30948 253.189066  L 501.563755 253.07746  L 501.81803 253.709491  L 502.32658 256.878686  L 503.852229 269.877658  L 504.360779 272.258715  L 504.869328 273.548116  L 505.377878 274.139676  L 505.886428 274.371209  L 506.903527 274.471261  L 514.786048 274.478277  L 546.824681 274.393527  L 547.333231 274.228199  L 547.841781 273.837288  L 548.35033 273.051143  L 548.85888 271.718213  L 549.621705 268.777612  L 550.384529 265.901549  L 550.638804 265.318738  L 550.893079 265.034721  L 551.147354 265.078717  L 551.401629 265.446161  L 551.910178 266.974429  L 553.435828 272.627741  L 553.944377 273.59603  L 554.452927 274.092943  L 554.961477 274.27556  L 555.470026 274.253886  L 555.978576 274.070137  L 556.741401 273.513348  L 558.012775 272.392052  L 558.521325 272.257624  L 559.029875 272.425026  L 559.792699 273.076401  L 560.809799 273.963437  L 561.572623 274.310455  L 562.589723 274.455279  L 565.895296 274.478276  L 569.200869 274.396946  L 569.709419 274.201171  L 570.217969 273.658164  L 570.726518 272.369937  L 571.235068 269.770159  L 571.743618 265.345688  L 572.506442 255.53136  L 573.269267 245.844876  L 573.523542 243.853636  L 573.777817 242.857025  L 574.032092 242.957488  L 574.286366 244.144599  L 574.794916 249.202123  L 576.320565 268.19613  L 576.829115 271.498021  L 577.337665 273.250163  L 577.846215 274.038671  L 578.354764 274.34159  L 579.117589 274.460078  L 582.423162 274.478277  L 600.985227 274.478277  L 600.985227 274.478277  "
             clip-path="url(#p04b4e47dfd)"
             style="fill: none; stroke: #d6c35d; stroke-width: 2.5; stroke-linecap: square"
             id="path270" />
        </g>
        <g
           id="line2d_16">
          <path
             d="M 365.141016 286.7241  L 365.141016 17.316  "
             clip-path="url(#p04b4e47dfd)"
             style="fill: none; stroke-dasharray: 4.44,1.92; stroke-dashoffset: 0; stroke: #000000; stroke-width: 1.2"
             id="path273" />
        </g>
        <g
           id="patch_3">
          <path
             d="M 67.275 286.7241  L 67.275 17.316  "
             style="fill: none; stroke: #000000; stroke-width: 1.2; stroke-linejoin: miter; stroke-linecap: square"
             id="path276" />
        </g>
        <g
           id="patch_4">
          <path
             d="M 67.275 286.7241  L 626.4 286.7241  "
             style="fill: none; stroke: #000000; stroke-width: 1.2; stroke-linejoin: miter; stroke-linecap: square"
             id="path279" />
        </g>
        <g
           id="legend_1">
          <g
             id="line2d_17">
            <path
               d="M 83.475 40.893188  L 101.475 40.893188  L 119.475 40.893188  "
               style="fill: none; stroke: #243c6e; stroke-width: 2.5; stroke-linecap: square"
               id="path282" />
          </g>
          <g
             id="text_15">
            <!--  s -->
            <g
               transform="translate(133.875 47.193188) scale(0.18 -0.18)"
               id="g289">
              <use
                 xlink:href="#DejaVuSans-20"
                 id="use285" />
              <use
                 xlink:href="#DejaVuSans-73"
                 x="31.787109"
                 id="use287" />
            </g>
          </g>
          <g
             id="line2d_18">
            <path
               d="M 83.475 67.313812  L 101.475 67.313812  L 119.475 67.313812  "
               style="fill: none; stroke: #7d7c78; stroke-width: 2.5; stroke-linecap: square"
               id="path292" />
          </g>
          <g
             id="text_16">
            <!--  p -->
            <g
               transform="translate(133.875 73.613812) scale(0.18 -0.18)"
               id="g302">
              <defs
                 id="defs296">
                <path
                   id="DejaVuSans-70"
                   d="M 1159 525  L 1159 -1331  L 581 -1331  L 581 3500  L 1159 3500  L 1159 2969  Q 1341 3281 1617 3432  Q 1894 3584 2278 3584  Q 2916 3584 3314 3078  Q 3713 2572 3713 1747  Q 3713 922 3314 415  Q 2916 -91 2278 -91  Q 1894 -91 1617 61  Q 1341 213 1159 525  z M 3116 1747  Q 3116 2381 2855 2742  Q 2594 3103 2138 3103  Q 1681 3103 1420 2742  Q 1159 2381 1159 1747  Q 1159 1113 1420 752  Q 1681 391 2138 391  Q 2594 391 2855 752  Q 3116 1113 3116 1747  z "
                   transform="scale(0.015625)" />
              </defs>
              <use
                 xlink:href="#DejaVuSans-20"
                 id="use298" />
              <use
                 xlink:href="#DejaVuSans-70"
                 x="31.787109"
                 id="use300" />
            </g>
          </g>
          <g
             id="line2d_19">
            <path
               d="M 83.475 93.734438  L 101.475 93.734438  L 119.475 93.734438  "
               style="fill: none; stroke: #d6c35d; stroke-width: 2.5; stroke-linecap: square"
               id="path305" />
          </g>
          <g
             id="text_17">
            <!--  d -->
            <g
               transform="translate(133.875 100.034438) scale(0.18 -0.18)"
               id="g315">
              <defs
                 id="defs309">
                <path
                   id="DejaVuSans-64"
                   d="M 2906 2969  L 2906 4863  L 3481 4863  L 3481 0  L 2906 0  L 2906 525  Q 2725 213 2448 61  Q 2172 -91 1784 -91  Q 1150 -91 751 415  Q 353 922 353 1747  Q 353 2572 751 3078  Q 1150 3584 1784 3584  Q 2172 3584 2448 3432  Q 2725 3281 2906 2969  z M 947 1747  Q 947 1113 1208 752  Q 1469 391 1925 391  Q 2381 391 2643 752  Q 2906 1113 2906 1747  Q 2906 2381 2643 2742  Q 2381 3103 1925 3103  Q 1469 3103 1208 2742  Q 947 2381 947 1747  z "
                   transform="scale(0.015625)" />
              </defs>
              <use
                 xlink:href="#DejaVuSans-20"
                 id="use311" />
              <use
                 xlink:href="#DejaVuSans-64"
                 x="31.787109"
                 id="use313" />
            </g>
          </g>
        </g>
      </g>
    </g>
    <text
       xml:space="preserve"
       transform="matrix(0.43104577,0,0,0.43104577,49.538675,163.06512)"
       id="text862"
       style="font-size:40px;line-height:1.25;font-family:'CMU Serif';-inkscape-font-specification:'CMU Serif, Normal';letter-spacing:0px;word-spacing:0px;white-space:pre;shape-inside:url(#rect864);stroke-linecap:butt;stroke-linejoin:round"><tspan
         x="135.30078"
         y="-59.484375"
         id="tspan1430"><tspan
           style="font-family:sans-serif;-inkscape-font-specification:'sans-serif, Normal'"
           id="tspan1426">2a</tspan><tspan
           style="font-size:65%;baseline-shift:sub"
           id="tspan1428">1</tspan></tspan></text>
    <text
       xml:space="preserve"
       transform="matrix(0.43104577,0,0,0.43104577,215.83139,113.09388)"
       id="text924"
       style="font-size:40px;line-height:1.25;font-family:'CMU Serif';-inkscape-font-specification:'CMU Serif, Normal';letter-spacing:0px;word-spacing:0px;white-space:pre;shape-inside:url(#rect926);stroke-linecap:butt;stroke-linejoin:round"><tspan
         x="135.30078"
         y="-59.484375"
         id="tspan1436"><tspan
           style="font-family:sans-serif;-inkscape-font-specification:'sans-serif, Normal'"
           id="tspan1432">1b</tspan><tspan
           style="font-size:65%;baseline-shift:sub"
           id="tspan1434">2</tspan></tspan></text>
    <text
       xml:space="preserve"
       transform="matrix(0.43104577,0,0,0.43104577,266.62427,81.014576)"
       id="text932"
       style="font-size:40px;line-height:1.25;font-family:'CMU Serif';-inkscape-font-specification:'CMU Serif, Normal';letter-spacing:0px;word-spacing:0px;white-space:pre;shape-inside:url(#rect934);stroke-linecap:butt;stroke-linejoin:round"><tspan
         x="135.30078"
         y="-59.484375"
         id="tspan1442"><tspan
           style="font-family:sans-serif;-inkscape-font-specification:'sans-serif, Normal'"
           id="tspan1438">3a</tspan><tspan
           style="font-size:65%;baseline-shift:sub"
           id="tspan1440">1</tspan></tspan></text>
    <text
       xml:space="preserve"
       transform="matrix(0.43104577,0,0,0.43104577,294.65993,35.29213)"
       id="text940"
       style="font-size:40px;line-height:1.25;font-family:'CMU Serif';-inkscape-font-specification:'CMU Serif, Normal';letter-spacing:0px;word-spacing:0px;white-space:pre;shape-inside:url(#rect942);stroke-linecap:butt;stroke-linejoin:round"><tspan
         x="135.30078"
         y="-59.484375"
         id="tspan1448"><tspan
           style="font-family:sans-serif;-inkscape-font-specification:'sans-serif, Normal'"
           id="tspan1444">1b</tspan><tspan
           style="font-size:65%;baseline-shift:sub"
           id="tspan1446">1</tspan></tspan></text>
    <text
       xml:space="preserve"
       transform="matrix(0.43104577,0,0,0.43104577,395.42332,247.25346)"
       id="text948"
       style="font-size:40px;line-height:1.25;font-family:'CMU Serif';-inkscape-font-specification:'CMU Serif, Normal';letter-spacing:0px;word-spacing:0px;white-space:pre;shape-inside:url(#rect950);stroke-linecap:butt;stroke-linejoin:round"><tspan
         x="135.30078"
         y="-59.484375"
         id="tspan1454"><tspan
           style="font-family:sans-serif;-inkscape-font-specification:'sans-serif, Normal'"
           id="tspan1450">4a</tspan><tspan
           style="font-size:65%;baseline-shift:sub"
           id="tspan1452">1</tspan></tspan></text>
    <text
       xml:space="preserve"
       transform="matrix(0.43104577,0,0,0.43104577,432.4674,223.01248)"
       id="text956"
       style="font-size:40px;line-height:1.25;font-family:'CMU Serif';-inkscape-font-specification:'CMU Serif, Normal';letter-spacing:0px;word-spacing:0px;white-space:pre;shape-inside:url(#rect958);stroke-linecap:butt;stroke-linejoin:round"><tspan
         x="135.30078"
         y="-59.484375"
         id="tspan1460"><tspan
           style="font-family:sans-serif;-inkscape-font-specification:'sans-serif, Normal'"
           id="tspan1456">2b</tspan><tspan
           style="font-size:65%;baseline-shift:sub"
           id="tspan1458">2</tspan></tspan></text>
    <text
       xml:space="preserve"
       transform="matrix(0.43104577,0,0,0.43104577,367.45008,96.003099)"
       id="text964"
       style="font-size:40px;line-height:1.05;font-family:'CMU Serif';-inkscape-font-specification:'CMU Serif, Normal';letter-spacing:0px;word-spacing:0px;white-space:pre;shape-inside:url(#rect966);stroke-linecap:butt;stroke-linejoin:round"
       x="68.632812"
       y="0"><tspan
         x="380.15918"
         y="-63.484376"
         id="tspan1464"><tspan
           style="font-family:sans-serif;-inkscape-font-specification:'sans-serif, Normal';text-align:center;text-anchor:middle"
           id="tspan1462">Artificial
</tspan></tspan><tspan
         x="407.95215"
         y="-20.522367"
         id="tspan1468"><tspan
           style="font-family:sans-serif;-inkscape-font-specification:'sans-serif, Normal';text-align:center;text-anchor:middle"
           id="tspan1466">MOs</tspan></tspan></text>
  </g>
</svg>
