<?xml version="1.0" encoding="UTF-8" standalone="no"?>
<svg
   width="648pt"
   height="346.32pt"
   viewBox="0 0 648 346.32"
   version="1.1"
   id="svg331"
   sodipodi:docname="02_PDOS_BASIS_SET.svg"
   inkscape:version="1.2.2 (b0a8486541, 2022-12-01)"
   xmlns:inkscape="http://www.inkscape.org/namespaces/inkscape"
   xmlns:sodipodi="http://sodipodi.sourceforge.net/DTD/sodipodi-0.dtd"
   xmlns:xlink="http://www.w3.org/1999/xlink"
   xmlns="http://www.w3.org/2000/svg"
   xmlns:svg="http://www.w3.org/2000/svg"
   xmlns:rdf="http://www.w3.org/1999/02/22-rdf-syntax-ns#"
   xmlns:cc="http://creativecommons.org/ns#"
   xmlns:dc="http://purl.org/dc/elements/1.1/">
  <sodipodi:namedview
     id="namedview333"
     pagecolor="#ffffff"
     bordercolor="#666666"
     borderopacity="1.0"
     inkscape:showpageshadow="2"
     inkscape:pageopacity="0.0"
     inkscape:pagecheckerboard="0"
     inkscape:deskcolor="#d1d1d1"
     inkscape:document-units="pt"
     showgrid="false"
     inkscape:zoom="0.255544"
     inkscape:cx="-322.84068"
     inkscape:cy="-442.19391"
     inkscape:window-width="1920"
     inkscape:window-height="1002"
     inkscape:window-x="1920"
     inkscape:window-y="0"
     inkscape:window-maximized="1"
     inkscape:current-layer="svg331" />
  <metadata
     id="metadata2">
    <rdf:RDF>
      <cc:Work>
        <dc:type
           rdf:resource="http://purl.org/dc/dcmitype/StillImage" />
        <dc:date>2025-12-15T14:37:15.270736</dc:date>
        <dc:format>image/svg+xml</dc:format>
        <dc:creator>
          <cc:Agent>
            <dc:title>Matplotlib v3.6.3, https://matplotlib.org/</dc:title>
          </cc:Agent>
        </dc:creator>
      </cc:Work>
    </rdf:RDF>
  </metadata>
  <defs
     id="defs6">
    <style
       type="text/css"
       id="style4">*{stroke-linejoin: round; stroke-linecap: butt}</style>
  </defs>
  <g
     id="g1212">
    <path
       d="M 0,346.32 H 648 V 0 H 0 Z"
       style="fill:#ffffff"
       id="path8" />
    <g
       id="patch_2">
      <path
         d="M 67.275,286.7241 H 626.4 V 17.316 H 67.275 Z"
         style="fill:#ffffff"
         id="path11" />
    </g>
    <g
       id="matplotlib.axis_1">
      <g
         id="xtick_1">
        <g
           id="line2d_1">
          <defs
             id="defs15">
            <path
               id="m1415681eca"
               d="M 0,0 V 6"
               style="stroke:#000000;stroke-width:1.2" />
          </defs>
          <g
             id="g19">
            <use
               xlink:href="#m1415681eca"
               x="67.275002"
               y="286.72409"
               style="stroke:#000000;stroke-width:1.2"
               id="use17" />
          </g>
        </g>
        <g
           id="text_1">
          <!-- −20 -->
          <g
             transform="matrix(0.2,0,0,-0.2,46.170312,311.42097)"
             id="g33">
            <defs
               id="defs25">
              <path
                 id="DejaVuSans-2212"
                 d="M 678,2272 H 4684 V 1741 H 678 Z"
                 transform="scale(0.015625)" />
              <path
                 id="DejaVuSans-32"
                 d="M 1228,531 H 3431 V 0 H 469 v 531 q 359,372 979,998 621,627 780,809 303,340 423,576 121,236 121,464 0,372 -261,606 -261,235 -680,235 -297,0 -627,-103 -329,-103 -704,-313 v 638 q 381,153 712,231 332,78 607,78 725,0 1156,-363 431,-362 431,-968 0,-288 -108,-546 -107,-257 -392,-607 -78,-91 -497,-524 Q 1991,1309 1228,531 Z"
                 transform="scale(0.015625)" />
              <path
                 id="DejaVuSans-30"
                 d="m 2034,4250 q -487,0 -733,-480 -245,-479 -245,-1442 0,-959 245,-1439 246,-480 733,-480 491,0 736,480 246,480 246,1439 0,963 -246,1442 -245,480 -736,480 z m 0,500 q 785,0 1199,-621 414,-620 414,-1801 0,-1178 -414,-1799 -414,-620 -1199,-620 -784,0 -1198,620 -414,621 -414,1799 0,1181 414,1801 414,621 1198,621 z"
                 transform="scale(0.015625)" />
            </defs>
            <use
               xlink:href="#DejaVuSans-2212"
               id="use27" />
            <use
               xlink:href="#DejaVuSans-32"
               x="83.789062"
               id="use29" />
            <use
               xlink:href="#DejaVuSans-30"
               x="147.41211"
               id="use31" />
          </g>
        </g>
      </g>
      <g
         id="xtick_2">
        <g
           id="line2d_2">
          <g
             id="g39">
            <use
               xlink:href="#m1415681eca"
               x="154.63828"
               y="286.72409"
               style="stroke:#000000;stroke-width:1.2"
               id="use37" />
          </g>
        </g>
        <g
           id="text_2">
          <!-- −15 -->
          <g
             transform="matrix(0.2,0,0,-0.2,133.53359,311.42097)"
             id="g52">
            <defs
               id="defs44">
              <path
                 id="DejaVuSans-31"
                 d="M 794,531 H 1825 V 4091 L 703,3866 v 575 l 1116,225 h 631 V 531 H 3481 V 0 H 794 Z"
                 transform="scale(0.015625)" />
              <path
                 id="DejaVuSans-35"
                 d="M 691,4666 H 3169 V 4134 H 1269 V 2991 q 137,47 274,70 138,23 276,23 781,0 1237,-428 457,-428 457,-1159 Q 3513,744 3044,326 2575,-91 1722,-91 1428,-91 1123,-41 819,9 494,109 v 635 q 281,-153 581,-228 300,-75 634,-75 541,0 856,284 316,284 316,772 0,487 -316,771 -315,285 -856,285 -253,0 -505,-56 -251,-56 -513,-175 z"
                 transform="scale(0.015625)" />
            </defs>
            <use
               xlink:href="#DejaVuSans-2212"
               id="use46" />
            <use
               xlink:href="#DejaVuSans-31"
               x="83.789062"
               id="use48" />
            <use
               xlink:href="#DejaVuSans-35"
               x="147.41211"
               id="use50" />
          </g>
        </g>
      </g>
      <g
         id="xtick_3">
        <g
           id="line2d_3">
          <g
             id="g58">
            <use
               xlink:href="#m1415681eca"
               x="242.00156"
               y="286.72409"
               style="stroke:#000000;stroke-width:1.2"
               id="use56" />
          </g>
        </g>
        <g
           id="text_3">
          <!-- −10 -->
          <g
             transform="matrix(0.2,0,0,-0.2,220.89687,311.42097)"
             id="g67">
            <use
               xlink:href="#DejaVuSans-2212"
               id="use61" />
            <use
               xlink:href="#DejaVuSans-31"
               x="83.789062"
               id="use63" />
            <use
               xlink:href="#DejaVuSans-30"
               x="147.41211"
               id="use65" />
          </g>
        </g>
      </g>
      <g
         id="xtick_4">
        <g
           id="line2d_4">
          <g
             id="g73">
            <use
               xlink:href="#m1415681eca"
               x="329.36484"
               y="286.72409"
               style="stroke:#000000;stroke-width:1.2"
               id="use71" />
          </g>
        </g>
        <g
           id="text_4">
          <!-- −5 -->
          <g
             transform="matrix(0.2,0,0,-0.2,314.62266,311.42097)"
             id="g80">
            <use
               xlink:href="#DejaVuSans-2212"
               id="use76" />
            <use
               xlink:href="#DejaVuSans-35"
               x="83.789062"
               id="use78" />
          </g>
        </g>
      </g>
      <g
         id="xtick_5">
        <g
           id="line2d_5">
          <g
             id="g86">
            <use
               xlink:href="#m1415681eca"
               x="416.72812"
               y="286.72409"
               style="stroke:#000000;stroke-width:1.2"
               id="use84" />
          </g>
        </g>
        <g
           id="text_5">
          <!-- 0 -->
          <g
             transform="matrix(0.2,0,0,-0.2,410.36563,311.42097)"
             id="g91">
            <use
               xlink:href="#DejaVuSans-30"
               id="use89" />
          </g>
        </g>
      </g>
      <g
         id="xtick_6">
        <g
           id="line2d_6">
          <g
             id="g97">
            <use
               xlink:href="#m1415681eca"
               x="504.0914"
               y="286.72409"
               style="stroke:#000000;stroke-width:1.2"
               id="use95" />
          </g>
        </g>
        <g
           id="text_6">
          <!-- 5 -->
          <g
             transform="matrix(0.2,0,0,-0.2,497.72891,311.42097)"
             id="g102">
            <use
               xlink:href="#DejaVuSans-35"
               id="use100" />
          </g>
        </g>
      </g>
      <g
         id="xtick_7">
        <g
           id="line2d_7">
          <g
             id="g108">
            <use
               xlink:href="#m1415681eca"
               x="591.45471"
               y="286.72409"
               style="stroke:#000000;stroke-width:1.2"
               id="use106" />
          </g>
        </g>
        <g
           id="text_7">
          <!-- 10 -->
          <g
             transform="matrix(0.2,0,0,-0.2,578.72969,311.42097)"
             id="g115">
            <use
               xlink:href="#DejaVuSans-31"
               id="use111" />
            <use
               xlink:href="#DejaVuSans-30"
               x="63.623047"
               id="use113" />
          </g>
        </g>
      </g>
      <g
         id="text_8">
        <!-- $\mathrm{E - E_F\ (eV)}$ -->
        <g
           transform="matrix(0.2,0,0,-0.2,293.4375,334.77722)"
           id="g143">
          <defs
             id="defs125">
            <path
               id="DejaVuSans-45"
               d="M 628,4666 H 3578 V 4134 H 1259 V 2753 H 3481 V 2222 H 1259 V 531 H 3634 V 0 H 628 Z"
               transform="scale(0.015625)" />
            <path
               id="DejaVuSans-46"
               d="M 628,4666 H 3309 V 4134 H 1259 V 2759 H 3109 V 2228 H 1259 V 0 H 628 Z"
               transform="scale(0.015625)" />
            <path
               id="DejaVuSans-28"
               d="m 1984,4856 q -418,-718 -622,-1422 -203,-703 -203,-1425 0,-721 205,-1429 205,-708 620,-1424 h -500 q -468,735 -701,1444 -233,709 -233,1409 0,697 231,1403 232,707 703,1444 z"
               transform="scale(0.015625)" />
            <path
               id="DejaVuSans-65"
               d="M 3597,1894 V 1613 H 953 q 38,-594 358,-905 320,-311 892,-311 331,0 642,81 311,81 618,244 V 178 Q 3153,47 2828,-22 2503,-91 2169,-91 1331,-91 842,396 353,884 353,1716 q 0,859 464,1363 464,505 1252,505 706,0 1117,-455 411,-454 411,-1235 z m -575,169 q -6,471 -264,752 -258,282 -683,282 -481,0 -770,-272 -289,-272 -333,-766 z"
               transform="scale(0.015625)" />
            <path
               id="DejaVuSans-56"
               d="M 1831,0 50,4666 H 709 L 2188,738 3669,4666 h 656 L 2547,0 Z"
               transform="scale(0.015625)" />
            <path
               id="DejaVuSans-29"
               d="m 513,4856 h 500 q 468,-737 701,-1444 233,-706 233,-1403 0,-700 -233,-1409 -233,-709 -701,-1444 H 513 q 415,716 620,1424 205,708 205,1429 0,722 -205,1425 -205,704 -620,1422 z"
               transform="scale(0.015625)" />
          </defs>
          <use
             xlink:href="#DejaVuSans-45"
             transform="translate(0,0.125)"
             id="use127" />
          <use
             xlink:href="#DejaVuSans-2212"
             transform="translate(82.666016,0.125)"
             id="use129" />
          <use
             xlink:href="#DejaVuSans-45"
             transform="translate(185.9375,0.125)"
             id="use131" />
          <use
             xlink:href="#DejaVuSans-46"
             transform="matrix(0.7,0,0,0.7,250.07812,-16.28125)"
             id="use133" />
          <use
             xlink:href="#DejaVuSans-28"
             transform="translate(325.54655,0.125)"
             id="use135" />
          <use
             xlink:href="#DejaVuSans-65"
             transform="translate(364.56022,0.125)"
             id="use137" />
          <use
             xlink:href="#DejaVuSans-56"
             transform="translate(426.08366,0.125)"
             id="use139" />
          <use
             xlink:href="#DejaVuSans-29"
             transform="translate(494.49186,0.125)"
             id="use141" />
        </g>
      </g>
    </g>
    <g
       id="matplotlib.axis_2">
      <g
         id="ytick_1">
        <g
           id="line2d_8">
          <defs
             id="defs148">
            <path
               id="m703b995887"
               d="M 0,0 H -6"
               style="stroke:#000000;stroke-width:1.2" />
          </defs>
          <g
             id="g152">
            <use
               xlink:href="#m703b995887"
               x="67.275002"
               y="274.47827"
               style="stroke:#000000;stroke-width:1.2"
               id="use150" />
          </g>
        </g>
        <g
           id="text_9">
          <!-- 0 -->
          <g
             transform="matrix(0.2,0,0,-0.2,45.05,282.07671)"
             id="g157">
            <use
               xlink:href="#DejaVuSans-30"
               id="use155" />
          </g>
        </g>
      </g>
      <g
         id="ytick_2">
        <g
           id="line2d_9">
          <g
             id="g163">
            <use
               xlink:href="#m703b995887"
               x="67.275002"
               y="184.95738"
               style="stroke:#000000;stroke-width:1.2"
               id="use161" />
          </g>
        </g>
        <g
           id="text_10">
          <!-- 2 -->
          <g
             transform="matrix(0.2,0,0,-0.2,45.05,192.55582)"
             id="g168">
            <use
               xlink:href="#DejaVuSans-32"
               id="use166" />
          </g>
        </g>
      </g>
      <g
         id="ytick_3">
        <g
           id="line2d_10">
          <g
             id="g174">
            <use
               xlink:href="#m703b995887"
               x="67.275002"
               y="95.436501"
               style="stroke:#000000;stroke-width:1.2"
               id="use172" />
          </g>
        </g>
        <g
           id="text_11">
          <!-- 4 -->
          <g
             transform="matrix(0.2,0,0,-0.2,45.05,103.03494)"
             id="g182">
            <defs
               id="defs178">
              <path
                 id="DejaVuSans-34"
                 d="M 2419,4116 825,1625 h 1594 z m -166,550 h 794 V 1625 h 666 V 1100 H 3047 V 0 H 2419 V 1100 H 313 v 609 z"
                 transform="scale(0.015625)" />
            </defs>
            <use
               xlink:href="#DejaVuSans-34"
               id="use180" />
          </g>
        </g>
      </g>
      <g
         id="text_12">
        <!-- PDOS (arb. units) -->
        <g
           transform="matrix(0,-0.2,-0.2,0,36.890625,238.47786)"
           id="g236">
          <defs
             id="defs200">
            <path
               id="DejaVuSans-50"
               d="M 1259,4147 V 2394 h 794 q 441,0 681,228 241,228 241,650 0,419 -241,647 -240,228 -681,228 z m -631,519 h 1425 q 785,0 1186,-355 402,-355 402,-1039 0,-691 -402,-1044 -401,-353 -1186,-353 H 1259 V 0 H 628 Z"
               transform="scale(0.015625)" />
            <path
               id="DejaVuSans-44"
               d="M 1259,4147 V 519 h 763 q 966,0 1414,437 448,438 448,1382 0,937 -448,1373 -448,436 -1414,436 z m -631,519 h 1297 q 1356,0 1990,-564 635,-564 635,-1764 Q 4550,1131 3912,565 3275,0 1925,0 H 628 Z"
               transform="scale(0.015625)" />
            <path
               id="DejaVuSans-4f"
               d="m 2522,4238 q -688,0 -1093,-513 -404,-512 -404,-1397 0,-881 404,-1394 405,-512 1093,-512 687,0 1089,512 402,513 402,1394 0,885 -402,1397 -402,513 -1089,513 z m 0,512 q 981,0 1568,-658 588,-658 588,-1764 0,-1103 -588,-1761 -587,-658 -1568,-658 -984,0 -1574,656 -589,657 -589,1763 0,1106 589,1764 590,658 1574,658 z"
               transform="scale(0.015625)" />
            <path
               id="DejaVuSans-53"
               d="m 3425,4513 v -616 q -359,172 -678,256 -319,85 -616,85 -515,0 -795,-200 -280,-200 -280,-569 0,-310 186,-468 186,-157 705,-254 l 381,-78 q 706,-135 1042,-474 336,-339 336,-907 0,-679 -455,-1029 -454,-350 -1332,-350 -331,0 -705,75 -373,75 -773,222 v 650 q 384,-215 753,-325 369,-109 725,-109 540,0 834,212 294,213 294,607 0,343 -211,537 -211,194 -692,291 l -385,75 q -706,140 -1022,440 -315,300 -315,835 0,619 436,975 436,356 1201,356 329,0 669,-60 341,-59 697,-177 z"
               transform="scale(0.015625)" />
            <path
               id="DejaVuSans-20"
               transform="scale(0.015625)"
               d="" />
            <path
               id="DejaVuSans-61"
               d="m 2194,1759 q -697,0 -966,-159 -269,-159 -269,-544 0,-306 202,-486 202,-179 548,-179 479,0 768,339 289,339 289,901 v 128 z m 1147,238 V 0 H 2766 V 531 Q 2569,213 2275,61 1981,-91 1556,-91 q -537,0 -855,302 -317,302 -317,808 0,590 395,890 396,300 1180,300 h 807 v 57 q 0,397 -261,614 -261,217 -733,217 -300,0 -585,-72 -284,-72 -546,-216 v 532 q 315,122 612,182 297,61 578,61 760,0 1135,-394 375,-393 375,-1193 z"
               transform="scale(0.015625)" />
            <path
               id="DejaVuSans-72"
               d="m 2631,2963 q -97,56 -211,82 -114,27 -251,27 -488,0 -749,-317 -261,-317 -261,-911 V 0 H 581 v 3500 h 578 v -544 q 182,319 472,473 291,155 707,155 59,0 131,-8 72,-7 159,-23 z"
               transform="scale(0.015625)" />
            <path
               id="DejaVuSans-62"
               d="m 3116,1747 q 0,634 -261,995 -261,361 -717,361 -457,0 -718,-361 -261,-361 -261,-995 0,-634 261,-995 261,-361 718,-361 456,0 717,361 261,361 261,995 z M 1159,2969 q 182,312 458,463 277,152 661,152 638,0 1036,-506 399,-506 399,-1331 Q 3713,922 3314,415 2916,-91 2278,-91 1894,-91 1617,61 1341,213 1159,525 V 0 H 581 v 4863 h 578 z"
               transform="scale(0.015625)" />
            <path
               id="DejaVuSans-2e"
               d="m 684,794 h 660 V 0 H 684 Z"
               transform="scale(0.015625)" />
            <path
               id="DejaVuSans-75"
               d="m 544,1381 v 2119 h 575 V 1403 q 0,-497 193,-746 194,-248 582,-248 465,0 735,297 271,297 271,810 v 1984 h 575 V 0 H 2900 V 538 Q 2691,219 2414,64 2138,-91 1772,-91 1169,-91 856,284 544,659 544,1381 Z m 1447,2203 z"
               transform="scale(0.015625)" />
            <path
               id="DejaVuSans-6e"
               d="M 3513,2113 V 0 h -575 v 2094 q 0,497 -194,743 -194,247 -581,247 -466,0 -735,-297 -269,-296 -269,-809 V 0 H 581 v 3500 h 578 v -544 q 207,316 486,472 280,156 646,156 603,0 912,-373 310,-373 310,-1098 z"
               transform="scale(0.015625)" />
            <path
               id="DejaVuSans-69"
               d="m 603,3500 h 575 V 0 H 603 Z m 0,1363 h 575 V 4134 H 603 Z"
               transform="scale(0.015625)" />
            <path
               id="DejaVuSans-74"
               d="M 1172,4494 V 3500 H 2356 V 3053 H 1172 V 1153 q 0,-428 117,-550 117,-122 477,-122 h 590 V 0 H 1766 Q 1100,0 847,248 594,497 594,1153 V 3053 H 172 v 447 h 422 v 994 z"
               transform="scale(0.015625)" />
            <path
               id="DejaVuSans-73"
               d="m 2834,3397 v -544 q -243,125 -506,187 -262,63 -544,63 -428,0 -642,-131 -214,-131 -214,-394 0,-200 153,-314 153,-114 616,-217 l 197,-44 q 612,-131 870,-370 258,-239 258,-667 0,-488 -386,-773 Q 2250,-91 1575,-91 1294,-91 989,-36 684,19 347,128 v 594 q 319,-166 628,-249 309,-82 613,-82 406,0 624,139 219,139 219,392 0,234 -158,359 -157,125 -692,241 l -200,47 q -534,112 -772,345 -237,233 -237,639 0,494 350,762 350,269 994,269 318,0 599,-47 282,-46 519,-140 z"
               transform="scale(0.015625)" />
          </defs>
          <use
             xlink:href="#DejaVuSans-50"
             id="use202" />
          <use
             xlink:href="#DejaVuSans-44"
             x="60.302734"
             id="use204" />
          <use
             xlink:href="#DejaVuSans-4f"
             x="137.30469"
             id="use206" />
          <use
             xlink:href="#DejaVuSans-53"
             x="216.01562"
             id="use208" />
          <use
             xlink:href="#DejaVuSans-20"
             x="279.49219"
             id="use210" />
          <use
             xlink:href="#DejaVuSans-28"
             x="311.2793"
             id="use212" />
          <use
             xlink:href="#DejaVuSans-61"
             x="350.29297"
             id="use214" />
          <use
             xlink:href="#DejaVuSans-72"
             x="411.57227"
             id="use216" />
          <use
             xlink:href="#DejaVuSans-62"
             x="452.68555"
             id="use218" />
          <use
             xlink:href="#DejaVuSans-2e"
             x="516.16211"
             id="use220" />
          <use
             xlink:href="#DejaVuSans-20"
             x="547.94922"
             id="use222" />
          <use
             xlink:href="#DejaVuSans-75"
             x="579.73633"
             id="use224" />
          <use
             xlink:href="#DejaVuSans-6e"
             x="643.11523"
             id="use226" />
          <use
             xlink:href="#DejaVuSans-69"
             x="706.49414"
             id="use228" />
          <use
             xlink:href="#DejaVuSans-74"
             x="734.27734"
             id="use230" />
          <use
             xlink:href="#DejaVuSans-73"
             x="773.48633"
             id="use232" />
          <use
             xlink:href="#DejaVuSans-29"
             x="825.58594"
             id="use234" />
        </g>
      </g>
    </g>
    <g
       id="line2d_11">
      <path
         d="m 67.142533,274.47828 14.983957,-0.0546 0.768408,-0.22664 0.384204,-0.31251 0.384204,-0.60059 0.384204,-1.09475 0.384204,-1.89115 0.384204,-3.09321 0.384204,-4.78474 0.384204,-6.98877 0.384204,-9.61927 0.768408,-27.49864 1.536816,-64.52485 0.384204,-8.79699 0.384204,-2.88083 0.384204,3.44192 0.384204,9.27958 0.768408,30.51667 1.152612,49.25304 0.768409,21.55943 0.384204,6.77114 0.384204,4.61158 0.384204,2.9662 0.384204,1.80454 0.384204,1.03954 0.384204,0.5676 0.384204,0.29393 0.768408,0.21188 1.92102,0.0501 179.039075,3.5e-4 14.98396,-0.0683 0.7684,-0.26845 0.38421,-0.35869 0.3842,-0.67298 0.38421,-1.19712 0.3842,-2.01736 0.3842,-3.21724 0.38421,-4.84916 0.3842,-6.89553 0.76841,-20.81662 1.92102,-65.76625 0.3842,-5.25183 0.38421,0.006 0.3842,5.2623 0.38421,9.78556 1.15261,42.4129 0.76841,25.16107 0.7684,16.11492 0.38421,4.84528 0.3842,3.21429 0.38421,2.01527 0.3842,1.19575 0.3842,0.67213 0.38421,0.3582 0.76841,0.26804 1.53681,0.0666 41.87824,0.002 33.42575,-0.0965 0.3842,-0.12355 0.38421,-0.25798 0.3842,-0.51136 0.38421,-0.96167 0.3842,-1.71477 0.3842,-2.89673 0.38421,-4.63117 0.3842,-6.99814 0.38421,-9.97776 0.7684,-30.25453 1.92102,-96.86628 0.38421,-8.03708 0.3842,-0.34487 0.38421,7.39619 0.3842,14.10498 1.15261,62.08154 0.76841,37.1927 0.76841,23.96124 0.3842,7.23504 0.38421,4.81192 0.3842,3.02446 0.3842,1.79892 0.38421,1.0136 0.3842,0.54147 0.38421,0.27442 0.76841,0.19233 1.92102,0.0433 11.91032,-0.0772 0.3842,-0.10222 0.38421,-0.21738 0.3842,-0.43887 0.38421,-0.84084 0.3842,-1.52781 0.3842,-2.63076 0.38421,-4.28889 0.3842,-6.61202 0.38421,-9.62435 0.7684,-30.20514 1.15262,-67.16023 0.7684,-39.98309 0.38421,-11.429081 0.3842,-3.383206 0.38421,5.140557 0.3842,12.94059 0.76841,41.6059 1.15261,66.12405 0.76841,28.63685 0.3842,8.94265 0.38421,6.06958 0.3842,3.89095 0.38421,2.3594 0.3842,1.35484 0.3842,0.73741 0.38421,0.38068 0.76841,0.2733 1.53681,0.0633 48.79391,10e-4 h 152.529 v 0"
         clip-path="url(#p055f607e43)"
         style="fill:none;stroke:#243c6e;stroke-width:2.5;stroke-linecap:square"
         id="path240" />
    </g>
    <g
       id="line2d_12">
      <path
         d="m 67.142533,274.47828 26.894282,-0.0839 0.768408,-0.30863 0.384204,-0.39718 0.384204,-0.72409 0.384204,-1.25108 0.384204,-2.04668 0.384204,-3.16651 0.384204,-4.62603 0.384204,-6.36851 0.768408,-18.21192 1.536816,-42.77126 0.384205,-5.84185 0.3842,-1.92308 0.38421,2.2671 0.3842,6.13774 0.76841,20.21095 1.15261,32.64859 0.76841,14.29986 0.3842,4.49259 0.38421,3.06035 0.3842,1.9688 0.3842,1.19797 0.38421,0.69025 0.3842,0.37695 0.76841,0.29121 1.53682,0.0764 33.80995,0.002 164.43932,-0.0553 0.76841,-0.22569 0.3842,-0.30794 0.38421,-0.58713 0.3842,-1.06158 0.38421,-1.81883 0.3842,-2.95011 0.3842,-4.52434 0.38421,-6.55011 0.76841,-20.37329 1.15261,-44.53806 0.76841,-25.84394 0.3842,-7.07978 0.3842,-1.71308 0.38421,3.89584 0.3842,8.95732 0.76841,27.86045 1.15261,43.25254 0.76841,18.42534 0.3842,5.70306 0.38421,3.85017 0.3842,2.4554 0.38421,1.48139 0.3842,0.84642 0.3842,0.45844 0.76841,0.35037 1.15261,0.0863 11.52613,0.006 40.34142,-0.10384 0.3842,-0.13066 0.38421,-0.27007 0.3842,-0.52987 0.3842,-0.98619 0.38421,-1.74011 0.3842,-2.90825 0.38421,-4.59905 0.3842,-6.87199 0.3842,-9.68459 0.76841,-28.80136 1.53682,-74.65619 0.3842,-12.26901 0.38421,-6.00666 0.3842,1.09662 0.3842,8.04468 0.76841,31.76574 1.15261,57.19131 0.76841,26.90708 0.38421,8.77954 0.3842,6.1184 0.3842,4.02396 0.38421,2.50177 0.3842,1.47224 0.38421,0.82087 0.3842,0.43399 0.76841,0.32138 1.53681,0.0785 21.13123,-0.0257 0.7684,-0.12773 0.38421,-0.18776 0.3842,-0.37907 0.38421,-0.72626 0.3842,-1.31961 0.3842,-2.27228 0.38421,-3.70445 0.3842,-5.71101 0.38421,-8.31287 0.7684,-26.08915 1.15262,-58.00847 0.7684,-34.53469 0.38421,-9.87166 0.3842,-2.92219 0.38421,4.44007 0.3842,11.17721 0.76841,35.93636 1.15261,57.11347 0.76841,24.73459 0.3842,7.72405 0.38421,5.24249 0.3842,3.36074 0.38421,2.03789 0.3842,1.17022 0.3842,0.63692 0.38421,0.32881 0.76841,0.23606 1.92102,0.0554 116.41381,-0.0227 0.76841,-0.0964 0.38421,-0.13326 0.3842,-0.25675 0.3842,-0.46917 0.38421,-0.81253 0.3842,-1.33244 0.38421,-2.06653 0.3842,-3.02669 0.3842,-4.17772 0.76841,-11.99982 1.53682,-28.50188 0.3842,-3.9841 0.38421,-1.39718 0.3842,1.38682 0.3842,3.97519 0.76841,13.31776 1.15261,21.76112 0.76841,9.60634 0.38421,3.0307 0.3842,2.06973 0.3842,1.33478 0.38421,0.81413 0.3842,0.47019 0.76841,0.39097 1.15261,0.11029 7.68408,0.009 23.82065,-0.10472 0.76841,-0.3491 0.3842,-0.42481 0.38421,-0.74219 0.3842,-1.22799 0.38421,-1.92203 0.3842,-2.84165 0.3842,-3.96091 0.76841,-11.56498 1.53682,-28.63355 0.3842,-4.3378 0.38421,-1.83092 0.3842,0.93341 0.3842,3.56581 0.76841,12.81783 1.15261,21.88922 0.76841,9.95318 0.38421,3.18989 0.3842,2.19917 0.38421,1.43133 0.3842,0.88087 0.3842,0.51322 0.76841,0.43173 1.15261,0.12407 6.91568,0.0109 h 18.44179 v 0"
         clip-path="url(#p055f607e43)"
         style="fill:none;stroke:#636670;stroke-width:2.5;stroke-linecap:square"
         id="path243" />
    </g>
    <g
       id="line2d_13">
      <path
         d="m 67.142533,274.47828 26.510078,-0.0613 0.768408,-0.23538 0.384204,-0.31024 0.384204,-0.57599 0.384204,-1.01377 0.384204,-1.69003 0.384204,-2.66563 0.384204,-3.97241 0.384204,-5.58274 0.768408,-16.52604 1.536816,-42.34768 0.384204,-6.82344 0.384205,-3.23176 0.3842,0.81292 0.38421,4.74255 0.76841,18.25625 1.15261,32.42204 0.7684,15.12191 0.38421,4.91174 0.3842,3.41361 0.38421,2.23914 0.3842,1.38853 0.3842,0.81505 0.38421,0.45332 0.76841,0.35872 1.15261,0.0935 9.9893,0.007 189.02838,-0.0608 0.76841,-0.24317 0.3842,-0.32825 0.38421,-0.62066 0.3842,-1.11282 0.38421,-1.8904 0.3842,-3.03959 0.3842,-4.6201 0.38421,-6.62726 0.76841,-20.29898 1.92102,-66.99293 0.3842,-6.03123 0.3842,-0.79386 0.38421,4.55588 0.3842,9.2679 0.76841,27.37538 1.15261,40.89006 0.76841,16.94153 0.3842,5.16562 0.38421,3.45588 0.3842,2.18464 0.38421,1.30671 0.3842,0.74034 0.3842,0.39764 0.76841,0.30061 1.53682,0.076 35.73097,0.002 15.36816,-0.0505 0.76841,-0.21478 0.38421,-0.30038 0.3842,-0.58362 0.3842,-1.07558 0.38421,-1.87895 0.3842,-3.1085 0.38421,-4.86482 0.3842,-7.19169 0.3842,-10.02312 0.76841,-29.25964 1.53682,-72.4079 0.3842,-10.95937 0.38421,-4.61724 0.3842,2.37417 0.3842,9.03002 0.76841,32.43039 1.15261,55.35195 0.76841,25.15997 0.38421,8.06199 0.3842,5.55744 0.3842,3.61666 0.38421,2.22554 0.3842,1.29654 0.38421,0.71576 0.3842,0.37473 0.76841,0.27398 1.53681,0.0655 21.13123,-0.0259 0.7684,-0.12718 0.38421,-0.18695 0.3842,-0.37743 0.38421,-0.72312 0.3842,-1.31392 0.3842,-2.26247 0.38421,-3.68845 0.3842,-5.68636 0.38421,-8.27698 0.7684,-25.97652 1.15262,-57.75802 0.7684,-34.38559 0.38421,-9.82904 0.3842,-2.90957 0.38421,4.4209 0.3842,11.12895 0.76841,35.78121 1.15261,56.86689 0.76841,24.6278 0.3842,7.69071 0.38421,5.21985 0.3842,3.34623 0.38421,2.02909 0.3842,1.16517 0.3842,0.63417 0.38421,0.32739 0.76841,0.23504 1.92102,0.0552 112.57177,-0.032 0.76841,-0.12456 0.38421,-0.16425 0.3842,-0.30506 0.3842,-0.53715 0.38421,-0.8958 0.3842,-1.41351 0.38421,-2.10733 0.3842,-2.96288 0.76841,-8.77707 1.53681,-22.53156 0.38421,-3.64181 0.3842,-1.73409 0.38421,0.41666 0.3842,2.50844 0.76841,9.69373 1.15261,17.25204 0.76841,8.05738 0.3842,2.61898 0.38421,1.82093 0.3842,1.19492 0.3842,0.7413 0.38421,0.4353 0.76841,0.36999 1.15261,0.10809 7.68408,0.01 27.66269,-0.0517 0.76841,-0.1935 0.3842,-0.25145 0.3842,-0.46187 0.38421,-0.80405 0.3842,-1.32558 0.38421,-2.06712 0.3842,-3.04459 0.3842,-4.22705 0.76841,-12.26079 1.53682,-29.85452 0.3842,-4.38275 0.38421,-1.73013 0.3842,1.16609 0.3842,3.89762 0.76841,13.60067 1.15261,22.80921 0.76841,10.24757 0.38421,3.26339 0.3842,2.24122 0.38421,1.45329 0.3842,0.89115 0.3842,0.51738 0.76841,0.43318 1.15261,0.12355 6.91568,0.0108 h 18.44179 v 0"
         clip-path="url(#p055f607e43)"
         style="fill:none;stroke:#989277;stroke-width:2.5;stroke-linecap:square"
         id="path246" />
    </g>
    <g
       id="line2d_14">
      <path
         d="m 67.142533,274.47828 26.510078,-0.0497 0.768408,-0.19633 0.384204,-0.26306 0.384204,-0.4946 0.384204,-0.88169 0.384204,-1.48906 0.384204,-2.38001 0.384204,-3.59547 0.384204,-5.12489 0.768408,-15.5325 1.92102,-49.6613 0.384205,-4.10428 0.3842,-0.15786 0.38421,3.81089 0.3842,7.24788 1.15261,31.84871 0.76841,19.06067 0.76841,12.27218 0.3842,3.7039 0.38421,2.46276 0.3842,1.54752 0.3842,0.92021 0.38421,0.51837 0.76841,0.41711 1.15261,0.11165 8.06828,0.009 190.9494,-0.0651 0.76841,-0.25832 0.3842,-0.34694 0.38421,-0.65348 0.3842,-1.16708 0.38421,-1.97471 0.3842,-3.1623 0.3842,-4.78662 0.38421,-6.83659 0.76841,-20.79048 1.92102,-67.15309 0.3842,-5.70944 0.3842,-0.40052 0.38421,4.96509 0.3842,9.63714 0.76841,27.84042 1.15261,40.86678 0.76841,16.71666 0.3842,5.06177 0.38421,3.37224 0.3842,2.12307 0.38421,1.26483 0.3842,0.7138 0.3842,0.38192 0.76841,0.28725 1.53682,0.072 38.4204,0.002 13.06294,-0.0776 0.76841,-0.3113 0.3842,-0.42074 0.3842,-0.79633 0.38421,-1.42917 0.3842,-2.43024 0.38421,-3.91158 0.3842,-5.95171 0.3842,-8.54661 0.76841,-26.225 1.92102,-87.01734 0.38421,-7.94252 0.3842,-1.15903 0.3842,5.78851 0.38421,11.92539 0.76841,35.4281 1.15261,53.1529 0.76841,22.09339 0.3842,6.74825 0.3842,4.51946 0.38421,2.8599 0.3842,1.71234 0.38421,0.9711 0.3842,0.5221 0.3842,0.26629 0.76841,0.18817 1.92102,0.043 20.74702,-0.0663 0.76841,-0.2744 0.3842,-0.37681 0.38421,-0.72193 0.3842,-1.31175 0.3842,-2.25873 0.38421,-3.68236 0.3842,-5.67696 0.38421,-8.2633 0.7684,-25.93359 1.15262,-57.66258 0.7684,-34.32877 0.38421,-9.81281 0.3842,-2.90476 0.38421,4.41359 0.3842,11.11057 0.76841,35.72208 1.15261,56.77293 0.76841,24.5871 0.3842,7.678 0.38421,5.21123 0.3842,3.3407 0.38421,2.02574 0.3842,1.16324 0.3842,0.63312 0.38421,0.32685 0.76841,0.23465 1.92102,0.0551 112.18757,-0.0307 0.76841,-0.12031 0.3842,-0.15926 0.38421,-0.29669 0.3842,-0.52396 0.3842,-0.87649 0.38421,-1.38735 0.3842,-2.075 0.38421,-2.92713 0.7684,-8.71951 1.92102,-26.44984 0.38421,-1.85936 0.3842,0.29693 0.38421,2.41119 0.3842,4.19095 2.30522,31.01553 0.38421,2.68209 0.3842,1.87096 0.38421,1.23166 0.3842,0.76645 0.3842,0.45144 0.76841,0.38525 1.15261,0.11328 7.29988,0.0103 27.27849,-0.0842 0.7684,-0.28958 0.38421,-0.35867 0.3842,-0.63508 0.38421,-1.06521 0.3842,-1.69068 0.3842,-2.53577 0.38421,-3.58757 0.76841,-10.73882 1.92102,-33.06264 0.3842,-2.43998 0.3842,0.23652 0.38421,2.87954 0.3842,5.12238 2.30523,38.70845 0.3842,3.3924 0.3842,2.37327 0.38421,1.5667 0.3842,0.9776 0.38421,0.57734 0.3842,0.32304 0.76841,0.25765 1.53682,0.0713 26.12587,0.002 v 0"
         clip-path="url(#p055f607e43)"
         style="fill:none;stroke:#d6c35d;stroke-width:2.5;stroke-linecap:square"
         id="path249" />
    </g>
    <g
       id="line2d_15">
      <path
         d="M 416.72812,286.7241 V 17.316"
         clip-path="url(#p055f607e43)"
         style="fill:none;stroke:#000000;stroke-width:1.2;stroke-dasharray:4.44, 1.92;stroke-dashoffset:0"
         id="path252" />
    </g>
    <g
       id="patch_3">
      <path
         d="M 67.275,286.7241 V 17.316"
         style="fill:none;stroke:#000000;stroke-width:1.2;stroke-linecap:square;stroke-linejoin:miter"
         id="path255" />
    </g>
    <g
       id="patch_4">
      <path
         d="M 67.275,286.7241 H 626.4"
         style="fill:none;stroke:#000000;stroke-width:1.2;stroke-linecap:square;stroke-linejoin:miter"
         id="path258" />
    </g>
    <g
       id="legend_1"
       transform="translate(-352.43578)">
      <g
         id="line2d_16">
        <path
           d="m 501.85687,40.893188 h 18 18"
           style="fill:none;stroke:#243c6e;stroke-width:2.5;stroke-linecap:square"
           id="path261" />
      </g>
      <g
         id="text_13">
        <!-- SZV -->
        <g
           transform="matrix(0.18,0,0,-0.18,552.25688,47.193188)"
           id="g273">
          <defs
             id="defs265">
            <path
               id="DejaVuSans-5a"
               d="M 359,4666 H 4025 V 4184 L 1075,531 H 4097 V 0 H 288 V 481 L 3238,4134 H 359 Z"
               transform="scale(0.015625)" />
          </defs>
          <use
             xlink:href="#DejaVuSans-53"
             id="use267" />
          <use
             xlink:href="#DejaVuSans-5a"
             x="63.476562"
             id="use269" />
          <use
             xlink:href="#DejaVuSans-56"
             x="131.98242"
             id="use271" />
        </g>
      </g>
      <g
         id="line2d_17">
        <path
           d="m 501.85687,67.313813 h 18 18"
           style="fill:none;stroke:#636670;stroke-width:2.5;stroke-linecap:square"
           id="path276" />
      </g>
      <g
         id="text_14">
        <!-- DZVP -->
        <g
           transform="matrix(0.18,0,0,-0.18,552.25688,73.613813)"
           id="g287">
          <use
             xlink:href="#DejaVuSans-44"
             id="use279" />
          <use
             xlink:href="#DejaVuSans-5a"
             x="77.001953"
             id="use281" />
          <use
             xlink:href="#DejaVuSans-56"
             x="145.50781"
             id="use283" />
          <use
             xlink:href="#DejaVuSans-50"
             x="213.91602"
             id="use285" />
        </g>
      </g>
      <g
         id="line2d_18">
        <path
           d="m 501.85687,93.734438 h 18 18"
           style="fill:none;stroke:#989277;stroke-width:2.5;stroke-linecap:square"
           id="path290" />
      </g>
      <g
         id="text_15">
        <!-- TZVP -->
        <g
           transform="matrix(0.18,0,0,-0.18,552.25688,100.03444)"
           id="g304">
          <defs
             id="defs294">
            <path
               id="DejaVuSans-54"
               d="M -19,4666 H 3928 V 4134 H 2272 V 0 H 1638 V 4134 H -19 Z"
               transform="scale(0.015625)" />
          </defs>
          <use
             xlink:href="#DejaVuSans-54"
             id="use296" />
          <use
             xlink:href="#DejaVuSans-5a"
             x="61.083984"
             id="use298" />
          <use
             xlink:href="#DejaVuSans-56"
             x="129.58984"
             id="use300" />
          <use
             xlink:href="#DejaVuSans-50"
             x="197.99805"
             id="use302" />
        </g>
      </g>
      <g
         id="line2d_19">
        <path
           d="m 501.85687,120.15506 h 18 18"
           style="fill:none;stroke:#d6c35d;stroke-width:2.5;stroke-linecap:square"
           id="path307" />
      </g>
      <g
         id="text_16">
        <!-- TZV2P -->
        <g
           transform="matrix(0.18,0,0,-0.18,552.25688,126.45506)"
           id="g320">
          <use
             xlink:href="#DejaVuSans-54"
             id="use310" />
          <use
             xlink:href="#DejaVuSans-5a"
             x="61.083984"
             id="use312" />
          <use
             xlink:href="#DejaVuSans-56"
             x="129.58984"
             id="use314" />
          <use
             xlink:href="#DejaVuSans-32"
             x="197.99805"
             id="use316" />
          <use
             xlink:href="#DejaVuSans-50"
             x="261.62109"
             id="use318" />
        </g>
      </g>
    </g>
  </g>
  <defs
     id="defs329">
    <clipPath
       id="p055f607e43">
      <rect
         x="67.275"
         y="17.316"
         width="559.125"
         height="269.4081"
         id="rect326" />
    </clipPath>
  </defs>
</svg>
