<?xml version="1.0" encoding="utf-8" standalone="no"?>
<!DOCTYPE svg PUBLIC "-//W3C//DTD SVG 1.1//EN"
  "http://www.w3.org/Graphics/SVG/1.1/DTD/svg11.dtd">
<svg xmlns:xlink="http://www.w3.org/1999/xlink" width="504pt" height="346.32pt" viewBox="0 0 504 346.32" xmlns="http://www.w3.org/2000/svg" version="1.1">
 <metadata>
  <rdf:RDF xmlns:dc="http://purl.org/dc/elements/1.1/" xmlns:cc="http://creativecommons.org/ns#" xmlns:rdf="http://www.w3.org/1999/02/22-rdf-syntax-ns#">
   <cc:Work>
    <dc:type rdf:resource="http://purl.org/dc/dcmitype/StillImage"/>
    <dc:date>2025-12-15T13:38:43.295989</dc:date>
    <dc:format>image/svg+xml</dc:format>
    <dc:creator>
     <cc:Agent>
      <dc:title>Matplotlib v3.6.3, https://matplotlib.org/</dc:title>
     </cc:Agent>
    </dc:creator>
   </cc:Work>
  </rdf:RDF>
 </metadata>
 <defs>
  <style type="text/css">*{stroke-linejoin: round; stroke-linecap: butt}</style>
 </defs>
 <g id="figure_1">
  <g id="patch_1">
   <path d="M 0 346.32 
L 504 346.32 
L 504 0 
L 0 0 
z
" style="fill: #ffffff"/>
  </g>
  <g id="axes_1">
   <g id="patch_2">
    <path d="M 86.4 286.7241 
L 482.4 286.7241 
L 482.4 18.767861 
L 86.4 18.767861 
z
" style="fill: #ffffff"/>
   </g>
   <g id="matplotlib.axis_1">
    <g id="xtick_1">
     <g id="line2d_1">
      <defs>
       <path id="m1cc72958b1" d="M 0 0 
L 0 6 
" style="stroke: #000000; stroke-width: 1.2"/>
      </defs>
      <g>
       <use xlink:href="#m1cc72958b1" x="86.4" y="286.7241" style="stroke: #000000; stroke-width: 1.2"/>
      </g>
     </g>
     <g id="text_1">
      <!-- −20 -->
      <g transform="translate(65.295313 311.420975) scale(0.2 -0.2)">
       <defs>
        <path id="DejaVuSans-2212" d="M 678 2272 
L 4684 2272 
L 4684 1741 
L 678 1741 
L 678 2272 
z
" transform="scale(0.015625)"/>
        <path id="DejaVuSans-32" d="M 1228 531 
L 3431 531 
L 3431 0 
L 469 0 
L 469 531 
Q 828 903 1448 1529 
Q 2069 2156 2228 2338 
Q 2531 2678 2651 2914 
Q 2772 3150 2772 3378 
Q 2772 3750 2511 3984 
Q 2250 4219 1831 4219 
Q 1534 4219 1204 4116 
Q 875 4013 500 3803 
L 500 4441 
Q 881 4594 1212 4672 
Q 1544 4750 1819 4750 
Q 2544 4750 2975 4387 
Q 3406 4025 3406 3419 
Q 3406 3131 3298 2873 
Q 3191 2616 2906 2266 
Q 2828 2175 2409 1742 
Q 1991 1309 1228 531 
z
" transform="scale(0.015625)"/>
        <path id="DejaVuSans-30" d="M 2034 4250 
Q 1547 4250 1301 3770 
Q 1056 3291 1056 2328 
Q 1056 1369 1301 889 
Q 1547 409 2034 409 
Q 2525 409 2770 889 
Q 3016 1369 3016 2328 
Q 3016 3291 2770 3770 
Q 2525 4250 2034 4250 
z
M 2034 4750 
Q 2819 4750 3233 4129 
Q 3647 3509 3647 2328 
Q 3647 1150 3233 529 
Q 2819 -91 2034 -91 
Q 1250 -91 836 529 
Q 422 1150 422 2328 
Q 422 3509 836 4129 
Q 1250 4750 2034 4750 
z
" transform="scale(0.015625)"/>
       </defs>
       <use xlink:href="#DejaVuSans-2212"/>
       <use xlink:href="#DejaVuSans-32" x="83.789062"/>
       <use xlink:href="#DejaVuSans-30" x="147.412109"/>
      </g>
     </g>
    </g>
    <g id="xtick_2">
     <g id="line2d_2">
      <g>
       <use xlink:href="#m1cc72958b1" x="210.15" y="286.7241" style="stroke: #000000; stroke-width: 1.2"/>
      </g>
     </g>
     <g id="text_2">
      <!-- −10 -->
      <g transform="translate(189.045313 311.420975) scale(0.2 -0.2)">
       <defs>
        <path id="DejaVuSans-31" d="M 794 531 
L 1825 531 
L 1825 4091 
L 703 3866 
L 703 4441 
L 1819 4666 
L 2450 4666 
L 2450 531 
L 3481 531 
L 3481 0 
L 794 0 
L 794 531 
z
" transform="scale(0.015625)"/>
       </defs>
       <use xlink:href="#DejaVuSans-2212"/>
       <use xlink:href="#DejaVuSans-31" x="83.789062"/>
       <use xlink:href="#DejaVuSans-30" x="147.412109"/>
      </g>
     </g>
    </g>
    <g id="xtick_3">
     <g id="line2d_3">
      <g>
       <use xlink:href="#m1cc72958b1" x="333.9" y="286.7241" style="stroke: #000000; stroke-width: 1.2"/>
      </g>
     </g>
     <g id="text_3">
      <!-- 0 -->
      <g transform="translate(327.5375 311.420975) scale(0.2 -0.2)">
       <use xlink:href="#DejaVuSans-30"/>
      </g>
     </g>
    </g>
    <g id="xtick_4">
     <g id="line2d_4">
      <g>
       <use xlink:href="#m1cc72958b1" x="457.65" y="286.7241" style="stroke: #000000; stroke-width: 1.2"/>
      </g>
     </g>
     <g id="text_4">
      <!-- 10 -->
      <g transform="translate(444.925 311.420975) scale(0.2 -0.2)">
       <use xlink:href="#DejaVuSans-31"/>
       <use xlink:href="#DejaVuSans-30" x="63.623047"/>
      </g>
     </g>
    </g>
    <g id="text_5">
     <!-- $\mathrm{E - E_F\ (eV)}$ -->
     <g transform="translate(231 334.777225) scale(0.2 -0.2)">
      <defs>
       <path id="DejaVuSans-45" d="M 628 4666 
L 3578 4666 
L 3578 4134 
L 1259 4134 
L 1259 2753 
L 3481 2753 
L 3481 2222 
L 1259 2222 
L 1259 531 
L 3634 531 
L 3634 0 
L 628 0 
L 628 4666 
z
" transform="scale(0.015625)"/>
       <path id="DejaVuSans-46" d="M 628 4666 
L 3309 4666 
L 3309 4134 
L 1259 4134 
L 1259 2759 
L 3109 2759 
L 3109 2228 
L 1259 2228 
L 1259 0 
L 628 0 
L 628 4666 
z
" transform="scale(0.015625)"/>
       <path id="DejaVuSans-28" d="M 1984 4856 
Q 1566 4138 1362 3434 
Q 1159 2731 1159 2009 
Q 1159 1288 1364 580 
Q 1569 -128 1984 -844 
L 1484 -844 
Q 1016 -109 783 600 
Q 550 1309 550 2009 
Q 550 2706 781 3412 
Q 1013 4119 1484 4856 
L 1984 4856 
z
" transform="scale(0.015625)"/>
       <path id="DejaVuSans-65" d="M 3597 1894 
L 3597 1613 
L 953 1613 
Q 991 1019 1311 708 
Q 1631 397 2203 397 
Q 2534 397 2845 478 
Q 3156 559 3463 722 
L 3463 178 
Q 3153 47 2828 -22 
Q 2503 -91 2169 -91 
Q 1331 -91 842 396 
Q 353 884 353 1716 
Q 353 2575 817 3079 
Q 1281 3584 2069 3584 
Q 2775 3584 3186 3129 
Q 3597 2675 3597 1894 
z
M 3022 2063 
Q 3016 2534 2758 2815 
Q 2500 3097 2075 3097 
Q 1594 3097 1305 2825 
Q 1016 2553 972 2059 
L 3022 2063 
z
" transform="scale(0.015625)"/>
       <path id="DejaVuSans-56" d="M 1831 0 
L 50 4666 
L 709 4666 
L 2188 738 
L 3669 4666 
L 4325 4666 
L 2547 0 
L 1831 0 
z
" transform="scale(0.015625)"/>
       <path id="DejaVuSans-29" d="M 513 4856 
L 1013 4856 
Q 1481 4119 1714 3412 
Q 1947 2706 1947 2009 
Q 1947 1309 1714 600 
Q 1481 -109 1013 -844 
L 513 -844 
Q 928 -128 1133 580 
Q 1338 1288 1338 2009 
Q 1338 2731 1133 3434 
Q 928 4138 513 4856 
z
" transform="scale(0.015625)"/>
      </defs>
      <use xlink:href="#DejaVuSans-45" transform="translate(0 0.125)"/>
      <use xlink:href="#DejaVuSans-2212" transform="translate(82.666016 0.125)"/>
      <use xlink:href="#DejaVuSans-45" transform="translate(185.9375 0.125)"/>
      <use xlink:href="#DejaVuSans-46" transform="translate(250.078125 -16.28125) scale(0.7)"/>
      <use xlink:href="#DejaVuSans-28" transform="translate(325.54655 0.125)"/>
      <use xlink:href="#DejaVuSans-65" transform="translate(364.560222 0.125)"/>
      <use xlink:href="#DejaVuSans-56" transform="translate(426.08366 0.125)"/>
      <use xlink:href="#DejaVuSans-29" transform="translate(494.491863 0.125)"/>
     </g>
    </g>
   </g>
   <g id="matplotlib.axis_2">
    <g id="ytick_1">
     <g id="line2d_5">
      <defs>
       <path id="mf1f5d8a465" d="M 0 0 
L -6 0 
" style="stroke: #000000; stroke-width: 1.2"/>
      </defs>
      <g>
       <use xlink:href="#mf1f5d8a465" x="86.4" y="274.544271" style="stroke: #000000; stroke-width: 1.2"/>
      </g>
     </g>
     <g id="text_6">
      <!-- 0.0 -->
      <g transform="translate(45.09375 282.142708) scale(0.2 -0.2)">
       <defs>
        <path id="DejaVuSans-2e" d="M 684 794 
L 1344 794 
L 1344 0 
L 684 0 
L 684 794 
z
" transform="scale(0.015625)"/>
       </defs>
       <use xlink:href="#DejaVuSans-30"/>
       <use xlink:href="#DejaVuSans-2e" x="63.623047"/>
       <use xlink:href="#DejaVuSans-30" x="95.410156"/>
      </g>
     </g>
    </g>
    <g id="ytick_2">
     <g id="line2d_6">
      <g>
       <use xlink:href="#mf1f5d8a465" x="86.4" y="190.829145" style="stroke: #000000; stroke-width: 1.2"/>
      </g>
     </g>
     <g id="text_7">
      <!-- 0.8 -->
      <g transform="translate(45.09375 198.427582) scale(0.2 -0.2)">
       <defs>
        <path id="DejaVuSans-38" d="M 2034 2216 
Q 1584 2216 1326 1975 
Q 1069 1734 1069 1313 
Q 1069 891 1326 650 
Q 1584 409 2034 409 
Q 2484 409 2743 651 
Q 3003 894 3003 1313 
Q 3003 1734 2745 1975 
Q 2488 2216 2034 2216 
z
M 1403 2484 
Q 997 2584 770 2862 
Q 544 3141 544 3541 
Q 544 4100 942 4425 
Q 1341 4750 2034 4750 
Q 2731 4750 3128 4425 
Q 3525 4100 3525 3541 
Q 3525 3141 3298 2862 
Q 3072 2584 2669 2484 
Q 3125 2378 3379 2068 
Q 3634 1759 3634 1313 
Q 3634 634 3220 271 
Q 2806 -91 2034 -91 
Q 1263 -91 848 271 
Q 434 634 434 1313 
Q 434 1759 690 2068 
Q 947 2378 1403 2484 
z
M 1172 3481 
Q 1172 3119 1398 2916 
Q 1625 2713 2034 2713 
Q 2441 2713 2670 2916 
Q 2900 3119 2900 3481 
Q 2900 3844 2670 4047 
Q 2441 4250 2034 4250 
Q 1625 4250 1398 4047 
Q 1172 3844 1172 3481 
z
" transform="scale(0.015625)"/>
       </defs>
       <use xlink:href="#DejaVuSans-30"/>
       <use xlink:href="#DejaVuSans-2e" x="63.623047"/>
       <use xlink:href="#DejaVuSans-38" x="95.410156"/>
      </g>
     </g>
    </g>
    <g id="ytick_3">
     <g id="line2d_7">
      <g>
       <use xlink:href="#mf1f5d8a465" x="86.4" y="107.114018" style="stroke: #000000; stroke-width: 1.2"/>
      </g>
     </g>
     <g id="text_8">
      <!-- 1.6 -->
      <g transform="translate(45.09375 114.712456) scale(0.2 -0.2)">
       <defs>
        <path id="DejaVuSans-36" d="M 2113 2584 
Q 1688 2584 1439 2293 
Q 1191 2003 1191 1497 
Q 1191 994 1439 701 
Q 1688 409 2113 409 
Q 2538 409 2786 701 
Q 3034 994 3034 1497 
Q 3034 2003 2786 2293 
Q 2538 2584 2113 2584 
z
M 3366 4563 
L 3366 3988 
Q 3128 4100 2886 4159 
Q 2644 4219 2406 4219 
Q 1781 4219 1451 3797 
Q 1122 3375 1075 2522 
Q 1259 2794 1537 2939 
Q 1816 3084 2150 3084 
Q 2853 3084 3261 2657 
Q 3669 2231 3669 1497 
Q 3669 778 3244 343 
Q 2819 -91 2113 -91 
Q 1303 -91 875 529 
Q 447 1150 447 2328 
Q 447 3434 972 4092 
Q 1497 4750 2381 4750 
Q 2619 4750 2861 4703 
Q 3103 4656 3366 4563 
z
" transform="scale(0.015625)"/>
       </defs>
       <use xlink:href="#DejaVuSans-31"/>
       <use xlink:href="#DejaVuSans-2e" x="63.623047"/>
       <use xlink:href="#DejaVuSans-36" x="95.410156"/>
      </g>
     </g>
    </g>
    <g id="ytick_4">
     <g id="line2d_8">
      <g>
       <use xlink:href="#mf1f5d8a465" x="86.4" y="23.398892" style="stroke: #000000; stroke-width: 1.2"/>
      </g>
     </g>
     <g id="text_9">
      <!-- 2.4 -->
      <g transform="translate(45.09375 30.99733) scale(0.2 -0.2)">
       <defs>
        <path id="DejaVuSans-34" d="M 2419 4116 
L 825 1625 
L 2419 1625 
L 2419 4116 
z
M 2253 4666 
L 3047 4666 
L 3047 1625 
L 3713 1625 
L 3713 1100 
L 3047 1100 
L 3047 0 
L 2419 0 
L 2419 1100 
L 313 1100 
L 313 1709 
L 2253 4666 
z
" transform="scale(0.015625)"/>
       </defs>
       <use xlink:href="#DejaVuSans-32"/>
       <use xlink:href="#DejaVuSans-2e" x="63.623047"/>
       <use xlink:href="#DejaVuSans-34" x="95.410156"/>
      </g>
     </g>
    </g>
    <g id="text_10">
     <!-- PDOS (arb. units) -->
     <g transform="translate(36.934375 239.203793) rotate(-90) scale(0.2 -0.2)">
      <defs>
       <path id="DejaVuSans-50" d="M 1259 4147 
L 1259 2394 
L 2053 2394 
Q 2494 2394 2734 2622 
Q 2975 2850 2975 3272 
Q 2975 3691 2734 3919 
Q 2494 4147 2053 4147 
L 1259 4147 
z
M 628 4666 
L 2053 4666 
Q 2838 4666 3239 4311 
Q 3641 3956 3641 3272 
Q 3641 2581 3239 2228 
Q 2838 1875 2053 1875 
L 1259 1875 
L 1259 0 
L 628 0 
L 628 4666 
z
" transform="scale(0.015625)"/>
       <path id="DejaVuSans-44" d="M 1259 4147 
L 1259 519 
L 2022 519 
Q 2988 519 3436 956 
Q 3884 1394 3884 2338 
Q 3884 3275 3436 3711 
Q 2988 4147 2022 4147 
L 1259 4147 
z
M 628 4666 
L 1925 4666 
Q 3281 4666 3915 4102 
Q 4550 3538 4550 2338 
Q 4550 1131 3912 565 
Q 3275 0 1925 0 
L 628 0 
L 628 4666 
z
" transform="scale(0.015625)"/>
       <path id="DejaVuSans-4f" d="M 2522 4238 
Q 1834 4238 1429 3725 
Q 1025 3213 1025 2328 
Q 1025 1447 1429 934 
Q 1834 422 2522 422 
Q 3209 422 3611 934 
Q 4013 1447 4013 2328 
Q 4013 3213 3611 3725 
Q 3209 4238 2522 4238 
z
M 2522 4750 
Q 3503 4750 4090 4092 
Q 4678 3434 4678 2328 
Q 4678 1225 4090 567 
Q 3503 -91 2522 -91 
Q 1538 -91 948 565 
Q 359 1222 359 2328 
Q 359 3434 948 4092 
Q 1538 4750 2522 4750 
z
" transform="scale(0.015625)"/>
       <path id="DejaVuSans-53" d="M 3425 4513 
L 3425 3897 
Q 3066 4069 2747 4153 
Q 2428 4238 2131 4238 
Q 1616 4238 1336 4038 
Q 1056 3838 1056 3469 
Q 1056 3159 1242 3001 
Q 1428 2844 1947 2747 
L 2328 2669 
Q 3034 2534 3370 2195 
Q 3706 1856 3706 1288 
Q 3706 609 3251 259 
Q 2797 -91 1919 -91 
Q 1588 -91 1214 -16 
Q 841 59 441 206 
L 441 856 
Q 825 641 1194 531 
Q 1563 422 1919 422 
Q 2459 422 2753 634 
Q 3047 847 3047 1241 
Q 3047 1584 2836 1778 
Q 2625 1972 2144 2069 
L 1759 2144 
Q 1053 2284 737 2584 
Q 422 2884 422 3419 
Q 422 4038 858 4394 
Q 1294 4750 2059 4750 
Q 2388 4750 2728 4690 
Q 3069 4631 3425 4513 
z
" transform="scale(0.015625)"/>
       <path id="DejaVuSans-20" transform="scale(0.015625)"/>
       <path id="DejaVuSans-61" d="M 2194 1759 
Q 1497 1759 1228 1600 
Q 959 1441 959 1056 
Q 959 750 1161 570 
Q 1363 391 1709 391 
Q 2188 391 2477 730 
Q 2766 1069 2766 1631 
L 2766 1759 
L 2194 1759 
z
M 3341 1997 
L 3341 0 
L 2766 0 
L 2766 531 
Q 2569 213 2275 61 
Q 1981 -91 1556 -91 
Q 1019 -91 701 211 
Q 384 513 384 1019 
Q 384 1609 779 1909 
Q 1175 2209 1959 2209 
L 2766 2209 
L 2766 2266 
Q 2766 2663 2505 2880 
Q 2244 3097 1772 3097 
Q 1472 3097 1187 3025 
Q 903 2953 641 2809 
L 641 3341 
Q 956 3463 1253 3523 
Q 1550 3584 1831 3584 
Q 2591 3584 2966 3190 
Q 3341 2797 3341 1997 
z
" transform="scale(0.015625)"/>
       <path id="DejaVuSans-72" d="M 2631 2963 
Q 2534 3019 2420 3045 
Q 2306 3072 2169 3072 
Q 1681 3072 1420 2755 
Q 1159 2438 1159 1844 
L 1159 0 
L 581 0 
L 581 3500 
L 1159 3500 
L 1159 2956 
Q 1341 3275 1631 3429 
Q 1922 3584 2338 3584 
Q 2397 3584 2469 3576 
Q 2541 3569 2628 3553 
L 2631 2963 
z
" transform="scale(0.015625)"/>
       <path id="DejaVuSans-62" d="M 3116 1747 
Q 3116 2381 2855 2742 
Q 2594 3103 2138 3103 
Q 1681 3103 1420 2742 
Q 1159 2381 1159 1747 
Q 1159 1113 1420 752 
Q 1681 391 2138 391 
Q 2594 391 2855 752 
Q 3116 1113 3116 1747 
z
M 1159 2969 
Q 1341 3281 1617 3432 
Q 1894 3584 2278 3584 
Q 2916 3584 3314 3078 
Q 3713 2572 3713 1747 
Q 3713 922 3314 415 
Q 2916 -91 2278 -91 
Q 1894 -91 1617 61 
Q 1341 213 1159 525 
L 1159 0 
L 581 0 
L 581 4863 
L 1159 4863 
L 1159 2969 
z
" transform="scale(0.015625)"/>
       <path id="DejaVuSans-75" d="M 544 1381 
L 544 3500 
L 1119 3500 
L 1119 1403 
Q 1119 906 1312 657 
Q 1506 409 1894 409 
Q 2359 409 2629 706 
Q 2900 1003 2900 1516 
L 2900 3500 
L 3475 3500 
L 3475 0 
L 2900 0 
L 2900 538 
Q 2691 219 2414 64 
Q 2138 -91 1772 -91 
Q 1169 -91 856 284 
Q 544 659 544 1381 
z
M 1991 3584 
L 1991 3584 
z
" transform="scale(0.015625)"/>
       <path id="DejaVuSans-6e" d="M 3513 2113 
L 3513 0 
L 2938 0 
L 2938 2094 
Q 2938 2591 2744 2837 
Q 2550 3084 2163 3084 
Q 1697 3084 1428 2787 
Q 1159 2491 1159 1978 
L 1159 0 
L 581 0 
L 581 3500 
L 1159 3500 
L 1159 2956 
Q 1366 3272 1645 3428 
Q 1925 3584 2291 3584 
Q 2894 3584 3203 3211 
Q 3513 2838 3513 2113 
z
" transform="scale(0.015625)"/>
       <path id="DejaVuSans-69" d="M 603 3500 
L 1178 3500 
L 1178 0 
L 603 0 
L 603 3500 
z
M 603 4863 
L 1178 4863 
L 1178 4134 
L 603 4134 
L 603 4863 
z
" transform="scale(0.015625)"/>
       <path id="DejaVuSans-74" d="M 1172 4494 
L 1172 3500 
L 2356 3500 
L 2356 3053 
L 1172 3053 
L 1172 1153 
Q 1172 725 1289 603 
Q 1406 481 1766 481 
L 2356 481 
L 2356 0 
L 1766 0 
Q 1100 0 847 248 
Q 594 497 594 1153 
L 594 3053 
L 172 3053 
L 172 3500 
L 594 3500 
L 594 4494 
L 1172 4494 
z
" transform="scale(0.015625)"/>
       <path id="DejaVuSans-73" d="M 2834 3397 
L 2834 2853 
Q 2591 2978 2328 3040 
Q 2066 3103 1784 3103 
Q 1356 3103 1142 2972 
Q 928 2841 928 2578 
Q 928 2378 1081 2264 
Q 1234 2150 1697 2047 
L 1894 2003 
Q 2506 1872 2764 1633 
Q 3022 1394 3022 966 
Q 3022 478 2636 193 
Q 2250 -91 1575 -91 
Q 1294 -91 989 -36 
Q 684 19 347 128 
L 347 722 
Q 666 556 975 473 
Q 1284 391 1588 391 
Q 1994 391 2212 530 
Q 2431 669 2431 922 
Q 2431 1156 2273 1281 
Q 2116 1406 1581 1522 
L 1381 1569 
Q 847 1681 609 1914 
Q 372 2147 372 2553 
Q 372 3047 722 3315 
Q 1072 3584 1716 3584 
Q 2034 3584 2315 3537 
Q 2597 3491 2834 3397 
z
" transform="scale(0.015625)"/>
      </defs>
      <use xlink:href="#DejaVuSans-50"/>
      <use xlink:href="#DejaVuSans-44" x="60.302734"/>
      <use xlink:href="#DejaVuSans-4f" x="137.304688"/>
      <use xlink:href="#DejaVuSans-53" x="216.015625"/>
      <use xlink:href="#DejaVuSans-20" x="279.492188"/>
      <use xlink:href="#DejaVuSans-28" x="311.279297"/>
      <use xlink:href="#DejaVuSans-61" x="350.292969"/>
      <use xlink:href="#DejaVuSans-72" x="411.572266"/>
      <use xlink:href="#DejaVuSans-62" x="452.685547"/>
      <use xlink:href="#DejaVuSans-2e" x="516.162109"/>
      <use xlink:href="#DejaVuSans-20" x="547.949219"/>
      <use xlink:href="#DejaVuSans-75" x="579.736328"/>
      <use xlink:href="#DejaVuSans-6e" x="643.115234"/>
      <use xlink:href="#DejaVuSans-69" x="706.494141"/>
      <use xlink:href="#DejaVuSans-74" x="734.277344"/>
      <use xlink:href="#DejaVuSans-73" x="773.486328"/>
      <use xlink:href="#DejaVuSans-29" x="825.585938"/>
     </g>
    </g>
   </g>
   <g id="line2d_9">
    <path d="M 86.265477 274.544271 
L 105.073458 274.455667 
L 105.537853 274.192281 
L 105.77005 273.878794 
L 106.002248 273.329637 
L 106.234445 272.404005 
L 106.466642 270.903444 
L 106.69884 268.56508 
L 107.163234 260.034618 
L 107.627629 243.959055 
L 108.092023 218.541958 
L 109.485207 126.861934 
L 109.717404 121.082375 
L 109.949602 120.593263 
L 110.181799 125.445354 
L 110.646194 148.71308 
L 112.039378 242.052818 
L 112.503772 258.932847 
L 112.968167 268.02865 
L 113.432561 272.182113 
L 113.896956 273.800392 
L 114.361351 274.340785 
L 114.825745 274.49592 
L 116.218929 274.543992 
L 255.305115 274.539028 
L 256.233904 274.427509 
L 256.698299 274.098187 
L 256.930496 273.717207 
L 257.162693 273.063898 
L 257.394891 271.986196 
L 257.627088 270.276851 
L 258.091483 263.858654 
L 258.555877 251.302261 
L 259.020272 230.631822 
L 260.645653 140.252081 
L 260.87785 137.69499 
L 261.110048 139.913524 
L 261.342245 146.67801 
L 261.806639 170.765313 
L 262.967626 241.284659 
L 263.432021 258.05467 
L 263.896415 267.442887 
L 264.36081 271.887735 
L 264.825204 273.681037 
L 265.289599 274.300613 
L 265.753994 274.48453 
L 266.91498 274.543311 
L 303.13776 274.529685 
L 303.834352 274.431296 
L 304.298746 274.173396 
L 304.763141 273.486696 
L 305.227536 271.924669 
L 305.69193 268.907907 
L 306.156325 264.010044 
L 307.781706 243.528709 
L 308.013903 243.109069 
L 308.246101 243.785935 
L 308.478298 245.489371 
L 308.942692 251.217082 
L 310.103679 267.268241 
L 310.568074 270.975841 
L 311.032468 273.024075 
L 311.496863 273.98172 
L 311.961257 274.363443 
L 312.657849 274.518964 
L 314.979822 274.544267 
L 419.46861 274.448342 
L 419.933004 274.149158 
L 420.165202 273.783645 
L 420.397399 273.130658 
L 420.629596 272.007973 
L 420.861794 270.151082 
L 421.093991 267.197957 
L 421.558386 256.061008 
L 422.02278 234.149266 
L 422.487175 197.858182 
L 424.112556 36.069766 
L 424.344753 30.94769 
L 424.576951 34.323591 
L 424.809148 45.847744 
L 425.273542 88.040403 
L 426.434529 214.054344 
L 426.898924 244.410675 
L 427.363318 261.504837 
L 427.827713 269.643026 
L 428.292107 272.943998 
L 428.756502 274.090411 
L 429.220897 274.432459 
L 429.917489 274.533772 
L 434.561435 274.544271 
L 453.601614 274.485759 
L 454.066008 274.310873 
L 454.298206 274.102102 
L 454.530403 273.735566 
L 454.7626 273.11636 
L 454.994798 272.110261 
L 455.226995 270.538801 
L 455.691389 264.784363 
L 456.155784 253.886766 
L 456.620179 236.564713 
L 458.013363 173.151876 
L 458.24556 168.968028 
L 458.477757 168.414557 
L 458.709954 171.548887 
L 459.174349 187.265382 
L 460.567533 251.729143 
L 461.031927 263.537145 
L 461.496322 269.931469 
L 461.960717 272.865097 
L 462.425111 274.013305 
L 462.889506 274.398431 
L 463.586098 274.528149 
L 466.83686 274.544271 
L 482.626277 274.544271 
L 482.626277 274.544271 
" clip-path="url(#pf17c0af96f)" style="fill: none; stroke: #243c6e; stroke-width: 2.5; stroke-linecap: square"/>
   </g>
   <g id="line2d_10">
    <path d="M 86.265477 274.544271 
L 105.305656 274.467638 
L 105.77005 274.260539 
L 106.002248 274.026401 
L 106.234445 273.631749 
L 106.466642 272.991972 
L 106.69884 271.994989 
L 107.163234 268.35795 
L 107.627629 261.503989 
L 108.092023 250.66718 
L 109.485207 211.578576 
L 109.717404 209.114409 
L 109.949602 208.905872 
L 110.181799 210.974605 
L 110.646194 220.895009 
L 112.039378 260.691247 
L 112.503772 267.8882 
L 112.968167 271.766277 
L 113.432561 273.537144 
L 113.896956 274.227112 
L 114.361351 274.457513 
L 115.29014 274.540016 
L 126.203413 274.544271 
L 256.930496 274.4563 
L 257.394891 274.27218 
L 257.859285 273.813252 
L 258.32368 272.838256 
L 258.788075 271.085858 
L 259.484666 266.878733 
L 260.413456 261.012019 
L 260.645653 260.260204 
L 260.87785 259.988217 
L 261.110048 260.224193 
L 261.342245 260.943702 
L 261.806639 263.505762 
L 262.967626 271.006593 
L 263.432021 272.790345 
L 263.896415 273.788928 
L 264.36081 274.261707 
L 265.057402 274.494623 
L 266.450586 274.543679 
L 303.369957 274.503148 
L 303.834352 274.388858 
L 304.298746 274.034082 
L 304.530944 273.667436 
L 304.995338 272.213917 
L 305.459733 269.164477 
L 305.924128 263.756062 
L 306.620719 251.018183 
L 307.317311 237.172829 
L 307.781706 231.878151 
L 308.013903 231.300879 
L 308.246101 232.232001 
L 308.478298 234.575308 
L 308.942692 242.454553 
L 310.103679 264.535103 
L 310.568074 269.635411 
L 311.032468 272.453034 
L 311.496863 273.770405 
L 311.961257 274.295518 
L 312.425652 274.474815 
L 313.586639 274.542726 
L 329.143858 274.507663 
L 329.608253 274.399935 
L 330.072647 274.049947 
L 330.304845 273.676521 
L 330.537042 273.073692 
L 331.001436 270.744084 
L 331.465831 266.014024 
L 331.930226 257.911748 
L 332.626818 239.768425 
L 333.32341 221.579508 
L 333.787804 215.748903 
L 334.020001 215.783685 
L 334.252199 217.85001 
L 334.716593 227.057245 
L 336.109777 262.556955 
L 336.574172 268.82794 
L 337.038566 272.176429 
L 337.502961 273.692294 
L 337.967356 274.277988 
L 338.43175 274.471978 
L 339.592737 274.542772 
L 369.313992 274.544271 
L 419.933004 274.435156 
L 420.397399 274.153885 
L 420.629596 273.843842 
L 420.861794 273.331039 
L 421.093991 272.515498 
L 421.558386 269.439896 
L 422.02278 263.388706 
L 422.487175 253.366488 
L 424.112556 208.686676 
L 424.344753 207.272154 
L 424.576951 208.204449 
L 424.809148 211.386982 
L 425.273542 223.038991 
L 426.434529 257.839252 
L 426.898924 266.222517 
L 427.363318 270.943275 
L 427.827713 273.190733 
L 428.292107 274.102336 
L 428.756502 274.418932 
L 429.453094 274.529733 
L 432.936054 274.544271 
L 453.601614 274.446073 
L 454.066008 274.152571 
L 454.298206 273.8022 
L 454.530403 273.187063 
L 454.7626 272.14788 
L 454.994798 270.459395 
L 455.226995 267.822093 
L 455.691389 258.164709 
L 456.155784 239.875822 
L 456.620179 210.805093 
L 458.013363 104.382524 
L 458.24556 97.360984 
L 458.477757 96.432121 
L 458.709954 101.69231 
L 459.174349 128.06851 
L 460.567533 236.254791 
L 461.031927 256.071566 
L 461.496322 266.802837 
L 461.960717 271.726198 
L 462.425111 273.653178 
L 462.889506 274.299515 
L 463.353901 274.485875 
L 464.514887 274.543394 
L 482.626277 274.544271 
L 482.626277 274.544271 
" clip-path="url(#pf17c0af96f)" style="fill: none; stroke: #7d7c78; stroke-width: 2.5; stroke-linecap: square"/>
   </g>
   <g id="line2d_11">
    <path d="M 86.265477 274.544271 
L 482.626277 274.544271 
L 482.626277 274.544271 
" clip-path="url(#pf17c0af96f)" style="fill: none; stroke: #d6c35d; stroke-width: 2.5; stroke-linecap: square"/>
   </g>
   <g id="line2d_12">
    <path d="M 333.9 286.7241 
L 333.9 18.767861 
" clip-path="url(#pf17c0af96f)" style="fill: none; stroke-dasharray: 4.44,1.92; stroke-dashoffset: 0; stroke: #000000; stroke-width: 1.2"/>
   </g>
   <g id="patch_3">
    <path d="M 86.4 286.7241 
L 86.4 18.767861 
" style="fill: none; stroke: #000000; stroke-width: 1.2; stroke-linejoin: miter; stroke-linecap: square"/>
   </g>
   <g id="patch_4">
    <path d="M 86.4 286.7241 
L 482.4 286.7241 
" style="fill: none; stroke: #000000; stroke-width: 1.2; stroke-linejoin: miter; stroke-linecap: square"/>
   </g>
   <g id="legend_1">
    <g id="line2d_13">
     <path d="M 102.6 42.345049 
L 120.6 42.345049 
L 138.6 42.345049 
" style="fill: none; stroke: #243c6e; stroke-width: 2.5; stroke-linecap: square"/>
    </g>
    <g id="text_11">
     <!--  s -->
     <g transform="translate(153 48.645049) scale(0.18 -0.18)">
      <use xlink:href="#DejaVuSans-20"/>
      <use xlink:href="#DejaVuSans-73" x="31.787109"/>
     </g>
    </g>
    <g id="line2d_14">
     <path d="M 102.6 68.765674 
L 120.6 68.765674 
L 138.6 68.765674 
" style="fill: none; stroke: #7d7c78; stroke-width: 2.5; stroke-linecap: square"/>
    </g>
    <g id="text_12">
     <!--  p -->
     <g transform="translate(153 75.065674) scale(0.18 -0.18)">
      <defs>
       <path id="DejaVuSans-70" d="M 1159 525 
L 1159 -1331 
L 581 -1331 
L 581 3500 
L 1159 3500 
L 1159 2969 
Q 1341 3281 1617 3432 
Q 1894 3584 2278 3584 
Q 2916 3584 3314 3078 
Q 3713 2572 3713 1747 
Q 3713 922 3314 415 
Q 2916 -91 2278 -91 
Q 1894 -91 1617 61 
Q 1341 213 1159 525 
z
M 3116 1747 
Q 3116 2381 2855 2742 
Q 2594 3103 2138 3103 
Q 1681 3103 1420 2742 
Q 1159 2381 1159 1747 
Q 1159 1113 1420 752 
Q 1681 391 2138 391 
Q 2594 391 2855 752 
Q 3116 1113 3116 1747 
z
" transform="scale(0.015625)"/>
      </defs>
      <use xlink:href="#DejaVuSans-20"/>
      <use xlink:href="#DejaVuSans-70" x="31.787109"/>
     </g>
    </g>
    <g id="line2d_15">
     <path d="M 102.6 95.186299 
L 120.6 95.186299 
L 138.6 95.186299 
" style="fill: none; stroke: #d6c35d; stroke-width: 2.5; stroke-linecap: square"/>
    </g>
    <g id="text_13">
     <!--  d -->
     <g transform="translate(153 101.486299) scale(0.18 -0.18)">
      <defs>
       <path id="DejaVuSans-64" d="M 2906 2969 
L 2906 4863 
L 3481 4863 
L 3481 0 
L 2906 0 
L 2906 525 
Q 2725 213 2448 61 
Q 2172 -91 1784 -91 
Q 1150 -91 751 415 
Q 353 922 353 1747 
Q 353 2572 751 3078 
Q 1150 3584 1784 3584 
Q 2172 3584 2448 3432 
Q 2725 3281 2906 2969 
z
M 947 1747 
Q 947 1113 1208 752 
Q 1469 391 1925 391 
Q 2381 391 2643 752 
Q 2906 1113 2906 1747 
Q 2906 2381 2643 2742 
Q 2381 3103 1925 3103 
Q 1469 3103 1208 2742 
Q 947 2381 947 1747 
z
" transform="scale(0.015625)"/>
      </defs>
      <use xlink:href="#DejaVuSans-20"/>
      <use xlink:href="#DejaVuSans-64" x="31.787109"/>
     </g>
    </g>
   </g>
  </g>
 </g>
 <defs>
  <clipPath id="pf17c0af96f">
   <rect x="86.4" y="18.767861" width="396" height="267.956239"/>
  </clipPath>
 </defs>
</svg>
