<?xml version="1.0" encoding="UTF-8" standalone="no"?>
<svg
   width="648pt"
   height="346.32pt"
   viewBox="0 0 648 346.32"
   version="1.1"
   id="svg326"
   sodipodi:docname="05_PDOS_XC_FUNCTIONAL.svg"
   inkscape:version="1.2.2 (b0a8486541, 2022-12-01)"
   xmlns:inkscape="http://www.inkscape.org/namespaces/inkscape"
   xmlns:sodipodi="http://sodipodi.sourceforge.net/DTD/sodipodi-0.dtd"
   xmlns:xlink="http://www.w3.org/1999/xlink"
   xmlns="http://www.w3.org/2000/svg"
   xmlns:svg="http://www.w3.org/2000/svg"
   xmlns:rdf="http://www.w3.org/1999/02/22-rdf-syntax-ns#"
   xmlns:cc="http://creativecommons.org/ns#"
   xmlns:dc="http://purl.org/dc/elements/1.1/">
  <sodipodi:namedview
     id="namedview328"
     pagecolor="#ffffff"
     bordercolor="#666666"
     borderopacity="1.0"
     inkscape:showpageshadow="2"
     inkscape:pageopacity="0.0"
     inkscape:pagecheckerboard="0"
     inkscape:deskcolor="#d1d1d1"
     inkscape:document-units="pt"
     showgrid="false"
     inkscape:zoom="0.72278758"
     inkscape:cx="479.39396"
     inkscape:cy="267.02174"
     inkscape:window-width="1920"
     inkscape:window-height="1002"
     inkscape:window-x="1920"
     inkscape:window-y="0"
     inkscape:window-maximized="1"
     inkscape:current-layer="svg326" />
  <metadata
     id="metadata2">
    <rdf:RDF>
      <cc:Work>
        <dc:type
           rdf:resource="http://purl.org/dc/dcmitype/StillImage" />
        <dc:date>2025-12-15T14:47:02.629258</dc:date>
        <dc:format>image/svg+xml</dc:format>
        <dc:creator>
          <cc:Agent>
            <dc:title>Matplotlib v3.6.3, https://matplotlib.org/</dc:title>
          </cc:Agent>
        </dc:creator>
      </cc:Work>
    </rdf:RDF>
  </metadata>
  <defs
     id="defs6">
    <style
       type="text/css"
       id="style4">*{stroke-linejoin: round; stroke-linecap: butt}</style>
  </defs>
  <g
     id="g1201">
    <path
       d="M 0,346.32 H 648 V 0 H 0 Z"
       style="fill:#ffffff"
       id="path8" />
    <g
       id="patch_2">
      <path
         d="M 67.275,286.7241 H 626.4 V 17.316 H 67.275 Z"
         style="fill:#ffffff"
         id="path11" />
    </g>
    <g
       id="matplotlib.axis_1">
      <g
         id="xtick_1">
        <g
           id="line2d_1">
          <defs
             id="defs15">
            <path
               id="md39df95a92"
               d="M 0,0 V 6"
               style="stroke:#000000;stroke-width:1.2" />
          </defs>
          <g
             id="g19">
            <use
               xlink:href="#md39df95a92"
               x="67.275002"
               y="286.72409"
               style="stroke:#000000;stroke-width:1.2"
               id="use17" />
          </g>
        </g>
        <g
           id="text_1">
          <!-- −20 -->
          <g
             transform="matrix(0.2,0,0,-0.2,46.170312,311.42097)"
             id="g33">
            <defs
               id="defs25">
              <path
                 id="DejaVuSans-2212"
                 d="M 678,2272 H 4684 V 1741 H 678 Z"
                 transform="scale(0.015625)" />
              <path
                 id="DejaVuSans-32"
                 d="M 1228,531 H 3431 V 0 H 469 v 531 q 359,372 979,998 621,627 780,809 303,340 423,576 121,236 121,464 0,372 -261,606 -261,235 -680,235 -297,0 -627,-103 -329,-103 -704,-313 v 638 q 381,153 712,231 332,78 607,78 725,0 1156,-363 431,-362 431,-968 0,-288 -108,-546 -107,-257 -392,-607 -78,-91 -497,-524 Q 1991,1309 1228,531 Z"
                 transform="scale(0.015625)" />
              <path
                 id="DejaVuSans-30"
                 d="m 2034,4250 q -487,0 -733,-480 -245,-479 -245,-1442 0,-959 245,-1439 246,-480 733,-480 491,0 736,480 246,480 246,1439 0,963 -246,1442 -245,480 -736,480 z m 0,500 q 785,0 1199,-621 414,-620 414,-1801 0,-1178 -414,-1799 -414,-620 -1199,-620 -784,0 -1198,620 -414,621 -414,1799 0,1181 414,1801 414,621 1198,621 z"
                 transform="scale(0.015625)" />
            </defs>
            <use
               xlink:href="#DejaVuSans-2212"
               id="use27" />
            <use
               xlink:href="#DejaVuSans-32"
               x="83.789062"
               id="use29" />
            <use
               xlink:href="#DejaVuSans-30"
               x="147.41211"
               id="use31" />
          </g>
        </g>
      </g>
      <g
         id="xtick_2">
        <g
           id="line2d_2">
          <g
             id="g39">
            <use
               xlink:href="#md39df95a92"
               x="151.99091"
               y="286.72409"
               style="stroke:#000000;stroke-width:1.2"
               id="use37" />
          </g>
        </g>
        <g
           id="text_2">
          <!-- −15 -->
          <g
             transform="matrix(0.2,0,0,-0.2,130.88622,311.42097)"
             id="g52">
            <defs
               id="defs44">
              <path
                 id="DejaVuSans-31"
                 d="M 794,531 H 1825 V 4091 L 703,3866 v 575 l 1116,225 h 631 V 531 H 3481 V 0 H 794 Z"
                 transform="scale(0.015625)" />
              <path
                 id="DejaVuSans-35"
                 d="M 691,4666 H 3169 V 4134 H 1269 V 2991 q 137,47 274,70 138,23 276,23 781,0 1237,-428 457,-428 457,-1159 Q 3513,744 3044,326 2575,-91 1722,-91 1428,-91 1123,-41 819,9 494,109 v 635 q 281,-153 581,-228 300,-75 634,-75 541,0 856,284 316,284 316,772 0,487 -316,771 -315,285 -856,285 -253,0 -505,-56 -251,-56 -513,-175 z"
                 transform="scale(0.015625)" />
            </defs>
            <use
               xlink:href="#DejaVuSans-2212"
               id="use46" />
            <use
               xlink:href="#DejaVuSans-31"
               x="83.789062"
               id="use48" />
            <use
               xlink:href="#DejaVuSans-35"
               x="147.41211"
               id="use50" />
          </g>
        </g>
      </g>
      <g
         id="xtick_3">
        <g
           id="line2d_3">
          <g
             id="g58">
            <use
               xlink:href="#md39df95a92"
               x="236.70682"
               y="286.72409"
               style="stroke:#000000;stroke-width:1.2"
               id="use56" />
          </g>
        </g>
        <g
           id="text_3">
          <!-- −10 -->
          <g
             transform="matrix(0.2,0,0,-0.2,215.60213,311.42097)"
             id="g67">
            <use
               xlink:href="#DejaVuSans-2212"
               id="use61" />
            <use
               xlink:href="#DejaVuSans-31"
               x="83.789062"
               id="use63" />
            <use
               xlink:href="#DejaVuSans-30"
               x="147.41211"
               id="use65" />
          </g>
        </g>
      </g>
      <g
         id="xtick_4">
        <g
           id="line2d_4">
          <g
             id="g73">
            <use
               xlink:href="#md39df95a92"
               x="321.42273"
               y="286.72409"
               style="stroke:#000000;stroke-width:1.2"
               id="use71" />
          </g>
        </g>
        <g
           id="text_4">
          <!-- −5 -->
          <g
             transform="matrix(0.2,0,0,-0.2,306.68054,311.42097)"
             id="g80">
            <use
               xlink:href="#DejaVuSans-2212"
               id="use76" />
            <use
               xlink:href="#DejaVuSans-35"
               x="83.789062"
               id="use78" />
          </g>
        </g>
      </g>
      <g
         id="xtick_5">
        <g
           id="line2d_5">
          <g
             id="g86">
            <use
               xlink:href="#md39df95a92"
               x="406.13864"
               y="286.72409"
               style="stroke:#000000;stroke-width:1.2"
               id="use84" />
          </g>
        </g>
        <g
           id="text_5">
          <!-- 0 -->
          <g
             transform="matrix(0.2,0,0,-0.2,399.77614,311.42097)"
             id="g91">
            <use
               xlink:href="#DejaVuSans-30"
               id="use89" />
          </g>
        </g>
      </g>
      <g
         id="xtick_6">
        <g
           id="line2d_6">
          <g
             id="g97">
            <use
               xlink:href="#md39df95a92"
               x="490.85455"
               y="286.72409"
               style="stroke:#000000;stroke-width:1.2"
               id="use95" />
          </g>
        </g>
        <g
           id="text_6">
          <!-- 5 -->
          <g
             transform="matrix(0.2,0,0,-0.2,484.49205,311.42097)"
             id="g102">
            <use
               xlink:href="#DejaVuSans-35"
               id="use100" />
          </g>
        </g>
      </g>
      <g
         id="xtick_7">
        <g
           id="line2d_7">
          <g
             id="g108">
            <use
               xlink:href="#md39df95a92"
               x="575.57043"
               y="286.72409"
               style="stroke:#000000;stroke-width:1.2"
               id="use106" />
          </g>
        </g>
        <g
           id="text_7">
          <!-- 10 -->
          <g
             transform="matrix(0.2,0,0,-0.2,562.84546,311.42097)"
             id="g115">
            <use
               xlink:href="#DejaVuSans-31"
               id="use111" />
            <use
               xlink:href="#DejaVuSans-30"
               x="63.623047"
               id="use113" />
          </g>
        </g>
      </g>
      <g
         id="text_8">
        <!-- $\mathrm{E - E_F\ (eV)}$ -->
        <g
           transform="matrix(0.2,0,0,-0.2,293.4375,334.77722)"
           id="g143">
          <defs
             id="defs125">
            <path
               id="DejaVuSans-45"
               d="M 628,4666 H 3578 V 4134 H 1259 V 2753 H 3481 V 2222 H 1259 V 531 H 3634 V 0 H 628 Z"
               transform="scale(0.015625)" />
            <path
               id="DejaVuSans-46"
               d="M 628,4666 H 3309 V 4134 H 1259 V 2759 H 3109 V 2228 H 1259 V 0 H 628 Z"
               transform="scale(0.015625)" />
            <path
               id="DejaVuSans-28"
               d="m 1984,4856 q -418,-718 -622,-1422 -203,-703 -203,-1425 0,-721 205,-1429 205,-708 620,-1424 h -500 q -468,735 -701,1444 -233,709 -233,1409 0,697 231,1403 232,707 703,1444 z"
               transform="scale(0.015625)" />
            <path
               id="DejaVuSans-65"
               d="M 3597,1894 V 1613 H 953 q 38,-594 358,-905 320,-311 892,-311 331,0 642,81 311,81 618,244 V 178 Q 3153,47 2828,-22 2503,-91 2169,-91 1331,-91 842,396 353,884 353,1716 q 0,859 464,1363 464,505 1252,505 706,0 1117,-455 411,-454 411,-1235 z m -575,169 q -6,471 -264,752 -258,282 -683,282 -481,0 -770,-272 -289,-272 -333,-766 z"
               transform="scale(0.015625)" />
            <path
               id="DejaVuSans-56"
               d="M 1831,0 50,4666 H 709 L 2188,738 3669,4666 h 656 L 2547,0 Z"
               transform="scale(0.015625)" />
            <path
               id="DejaVuSans-29"
               d="m 513,4856 h 500 q 468,-737 701,-1444 233,-706 233,-1403 0,-700 -233,-1409 -233,-709 -701,-1444 H 513 q 415,716 620,1424 205,708 205,1429 0,722 -205,1425 -205,704 -620,1422 z"
               transform="scale(0.015625)" />
          </defs>
          <use
             xlink:href="#DejaVuSans-45"
             transform="translate(0,0.125)"
             id="use127" />
          <use
             xlink:href="#DejaVuSans-2212"
             transform="translate(82.666016,0.125)"
             id="use129" />
          <use
             xlink:href="#DejaVuSans-45"
             transform="translate(185.9375,0.125)"
             id="use131" />
          <use
             xlink:href="#DejaVuSans-46"
             transform="matrix(0.7,0,0,0.7,250.07812,-16.28125)"
             id="use133" />
          <use
             xlink:href="#DejaVuSans-28"
             transform="translate(325.54655,0.125)"
             id="use135" />
          <use
             xlink:href="#DejaVuSans-65"
             transform="translate(364.56022,0.125)"
             id="use137" />
          <use
             xlink:href="#DejaVuSans-56"
             transform="translate(426.08366,0.125)"
             id="use139" />
          <use
             xlink:href="#DejaVuSans-29"
             transform="translate(494.49186,0.125)"
             id="use141" />
        </g>
      </g>
    </g>
    <g
       id="matplotlib.axis_2">
      <g
         id="ytick_1">
        <g
           id="line2d_8">
          <defs
             id="defs148">
            <path
               id="ma11525c3f4"
               d="M 0,0 H -6"
               style="stroke:#000000;stroke-width:1.2" />
          </defs>
          <g
             id="g152">
            <use
               xlink:href="#ma11525c3f4"
               x="67.275002"
               y="274.47827"
               style="stroke:#000000;stroke-width:1.2"
               id="use150" />
          </g>
        </g>
        <g
           id="text_9">
          <!-- 0 -->
          <g
             transform="matrix(0.2,0,0,-0.2,45.05,282.07671)"
             id="g157">
            <use
               xlink:href="#DejaVuSans-30"
               id="use155" />
          </g>
        </g>
      </g>
      <g
         id="ytick_2">
        <g
           id="line2d_9">
          <g
             id="g163">
            <use
               xlink:href="#ma11525c3f4"
               x="67.275002"
               y="203.0627"
               style="stroke:#000000;stroke-width:1.2"
               id="use161" />
          </g>
        </g>
        <g
           id="text_10">
          <!-- 1 -->
          <g
             transform="matrix(0.2,0,0,-0.2,45.05,210.66114)"
             id="g168">
            <use
               xlink:href="#DejaVuSans-31"
               id="use166" />
          </g>
        </g>
      </g>
      <g
         id="ytick_3">
        <g
           id="line2d_10">
          <g
             id="g174">
            <use
               xlink:href="#ma11525c3f4"
               x="67.275002"
               y="131.64713"
               style="stroke:#000000;stroke-width:1.2"
               id="use172" />
          </g>
        </g>
        <g
           id="text_11">
          <!-- 2 -->
          <g
             transform="matrix(0.2,0,0,-0.2,45.05,139.24556)"
             id="g179">
            <use
               xlink:href="#DejaVuSans-32"
               id="use177" />
          </g>
        </g>
      </g>
      <g
         id="ytick_4">
        <g
           id="line2d_11">
          <g
             id="g185">
            <use
               xlink:href="#ma11525c3f4"
               x="67.275002"
               y="60.231544"
               style="stroke:#000000;stroke-width:1.2"
               id="use183" />
          </g>
        </g>
        <g
           id="text_12">
          <!-- 3 -->
          <g
             transform="matrix(0.2,0,0,-0.2,45.05,67.829982)"
             id="g193">
            <defs
               id="defs189">
              <path
                 id="DejaVuSans-33"
                 d="m 2597,2516 q 453,-97 707,-404 255,-306 255,-756 0,-690 -475,-1069 -475,-378 -1350,-378 -293,0 -604,58 -311,58 -642,174 v 609 q 262,-153 574,-231 313,-78 654,-78 593,0 904,234 311,234 311,681 0,413 -289,645 -289,233 -804,233 h -544 v 519 h 569 q 465,0 712,186 247,186 247,536 0,359 -255,551 -254,193 -729,193 -260,0 -557,-57 -297,-56 -653,-174 v 562 q 360,100 674,150 314,50 592,50 719,0 1137,-327 419,-326 419,-882 0,-388 -222,-655 -222,-267 -631,-370 z"
                 transform="scale(0.015625)" />
            </defs>
            <use
               xlink:href="#DejaVuSans-33"
               id="use191" />
          </g>
        </g>
      </g>
      <g
         id="text_13">
        <!-- PDOS (arb. units) -->
        <g
           transform="matrix(0,-0.2,-0.2,0,36.890625,238.47786)"
           id="g247">
          <defs
             id="defs211">
            <path
               id="DejaVuSans-50"
               d="M 1259,4147 V 2394 h 794 q 441,0 681,228 241,228 241,650 0,419 -241,647 -240,228 -681,228 z m -631,519 h 1425 q 785,0 1186,-355 402,-355 402,-1039 0,-691 -402,-1044 -401,-353 -1186,-353 H 1259 V 0 H 628 Z"
               transform="scale(0.015625)" />
            <path
               id="DejaVuSans-44"
               d="M 1259,4147 V 519 h 763 q 966,0 1414,437 448,438 448,1382 0,937 -448,1373 -448,436 -1414,436 z m -631,519 h 1297 q 1356,0 1990,-564 635,-564 635,-1764 Q 4550,1131 3912,565 3275,0 1925,0 H 628 Z"
               transform="scale(0.015625)" />
            <path
               id="DejaVuSans-4f"
               d="m 2522,4238 q -688,0 -1093,-513 -404,-512 -404,-1397 0,-881 404,-1394 405,-512 1093,-512 687,0 1089,512 402,513 402,1394 0,885 -402,1397 -402,513 -1089,513 z m 0,512 q 981,0 1568,-658 588,-658 588,-1764 0,-1103 -588,-1761 -587,-658 -1568,-658 -984,0 -1574,656 -589,657 -589,1763 0,1106 589,1764 590,658 1574,658 z"
               transform="scale(0.015625)" />
            <path
               id="DejaVuSans-53"
               d="m 3425,4513 v -616 q -359,172 -678,256 -319,85 -616,85 -515,0 -795,-200 -280,-200 -280,-569 0,-310 186,-468 186,-157 705,-254 l 381,-78 q 706,-135 1042,-474 336,-339 336,-907 0,-679 -455,-1029 -454,-350 -1332,-350 -331,0 -705,75 -373,75 -773,222 v 650 q 384,-215 753,-325 369,-109 725,-109 540,0 834,212 294,213 294,607 0,343 -211,537 -211,194 -692,291 l -385,75 q -706,140 -1022,440 -315,300 -315,835 0,619 436,975 436,356 1201,356 329,0 669,-60 341,-59 697,-177 z"
               transform="scale(0.015625)" />
            <path
               id="DejaVuSans-20"
               transform="scale(0.015625)"
               d="" />
            <path
               id="DejaVuSans-61"
               d="m 2194,1759 q -697,0 -966,-159 -269,-159 -269,-544 0,-306 202,-486 202,-179 548,-179 479,0 768,339 289,339 289,901 v 128 z m 1147,238 V 0 H 2766 V 531 Q 2569,213 2275,61 1981,-91 1556,-91 q -537,0 -855,302 -317,302 -317,808 0,590 395,890 396,300 1180,300 h 807 v 57 q 0,397 -261,614 -261,217 -733,217 -300,0 -585,-72 -284,-72 -546,-216 v 532 q 315,122 612,182 297,61 578,61 760,0 1135,-394 375,-393 375,-1193 z"
               transform="scale(0.015625)" />
            <path
               id="DejaVuSans-72"
               d="m 2631,2963 q -97,56 -211,82 -114,27 -251,27 -488,0 -749,-317 -261,-317 -261,-911 V 0 H 581 v 3500 h 578 v -544 q 182,319 472,473 291,155 707,155 59,0 131,-8 72,-7 159,-23 z"
               transform="scale(0.015625)" />
            <path
               id="DejaVuSans-62"
               d="m 3116,1747 q 0,634 -261,995 -261,361 -717,361 -457,0 -718,-361 -261,-361 -261,-995 0,-634 261,-995 261,-361 718,-361 456,0 717,361 261,361 261,995 z M 1159,2969 q 182,312 458,463 277,152 661,152 638,0 1036,-506 399,-506 399,-1331 Q 3713,922 3314,415 2916,-91 2278,-91 1894,-91 1617,61 1341,213 1159,525 V 0 H 581 v 4863 h 578 z"
               transform="scale(0.015625)" />
            <path
               id="DejaVuSans-2e"
               d="m 684,794 h 660 V 0 H 684 Z"
               transform="scale(0.015625)" />
            <path
               id="DejaVuSans-75"
               d="m 544,1381 v 2119 h 575 V 1403 q 0,-497 193,-746 194,-248 582,-248 465,0 735,297 271,297 271,810 v 1984 h 575 V 0 H 2900 V 538 Q 2691,219 2414,64 2138,-91 1772,-91 1169,-91 856,284 544,659 544,1381 Z m 1447,2203 z"
               transform="scale(0.015625)" />
            <path
               id="DejaVuSans-6e"
               d="M 3513,2113 V 0 h -575 v 2094 q 0,497 -194,743 -194,247 -581,247 -466,0 -735,-297 -269,-296 -269,-809 V 0 H 581 v 3500 h 578 v -544 q 207,316 486,472 280,156 646,156 603,0 912,-373 310,-373 310,-1098 z"
               transform="scale(0.015625)" />
            <path
               id="DejaVuSans-69"
               d="m 603,3500 h 575 V 0 H 603 Z m 0,1363 h 575 V 4134 H 603 Z"
               transform="scale(0.015625)" />
            <path
               id="DejaVuSans-74"
               d="M 1172,4494 V 3500 H 2356 V 3053 H 1172 V 1153 q 0,-428 117,-550 117,-122 477,-122 h 590 V 0 H 1766 Q 1100,0 847,248 594,497 594,1153 V 3053 H 172 v 447 h 422 v 994 z"
               transform="scale(0.015625)" />
            <path
               id="DejaVuSans-73"
               d="m 2834,3397 v -544 q -243,125 -506,187 -262,63 -544,63 -428,0 -642,-131 -214,-131 -214,-394 0,-200 153,-314 153,-114 616,-217 l 197,-44 q 612,-131 870,-370 258,-239 258,-667 0,-488 -386,-773 Q 2250,-91 1575,-91 1294,-91 989,-36 684,19 347,128 v 594 q 319,-166 628,-249 309,-82 613,-82 406,0 624,139 219,139 219,392 0,234 -158,359 -157,125 -692,241 l -200,47 q -534,112 -772,345 -237,233 -237,639 0,494 350,762 350,269 994,269 318,0 599,-47 282,-46 519,-140 z"
               transform="scale(0.015625)" />
          </defs>
          <use
             xlink:href="#DejaVuSans-50"
             id="use213" />
          <use
             xlink:href="#DejaVuSans-44"
             x="60.302734"
             id="use215" />
          <use
             xlink:href="#DejaVuSans-4f"
             x="137.30469"
             id="use217" />
          <use
             xlink:href="#DejaVuSans-53"
             x="216.01562"
             id="use219" />
          <use
             xlink:href="#DejaVuSans-20"
             x="279.49219"
             id="use221" />
          <use
             xlink:href="#DejaVuSans-28"
             x="311.2793"
             id="use223" />
          <use
             xlink:href="#DejaVuSans-61"
             x="350.29297"
             id="use225" />
          <use
             xlink:href="#DejaVuSans-72"
             x="411.57227"
             id="use227" />
          <use
             xlink:href="#DejaVuSans-62"
             x="452.68555"
             id="use229" />
          <use
             xlink:href="#DejaVuSans-2e"
             x="516.16211"
             id="use231" />
          <use
             xlink:href="#DejaVuSans-20"
             x="547.94922"
             id="use233" />
          <use
             xlink:href="#DejaVuSans-75"
             x="579.73633"
             id="use235" />
          <use
             xlink:href="#DejaVuSans-6e"
             x="643.11523"
             id="use237" />
          <use
             xlink:href="#DejaVuSans-69"
             x="706.49414"
             id="use239" />
          <use
             xlink:href="#DejaVuSans-74"
             x="734.27734"
             id="use241" />
          <use
             xlink:href="#DejaVuSans-73"
             x="773.48633"
             id="use243" />
          <use
             xlink:href="#DejaVuSans-29"
             x="825.58594"
             id="use245" />
        </g>
      </g>
    </g>
    <g
       id="line2d_12">
      <path
         d="m 66.953785,274.47828 25.796562,-0.0626 0.687908,-0.22032 0.343954,-0.28241 0.343955,-0.5187 0.343954,-0.91067 0.343954,-1.52749 0.343954,-2.44609 0.343954,-3.73656 0.343954,-5.43875 0.687909,-17.44135 0.687908,-26.87358 1.375817,-61.27748 0.343954,-9.28047 0.343954,-4.34116 0.343954,1.11946 0.343954,6.44457 0.687906,25.32263 1.37582,61.83778 0.68791,20.28984 0.68791,11.33739 0.34395,3.16416 0.34395,2.03182 0.34396,1.24504 0.34395,0.72858 0.34396,0.40743 0.68791,0.32925 1.03186,0.0915 8.2549,0.008 184.35943,-0.0721 0.68791,-0.25915 0.34395,-0.33607 0.34395,-0.62275 0.34396,-1.10316 0.34395,-1.86723 0.34396,-3.01783 0.34395,-4.65344 0.34395,-6.83894 0.34396,-9.56663 0.68791,-28.73461 1.03186,-62.68093 0.68791,-39.97229 0.34395,-13.68341 0.34396,-7.254831 0.34395,0.04077 0.34396,7.331421 0.34395,13.74619 0.68791,40.03514 1.03186,62.63082 0.68791,28.66298 0.68791,16.34609 0.34395,4.63262 0.34396,3.00276 0.34395,1.85696 0.34395,1.09655 0.34396,0.6187 0.34395,0.33373 0.68791,0.25717 1.37582,0.0694 29.92401,0.002 19.60538,-0.0625 0.68791,-0.2363 0.34396,-0.31536 0.34395,-0.59721 0.34396,-1.08146 0.34395,-1.87174 0.34395,-3.09432 0.34396,-4.88261 0.34395,-7.34693 0.34396,-10.5297 0.6879,-32.9186 0.68791,-48.96434 1.03187,-82.857724 0.34395,-20.977276 0.34395,-13.588623 0.34396,-4.60279 0.34395,4.938786 0.34396,13.884337 0.68791,47.36821 1.37581,105.53334 0.68791,32.62161 0.68791,17.65146 0.34395,4.8079 0.34396,3.04189 0.34395,1.83699 0.34395,1.05968 0.34396,0.58424 0.34395,0.30802 0.68791,0.23033 1.37582,0.0591 19.94934,-0.023 0.68791,-0.10486 0.34395,-0.14961 0.34396,-0.29817 0.34395,-0.56847 0.34395,-1.03647 0.34396,-1.80629 0.34395,-3.00709 0.34396,-4.77887 0.34395,-7.24332 0.34396,-10.45908 0.6879,-33.10247 0.68791,-50.08595 1.37582,-110.043266 0.34395,-15.512157 0.34396,-6.304986 0.34395,3.661713 0.34395,13.185707 0.68791,47.903744 1.37582,111.419615 0.68791,35.43909 0.68791,19.47428 0.34395,5.36687 0.34395,3.41985 0.34396,2.07979 0.34395,1.20804 0.34396,0.67061 0.34395,0.35595 0.68791,0.26854 1.37582,0.0699 31.29982,0.002 78.0776,-0.0758 0.68791,-0.23842 0.34395,-0.28723 0.34396,-0.5033 0.34395,-0.84257 0.34395,-1.3466 0.34396,-2.05285 0.34395,-2.98185 0.68791,-9.52978 0.68791,-14.61456 1.37582,-33.00714 0.34395,-4.91008 0.34395,-2.2233 0.34396,0.73071 0.34395,3.59629 0.68791,13.82848 1.37582,33.33555 0.68791,10.84939 0.68791,6.03599 0.34395,1.67906 0.34395,1.07603 0.34396,0.65806 0.34395,0.38434 0.68791,0.329 1.03186,0.10033 6.87908,0.0102 26.14052,-0.067 0.68791,-0.22123 0.34395,-0.27378 0.34396,-0.48961 0.34395,-0.83669 0.34396,-1.36549 0.34395,-2.12658 0.34395,-3.15725 0.34396,-4.463 0.68791,-13.63882 0.68791,-19.65149 1.03186,-31.5521 0.34395,-7.40135 0.34396,-4.33625 0.34395,-0.75621 0.34396,2.91538 0.34395,6.23688 0.68791,19.31293 1.03186,31.65219 0.68791,14.9674 0.68791,8.72406 0.34395,2.51324 0.34395,1.64534 0.34396,1.0275 0.34395,0.61261 0.34396,0.34894 0.68791,0.28894 1.37581,0.0882 19.94934,0.003 h 22.35702 v 0"
         clip-path="url(#p2330cf3bc3)"
         style="fill:none;stroke:#243c6e;stroke-width:2.5;stroke-linecap:square"
         id="path251" />
    </g>
    <g
       id="line2d_13">
      <path
         d="m 66.953785,274.47828 27.860287,-0.0655 0.687908,-0.22931 0.343954,-0.29308 0.343955,-0.53708 0.343954,-0.94082 0.343954,-1.57445 0.343954,-2.51543 0.343954,-3.83333 0.343954,-5.56604 0.687909,-17.77807 0.687908,-27.24139 1.375814,-61.42162 0.34396,-9.10788 0.34395,-4.09961 0.34396,1.4015 0.34395,6.73299 0.68791,25.79436 1.37581,62.04172 0.68791,20.16345 0.68791,11.20928 0.34396,3.11634 0.34395,1.99642 0.34395,1.22051 0.34396,0.71261 0.34395,0.39761 0.68791,0.32035 1.03186,0.0886 8.59886,0.008 183.67152,-0.0786 0.68791,-0.27898 0.34395,-0.35949 0.34395,-0.66289 0.34396,-1.16851 0.34395,-1.968 0.34396,-3.1646 0.34395,-4.85461 0.34396,-7.09687 0.6879,-22.9216 0.68791,-35.66571 1.37582,-82.9545 0.34395,-13.02503 0.34396,-6.476286 0.34395,0.848583 0.34395,8.070693 0.68791,33.29278 1.37582,83.58417 0.68791,27.89825 0.68791,15.73197 0.34395,4.421 0.34395,2.85086 0.34396,1.75412 0.34395,1.03067 0.34396,0.57868 0.34395,0.31064 0.68791,0.23783 1.37582,0.0635 33.0196,0.002 15.82189,-0.0707 0.68791,-0.26301 0.34395,-0.34788 0.34395,-0.65439 0.34396,-1.17693 0.34395,-2.02295 0.34396,-3.32093 0.34395,-5.20293 0.34395,-7.77199 0.34396,-11.05565 0.68791,-34.13836 0.68791,-49.91 1.03186,-82.098977 0.34395,-19.964073 0.34396,-12.288098 0.34395,-3.159259 0.34396,6.351663 0.34395,15.097913 0.68791,48.736321 1.03186,82.26198 0.68791,39.68864 0.68791,23.44325 0.34395,6.82093 0.34395,4.49256 0.34396,2.82223 0.34395,1.69248 0.34396,0.9696 0.34395,0.53095 0.68791,0.41734 1.03186,0.11091 7.22304,0.009 12.7263,-0.0577 0.68791,-0.22171 0.34396,-0.2985 0.34395,-0.56913 0.34395,-1.03767 0.34396,-1.80836 0.34395,-3.01055 0.34396,-4.78437 0.34395,-7.25167 0.34396,-10.47112 0.6879,-33.14058 0.68791,-50.14361 1.37582,-110.169961 0.34395,-15.530016 0.34396,-6.312245 0.34395,3.665929 0.34395,13.200888 0.68791,47.958895 1.37582,111.54789 0.68791,35.47989 0.68791,19.4967 0.34395,5.37305 0.34395,3.42379 0.34396,2.08218 0.34395,1.20944 0.34396,0.67138 0.34395,0.35636 0.68791,0.26885 1.37582,0.07 31.29982,0.002 75.32597,-0.0861 0.68791,-0.26613 0.34395,-0.31746 0.34395,-0.55218 0.34396,-0.91747 0.34395,-1.45513 0.34396,-2.20106 0.34395,-3.1716 0.68791,-10.00345 0.68791,-15.06374 1.37581,-32.77214 0.34396,-4.52805 0.34395,-1.75976 0.34396,1.22068 0.34395,4.0536 0.68791,14.45683 1.37581,33.2149 0.68791,10.47997 0.68791,5.73396 0.34396,1.57502 0.34395,1.00162 0.34395,0.60794 0.68791,0.5477 0.68791,0.15588 2.06372,0.046 31.98774,-0.0729 0.68791,-0.23855 0.34396,-0.29318 0.34395,-0.52155 0.34395,-0.88654 0.34396,-1.43906 0.34395,-2.22884 0.34396,-3.29046 0.34395,-4.62436 0.68791,-13.9972 1.03186,-30.97495 0.68791,-20.15107 0.34395,-7.07226 0.34396,-3.93279 0.34395,-0.32458 0.34396,3.32295 0.34395,6.5725 0.68791,19.65059 1.03186,31.37382 0.68791,14.56747 0.68791,8.38838 0.34395,2.39467 0.34396,1.55904 0.34395,0.96834 0.34395,0.57425 0.68791,0.50162 0.68791,0.13656 2.06373,0.0382 43.68217,1.4e-4 v 0"
         clip-path="url(#p2330cf3bc3)"
         style="fill:none;stroke:#7d7c78;stroke-width:2.5;stroke-linecap:square"
         id="path254" />
    </g>
    <g
       id="line2d_14">
      <path
         d="m 66.953785,274.47828 8.598854,-0.0523 0.687908,-0.18848 0.343954,-0.24481 0.343955,-0.45413 0.343954,-0.80541 0.343954,-1.36484 0.343954,-2.20848 0.343954,-3.40956 0.343954,-5.01708 0.343954,-7.02709 0.687909,-21.15136 1.031862,-46.32128 0.687909,-29.70262 0.343954,-10.2389 0.343954,-5.50316 0.343954,-0.11023 0.343954,5.29605 0.343954,10.06918 0.687909,29.53268 1.031862,46.45677 0.687909,21.34503 0.687908,12.20498 0.343954,3.46587 0.343954,2.24922 0.343954,1.3926 0.343954,0.82331 0.343955,0.46506 0.687908,0.38087 1.031862,0.10815 6.879084,0.01 203.276907,-0.0764 0.68791,-0.27237 0.34395,-0.35174 0.34396,-0.64965 0.34395,-1.14706 0.34396,-1.93509 0.34395,-3.11697 0.34395,-4.78981 0.34396,-7.01457 0.34395,-9.77666 0.68791,-29.18956 1.03186,-62.96077 0.68791,-39.51955 0.34396,-13.25527 0.34395,-6.741492 0.34396,0.579462 0.34395,7.83024 0.34395,14.14746 0.68791,40.41302 1.03186,62.24862 0.68791,28.1715 0.68791,15.9458 0.34396,4.49377 0.34395,2.90277 0.34395,1.78908 0.34396,1.05297 0.34395,0.59217 0.34395,0.31839 0.68791,0.2443 1.37582,0.0655 31.98774,0.002 18.57352,-0.0993 0.34396,-0.11716 0.34395,-0.23637 0.34395,-0.45631 0.34396,-0.84248 0.34395,-1.48696 0.34396,-2.50754 0.34395,-4.03747 0.34395,-6.20186 0.34396,-9.07877 0.34395,-12.64834 0.68791,-37.73705 1.03186,-81.29099 0.68791,-50.930673 0.34396,-17.041339 0.34395,-8.622902 0.34396,0.828202 0.34395,10.179005 0.34395,18.31651 1.03187,80.913767 0.6879,51.56715 0.68791,36.28197 0.68791,20.51874 0.34395,5.77873 0.34396,3.73131 0.34395,2.29885 0.34396,1.35247 0.34395,0.76032 0.34396,0.40864 0.6879,0.3134 1.37582,0.084 18.91748,-0.0222 0.68791,-0.10503 0.34395,-0.14985 0.34396,-0.29864 0.34395,-0.56938 0.34395,-1.03813 0.34396,-1.80917 0.34395,-3.0119 0.34396,-4.7865 0.34395,-7.2549 0.34396,-10.47579 0.6879,-33.15538 0.68791,-50.16598 1.37582,-110.21912 0.34395,-15.536946 0.34396,-6.315061 0.34395,3.667564 0.34395,13.206778 0.68791,47.980295 1.37582,111.59767 0.68791,35.49572 0.68791,19.5054 0.34395,5.37545 0.34395,3.42531 0.34396,2.08311 0.34395,1.20998 0.34396,0.67167 0.34395,0.35652 0.68791,0.26897 1.37582,0.0701 31.29982,0.002 114.53674,-0.0613 0.68791,-0.19646 0.34395,-0.23906 0.34396,-0.4221 0.34395,-0.71209 0.34396,-1.14701 0.34395,-1.76261 0.34395,-2.58132 0.68791,-8.3616 0.68791,-13.06285 1.37582,-30.62894 0.34395,-4.87834 0.34396,-2.48125 0.34395,0.21292 0.34395,2.8813 0.34396,5.20615 0.68791,14.87216 1.03186,22.90832 0.68791,10.36769 0.68791,5.86845 0.34395,1.65383 0.34395,1.06831 0.34396,0.65844 0.34395,0.38753 0.68791,0.33512 1.03186,0.10388 6.53513,0.0109 29.92401,-0.0584 0.68791,-0.19438 0.34396,-0.24151 0.34395,-0.4332 0.34396,-0.74256 0.34395,-1.21563 0.34395,-1.89915 0.34396,-2.82872 0.34395,-4.0119 0.68791,-12.32759 0.68791,-17.89939 1.03186,-29.10997 0.34395,-6.96118 0.34396,-4.1894 0.34395,-0.92124 0.34396,2.45839 0.34395,5.5424 0.68791,17.53421 1.03186,29.18268 0.68791,13.94608 0.68791,8.18589 0.34395,2.37056 0.34396,1.55689 0.34395,0.9753 0.34396,0.58327 0.6879,0.51523 0.68791,0.14255 2.06373,0.0406 1.37581,1.6e-4 v 0"
         clip-path="url(#p2330cf3bc3)"
         style="fill:none;stroke:#d6c35d;stroke-width:2.5;stroke-linecap:square"
         id="path257" />
    </g>
    <g
       id="line2d_15">
      <path
         d="M 406.13864,286.7241 V 17.316"
         clip-path="url(#p2330cf3bc3)"
         style="fill:none;stroke:#000000;stroke-width:1.2;stroke-dasharray:4.44, 1.92;stroke-dashoffset:0"
         id="path260" />
    </g>
    <g
       id="patch_3">
      <path
         d="M 67.275,286.7241 V 17.316"
         style="fill:none;stroke:#000000;stroke-width:1.2;stroke-linecap:square;stroke-linejoin:miter"
         id="path263" />
    </g>
    <g
       id="patch_4">
      <path
         d="M 67.275,286.7241 H 626.4"
         style="fill:none;stroke:#000000;stroke-width:1.2;stroke-linecap:square;stroke-linejoin:miter"
         id="path266" />
    </g>
    <g
       id="legend_1"
       transform="translate(-363.4916)">
      <g
         id="line2d_16">
        <path
           d="m 506.50594,40.893188 h 18 18"
           style="fill:none;stroke:#243c6e;stroke-width:2.5;stroke-linecap:square"
           id="path269" />
      </g>
      <g
         id="text_14">
        <!-- PBE -->
        <g
           transform="matrix(0.18,0,0,-0.18,556.90594,47.193188)"
           id="g281">
          <defs
             id="defs273">
            <path
               id="DejaVuSans-42"
               d="M 1259,2228 V 519 h 1013 q 509,0 754,211 246,211 246,645 0,438 -246,645 -245,208 -754,208 z m 0,1919 V 2741 h 935 q 462,0 688,173 227,174 227,530 0,353 -227,528 -226,175 -688,175 z m -631,519 h 1613 q 722,0 1112,-300 391,-300 391,-853 0,-429 -200,-682 -200,-253 -588,-315 466,-100 724,-418 258,-317 258,-792 0,-625 -425,-966 Q 3088,0 2303,0 H 628 Z"
               transform="scale(0.015625)" />
          </defs>
          <use
             xlink:href="#DejaVuSans-50"
             id="use275" />
          <use
             xlink:href="#DejaVuSans-42"
             x="60.302734"
             id="use277" />
          <use
             xlink:href="#DejaVuSans-45"
             x="128.90625"
             id="use279" />
        </g>
      </g>
      <g
         id="line2d_17">
        <path
           d="m 506.50594,67.313812 h 18 18"
           style="fill:none;stroke:#7d7c78;stroke-width:2.5;stroke-linecap:square"
           id="path284" />
      </g>
      <g
         id="text_15">
        <!-- BLYP -->
        <g
           transform="matrix(0.18,0,0,-0.18,556.90594,73.613812)"
           id="g299">
          <defs
             id="defs289">
            <path
               id="DejaVuSans-4c"
               d="m 628,4666 h 631 V 531 H 3531 V 0 H 628 Z"
               transform="scale(0.015625)" />
            <path
               id="DejaVuSans-59"
               d="M -13,4666 H 666 L 1959,2747 3244,4666 h 678 L 2272,2222 V 0 h -634 v 2222 z"
               transform="scale(0.015625)" />
          </defs>
          <use
             xlink:href="#DejaVuSans-42"
             id="use291" />
          <use
             xlink:href="#DejaVuSans-4c"
             x="68.603516"
             id="use293" />
          <use
             xlink:href="#DejaVuSans-59"
             x="111.06641"
             id="use295" />
          <use
             xlink:href="#DejaVuSans-50"
             x="172.15039"
             id="use297" />
        </g>
      </g>
      <g
         id="line2d_18">
        <path
           d="m 506.50594,93.734438 h 18 18"
           style="fill:none;stroke:#d6c35d;stroke-width:2.5;stroke-linecap:square"
           id="path302" />
      </g>
      <g
         id="text_16">
        <!-- B3LYP -->
        <g
           transform="matrix(0.18,0,0,-0.18,556.90594,100.03444)"
           id="g315">
          <use
             xlink:href="#DejaVuSans-42"
             id="use305" />
          <use
             xlink:href="#DejaVuSans-33"
             x="68.603516"
             id="use307" />
          <use
             xlink:href="#DejaVuSans-4c"
             x="132.22656"
             id="use309" />
          <use
             xlink:href="#DejaVuSans-59"
             x="174.68945"
             id="use311" />
          <use
             xlink:href="#DejaVuSans-50"
             x="235.77344"
             id="use313" />
        </g>
      </g>
    </g>
  </g>
  <defs
     id="defs324">
    <clipPath
       id="p2330cf3bc3">
      <rect
         x="67.275"
         y="17.316"
         width="559.125"
         height="269.4081"
         id="rect321" />
    </clipPath>
  </defs>
</svg>
