<?xml version="1.0" encoding="utf-8" standalone="no"?>
<!DOCTYPE svg PUBLIC "-//W3C//DTD SVG 1.1//EN"
  "http://www.w3.org/Graphics/SVG/1.1/DTD/svg11.dtd">
<svg xmlns:xlink="http://www.w3.org/1999/xlink" width="648pt" height="346.32pt" viewBox="0 0 648 346.32" xmlns="http://www.w3.org/2000/svg" version="1.1">
 <metadata>
  <rdf:RDF xmlns:dc="http://purl.org/dc/elements/1.1/" xmlns:cc="http://creativecommons.org/ns#" xmlns:rdf="http://www.w3.org/1999/02/22-rdf-syntax-ns#">
   <cc:Work>
    <dc:type rdf:resource="http://purl.org/dc/dcmitype/StillImage"/>
    <dc:date>2025-12-15T14:25:26.175205</dc:date>
    <dc:format>image/svg+xml</dc:format>
    <dc:creator>
     <cc:Agent>
      <dc:title>Matplotlib v3.6.3, https://matplotlib.org/</dc:title>
     </cc:Agent>
    </dc:creator>
   </cc:Work>
  </rdf:RDF>
 </metadata>
 <defs>
  <style type="text/css">*{stroke-linejoin: round; stroke-linecap: butt}</style>
 </defs>
 <g id="figure_1">
  <g id="patch_1">
   <path d="M 0 346.32 
L 648 346.32 
L 648 0 
L 0 0 
z
" style="fill: #ffffff"/>
  </g>
  <g id="axes_1">
   <g id="patch_2">
    <path d="M 67.275 286.7241 
L 626.4 286.7241 
L 626.4 17.316 
L 67.275 17.316 
z
" style="fill: #ffffff"/>
   </g>
   <g id="matplotlib.axis_1">
    <g id="xtick_1">
     <g id="line2d_1">
      <defs>
       <path id="m1a251f5da8" d="M 0 0 
L 0 6 
" style="stroke: #000000; stroke-width: 1.2"/>
      </defs>
      <g>
       <use xlink:href="#m1a251f5da8" x="67.275" y="286.7241" style="stroke: #000000; stroke-width: 1.2"/>
      </g>
     </g>
     <g id="text_1">
      <!-- −20 -->
      <g transform="translate(46.170312 311.420975) scale(0.2 -0.2)">
       <defs>
        <path id="DejaVuSans-2212" d="M 678 2272 
L 4684 2272 
L 4684 1741 
L 678 1741 
L 678 2272 
z
" transform="scale(0.015625)"/>
        <path id="DejaVuSans-32" d="M 1228 531 
L 3431 531 
L 3431 0 
L 469 0 
L 469 531 
Q 828 903 1448 1529 
Q 2069 2156 2228 2338 
Q 2531 2678 2651 2914 
Q 2772 3150 2772 3378 
Q 2772 3750 2511 3984 
Q 2250 4219 1831 4219 
Q 1534 4219 1204 4116 
Q 875 4013 500 3803 
L 500 4441 
Q 881 4594 1212 4672 
Q 1544 4750 1819 4750 
Q 2544 4750 2975 4387 
Q 3406 4025 3406 3419 
Q 3406 3131 3298 2873 
Q 3191 2616 2906 2266 
Q 2828 2175 2409 1742 
Q 1991 1309 1228 531 
z
" transform="scale(0.015625)"/>
        <path id="DejaVuSans-30" d="M 2034 4250 
Q 1547 4250 1301 3770 
Q 1056 3291 1056 2328 
Q 1056 1369 1301 889 
Q 1547 409 2034 409 
Q 2525 409 2770 889 
Q 3016 1369 3016 2328 
Q 3016 3291 2770 3770 
Q 2525 4250 2034 4250 
z
M 2034 4750 
Q 2819 4750 3233 4129 
Q 3647 3509 3647 2328 
Q 3647 1150 3233 529 
Q 2819 -91 2034 -91 
Q 1250 -91 836 529 
Q 422 1150 422 2328 
Q 422 3509 836 4129 
Q 1250 4750 2034 4750 
z
" transform="scale(0.015625)"/>
       </defs>
       <use xlink:href="#DejaVuSans-2212"/>
       <use xlink:href="#DejaVuSans-32" x="83.789062"/>
       <use xlink:href="#DejaVuSans-30" x="147.412109"/>
      </g>
     </g>
    </g>
    <g id="xtick_2">
     <g id="line2d_2">
      <g>
       <use xlink:href="#m1a251f5da8" x="154.638281" y="286.7241" style="stroke: #000000; stroke-width: 1.2"/>
      </g>
     </g>
     <g id="text_2">
      <!-- −15 -->
      <g transform="translate(133.533594 311.420975) scale(0.2 -0.2)">
       <defs>
        <path id="DejaVuSans-31" d="M 794 531 
L 1825 531 
L 1825 4091 
L 703 3866 
L 703 4441 
L 1819 4666 
L 2450 4666 
L 2450 531 
L 3481 531 
L 3481 0 
L 794 0 
L 794 531 
z
" transform="scale(0.015625)"/>
        <path id="DejaVuSans-35" d="M 691 4666 
L 3169 4666 
L 3169 4134 
L 1269 4134 
L 1269 2991 
Q 1406 3038 1543 3061 
Q 1681 3084 1819 3084 
Q 2600 3084 3056 2656 
Q 3513 2228 3513 1497 
Q 3513 744 3044 326 
Q 2575 -91 1722 -91 
Q 1428 -91 1123 -41 
Q 819 9 494 109 
L 494 744 
Q 775 591 1075 516 
Q 1375 441 1709 441 
Q 2250 441 2565 725 
Q 2881 1009 2881 1497 
Q 2881 1984 2565 2268 
Q 2250 2553 1709 2553 
Q 1456 2553 1204 2497 
Q 953 2441 691 2322 
L 691 4666 
z
" transform="scale(0.015625)"/>
       </defs>
       <use xlink:href="#DejaVuSans-2212"/>
       <use xlink:href="#DejaVuSans-31" x="83.789062"/>
       <use xlink:href="#DejaVuSans-35" x="147.412109"/>
      </g>
     </g>
    </g>
    <g id="xtick_3">
     <g id="line2d_3">
      <g>
       <use xlink:href="#m1a251f5da8" x="242.001562" y="286.7241" style="stroke: #000000; stroke-width: 1.2"/>
      </g>
     </g>
     <g id="text_3">
      <!-- −10 -->
      <g transform="translate(220.896875 311.420975) scale(0.2 -0.2)">
       <use xlink:href="#DejaVuSans-2212"/>
       <use xlink:href="#DejaVuSans-31" x="83.789062"/>
       <use xlink:href="#DejaVuSans-30" x="147.412109"/>
      </g>
     </g>
    </g>
    <g id="xtick_4">
     <g id="line2d_4">
      <g>
       <use xlink:href="#m1a251f5da8" x="329.364844" y="286.7241" style="stroke: #000000; stroke-width: 1.2"/>
      </g>
     </g>
     <g id="text_4">
      <!-- −5 -->
      <g transform="translate(314.622656 311.420975) scale(0.2 -0.2)">
       <use xlink:href="#DejaVuSans-2212"/>
       <use xlink:href="#DejaVuSans-35" x="83.789062"/>
      </g>
     </g>
    </g>
    <g id="xtick_5">
     <g id="line2d_5">
      <g>
       <use xlink:href="#m1a251f5da8" x="416.728125" y="286.7241" style="stroke: #000000; stroke-width: 1.2"/>
      </g>
     </g>
     <g id="text_5">
      <!-- 0 -->
      <g transform="translate(410.365625 311.420975) scale(0.2 -0.2)">
       <use xlink:href="#DejaVuSans-30"/>
      </g>
     </g>
    </g>
    <g id="xtick_6">
     <g id="line2d_6">
      <g>
       <use xlink:href="#m1a251f5da8" x="504.091406" y="286.7241" style="stroke: #000000; stroke-width: 1.2"/>
      </g>
     </g>
     <g id="text_6">
      <!-- 5 -->
      <g transform="translate(497.728906 311.420975) scale(0.2 -0.2)">
       <use xlink:href="#DejaVuSans-35"/>
      </g>
     </g>
    </g>
    <g id="xtick_7">
     <g id="line2d_7">
      <g>
       <use xlink:href="#m1a251f5da8" x="591.454687" y="286.7241" style="stroke: #000000; stroke-width: 1.2"/>
      </g>
     </g>
     <g id="text_7">
      <!-- 10 -->
      <g transform="translate(578.729687 311.420975) scale(0.2 -0.2)">
       <use xlink:href="#DejaVuSans-31"/>
       <use xlink:href="#DejaVuSans-30" x="63.623047"/>
      </g>
     </g>
    </g>
    <g id="text_8">
     <!-- $\mathrm{E - E_F\ (eV)}$ -->
     <g transform="translate(293.4375 334.777225) scale(0.2 -0.2)">
      <defs>
       <path id="DejaVuSans-45" d="M 628 4666 
L 3578 4666 
L 3578 4134 
L 1259 4134 
L 1259 2753 
L 3481 2753 
L 3481 2222 
L 1259 2222 
L 1259 531 
L 3634 531 
L 3634 0 
L 628 0 
L 628 4666 
z
" transform="scale(0.015625)"/>
       <path id="DejaVuSans-46" d="M 628 4666 
L 3309 4666 
L 3309 4134 
L 1259 4134 
L 1259 2759 
L 3109 2759 
L 3109 2228 
L 1259 2228 
L 1259 0 
L 628 0 
L 628 4666 
z
" transform="scale(0.015625)"/>
       <path id="DejaVuSans-28" d="M 1984 4856 
Q 1566 4138 1362 3434 
Q 1159 2731 1159 2009 
Q 1159 1288 1364 580 
Q 1569 -128 1984 -844 
L 1484 -844 
Q 1016 -109 783 600 
Q 550 1309 550 2009 
Q 550 2706 781 3412 
Q 1013 4119 1484 4856 
L 1984 4856 
z
" transform="scale(0.015625)"/>
       <path id="DejaVuSans-65" d="M 3597 1894 
L 3597 1613 
L 953 1613 
Q 991 1019 1311 708 
Q 1631 397 2203 397 
Q 2534 397 2845 478 
Q 3156 559 3463 722 
L 3463 178 
Q 3153 47 2828 -22 
Q 2503 -91 2169 -91 
Q 1331 -91 842 396 
Q 353 884 353 1716 
Q 353 2575 817 3079 
Q 1281 3584 2069 3584 
Q 2775 3584 3186 3129 
Q 3597 2675 3597 1894 
z
M 3022 2063 
Q 3016 2534 2758 2815 
Q 2500 3097 2075 3097 
Q 1594 3097 1305 2825 
Q 1016 2553 972 2059 
L 3022 2063 
z
" transform="scale(0.015625)"/>
       <path id="DejaVuSans-56" d="M 1831 0 
L 50 4666 
L 709 4666 
L 2188 738 
L 3669 4666 
L 4325 4666 
L 2547 0 
L 1831 0 
z
" transform="scale(0.015625)"/>
       <path id="DejaVuSans-29" d="M 513 4856 
L 1013 4856 
Q 1481 4119 1714 3412 
Q 1947 2706 1947 2009 
Q 1947 1309 1714 600 
Q 1481 -109 1013 -844 
L 513 -844 
Q 928 -128 1133 580 
Q 1338 1288 1338 2009 
Q 1338 2731 1133 3434 
Q 928 4138 513 4856 
z
" transform="scale(0.015625)"/>
      </defs>
      <use xlink:href="#DejaVuSans-45" transform="translate(0 0.125)"/>
      <use xlink:href="#DejaVuSans-2212" transform="translate(82.666016 0.125)"/>
      <use xlink:href="#DejaVuSans-45" transform="translate(185.9375 0.125)"/>
      <use xlink:href="#DejaVuSans-46" transform="translate(250.078125 -16.28125) scale(0.7)"/>
      <use xlink:href="#DejaVuSans-28" transform="translate(325.54655 0.125)"/>
      <use xlink:href="#DejaVuSans-65" transform="translate(364.560222 0.125)"/>
      <use xlink:href="#DejaVuSans-56" transform="translate(426.08366 0.125)"/>
      <use xlink:href="#DejaVuSans-29" transform="translate(494.491863 0.125)"/>
     </g>
    </g>
   </g>
   <g id="matplotlib.axis_2">
    <g id="ytick_1">
     <g id="line2d_8">
      <defs>
       <path id="m303f21f7e9" d="M 0 0 
L -6 0 
" style="stroke: #000000; stroke-width: 1.2"/>
      </defs>
      <g>
       <use xlink:href="#m303f21f7e9" x="67.275" y="274.478277" style="stroke: #000000; stroke-width: 1.2"/>
      </g>
     </g>
     <g id="text_9">
      <!-- 0 -->
      <g transform="translate(45.05 282.076715) scale(0.2 -0.2)">
       <use xlink:href="#DejaVuSans-30"/>
      </g>
     </g>
    </g>
    <g id="ytick_2">
     <g id="line2d_9">
      <g>
       <use xlink:href="#m303f21f7e9" x="67.275" y="202.97301" style="stroke: #000000; stroke-width: 1.2"/>
      </g>
     </g>
     <g id="text_10">
      <!-- 1 -->
      <g transform="translate(45.05 210.571447) scale(0.2 -0.2)">
       <use xlink:href="#DejaVuSans-31"/>
      </g>
     </g>
    </g>
    <g id="ytick_3">
     <g id="line2d_10">
      <g>
       <use xlink:href="#m303f21f7e9" x="67.275" y="131.467742" style="stroke: #000000; stroke-width: 1.2"/>
      </g>
     </g>
     <g id="text_11">
      <!-- 2 -->
      <g transform="translate(45.05 139.066179) scale(0.2 -0.2)">
       <use xlink:href="#DejaVuSans-32"/>
      </g>
     </g>
    </g>
    <g id="ytick_4">
     <g id="line2d_11">
      <g>
       <use xlink:href="#m303f21f7e9" x="67.275" y="59.962474" style="stroke: #000000; stroke-width: 1.2"/>
      </g>
     </g>
     <g id="text_12">
      <!-- 3 -->
      <g transform="translate(45.05 67.560912) scale(0.2 -0.2)">
       <defs>
        <path id="DejaVuSans-33" d="M 2597 2516 
Q 3050 2419 3304 2112 
Q 3559 1806 3559 1356 
Q 3559 666 3084 287 
Q 2609 -91 1734 -91 
Q 1441 -91 1130 -33 
Q 819 25 488 141 
L 488 750 
Q 750 597 1062 519 
Q 1375 441 1716 441 
Q 2309 441 2620 675 
Q 2931 909 2931 1356 
Q 2931 1769 2642 2001 
Q 2353 2234 1838 2234 
L 1294 2234 
L 1294 2753 
L 1863 2753 
Q 2328 2753 2575 2939 
Q 2822 3125 2822 3475 
Q 2822 3834 2567 4026 
Q 2313 4219 1838 4219 
Q 1578 4219 1281 4162 
Q 984 4106 628 3988 
L 628 4550 
Q 988 4650 1302 4700 
Q 1616 4750 1894 4750 
Q 2613 4750 3031 4423 
Q 3450 4097 3450 3541 
Q 3450 3153 3228 2886 
Q 3006 2619 2597 2516 
z
" transform="scale(0.015625)"/>
       </defs>
       <use xlink:href="#DejaVuSans-33"/>
      </g>
     </g>
    </g>
    <g id="text_13">
     <!-- PDOS (arb. units) -->
     <g transform="translate(36.890625 238.477863) rotate(-90) scale(0.2 -0.2)">
      <defs>
       <path id="DejaVuSans-50" d="M 1259 4147 
L 1259 2394 
L 2053 2394 
Q 2494 2394 2734 2622 
Q 2975 2850 2975 3272 
Q 2975 3691 2734 3919 
Q 2494 4147 2053 4147 
L 1259 4147 
z
M 628 4666 
L 2053 4666 
Q 2838 4666 3239 4311 
Q 3641 3956 3641 3272 
Q 3641 2581 3239 2228 
Q 2838 1875 2053 1875 
L 1259 1875 
L 1259 0 
L 628 0 
L 628 4666 
z
" transform="scale(0.015625)"/>
       <path id="DejaVuSans-44" d="M 1259 4147 
L 1259 519 
L 2022 519 
Q 2988 519 3436 956 
Q 3884 1394 3884 2338 
Q 3884 3275 3436 3711 
Q 2988 4147 2022 4147 
L 1259 4147 
z
M 628 4666 
L 1925 4666 
Q 3281 4666 3915 4102 
Q 4550 3538 4550 2338 
Q 4550 1131 3912 565 
Q 3275 0 1925 0 
L 628 0 
L 628 4666 
z
" transform="scale(0.015625)"/>
       <path id="DejaVuSans-4f" d="M 2522 4238 
Q 1834 4238 1429 3725 
Q 1025 3213 1025 2328 
Q 1025 1447 1429 934 
Q 1834 422 2522 422 
Q 3209 422 3611 934 
Q 4013 1447 4013 2328 
Q 4013 3213 3611 3725 
Q 3209 4238 2522 4238 
z
M 2522 4750 
Q 3503 4750 4090 4092 
Q 4678 3434 4678 2328 
Q 4678 1225 4090 567 
Q 3503 -91 2522 -91 
Q 1538 -91 948 565 
Q 359 1222 359 2328 
Q 359 3434 948 4092 
Q 1538 4750 2522 4750 
z
" transform="scale(0.015625)"/>
       <path id="DejaVuSans-53" d="M 3425 4513 
L 3425 3897 
Q 3066 4069 2747 4153 
Q 2428 4238 2131 4238 
Q 1616 4238 1336 4038 
Q 1056 3838 1056 3469 
Q 1056 3159 1242 3001 
Q 1428 2844 1947 2747 
L 2328 2669 
Q 3034 2534 3370 2195 
Q 3706 1856 3706 1288 
Q 3706 609 3251 259 
Q 2797 -91 1919 -91 
Q 1588 -91 1214 -16 
Q 841 59 441 206 
L 441 856 
Q 825 641 1194 531 
Q 1563 422 1919 422 
Q 2459 422 2753 634 
Q 3047 847 3047 1241 
Q 3047 1584 2836 1778 
Q 2625 1972 2144 2069 
L 1759 2144 
Q 1053 2284 737 2584 
Q 422 2884 422 3419 
Q 422 4038 858 4394 
Q 1294 4750 2059 4750 
Q 2388 4750 2728 4690 
Q 3069 4631 3425 4513 
z
" transform="scale(0.015625)"/>
       <path id="DejaVuSans-20" transform="scale(0.015625)"/>
       <path id="DejaVuSans-61" d="M 2194 1759 
Q 1497 1759 1228 1600 
Q 959 1441 959 1056 
Q 959 750 1161 570 
Q 1363 391 1709 391 
Q 2188 391 2477 730 
Q 2766 1069 2766 1631 
L 2766 1759 
L 2194 1759 
z
M 3341 1997 
L 3341 0 
L 2766 0 
L 2766 531 
Q 2569 213 2275 61 
Q 1981 -91 1556 -91 
Q 1019 -91 701 211 
Q 384 513 384 1019 
Q 384 1609 779 1909 
Q 1175 2209 1959 2209 
L 2766 2209 
L 2766 2266 
Q 2766 2663 2505 2880 
Q 2244 3097 1772 3097 
Q 1472 3097 1187 3025 
Q 903 2953 641 2809 
L 641 3341 
Q 956 3463 1253 3523 
Q 1550 3584 1831 3584 
Q 2591 3584 2966 3190 
Q 3341 2797 3341 1997 
z
" transform="scale(0.015625)"/>
       <path id="DejaVuSans-72" d="M 2631 2963 
Q 2534 3019 2420 3045 
Q 2306 3072 2169 3072 
Q 1681 3072 1420 2755 
Q 1159 2438 1159 1844 
L 1159 0 
L 581 0 
L 581 3500 
L 1159 3500 
L 1159 2956 
Q 1341 3275 1631 3429 
Q 1922 3584 2338 3584 
Q 2397 3584 2469 3576 
Q 2541 3569 2628 3553 
L 2631 2963 
z
" transform="scale(0.015625)"/>
       <path id="DejaVuSans-62" d="M 3116 1747 
Q 3116 2381 2855 2742 
Q 2594 3103 2138 3103 
Q 1681 3103 1420 2742 
Q 1159 2381 1159 1747 
Q 1159 1113 1420 752 
Q 1681 391 2138 391 
Q 2594 391 2855 752 
Q 3116 1113 3116 1747 
z
M 1159 2969 
Q 1341 3281 1617 3432 
Q 1894 3584 2278 3584 
Q 2916 3584 3314 3078 
Q 3713 2572 3713 1747 
Q 3713 922 3314 415 
Q 2916 -91 2278 -91 
Q 1894 -91 1617 61 
Q 1341 213 1159 525 
L 1159 0 
L 581 0 
L 581 4863 
L 1159 4863 
L 1159 2969 
z
" transform="scale(0.015625)"/>
       <path id="DejaVuSans-2e" d="M 684 794 
L 1344 794 
L 1344 0 
L 684 0 
L 684 794 
z
" transform="scale(0.015625)"/>
       <path id="DejaVuSans-75" d="M 544 1381 
L 544 3500 
L 1119 3500 
L 1119 1403 
Q 1119 906 1312 657 
Q 1506 409 1894 409 
Q 2359 409 2629 706 
Q 2900 1003 2900 1516 
L 2900 3500 
L 3475 3500 
L 3475 0 
L 2900 0 
L 2900 538 
Q 2691 219 2414 64 
Q 2138 -91 1772 -91 
Q 1169 -91 856 284 
Q 544 659 544 1381 
z
M 1991 3584 
L 1991 3584 
z
" transform="scale(0.015625)"/>
       <path id="DejaVuSans-6e" d="M 3513 2113 
L 3513 0 
L 2938 0 
L 2938 2094 
Q 2938 2591 2744 2837 
Q 2550 3084 2163 3084 
Q 1697 3084 1428 2787 
Q 1159 2491 1159 1978 
L 1159 0 
L 581 0 
L 581 3500 
L 1159 3500 
L 1159 2956 
Q 1366 3272 1645 3428 
Q 1925 3584 2291 3584 
Q 2894 3584 3203 3211 
Q 3513 2838 3513 2113 
z
" transform="scale(0.015625)"/>
       <path id="DejaVuSans-69" d="M 603 3500 
L 1178 3500 
L 1178 0 
L 603 0 
L 603 3500 
z
M 603 4863 
L 1178 4863 
L 1178 4134 
L 603 4134 
L 603 4863 
z
" transform="scale(0.015625)"/>
       <path id="DejaVuSans-74" d="M 1172 4494 
L 1172 3500 
L 2356 3500 
L 2356 3053 
L 1172 3053 
L 1172 1153 
Q 1172 725 1289 603 
Q 1406 481 1766 481 
L 2356 481 
L 2356 0 
L 1766 0 
Q 1100 0 847 248 
Q 594 497 594 1153 
L 594 3053 
L 172 3053 
L 172 3500 
L 594 3500 
L 594 4494 
L 1172 4494 
z
" transform="scale(0.015625)"/>
       <path id="DejaVuSans-73" d="M 2834 3397 
L 2834 2853 
Q 2591 2978 2328 3040 
Q 2066 3103 1784 3103 
Q 1356 3103 1142 2972 
Q 928 2841 928 2578 
Q 928 2378 1081 2264 
Q 1234 2150 1697 2047 
L 1894 2003 
Q 2506 1872 2764 1633 
Q 3022 1394 3022 966 
Q 3022 478 2636 193 
Q 2250 -91 1575 -91 
Q 1294 -91 989 -36 
Q 684 19 347 128 
L 347 722 
Q 666 556 975 473 
Q 1284 391 1588 391 
Q 1994 391 2212 530 
Q 2431 669 2431 922 
Q 2431 1156 2273 1281 
Q 2116 1406 1581 1522 
L 1381 1569 
Q 847 1681 609 1914 
Q 372 2147 372 2553 
Q 372 3047 722 3315 
Q 1072 3584 1716 3584 
Q 2034 3584 2315 3537 
Q 2597 3491 2834 3397 
z
" transform="scale(0.015625)"/>
      </defs>
      <use xlink:href="#DejaVuSans-50"/>
      <use xlink:href="#DejaVuSans-44" x="60.302734"/>
      <use xlink:href="#DejaVuSans-4f" x="137.304688"/>
      <use xlink:href="#DejaVuSans-53" x="216.015625"/>
      <use xlink:href="#DejaVuSans-20" x="279.492188"/>
      <use xlink:href="#DejaVuSans-28" x="311.279297"/>
      <use xlink:href="#DejaVuSans-61" x="350.292969"/>
      <use xlink:href="#DejaVuSans-72" x="411.572266"/>
      <use xlink:href="#DejaVuSans-62" x="452.685547"/>
      <use xlink:href="#DejaVuSans-2e" x="516.162109"/>
      <use xlink:href="#DejaVuSans-20" x="547.949219"/>
      <use xlink:href="#DejaVuSans-75" x="579.736328"/>
      <use xlink:href="#DejaVuSans-6e" x="643.115234"/>
      <use xlink:href="#DejaVuSans-69" x="706.494141"/>
      <use xlink:href="#DejaVuSans-74" x="734.277344"/>
      <use xlink:href="#DejaVuSans-73" x="773.486328"/>
      <use xlink:href="#DejaVuSans-29" x="825.585938"/>
     </g>
    </g>
   </g>
   <g id="line2d_12">
    <path d="M 67.035264 274.478277 
L 93.280244 274.397949 
L 93.936369 274.16016 
L 94.264431 273.87782 
L 94.592493 273.384154 
L 94.920556 272.553678 
L 95.248618 271.210111 
L 95.57668 269.120831 
L 95.904742 266.000121 
L 96.232805 261.526335 
L 96.888929 247.284381 
L 97.545054 224.891323 
L 99.513427 145.471587 
L 99.841489 140.746618 
L 100.169552 140.650551 
L 100.497614 145.193369 
L 100.825676 153.90823 
L 101.481801 180.139068 
L 102.79405 236.644802 
L 103.450174 255.086954 
L 104.106299 265.846542 
L 104.762423 271.141338 
L 105.090485 272.510354 
L 105.418548 273.357917 
L 105.74661 273.862537 
L 106.402734 274.310958 
L 107.386921 274.460083 
L 111.323668 274.478277 
L 306.520708 274.39883 
L 307.176833 274.15397 
L 307.504895 273.856793 
L 307.832957 273.328553 
L 308.16102 272.425004 
L 308.489082 270.938388 
L 308.817144 268.586823 
L 309.145206 265.012741 
L 309.473269 259.797203 
L 309.801331 252.496628 
L 310.457455 230.144495 
L 311.11358 196.823397 
L 312.753891 104.330469 
L 313.081953 95.406361 
L 313.410016 92.54235 
L 313.738078 96.035357 
L 314.06614 105.523668 
L 314.722265 138.214292 
L 316.034514 216.41767 
L 316.690638 243.804235 
L 317.346763 260.4042 
L 318.002887 268.870015 
L 318.330949 271.120381 
L 318.659012 272.537409 
L 318.987074 273.395311 
L 319.315136 273.894935 
L 319.971261 274.326009 
L 320.955448 274.462688 
L 325.548319 274.478277 
L 372.789283 274.406629 
L 373.445408 274.175812 
L 373.77347 273.888831 
L 374.101532 273.369352 
L 374.429595 272.464318 
L 374.757657 270.947349 
L 375.085719 268.502191 
L 375.413781 264.714119 
L 375.741844 259.077502 
L 376.069906 251.028419 
L 376.72603 225.567439 
L 377.382155 185.879146 
L 379.022466 63.341921 
L 379.350528 48.503829 
L 379.678591 41.00052 
L 380.006653 41.603979 
L 380.334715 50.251502 
L 380.662777 66.056425 
L 381.318902 112.474773 
L 382.631151 210.362468 
L 383.287275 241.832675 
L 383.9434 260.042382 
L 384.599524 268.93429 
L 384.927587 271.219563 
L 385.255649 272.629178 
L 385.583711 273.465383 
L 385.911774 273.942656 
L 386.567898 274.343532 
L 387.552085 274.465225 
L 392.801081 274.478277 
L 409.860318 274.370189 
L 410.516442 274.037541 
L 410.844505 273.63414 
L 411.172567 272.917514 
L 411.500629 271.692471 
L 411.828691 269.678129 
L 412.156754 266.493769 
L 412.484816 261.656991 
L 412.812878 254.603381 
L 413.14094 244.736424 
L 413.797065 214.559364 
L 414.453189 169.640139 
L 415.765438 64.241622 
L 416.093501 45.401856 
L 416.421563 33.519801 
L 416.749625 29.800856 
L 417.077687 34.630639 
L 417.40575 47.50911 
L 418.061874 91.626451 
L 419.374123 196.738628 
L 420.030248 233.452821 
L 420.686372 255.675425 
L 421.342497 266.993937 
L 421.670559 269.999565 
L 421.998621 271.891001 
L 422.326684 273.035424 
L 422.654746 273.701509 
L 422.982808 274.074585 
L 423.638933 274.380184 
L 424.623119 274.469258 
L 431.840489 274.478277 
L 538.132659 274.378226 
L 538.788783 274.114076 
L 539.116845 273.819202 
L 539.444908 273.326898 
L 539.77297 272.536535 
L 540.101032 271.317055 
L 540.429094 269.509974 
L 540.757157 266.940364 
L 541.413281 258.868137 
L 542.069406 246.403138 
L 543.709717 208.760573 
L 544.037779 204.393439 
L 544.365841 202.325071 
L 544.693904 202.768716 
L 545.021966 205.67829 
L 545.67809 217.503775 
L 547.318402 255.292311 
L 547.974526 264.77912 
L 548.630651 270.219903 
L 549.286775 272.85455 
L 549.614837 273.527273 
L 550.270962 274.184789 
L 550.927087 274.399616 
L 552.239336 274.474576 
L 569.954697 274.478277 
L 586.029748 274.408417 
L 586.685872 274.208488 
L 587.013934 273.975407 
L 587.341997 273.573426 
L 587.670059 272.906509 
L 587.998121 271.842618 
L 588.326183 270.211696 
L 588.654246 267.810814 
L 588.982308 264.419826 
L 589.638432 253.884233 
L 590.294557 237.858841 
L 591.934868 191.165935 
L 592.26293 186.133988 
L 592.590993 184.04308 
L 592.919055 185.109388 
L 593.247117 189.222249 
L 593.903242 204.675585 
L 595.543553 251.632153 
L 596.199677 263.059549 
L 596.855802 269.521694 
L 597.511926 272.609719 
L 597.839989 273.39009 
L 598.168051 273.866504 
L 598.824175 274.304324 
L 599.808362 274.45803 
L 603.417047 274.478277 
L 626.709467 274.478277 
L 626.709467 274.478277 
" clip-path="url(#pf4ba3f5c8c)" style="fill: none; stroke: #243c6e; stroke-width: 2.5; stroke-linecap: square"/>
   </g>
   <g id="line2d_13">
    <path d="M 67.035264 274.478277 
L 93.608307 274.400372 
L 94.264431 274.168746 
L 94.592493 273.893071 
L 94.920556 273.410198 
L 95.248618 272.596417 
L 95.57668 271.277456 
L 95.904742 269.222642 
L 96.232805 266.147625 
L 96.560867 261.730849 
L 97.216991 247.626109 
L 97.873116 225.354065 
L 99.841489 145.415458 
L 100.169552 140.469492 
L 100.497614 140.153768 
L 100.825676 144.501094 
L 101.153738 153.064255 
L 101.809863 179.167525 
L 103.122112 236.004361 
L 103.778236 254.694107 
L 104.434361 265.642825 
L 105.090485 271.051395 
L 105.418548 272.454004 
L 105.74661 273.32395 
L 106.074672 273.842831 
L 106.730797 274.305037 
L 107.714983 274.459346 
L 111.65173 274.478277 
L 306.848771 274.369304 
L 307.504895 274.046828 
L 307.832957 273.664006 
L 308.16102 272.994742 
L 308.489082 271.869021 
L 308.817144 270.048057 
L 309.145206 267.216819 
L 309.473269 262.988483 
L 309.801331 256.927737 
L 310.457455 237.638535 
L 311.11358 207.319599 
L 313.081953 99.889788 
L 313.410016 93.518362 
L 313.738078 93.411393 
L 314.06614 99.579996 
L 314.394202 111.39031 
L 315.050327 146.903659 
L 316.362576 223.342202 
L 317.0187 248.27545 
L 317.674825 262.817476 
L 318.330949 269.97148 
L 318.659012 271.820781 
L 318.987074 272.965527 
L 319.315136 273.646989 
L 319.643199 274.03729 
L 320.299323 274.366631 
L 321.28351 274.467359 
L 327.516693 274.478277 
L 373.117346 274.397145 
L 373.77347 274.139744 
L 374.101532 273.822374 
L 374.429595 273.251491 
L 374.757657 272.263205 
L 375.085719 270.617305 
L 375.413781 267.98154 
L 375.741844 263.925087 
L 376.069906 257.929644 
L 376.397968 249.426973 
L 377.054093 222.832314 
L 377.710217 182.00806 
L 379.350528 60.441553 
L 379.678591 46.729959 
L 380.006653 40.534268 
L 380.334715 42.494003 
L 380.662777 52.40565 
L 381.318902 91.399671 
L 382.959213 213.515228 
L 383.615338 243.797427 
L 384.271462 261.068315 
L 384.927587 269.387933 
L 385.255649 271.503587 
L 385.583711 272.800145 
L 385.911774 273.564373 
L 386.239836 273.997809 
L 386.89596 274.358806 
L 387.880147 274.466905 
L 393.785268 274.478277 
L 409.860318 274.370095 
L 410.516442 274.037161 
L 410.844505 273.633413 
L 411.172567 272.916169 
L 411.500629 271.690071 
L 411.828691 269.673995 
L 412.156754 266.486892 
L 412.484816 261.645947 
L 412.812878 254.586261 
L 413.14094 244.710806 
L 413.797065 214.507752 
L 414.453189 169.549836 
L 415.765438 64.060533 
L 416.093501 45.204539 
L 416.421563 33.312249 
L 416.749625 29.590102 
L 417.077687 34.424045 
L 417.40575 47.313608 
L 418.061874 91.46895 
L 419.374123 196.671666 
L 420.030248 233.417484 
L 420.686372 255.659229 
L 421.342497 266.987491 
L 421.670559 269.995707 
L 421.998621 271.888773 
L 422.326684 273.034181 
L 422.654746 273.70084 
L 422.982808 274.074237 
L 423.638933 274.3801 
L 424.623119 274.46925 
L 431.840489 274.478277 
L 537.804596 274.417529 
L 538.460721 274.245481 
L 538.788783 274.046032 
L 539.116845 273.703504 
L 539.444908 273.137647 
L 539.77297 272.23887 
L 540.101032 270.867114 
L 540.429094 268.856792 
L 540.757157 266.030455 
L 541.413281 257.314936 
L 542.069406 244.193919 
L 543.709717 206.896068 
L 544.037779 203.090348 
L 544.365841 201.682354 
L 544.693904 202.817883 
L 545.021966 206.379205 
L 545.67809 219.151574 
L 547.318402 256.716293 
L 547.974526 265.668941 
L 548.630651 270.683778 
L 549.286775 273.058811 
L 549.614837 273.654812 
L 550.270962 274.228958 
L 550.927087 274.412719 
L 552.567398 274.477023 
L 585.373623 274.451205 
L 586.35781 274.254821 
L 586.685872 274.057426 
L 587.013934 273.713115 
L 587.341997 273.135299 
L 587.670059 272.202792 
L 587.998121 270.75634 
L 588.326183 268.601302 
L 588.654246 265.519916 
L 589.31037 255.752167 
L 589.966495 240.482416 
L 591.606806 193.018192 
L 591.934868 187.197576 
L 592.26293 184.200376 
L 592.590993 184.334749 
L 592.919055 187.586733 
L 593.247117 193.622632 
L 593.903242 211.492048 
L 595.215491 249.440572 
L 595.871615 261.701886 
L 596.52774 268.816128 
L 597.183864 272.298993 
L 597.511926 273.195902 
L 597.839989 273.749817 
L 598.496113 274.266803 
L 599.152238 274.42496 
L 600.792549 274.477359 
L 626.709467 274.478277 
L 626.709467 274.478277 
" clip-path="url(#pf4ba3f5c8c)" style="fill: none; stroke: #636670; stroke-width: 2.5; stroke-linecap: square"/>
   </g>
   <g id="line2d_14">
    <path d="M 67.035264 274.478277 
L 93.608307 274.40629 
L 94.264431 274.190059 
L 94.592493 273.931275 
L 94.920556 273.476092 
L 95.248618 272.705737 
L 95.57668 271.451822 
L 95.904742 269.489866 
L 96.232805 266.540844 
L 96.560867 262.285915 
L 97.216991 248.59776 
L 97.873116 226.767389 
L 99.841489 146.213334 
L 100.169552 140.786637 
L 100.497614 139.957181 
L 100.825676 143.81113 
L 101.153738 151.95114 
L 101.809863 177.55376 
L 103.122112 234.748625 
L 103.778236 253.891208 
L 104.434361 265.213526 
L 105.090485 270.857245 
L 105.418548 272.331106 
L 105.74661 273.249168 
L 106.074672 273.799067 
L 106.730797 274.291681 
L 107.714983 274.457651 
L 111.323668 274.478277 
L 306.848771 274.382443 
L 307.504895 274.09409 
L 307.832957 273.748671 
L 308.16102 273.140683 
L 308.489082 272.110994 
L 308.817144 270.433767 
L 309.145206 267.807576 
L 309.473269 263.857241 
L 309.801331 258.153317 
L 310.457455 239.781249 
L 311.11358 210.432296 
L 313.081953 101.636988 
L 313.410016 94.209173 
L 313.738078 92.974792 
L 314.06614 98.06206 
L 314.394202 108.946298 
L 315.050327 143.367523 
L 316.362576 220.598037 
L 317.0187 246.522966 
L 317.674825 261.881524 
L 318.330949 269.54867 
L 318.659012 271.55329 
L 318.987074 272.80285 
L 319.315136 273.551838 
L 319.643199 273.983741 
L 320.299323 274.351503 
L 321.28351 274.465646 
L 326.860568 274.478277 
L 373.117346 274.405525 
L 373.77347 274.17159 
L 374.101532 273.88103 
L 374.429595 273.355479 
L 374.757657 272.440581 
L 375.085719 270.908286 
L 375.413781 268.440395 
L 375.741844 264.620205 
L 376.069906 258.940489 
L 376.397968 250.836709 
L 377.054093 225.238048 
L 377.710217 185.409947 
L 379.350528 62.981338 
L 379.678591 48.279714 
L 380.006653 40.936024 
L 380.334715 41.706161 
L 380.662777 50.510103 
L 380.99084 66.445612 
L 381.646964 113.008376 
L 382.959213 210.756179 
L 383.615338 242.079508 
L 384.271462 260.172007 
L 384.927587 268.991923 
L 385.255649 271.255745 
L 385.583711 272.651016 
L 385.911774 273.478061 
L 386.239836 273.949738 
L 386.89596 274.345503 
L 387.880147 274.465444 
L 393.129143 274.478277 
L 409.860318 274.370088 
L 410.516442 274.037131 
L 410.844505 273.633356 
L 411.172567 272.916064 
L 411.500629 271.689883 
L 411.828691 269.673671 
L 412.156754 266.486352 
L 412.484816 261.645082 
L 412.812878 254.58492 
L 413.14094 244.708798 
L 413.797065 214.503707 
L 414.453189 169.542759 
L 415.765438 64.04634 
L 416.093501 45.189074 
L 416.421563 33.295982 
L 416.749625 29.573583 
L 417.077687 34.407852 
L 417.40575 47.298285 
L 418.061874 91.456605 
L 419.374123 196.666418 
L 420.030248 233.414714 
L 420.686372 255.65796 
L 421.342497 266.986985 
L 421.670559 269.995405 
L 421.998621 271.888598 
L 422.326684 273.034084 
L 422.654746 273.700788 
L 422.982808 274.07421 
L 423.638933 274.380093 
L 424.623119 274.469249 
L 431.840489 274.478277 
L 538.132659 274.375709 
L 538.788783 274.1056 
L 539.116845 273.804483 
L 539.444908 273.302266 
L 539.77297 272.496816 
L 540.101032 271.255357 
L 540.429094 269.417662 
L 540.757157 266.807366 
L 541.413281 258.621906 
L 542.069406 246.012691 
L 543.709717 208.152307 
L 544.037779 203.809772 
L 544.365841 201.791055 
L 544.693904 202.30439 
L 545.021966 205.296455 
L 545.67809 217.292848 
L 547.318402 255.309627 
L 547.974526 264.805681 
L 548.630651 270.239369 
L 549.286775 272.864942 
L 549.614837 273.534228 
L 550.270962 274.187471 
L 550.927087 274.400478 
L 552.239336 274.47463 
L 569.954697 274.478277 
L 586.029748 274.384529 
L 586.685872 274.1267 
L 587.013934 273.832498 
L 587.341997 273.333194 
L 587.670059 272.51817 
L 587.998121 271.239265 
L 588.326183 269.311317 
L 588.654246 266.52131 
L 589.31037 257.502015 
L 589.966495 243.022819 
L 591.934868 188.613577 
L 592.26293 184.75283 
L 592.590993 183.966212 
L 592.919055 186.335408 
L 593.247117 191.61583 
L 593.903242 208.596014 
L 595.215491 247.196767 
L 595.871615 260.269472 
L 596.52774 268.051309 
L 597.183864 271.953551 
L 597.511926 272.977373 
L 597.839989 273.616923 
L 598.496113 274.223061 
L 599.152238 274.412603 
L 600.792549 274.477087 
L 626.709467 274.478277 
L 626.709467 274.478277 
" clip-path="url(#pf4ba3f5c8c)" style="fill: none; stroke: #989277; stroke-width: 2.5; stroke-linecap: square"/>
   </g>
   <g id="line2d_15">
    <path d="M 67.035264 274.478277 
L 93.608307 274.411716 
L 94.264431 274.209761 
L 94.592493 273.966736 
L 94.920556 273.537512 
L 95.248618 272.808065 
L 95.57668 271.615736 
L 95.904742 269.742168 
L 96.232805 266.913755 
L 96.560867 262.814715 
L 97.216991 249.532316 
L 97.873116 228.141189 
L 99.841489 147.048478 
L 100.169552 141.153998 
L 100.497614 139.818666 
L 100.825676 143.181117 
L 101.153738 150.894013 
L 101.809863 175.975502 
L 103.122112 233.486434 
L 103.778236 253.075943 
L 104.434361 264.773529 
L 105.090485 270.656486 
L 105.418548 272.203478 
L 105.74661 273.171177 
L 106.074672 273.753232 
L 106.730797 274.277578 
L 107.386921 274.430028 
L 109.355295 274.47799 
L 305.536522 274.474756 
L 306.848771 274.390427 
L 307.504895 274.123132 
L 307.832957 273.800993 
L 308.16102 273.231392 
L 308.489082 272.262266 
L 308.817144 270.676321 
L 309.145206 268.181301 
L 309.473269 264.41019 
L 309.801331 258.938253 
L 310.457455 241.17164 
L 311.11358 212.481468 
L 313.081953 102.9081 
L 313.410016 94.783656 
L 313.738078 92.793633 
L 314.06614 97.144594 
L 314.394202 107.386872 
L 315.050327 141.018785 
L 316.362576 218.705974 
L 317.0187 245.297803 
L 317.674825 261.218826 
L 318.330949 269.245669 
L 318.659012 271.360469 
L 318.987074 272.684905 
L 319.315136 273.482456 
L 319.643199 273.944473 
L 320.299323 274.340286 
L 321.28351 274.464354 
L 326.204444 274.478277 
L 373.117346 274.410824 
L 373.77347 274.191919 
L 374.101532 273.91865 
L 374.429595 273.422487 
L 374.757657 272.555423 
L 375.085719 271.09759 
L 375.413781 268.74037 
L 375.741844 265.076891 
L 376.069906 259.607964 
L 376.397968 251.772402 
L 377.054093 226.852282 
L 377.710217 187.720314 
L 379.678591 49.437088 
L 380.006653 41.310433 
L 380.334715 41.258611 
L 380.662777 49.287009 
L 380.99084 64.570857 
L 381.646964 110.400456 
L 382.959213 208.807454 
L 383.615338 240.852452 
L 384.271462 259.52512 
L 384.927587 268.703273 
L 385.255649 271.07422 
L 385.583711 272.54127 
L 385.911774 273.414243 
L 386.239836 273.91403 
L 386.89596 274.33553 
L 387.880147 274.464333 
L 392.801081 274.478277 
L 409.860318 274.370083 
L 410.516442 274.03711 
L 410.844505 273.633315 
L 411.172567 272.915989 
L 411.500629 271.689749 
L 411.828691 269.67344 
L 412.156754 266.485969 
L 412.484816 261.644466 
L 412.812878 254.583964 
L 413.14094 244.707368 
L 413.797065 214.500827 
L 414.453189 169.537719 
L 415.765438 64.036235 
L 416.093501 45.178063 
L 416.421563 33.2844 
L 416.749625 29.561823 
L 417.077687 34.396324 
L 417.40575 47.287376 
L 418.061874 91.447817 
L 419.374123 196.662681 
L 420.030248 233.412742 
L 420.686372 255.657056 
L 421.342497 266.986626 
L 421.670559 269.995189 
L 421.998621 271.888474 
L 422.326684 273.034014 
L 422.654746 273.70075 
L 422.982808 274.07419 
L 423.638933 274.380088 
L 424.623119 274.469249 
L 431.840489 274.478277 
L 538.132659 274.386291 
L 538.788783 274.140273 
L 539.116845 273.863727 
L 539.444908 273.399622 
L 539.77297 272.650609 
L 540.101032 271.488754 
L 540.429094 269.757685 
L 540.757157 267.282447 
L 541.413281 259.435803 
L 542.069406 247.168565 
L 543.709717 209.032082 
L 544.037779 204.354152 
L 544.365841 201.944486 
L 544.693904 202.050831 
L 545.021966 204.662139 
L 545.350028 209.510449 
L 546.006153 223.866336 
L 547.318402 254.357689 
L 547.974526 264.210564 
L 548.630651 269.927703 
L 549.286775 272.726745 
L 549.614837 273.447585 
L 550.270962 274.157192 
L 550.927087 274.391407 
L 552.239336 274.474112 
L 567.986324 274.478277 
L 586.029748 274.396103 
L 586.685872 274.165986 
L 587.013934 273.900836 
L 587.341997 273.447547 
L 587.670059 272.702157 
L 587.998121 271.523739 
L 588.326183 269.733708 
L 588.654246 267.12309 
L 588.982308 263.470983 
L 589.638432 252.300201 
L 590.294557 235.669798 
L 591.606806 196.636897 
L 591.934868 189.656734 
L 592.26293 185.252225 
L 592.590993 183.870171 
L 592.919055 185.653875 
L 593.247117 190.418661 
L 593.903242 206.750438 
L 595.215491 245.67743 
L 595.871615 259.277581 
L 596.52774 267.51071 
L 597.183864 271.704585 
L 597.511926 272.818378 
L 597.839989 273.51933 
L 598.496113 274.190345 
L 599.152238 274.403193 
L 600.464487 274.474933 
L 619.82016 274.478277 
L 626.709467 274.478277 
L 626.709467 274.478277 
" clip-path="url(#pf4ba3f5c8c)" style="fill: none; stroke: #d6c35d; stroke-width: 2.5; stroke-linecap: square"/>
   </g>
   <g id="line2d_16">
    <path d="M 416.728125 286.7241 
L 416.728125 17.316 
" clip-path="url(#pf4ba3f5c8c)" style="fill: none; stroke-dasharray: 4.44,1.92; stroke-dashoffset: 0; stroke: #000000; stroke-width: 1.2"/>
   </g>
   <g id="patch_3">
    <path d="M 67.275 286.7241 
L 67.275 17.316 
" style="fill: none; stroke: #000000; stroke-width: 1.2; stroke-linejoin: miter; stroke-linecap: square"/>
   </g>
   <g id="patch_4">
    <path d="M 67.275 286.7241 
L 626.4 286.7241 
" style="fill: none; stroke: #000000; stroke-width: 1.2; stroke-linejoin: miter; stroke-linecap: square"/>
   </g>
   <g id="legend_1">
    <g id="line2d_17">
     <path d="M 497.550937 40.893188 
L 515.550937 40.893188 
L 533.550937 40.893188 
" style="fill: none; stroke: #243c6e; stroke-width: 2.5; stroke-linecap: square"/>
    </g>
    <g id="text_14">
     <!-- 200 Ry -->
     <g transform="translate(547.950938 47.193188) scale(0.18 -0.18)">
      <defs>
       <path id="DejaVuSans-52" d="M 2841 2188 
Q 3044 2119 3236 1894 
Q 3428 1669 3622 1275 
L 4263 0 
L 3584 0 
L 2988 1197 
Q 2756 1666 2539 1819 
Q 2322 1972 1947 1972 
L 1259 1972 
L 1259 0 
L 628 0 
L 628 4666 
L 2053 4666 
Q 2853 4666 3247 4331 
Q 3641 3997 3641 3322 
Q 3641 2881 3436 2590 
Q 3231 2300 2841 2188 
z
M 1259 4147 
L 1259 2491 
L 2053 2491 
Q 2509 2491 2742 2702 
Q 2975 2913 2975 3322 
Q 2975 3731 2742 3939 
Q 2509 4147 2053 4147 
L 1259 4147 
z
" transform="scale(0.015625)"/>
       <path id="DejaVuSans-79" d="M 2059 -325 
Q 1816 -950 1584 -1140 
Q 1353 -1331 966 -1331 
L 506 -1331 
L 506 -850 
L 844 -850 
Q 1081 -850 1212 -737 
Q 1344 -625 1503 -206 
L 1606 56 
L 191 3500 
L 800 3500 
L 1894 763 
L 2988 3500 
L 3597 3500 
L 2059 -325 
z
" transform="scale(0.015625)"/>
      </defs>
      <use xlink:href="#DejaVuSans-32"/>
      <use xlink:href="#DejaVuSans-30" x="63.623047"/>
      <use xlink:href="#DejaVuSans-30" x="127.246094"/>
      <use xlink:href="#DejaVuSans-20" x="190.869141"/>
      <use xlink:href="#DejaVuSans-52" x="222.65625"/>
      <use xlink:href="#DejaVuSans-79" x="286.638672"/>
     </g>
    </g>
    <g id="line2d_18">
     <path d="M 497.550937 67.313813 
L 515.550937 67.313813 
L 533.550937 67.313813 
" style="fill: none; stroke: #636670; stroke-width: 2.5; stroke-linecap: square"/>
    </g>
    <g id="text_15">
     <!-- 400 Ry -->
     <g transform="translate(547.950938 73.613813) scale(0.18 -0.18)">
      <defs>
       <path id="DejaVuSans-34" d="M 2419 4116 
L 825 1625 
L 2419 1625 
L 2419 4116 
z
M 2253 4666 
L 3047 4666 
L 3047 1625 
L 3713 1625 
L 3713 1100 
L 3047 1100 
L 3047 0 
L 2419 0 
L 2419 1100 
L 313 1100 
L 313 1709 
L 2253 4666 
z
" transform="scale(0.015625)"/>
      </defs>
      <use xlink:href="#DejaVuSans-34"/>
      <use xlink:href="#DejaVuSans-30" x="63.623047"/>
      <use xlink:href="#DejaVuSans-30" x="127.246094"/>
      <use xlink:href="#DejaVuSans-20" x="190.869141"/>
      <use xlink:href="#DejaVuSans-52" x="222.65625"/>
      <use xlink:href="#DejaVuSans-79" x="286.638672"/>
     </g>
    </g>
    <g id="line2d_19">
     <path d="M 497.550937 93.734438 
L 515.550937 93.734438 
L 533.550937 93.734438 
" style="fill: none; stroke: #989277; stroke-width: 2.5; stroke-linecap: square"/>
    </g>
    <g id="text_16">
     <!-- 600 Ry -->
     <g transform="translate(547.950938 100.034438) scale(0.18 -0.18)">
      <defs>
       <path id="DejaVuSans-36" d="M 2113 2584 
Q 1688 2584 1439 2293 
Q 1191 2003 1191 1497 
Q 1191 994 1439 701 
Q 1688 409 2113 409 
Q 2538 409 2786 701 
Q 3034 994 3034 1497 
Q 3034 2003 2786 2293 
Q 2538 2584 2113 2584 
z
M 3366 4563 
L 3366 3988 
Q 3128 4100 2886 4159 
Q 2644 4219 2406 4219 
Q 1781 4219 1451 3797 
Q 1122 3375 1075 2522 
Q 1259 2794 1537 2939 
Q 1816 3084 2150 3084 
Q 2853 3084 3261 2657 
Q 3669 2231 3669 1497 
Q 3669 778 3244 343 
Q 2819 -91 2113 -91 
Q 1303 -91 875 529 
Q 447 1150 447 2328 
Q 447 3434 972 4092 
Q 1497 4750 2381 4750 
Q 2619 4750 2861 4703 
Q 3103 4656 3366 4563 
z
" transform="scale(0.015625)"/>
      </defs>
      <use xlink:href="#DejaVuSans-36"/>
      <use xlink:href="#DejaVuSans-30" x="63.623047"/>
      <use xlink:href="#DejaVuSans-30" x="127.246094"/>
      <use xlink:href="#DejaVuSans-20" x="190.869141"/>
      <use xlink:href="#DejaVuSans-52" x="222.65625"/>
      <use xlink:href="#DejaVuSans-79" x="286.638672"/>
     </g>
    </g>
    <g id="line2d_20">
     <path d="M 497.550937 120.155063 
L 515.550937 120.155063 
L 533.550937 120.155063 
" style="fill: none; stroke: #d6c35d; stroke-width: 2.5; stroke-linecap: square"/>
    </g>
    <g id="text_17">
     <!-- 800 Ry -->
     <g transform="translate(547.950938 126.455063) scale(0.18 -0.18)">
      <defs>
       <path id="DejaVuSans-38" d="M 2034 2216 
Q 1584 2216 1326 1975 
Q 1069 1734 1069 1313 
Q 1069 891 1326 650 
Q 1584 409 2034 409 
Q 2484 409 2743 651 
Q 3003 894 3003 1313 
Q 3003 1734 2745 1975 
Q 2488 2216 2034 2216 
z
M 1403 2484 
Q 997 2584 770 2862 
Q 544 3141 544 3541 
Q 544 4100 942 4425 
Q 1341 4750 2034 4750 
Q 2731 4750 3128 4425 
Q 3525 4100 3525 3541 
Q 3525 3141 3298 2862 
Q 3072 2584 2669 2484 
Q 3125 2378 3379 2068 
Q 3634 1759 3634 1313 
Q 3634 634 3220 271 
Q 2806 -91 2034 -91 
Q 1263 -91 848 271 
Q 434 634 434 1313 
Q 434 1759 690 2068 
Q 947 2378 1403 2484 
z
M 1172 3481 
Q 1172 3119 1398 2916 
Q 1625 2713 2034 2713 
Q 2441 2713 2670 2916 
Q 2900 3119 2900 3481 
Q 2900 3844 2670 4047 
Q 2441 4250 2034 4250 
Q 1625 4250 1398 4047 
Q 1172 3844 1172 3481 
z
" transform="scale(0.015625)"/>
      </defs>
      <use xlink:href="#DejaVuSans-38"/>
      <use xlink:href="#DejaVuSans-30" x="63.623047"/>
      <use xlink:href="#DejaVuSans-30" x="127.246094"/>
      <use xlink:href="#DejaVuSans-20" x="190.869141"/>
      <use xlink:href="#DejaVuSans-52" x="222.65625"/>
      <use xlink:href="#DejaVuSans-79" x="286.638672"/>
     </g>
    </g>
   </g>
  </g>
 </g>
 <defs>
  <clipPath id="pf4ba3f5c8c">
   <rect x="67.275" y="17.316" width="559.125" height="269.4081"/>
  </clipPath>
 </defs>
</svg>
