<?xml version="1.0" encoding="UTF-8" standalone="no"?>
<svg
   width="648pt"
   height="346.32pt"
   viewBox="0 0 648 346.32"
   version="1.1"
   id="svg326"
   sodipodi:docname="01_PDOS_O_H.svg"
   inkscape:version="1.2.2 (b0a8486541, 2022-12-01)"
   xml:space="preserve"
   xmlns:inkscape="http://www.inkscape.org/namespaces/inkscape"
   xmlns:sodipodi="http://sodipodi.sourceforge.net/DTD/sodipodi-0.dtd"
   xmlns:xlink="http://www.w3.org/1999/xlink"
   xmlns="http://www.w3.org/2000/svg"
   xmlns:svg="http://www.w3.org/2000/svg"
   xmlns:rdf="http://www.w3.org/1999/02/22-rdf-syntax-ns#"
   xmlns:cc="http://creativecommons.org/ns#"
   xmlns:dc="http://purl.org/dc/elements/1.1/"><sodipodi:namedview
     id="namedview328"
     pagecolor="#ffffff"
     bordercolor="#666666"
     borderopacity="1.0"
     inkscape:showpageshadow="2"
     inkscape:pageopacity="0.0"
     inkscape:pagecheckerboard="0"
     inkscape:deskcolor="#d1d1d1"
     inkscape:document-units="pt"
     showgrid="false"
     inkscape:zoom="0.255544"
     inkscape:cx="737.64205"
     inkscape:cy="610.46239"
     inkscape:window-width="1920"
     inkscape:window-height="1002"
     inkscape:window-x="1920"
     inkscape:window-y="0"
     inkscape:window-maximized="1"
     inkscape:current-layer="g1148" /><metadata
     id="metadata2"><rdf:RDF><cc:Work><dc:type
           rdf:resource="http://purl.org/dc/dcmitype/StillImage" /><dc:date>2025-12-15T12:49:53.048224</dc:date><dc:format>image/svg+xml</dc:format><dc:creator><cc:Agent><dc:title>Matplotlib v3.6.3, https://matplotlib.org/</dc:title></cc:Agent></dc:creator></cc:Work></rdf:RDF></metadata><defs
     id="defs6"><rect
       x="135.3"
       y="-96.475981"
       width="629.73709"
       height="276.44389"
       id="rect864" /><style
       type="text/css"
       id="style4">*{stroke-linejoin: round; stroke-linecap: butt}</style><rect
       x="135.3"
       y="-96.475981"
       width="629.73709"
       height="276.44389"
       id="rect926" /><rect
       x="135.3"
       y="-96.475981"
       width="629.73709"
       height="276.44389"
       id="rect934" /><rect
       x="135.3"
       y="-96.475981"
       width="629.73709"
       height="276.44389"
       id="rect942" /><rect
       x="135.3"
       y="-96.475981"
       width="629.73709"
       height="276.44389"
       id="rect950" /><rect
       x="135.3"
       y="-96.475981"
       width="629.73709"
       height="276.44389"
       id="rect958" /><rect
       x="135.3"
       y="-96.475981"
       width="629.73709"
       height="276.44389"
       id="rect966" /><style
       type="text/css"
       id="style476">*{stroke-linejoin: round; stroke-linecap: butt}</style><path
       id="m797f07c795"
       d="M 0 0  L 0 6  "
       style="stroke: #000000; stroke-width: 1.2" /><path
       id="DejaVuSans-2212-6"
       d="M 678 2272  L 4684 2272  L 4684 1741  L 678 1741  L 678 2272  z "
       transform="scale(0.015625)" /><path
       id="DejaVuSans-32-2"
       d="M 1228 531  L 3431 531  L 3431 0  L 469 0  L 469 531  Q 828 903 1448 1529  Q 2069 2156 2228 2338  Q 2531 2678 2651 2914  Q 2772 3150 2772 3378  Q 2772 3750 2511 3984  Q 2250 4219 1831 4219  Q 1534 4219 1204 4116  Q 875 4013 500 3803  L 500 4441  Q 881 4594 1212 4672  Q 1544 4750 1819 4750  Q 2544 4750 2975 4387  Q 3406 4025 3406 3419  Q 3406 3131 3298 2873  Q 3191 2616 2906 2266  Q 2828 2175 2409 1742  Q 1991 1309 1228 531  z "
       transform="scale(0.015625)" /><path
       id="DejaVuSans-30-9"
       d="M 2034 4250  Q 1547 4250 1301 3770  Q 1056 3291 1056 2328  Q 1056 1369 1301 889  Q 1547 409 2034 409  Q 2525 409 2770 889  Q 3016 1369 3016 2328  Q 3016 3291 2770 3770  Q 2525 4250 2034 4250  z M 2034 4750  Q 2819 4750 3233 4129  Q 3647 3509 3647 2328  Q 3647 1150 3233 529  Q 2819 -91 2034 -91  Q 1250 -91 836 529  Q 422 1150 422 2328  Q 422 3509 836 4129  Q 1250 4750 2034 4750  z "
       transform="scale(0.015625)" /><path
       id="DejaVuSans-31-0"
       d="M 794 531  L 1825 531  L 1825 4091  L 703 3866  L 703 4441  L 1819 4666  L 2450 4666  L 2450 531  L 3481 531  L 3481 0  L 794 0  L 794 531  z "
       transform="scale(0.015625)" /><path
       id="DejaVuSans-35-9"
       d="M 691 4666  L 3169 4666  L 3169 4134  L 1269 4134  L 1269 2991  Q 1406 3038 1543 3061  Q 1681 3084 1819 3084  Q 2600 3084 3056 2656  Q 3513 2228 3513 1497  Q 3513 744 3044 326  Q 2575 -91 1722 -91  Q 1428 -91 1123 -41  Q 819 9 494 109  L 494 744  Q 775 591 1075 516  Q 1375 441 1709 441  Q 2250 441 2565 725  Q 2881 1009 2881 1497  Q 2881 1984 2565 2268  Q 2250 2553 1709 2553  Q 1456 2553 1204 2497  Q 953 2441 691 2322  L 691 4666  z "
       transform="scale(0.015625)" /><path
       id="DejaVuSans-45-8"
       d="M 628 4666  L 3578 4666  L 3578 4134  L 1259 4134  L 1259 2753  L 3481 2753  L 3481 2222  L 1259 2222  L 1259 531  L 3634 531  L 3634 0  L 628 0  L 628 4666  z "
       transform="scale(0.015625)" /><path
       id="DejaVuSans-46-9"
       d="M 628 4666  L 3309 4666  L 3309 4134  L 1259 4134  L 1259 2759  L 3109 2759  L 3109 2228  L 1259 2228  L 1259 0  L 628 0  L 628 4666  z "
       transform="scale(0.015625)" /><path
       id="DejaVuSans-28-7"
       d="M 1984 4856  Q 1566 4138 1362 3434  Q 1159 2731 1159 2009  Q 1159 1288 1364 580  Q 1569 -128 1984 -844  L 1484 -844  Q 1016 -109 783 600  Q 550 1309 550 2009  Q 550 2706 781 3412  Q 1013 4119 1484 4856  L 1984 4856  z "
       transform="scale(0.015625)" /><path
       id="DejaVuSans-65-3"
       d="M 3597 1894  L 3597 1613  L 953 1613  Q 991 1019 1311 708  Q 1631 397 2203 397  Q 2534 397 2845 478  Q 3156 559 3463 722  L 3463 178  Q 3153 47 2828 -22  Q 2503 -91 2169 -91  Q 1331 -91 842 396  Q 353 884 353 1716  Q 353 2575 817 3079  Q 1281 3584 2069 3584  Q 2775 3584 3186 3129  Q 3597 2675 3597 1894  z M 3022 2063  Q 3016 2534 2758 2815  Q 2500 3097 2075 3097  Q 1594 3097 1305 2825  Q 1016 2553 972 2059  L 3022 2063  z "
       transform="scale(0.015625)" /><path
       id="DejaVuSans-56-6"
       d="M 1831 0  L 50 4666  L 709 4666  L 2188 738  L 3669 4666  L 4325 4666  L 2547 0  L 1831 0  z "
       transform="scale(0.015625)" /><path
       id="DejaVuSans-29-1"
       d="M 513 4856  L 1013 4856  Q 1481 4119 1714 3412  Q 1947 2706 1947 2009  Q 1947 1309 1714 600  Q 1481 -109 1013 -844  L 513 -844  Q 928 -128 1133 580  Q 1338 1288 1338 2009  Q 1338 2731 1133 3434  Q 928 4138 513 4856  z "
       transform="scale(0.015625)" /><path
       id="mcb728e19f6"
       d="M 0 0  L -6 0  "
       style="stroke: #000000; stroke-width: 1.2" /><path
       id="DejaVuSans-33-1"
       d="M 2597 2516  Q 3050 2419 3304 2112  Q 3559 1806 3559 1356  Q 3559 666 3084 287  Q 2609 -91 1734 -91  Q 1441 -91 1130 -33  Q 819 25 488 141  L 488 750  Q 750 597 1062 519  Q 1375 441 1716 441  Q 2309 441 2620 675  Q 2931 909 2931 1356  Q 2931 1769 2642 2001  Q 2353 2234 1838 2234  L 1294 2234  L 1294 2753  L 1863 2753  Q 2328 2753 2575 2939  Q 2822 3125 2822 3475  Q 2822 3834 2567 4026  Q 2313 4219 1838 4219  Q 1578 4219 1281 4162  Q 984 4106 628 3988  L 628 4550  Q 988 4650 1302 4700  Q 1616 4750 1894 4750  Q 2613 4750 3031 4423  Q 3450 4097 3450 3541  Q 3450 3153 3228 2886  Q 3006 2619 2597 2516  z "
       transform="scale(0.015625)" /><path
       id="DejaVuSans-50-6"
       d="M 1259 4147  L 1259 2394  L 2053 2394  Q 2494 2394 2734 2622  Q 2975 2850 2975 3272  Q 2975 3691 2734 3919  Q 2494 4147 2053 4147  L 1259 4147  z M 628 4666  L 2053 4666  Q 2838 4666 3239 4311  Q 3641 3956 3641 3272  Q 3641 2581 3239 2228  Q 2838 1875 2053 1875  L 1259 1875  L 1259 0  L 628 0  L 628 4666  z "
       transform="scale(0.015625)" /><path
       id="DejaVuSans-44-3"
       d="M 1259 4147  L 1259 519  L 2022 519  Q 2988 519 3436 956  Q 3884 1394 3884 2338  Q 3884 3275 3436 3711  Q 2988 4147 2022 4147  L 1259 4147  z M 628 4666  L 1925 4666  Q 3281 4666 3915 4102  Q 4550 3538 4550 2338  Q 4550 1131 3912 565  Q 3275 0 1925 0  L 628 0  L 628 4666  z "
       transform="scale(0.015625)" /><path
       id="DejaVuSans-4f-2"
       d="M 2522 4238  Q 1834 4238 1429 3725  Q 1025 3213 1025 2328  Q 1025 1447 1429 934  Q 1834 422 2522 422  Q 3209 422 3611 934  Q 4013 1447 4013 2328  Q 4013 3213 3611 3725  Q 3209 4238 2522 4238  z M 2522 4750  Q 3503 4750 4090 4092  Q 4678 3434 4678 2328  Q 4678 1225 4090 567  Q 3503 -91 2522 -91  Q 1538 -91 948 565  Q 359 1222 359 2328  Q 359 3434 948 4092  Q 1538 4750 2522 4750  z "
       transform="scale(0.015625)" /><path
       id="DejaVuSans-53-0"
       d="M 3425 4513  L 3425 3897  Q 3066 4069 2747 4153  Q 2428 4238 2131 4238  Q 1616 4238 1336 4038  Q 1056 3838 1056 3469  Q 1056 3159 1242 3001  Q 1428 2844 1947 2747  L 2328 2669  Q 3034 2534 3370 2195  Q 3706 1856 3706 1288  Q 3706 609 3251 259  Q 2797 -91 1919 -91  Q 1588 -91 1214 -16  Q 841 59 441 206  L 441 856  Q 825 641 1194 531  Q 1563 422 1919 422  Q 2459 422 2753 634  Q 3047 847 3047 1241  Q 3047 1584 2836 1778  Q 2625 1972 2144 2069  L 1759 2144  Q 1053 2284 737 2584  Q 422 2884 422 3419  Q 422 4038 858 4394  Q 1294 4750 2059 4750  Q 2388 4750 2728 4690  Q 3069 4631 3425 4513  z "
       transform="scale(0.015625)" /><path
       id="DejaVuSans-20-6"
       transform="scale(0.015625)" /><path
       id="DejaVuSans-61-1"
       d="M 2194 1759  Q 1497 1759 1228 1600  Q 959 1441 959 1056  Q 959 750 1161 570  Q 1363 391 1709 391  Q 2188 391 2477 730  Q 2766 1069 2766 1631  L 2766 1759  L 2194 1759  z M 3341 1997  L 3341 0  L 2766 0  L 2766 531  Q 2569 213 2275 61  Q 1981 -91 1556 -91  Q 1019 -91 701 211  Q 384 513 384 1019  Q 384 1609 779 1909  Q 1175 2209 1959 2209  L 2766 2209  L 2766 2266  Q 2766 2663 2505 2880  Q 2244 3097 1772 3097  Q 1472 3097 1187 3025  Q 903 2953 641 2809  L 641 3341  Q 956 3463 1253 3523  Q 1550 3584 1831 3584  Q 2591 3584 2966 3190  Q 3341 2797 3341 1997  z "
       transform="scale(0.015625)" /><path
       id="DejaVuSans-72-5"
       d="M 2631 2963  Q 2534 3019 2420 3045  Q 2306 3072 2169 3072  Q 1681 3072 1420 2755  Q 1159 2438 1159 1844  L 1159 0  L 581 0  L 581 3500  L 1159 3500  L 1159 2956  Q 1341 3275 1631 3429  Q 1922 3584 2338 3584  Q 2397 3584 2469 3576  Q 2541 3569 2628 3553  L 2631 2963  z "
       transform="scale(0.015625)" /><path
       id="DejaVuSans-62-5"
       d="M 3116 1747  Q 3116 2381 2855 2742  Q 2594 3103 2138 3103  Q 1681 3103 1420 2742  Q 1159 2381 1159 1747  Q 1159 1113 1420 752  Q 1681 391 2138 391  Q 2594 391 2855 752  Q 3116 1113 3116 1747  z M 1159 2969  Q 1341 3281 1617 3432  Q 1894 3584 2278 3584  Q 2916 3584 3314 3078  Q 3713 2572 3713 1747  Q 3713 922 3314 415  Q 2916 -91 2278 -91  Q 1894 -91 1617 61  Q 1341 213 1159 525  L 1159 0  L 581 0  L 581 4863  L 1159 4863  L 1159 2969  z "
       transform="scale(0.015625)" /><path
       id="DejaVuSans-2e-4"
       d="M 684 794  L 1344 794  L 1344 0  L 684 0  L 684 794  z "
       transform="scale(0.015625)" /><path
       id="DejaVuSans-75-7"
       d="M 544 1381  L 544 3500  L 1119 3500  L 1119 1403  Q 1119 906 1312 657  Q 1506 409 1894 409  Q 2359 409 2629 706  Q 2900 1003 2900 1516  L 2900 3500  L 3475 3500  L 3475 0  L 2900 0  L 2900 538  Q 2691 219 2414 64  Q 2138 -91 1772 -91  Q 1169 -91 856 284  Q 544 659 544 1381  z M 1991 3584  L 1991 3584  z "
       transform="scale(0.015625)" /><path
       id="DejaVuSans-6e-6"
       d="M 3513 2113  L 3513 0  L 2938 0  L 2938 2094  Q 2938 2591 2744 2837  Q 2550 3084 2163 3084  Q 1697 3084 1428 2787  Q 1159 2491 1159 1978  L 1159 0  L 581 0  L 581 3500  L 1159 3500  L 1159 2956  Q 1366 3272 1645 3428  Q 1925 3584 2291 3584  Q 2894 3584 3203 3211  Q 3513 2838 3513 2113  z "
       transform="scale(0.015625)" /><path
       id="DejaVuSans-69-5"
       d="M 603 3500  L 1178 3500  L 1178 0  L 603 0  L 603 3500  z M 603 4863  L 1178 4863  L 1178 4134  L 603 4134  L 603 4863  z "
       transform="scale(0.015625)" /><path
       id="DejaVuSans-74-6"
       d="M 1172 4494  L 1172 3500  L 2356 3500  L 2356 3053  L 1172 3053  L 1172 1153  Q 1172 725 1289 603  Q 1406 481 1766 481  L 2356 481  L 2356 0  L 1766 0  Q 1100 0 847 248  Q 594 497 594 1153  L 594 3053  L 172 3053  L 172 3500  L 594 3500  L 594 4494  L 1172 4494  z "
       transform="scale(0.015625)" /><path
       id="DejaVuSans-73-9"
       d="M 2834 3397  L 2834 2853  Q 2591 2978 2328 3040  Q 2066 3103 1784 3103  Q 1356 3103 1142 2972  Q 928 2841 928 2578  Q 928 2378 1081 2264  Q 1234 2150 1697 2047  L 1894 2003  Q 2506 1872 2764 1633  Q 3022 1394 3022 966  Q 3022 478 2636 193  Q 2250 -91 1575 -91  Q 1294 -91 989 -36  Q 684 19 347 128  L 347 722  Q 666 556 975 473  Q 1284 391 1588 391  Q 1994 391 2212 530  Q 2431 669 2431 922  Q 2431 1156 2273 1281  Q 2116 1406 1581 1522  L 1381 1569  Q 847 1681 609 1914  Q 372 2147 372 2553  Q 372 3047 722 3315  Q 1072 3584 1716 3584  Q 2034 3584 2315 3537  Q 2597 3491 2834 3397  z "
       transform="scale(0.015625)" /><path
       id="DejaVuSans-48"
       d="M 628 4666  L 1259 4666  L 1259 2753  L 3553 2753  L 3553 4666  L 4184 4666  L 4184 0  L 3553 0  L 3553 2222  L 1259 2222  L 1259 0  L 628 0  L 628 4666  z "
       transform="scale(0.015625)" /><clipPath
       id="p0bbe8134c3"><rect
         x="67.275"
         y="17.316"
         width="559.125"
         height="269.4081"
         id="rect773" /></clipPath><style
       type="text/css"
       id="style2464">*{stroke-linejoin: round; stroke-linecap: butt}</style><path
       id="m237714ffdd"
       d="M 0 0  L 0 6  "
       style="stroke: #000000; stroke-width: 1.2" /><path
       id="DejaVuSans-2212"
       d="M 678 2272  L 4684 2272  L 4684 1741  L 678 1741  L 678 2272  z "
       transform="scale(0.015625)" /><path
       id="DejaVuSans-32"
       d="M 1228 531  L 3431 531  L 3431 0  L 469 0  L 469 531  Q 828 903 1448 1529  Q 2069 2156 2228 2338  Q 2531 2678 2651 2914  Q 2772 3150 2772 3378  Q 2772 3750 2511 3984  Q 2250 4219 1831 4219  Q 1534 4219 1204 4116  Q 875 4013 500 3803  L 500 4441  Q 881 4594 1212 4672  Q 1544 4750 1819 4750  Q 2544 4750 2975 4387  Q 3406 4025 3406 3419  Q 3406 3131 3298 2873  Q 3191 2616 2906 2266  Q 2828 2175 2409 1742  Q 1991 1309 1228 531  z "
       transform="scale(0.015625)" /><path
       id="DejaVuSans-30"
       d="M 2034 4250  Q 1547 4250 1301 3770  Q 1056 3291 1056 2328  Q 1056 1369 1301 889  Q 1547 409 2034 409  Q 2525 409 2770 889  Q 3016 1369 3016 2328  Q 3016 3291 2770 3770  Q 2525 4250 2034 4250  z M 2034 4750  Q 2819 4750 3233 4129  Q 3647 3509 3647 2328  Q 3647 1150 3233 529  Q 2819 -91 2034 -91  Q 1250 -91 836 529  Q 422 1150 422 2328  Q 422 3509 836 4129  Q 1250 4750 2034 4750  z "
       transform="scale(0.015625)" /><path
       id="DejaVuSans-31"
       d="M 794 531  L 1825 531  L 1825 4091  L 703 3866  L 703 4441  L 1819 4666  L 2450 4666  L 2450 531  L 3481 531  L 3481 0  L 794 0  L 794 531  z "
       transform="scale(0.015625)" /><path
       id="DejaVuSans-45"
       d="M 628 4666  L 3578 4666  L 3578 4134  L 1259 4134  L 1259 2753  L 3481 2753  L 3481 2222  L 1259 2222  L 1259 531  L 3634 531  L 3634 0  L 628 0  L 628 4666  z "
       transform="scale(0.015625)" /><path
       id="DejaVuSans-46"
       d="M 628 4666  L 3309 4666  L 3309 4134  L 1259 4134  L 1259 2759  L 3109 2759  L 3109 2228  L 1259 2228  L 1259 0  L 628 0  L 628 4666  z "
       transform="scale(0.015625)" /><path
       id="DejaVuSans-28"
       d="M 1984 4856  Q 1566 4138 1362 3434  Q 1159 2731 1159 2009  Q 1159 1288 1364 580  Q 1569 -128 1984 -844  L 1484 -844  Q 1016 -109 783 600  Q 550 1309 550 2009  Q 550 2706 781 3412  Q 1013 4119 1484 4856  L 1984 4856  z "
       transform="scale(0.015625)" /><path
       id="DejaVuSans-65"
       d="M 3597 1894  L 3597 1613  L 953 1613  Q 991 1019 1311 708  Q 1631 397 2203 397  Q 2534 397 2845 478  Q 3156 559 3463 722  L 3463 178  Q 3153 47 2828 -22  Q 2503 -91 2169 -91  Q 1331 -91 842 396  Q 353 884 353 1716  Q 353 2575 817 3079  Q 1281 3584 2069 3584  Q 2775 3584 3186 3129  Q 3597 2675 3597 1894  z M 3022 2063  Q 3016 2534 2758 2815  Q 2500 3097 2075 3097  Q 1594 3097 1305 2825  Q 1016 2553 972 2059  L 3022 2063  z "
       transform="scale(0.015625)" /><path
       id="DejaVuSans-56"
       d="M 1831 0  L 50 4666  L 709 4666  L 2188 738  L 3669 4666  L 4325 4666  L 2547 0  L 1831 0  z "
       transform="scale(0.015625)" /><path
       id="DejaVuSans-29"
       d="M 513 4856  L 1013 4856  Q 1481 4119 1714 3412  Q 1947 2706 1947 2009  Q 1947 1309 1714 600  Q 1481 -109 1013 -844  L 513 -844  Q 928 -128 1133 580  Q 1338 1288 1338 2009  Q 1338 2731 1133 3434  Q 928 4138 513 4856  z "
       transform="scale(0.015625)" /><path
       id="mc13ca54d94"
       d="M 0 0  L -6 0  "
       style="stroke: #000000; stroke-width: 1.2" /><path
       id="DejaVuSans-33"
       d="M 2597 2516  Q 3050 2419 3304 2112  Q 3559 1806 3559 1356  Q 3559 666 3084 287  Q 2609 -91 1734 -91  Q 1441 -91 1130 -33  Q 819 25 488 141  L 488 750  Q 750 597 1062 519  Q 1375 441 1716 441  Q 2309 441 2620 675  Q 2931 909 2931 1356  Q 2931 1769 2642 2001  Q 2353 2234 1838 2234  L 1294 2234  L 1294 2753  L 1863 2753  Q 2328 2753 2575 2939  Q 2822 3125 2822 3475  Q 2822 3834 2567 4026  Q 2313 4219 1838 4219  Q 1578 4219 1281 4162  Q 984 4106 628 3988  L 628 4550  Q 988 4650 1302 4700  Q 1616 4750 1894 4750  Q 2613 4750 3031 4423  Q 3450 4097 3450 3541  Q 3450 3153 3228 2886  Q 3006 2619 2597 2516  z "
       transform="scale(0.015625)" /><path
       id="DejaVuSans-50"
       d="M 1259 4147  L 1259 2394  L 2053 2394  Q 2494 2394 2734 2622  Q 2975 2850 2975 3272  Q 2975 3691 2734 3919  Q 2494 4147 2053 4147  L 1259 4147  z M 628 4666  L 2053 4666  Q 2838 4666 3239 4311  Q 3641 3956 3641 3272  Q 3641 2581 3239 2228  Q 2838 1875 2053 1875  L 1259 1875  L 1259 0  L 628 0  L 628 4666  z "
       transform="scale(0.015625)" /><path
       id="DejaVuSans-44"
       d="M 1259 4147  L 1259 519  L 2022 519  Q 2988 519 3436 956  Q 3884 1394 3884 2338  Q 3884 3275 3436 3711  Q 2988 4147 2022 4147  L 1259 4147  z M 628 4666  L 1925 4666  Q 3281 4666 3915 4102  Q 4550 3538 4550 2338  Q 4550 1131 3912 565  Q 3275 0 1925 0  L 628 0  L 628 4666  z "
       transform="scale(0.015625)" /><path
       id="DejaVuSans-4f"
       d="M 2522 4238  Q 1834 4238 1429 3725  Q 1025 3213 1025 2328  Q 1025 1447 1429 934  Q 1834 422 2522 422  Q 3209 422 3611 934  Q 4013 1447 4013 2328  Q 4013 3213 3611 3725  Q 3209 4238 2522 4238  z M 2522 4750  Q 3503 4750 4090 4092  Q 4678 3434 4678 2328  Q 4678 1225 4090 567  Q 3503 -91 2522 -91  Q 1538 -91 948 565  Q 359 1222 359 2328  Q 359 3434 948 4092  Q 1538 4750 2522 4750  z "
       transform="scale(0.015625)" /><path
       id="DejaVuSans-53"
       d="M 3425 4513  L 3425 3897  Q 3066 4069 2747 4153  Q 2428 4238 2131 4238  Q 1616 4238 1336 4038  Q 1056 3838 1056 3469  Q 1056 3159 1242 3001  Q 1428 2844 1947 2747  L 2328 2669  Q 3034 2534 3370 2195  Q 3706 1856 3706 1288  Q 3706 609 3251 259  Q 2797 -91 1919 -91  Q 1588 -91 1214 -16  Q 841 59 441 206  L 441 856  Q 825 641 1194 531  Q 1563 422 1919 422  Q 2459 422 2753 634  Q 3047 847 3047 1241  Q 3047 1584 2836 1778  Q 2625 1972 2144 2069  L 1759 2144  Q 1053 2284 737 2584  Q 422 2884 422 3419  Q 422 4038 858 4394  Q 1294 4750 2059 4750  Q 2388 4750 2728 4690  Q 3069 4631 3425 4513  z "
       transform="scale(0.015625)" /><path
       id="DejaVuSans-20"
       transform="scale(0.015625)" /><path
       id="DejaVuSans-61"
       d="M 2194 1759  Q 1497 1759 1228 1600  Q 959 1441 959 1056  Q 959 750 1161 570  Q 1363 391 1709 391  Q 2188 391 2477 730  Q 2766 1069 2766 1631  L 2766 1759  L 2194 1759  z M 3341 1997  L 3341 0  L 2766 0  L 2766 531  Q 2569 213 2275 61  Q 1981 -91 1556 -91  Q 1019 -91 701 211  Q 384 513 384 1019  Q 384 1609 779 1909  Q 1175 2209 1959 2209  L 2766 2209  L 2766 2266  Q 2766 2663 2505 2880  Q 2244 3097 1772 3097  Q 1472 3097 1187 3025  Q 903 2953 641 2809  L 641 3341  Q 956 3463 1253 3523  Q 1550 3584 1831 3584  Q 2591 3584 2966 3190  Q 3341 2797 3341 1997  z "
       transform="scale(0.015625)" /><path
       id="DejaVuSans-72"
       d="M 2631 2963  Q 2534 3019 2420 3045  Q 2306 3072 2169 3072  Q 1681 3072 1420 2755  Q 1159 2438 1159 1844  L 1159 0  L 581 0  L 581 3500  L 1159 3500  L 1159 2956  Q 1341 3275 1631 3429  Q 1922 3584 2338 3584  Q 2397 3584 2469 3576  Q 2541 3569 2628 3553  L 2631 2963  z "
       transform="scale(0.015625)" /><path
       id="DejaVuSans-62"
       d="M 3116 1747  Q 3116 2381 2855 2742  Q 2594 3103 2138 3103  Q 1681 3103 1420 2742  Q 1159 2381 1159 1747  Q 1159 1113 1420 752  Q 1681 391 2138 391  Q 2594 391 2855 752  Q 3116 1113 3116 1747  z M 1159 2969  Q 1341 3281 1617 3432  Q 1894 3584 2278 3584  Q 2916 3584 3314 3078  Q 3713 2572 3713 1747  Q 3713 922 3314 415  Q 2916 -91 2278 -91  Q 1894 -91 1617 61  Q 1341 213 1159 525  L 1159 0  L 581 0  L 581 4863  L 1159 4863  L 1159 2969  z "
       transform="scale(0.015625)" /><path
       id="DejaVuSans-2e"
       d="M 684 794  L 1344 794  L 1344 0  L 684 0  L 684 794  z "
       transform="scale(0.015625)" /><path
       id="DejaVuSans-75"
       d="M 544 1381  L 544 3500  L 1119 3500  L 1119 1403  Q 1119 906 1312 657  Q 1506 409 1894 409  Q 2359 409 2629 706  Q 2900 1003 2900 1516  L 2900 3500  L 3475 3500  L 3475 0  L 2900 0  L 2900 538  Q 2691 219 2414 64  Q 2138 -91 1772 -91  Q 1169 -91 856 284  Q 544 659 544 1381  z M 1991 3584  L 1991 3584  z "
       transform="scale(0.015625)" /><path
       id="DejaVuSans-6e"
       d="M 3513 2113  L 3513 0  L 2938 0  L 2938 2094  Q 2938 2591 2744 2837  Q 2550 3084 2163 3084  Q 1697 3084 1428 2787  Q 1159 2491 1159 1978  L 1159 0  L 581 0  L 581 3500  L 1159 3500  L 1159 2956  Q 1366 3272 1645 3428  Q 1925 3584 2291 3584  Q 2894 3584 3203 3211  Q 3513 2838 3513 2113  z "
       transform="scale(0.015625)" /><path
       id="DejaVuSans-69"
       d="M 603 3500  L 1178 3500  L 1178 0  L 603 0  L 603 3500  z M 603 4863  L 1178 4863  L 1178 4134  L 603 4134  L 603 4863  z "
       transform="scale(0.015625)" /><path
       id="DejaVuSans-74"
       d="M 1172 4494  L 1172 3500  L 2356 3500  L 2356 3053  L 1172 3053  L 1172 1153  Q 1172 725 1289 603  Q 1406 481 1766 481  L 2356 481  L 2356 0  L 1766 0  Q 1100 0 847 248  Q 594 497 594 1153  L 594 3053  L 172 3053  L 172 3500  L 594 3500  L 594 4494  L 1172 4494  z "
       transform="scale(0.015625)" /><path
       id="DejaVuSans-73"
       d="M 2834 3397  L 2834 2853  Q 2591 2978 2328 3040  Q 2066 3103 1784 3103  Q 1356 3103 1142 2972  Q 928 2841 928 2578  Q 928 2378 1081 2264  Q 1234 2150 1697 2047  L 1894 2003  Q 2506 1872 2764 1633  Q 3022 1394 3022 966  Q 3022 478 2636 193  Q 2250 -91 1575 -91  Q 1294 -91 989 -36  Q 684 19 347 128  L 347 722  Q 666 556 975 473  Q 1284 391 1588 391  Q 1994 391 2212 530  Q 2431 669 2431 922  Q 2431 1156 2273 1281  Q 2116 1406 1581 1522  L 1381 1569  Q 847 1681 609 1914  Q 372 2147 372 2553  Q 372 3047 722 3315  Q 1072 3584 1716 3584  Q 2034 3584 2315 3537  Q 2597 3491 2834 3397  z "
       transform="scale(0.015625)" /><path
       id="DejaVuSans-70"
       d="M 1159 525  L 1159 -1331  L 581 -1331  L 581 3500  L 1159 3500  L 1159 2969  Q 1341 3281 1617 3432  Q 1894 3584 2278 3584  Q 2916 3584 3314 3078  Q 3713 2572 3713 1747  Q 3713 922 3314 415  Q 2916 -91 2278 -91  Q 1894 -91 1617 61  Q 1341 213 1159 525  z M 3116 1747  Q 3116 2381 2855 2742  Q 2594 3103 2138 3103  Q 1681 3103 1420 2742  Q 1159 2381 1159 1747  Q 1159 1113 1420 752  Q 1681 391 2138 391  Q 2594 391 2855 752  Q 3116 1113 3116 1747  z "
       transform="scale(0.015625)" /><path
       id="DejaVuSans-64"
       d="M 2906 2969  L 2906 4863  L 3481 4863  L 3481 0  L 2906 0  L 2906 525  Q 2725 213 2448 61  Q 2172 -91 1784 -91  Q 1150 -91 751 415  Q 353 922 353 1747  Q 353 2572 751 3078  Q 1150 3584 1784 3584  Q 2172 3584 2448 3432  Q 2725 3281 2906 2969  z M 947 1747  Q 947 1113 1208 752  Q 1469 391 1925 391  Q 2381 391 2643 752  Q 2906 1113 2906 1747  Q 2906 2381 2643 2742  Q 2381 3103 1925 3103  Q 1469 3103 1208 2742  Q 947 2381 947 1747  z "
       transform="scale(0.015625)" /><clipPath
       id="p5b813ad754"><rect
         x="67.275"
         y="17.316"
         width="415.125"
         height="269.4081"
         id="rect2728" /></clipPath><style
       type="text/css"
       id="style2967">*{stroke-linejoin: round; stroke-linecap: butt}</style><path
       id="mf45fb10837"
       d="M 0 0  L 0 6  "
       style="stroke: #000000; stroke-width: 1.2" /><path
       id="DejaVuSans-2212-0"
       d="M 678 2272  L 4684 2272  L 4684 1741  L 678 1741  L 678 2272  z "
       transform="scale(0.015625)" /><path
       id="DejaVuSans-32-6"
       d="M 1228 531  L 3431 531  L 3431 0  L 469 0  L 469 531  Q 828 903 1448 1529  Q 2069 2156 2228 2338  Q 2531 2678 2651 2914  Q 2772 3150 2772 3378  Q 2772 3750 2511 3984  Q 2250 4219 1831 4219  Q 1534 4219 1204 4116  Q 875 4013 500 3803  L 500 4441  Q 881 4594 1212 4672  Q 1544 4750 1819 4750  Q 2544 4750 2975 4387  Q 3406 4025 3406 3419  Q 3406 3131 3298 2873  Q 3191 2616 2906 2266  Q 2828 2175 2409 1742  Q 1991 1309 1228 531  z "
       transform="scale(0.015625)" /><path
       id="DejaVuSans-30-8"
       d="M 2034 4250  Q 1547 4250 1301 3770  Q 1056 3291 1056 2328  Q 1056 1369 1301 889  Q 1547 409 2034 409  Q 2525 409 2770 889  Q 3016 1369 3016 2328  Q 3016 3291 2770 3770  Q 2525 4250 2034 4250  z M 2034 4750  Q 2819 4750 3233 4129  Q 3647 3509 3647 2328  Q 3647 1150 3233 529  Q 2819 -91 2034 -91  Q 1250 -91 836 529  Q 422 1150 422 2328  Q 422 3509 836 4129  Q 1250 4750 2034 4750  z "
       transform="scale(0.015625)" /><path
       id="DejaVuSans-31-4"
       d="M 794 531  L 1825 531  L 1825 4091  L 703 3866  L 703 4441  L 1819 4666  L 2450 4666  L 2450 531  L 3481 531  L 3481 0  L 794 0  L 794 531  z "
       transform="scale(0.015625)" /><path
       id="DejaVuSans-45-7"
       d="M 628 4666  L 3578 4666  L 3578 4134  L 1259 4134  L 1259 2753  L 3481 2753  L 3481 2222  L 1259 2222  L 1259 531  L 3634 531  L 3634 0  L 628 0  L 628 4666  z "
       transform="scale(0.015625)" /><path
       id="DejaVuSans-46-2"
       d="M 628 4666  L 3309 4666  L 3309 4134  L 1259 4134  L 1259 2759  L 3109 2759  L 3109 2228  L 1259 2228  L 1259 0  L 628 0  L 628 4666  z "
       transform="scale(0.015625)" /><path
       id="DejaVuSans-28-2"
       d="M 1984 4856  Q 1566 4138 1362 3434  Q 1159 2731 1159 2009  Q 1159 1288 1364 580  Q 1569 -128 1984 -844  L 1484 -844  Q 1016 -109 783 600  Q 550 1309 550 2009  Q 550 2706 781 3412  Q 1013 4119 1484 4856  L 1984 4856  z "
       transform="scale(0.015625)" /><path
       id="DejaVuSans-65-6"
       d="M 3597 1894  L 3597 1613  L 953 1613  Q 991 1019 1311 708  Q 1631 397 2203 397  Q 2534 397 2845 478  Q 3156 559 3463 722  L 3463 178  Q 3153 47 2828 -22  Q 2503 -91 2169 -91  Q 1331 -91 842 396  Q 353 884 353 1716  Q 353 2575 817 3079  Q 1281 3584 2069 3584  Q 2775 3584 3186 3129  Q 3597 2675 3597 1894  z M 3022 2063  Q 3016 2534 2758 2815  Q 2500 3097 2075 3097  Q 1594 3097 1305 2825  Q 1016 2553 972 2059  L 3022 2063  z "
       transform="scale(0.015625)" /><path
       id="DejaVuSans-56-1"
       d="M 1831 0  L 50 4666  L 709 4666  L 2188 738  L 3669 4666  L 4325 4666  L 2547 0  L 1831 0  z "
       transform="scale(0.015625)" /><path
       id="DejaVuSans-29-0"
       d="M 513 4856  L 1013 4856  Q 1481 4119 1714 3412  Q 1947 2706 1947 2009  Q 1947 1309 1714 600  Q 1481 -109 1013 -844  L 513 -844  Q 928 -128 1133 580  Q 1338 1288 1338 2009  Q 1338 2731 1133 3434  Q 928 4138 513 4856  z "
       transform="scale(0.015625)" /><path
       id="m929f81d4b1"
       d="M 0 0  L -6 0  "
       style="stroke: #000000; stroke-width: 1.2" /><path
       id="DejaVuSans-2e-49"
       d="M 684 794  L 1344 794  L 1344 0  L 684 0  L 684 794  z "
       transform="scale(0.015625)" /><path
       id="DejaVuSans-38"
       d="M 2034 2216  Q 1584 2216 1326 1975  Q 1069 1734 1069 1313  Q 1069 891 1326 650  Q 1584 409 2034 409  Q 2484 409 2743 651  Q 3003 894 3003 1313  Q 3003 1734 2745 1975  Q 2488 2216 2034 2216  z M 1403 2484  Q 997 2584 770 2862  Q 544 3141 544 3541  Q 544 4100 942 4425  Q 1341 4750 2034 4750  Q 2731 4750 3128 4425  Q 3525 4100 3525 3541  Q 3525 3141 3298 2862  Q 3072 2584 2669 2484  Q 3125 2378 3379 2068  Q 3634 1759 3634 1313  Q 3634 634 3220 271  Q 2806 -91 2034 -91  Q 1263 -91 848 271  Q 434 634 434 1313  Q 434 1759 690 2068  Q 947 2378 1403 2484  z M 1172 3481  Q 1172 3119 1398 2916  Q 1625 2713 2034 2713  Q 2441 2713 2670 2916  Q 2900 3119 2900 3481  Q 2900 3844 2670 4047  Q 2441 4250 2034 4250  Q 1625 4250 1398 4047  Q 1172 3844 1172 3481  z "
       transform="scale(0.015625)" /><path
       id="DejaVuSans-36"
       d="M 2113 2584  Q 1688 2584 1439 2293  Q 1191 2003 1191 1497  Q 1191 994 1439 701  Q 1688 409 2113 409  Q 2538 409 2786 701  Q 3034 994 3034 1497  Q 3034 2003 2786 2293  Q 2538 2584 2113 2584  z M 3366 4563  L 3366 3988  Q 3128 4100 2886 4159  Q 2644 4219 2406 4219  Q 1781 4219 1451 3797  Q 1122 3375 1075 2522  Q 1259 2794 1537 2939  Q 1816 3084 2150 3084  Q 2853 3084 3261 2657  Q 3669 2231 3669 1497  Q 3669 778 3244 343  Q 2819 -91 2113 -91  Q 1303 -91 875 529  Q 447 1150 447 2328  Q 447 3434 972 4092  Q 1497 4750 2381 4750  Q 2619 4750 2861 4703  Q 3103 4656 3366 4563  z "
       transform="scale(0.015625)" /><path
       id="DejaVuSans-34"
       d="M 2419 4116  L 825 1625  L 2419 1625  L 2419 4116  z M 2253 4666  L 3047 4666  L 3047 1625  L 3713 1625  L 3713 1100  L 3047 1100  L 3047 0  L 2419 0  L 2419 1100  L 313 1100  L 313 1709  L 2253 4666  z "
       transform="scale(0.015625)" /><path
       id="DejaVuSans-50-7"
       d="M 1259 4147  L 1259 2394  L 2053 2394  Q 2494 2394 2734 2622  Q 2975 2850 2975 3272  Q 2975 3691 2734 3919  Q 2494 4147 2053 4147  L 1259 4147  z M 628 4666  L 2053 4666  Q 2838 4666 3239 4311  Q 3641 3956 3641 3272  Q 3641 2581 3239 2228  Q 2838 1875 2053 1875  L 1259 1875  L 1259 0  L 628 0  L 628 4666  z "
       transform="scale(0.015625)" /><path
       id="DejaVuSans-44-6"
       d="M 1259 4147  L 1259 519  L 2022 519  Q 2988 519 3436 956  Q 3884 1394 3884 2338  Q 3884 3275 3436 3711  Q 2988 4147 2022 4147  L 1259 4147  z M 628 4666  L 1925 4666  Q 3281 4666 3915 4102  Q 4550 3538 4550 2338  Q 4550 1131 3912 565  Q 3275 0 1925 0  L 628 0  L 628 4666  z "
       transform="scale(0.015625)" /><path
       id="DejaVuSans-4f-7"
       d="M 2522 4238  Q 1834 4238 1429 3725  Q 1025 3213 1025 2328  Q 1025 1447 1429 934  Q 1834 422 2522 422  Q 3209 422 3611 934  Q 4013 1447 4013 2328  Q 4013 3213 3611 3725  Q 3209 4238 2522 4238  z M 2522 4750  Q 3503 4750 4090 4092  Q 4678 3434 4678 2328  Q 4678 1225 4090 567  Q 3503 -91 2522 -91  Q 1538 -91 948 565  Q 359 1222 359 2328  Q 359 3434 948 4092  Q 1538 4750 2522 4750  z "
       transform="scale(0.015625)" /><path
       id="DejaVuSans-53-3"
       d="M 3425 4513  L 3425 3897  Q 3066 4069 2747 4153  Q 2428 4238 2131 4238  Q 1616 4238 1336 4038  Q 1056 3838 1056 3469  Q 1056 3159 1242 3001  Q 1428 2844 1947 2747  L 2328 2669  Q 3034 2534 3370 2195  Q 3706 1856 3706 1288  Q 3706 609 3251 259  Q 2797 -91 1919 -91  Q 1588 -91 1214 -16  Q 841 59 441 206  L 441 856  Q 825 641 1194 531  Q 1563 422 1919 422  Q 2459 422 2753 634  Q 3047 847 3047 1241  Q 3047 1584 2836 1778  Q 2625 1972 2144 2069  L 1759 2144  Q 1053 2284 737 2584  Q 422 2884 422 3419  Q 422 4038 858 4394  Q 1294 4750 2059 4750  Q 2388 4750 2728 4690  Q 3069 4631 3425 4513  z "
       transform="scale(0.015625)" /><path
       id="DejaVuSans-20-65"
       transform="scale(0.015625)" /><path
       id="DejaVuSans-61-6"
       d="M 2194 1759  Q 1497 1759 1228 1600  Q 959 1441 959 1056  Q 959 750 1161 570  Q 1363 391 1709 391  Q 2188 391 2477 730  Q 2766 1069 2766 1631  L 2766 1759  L 2194 1759  z M 3341 1997  L 3341 0  L 2766 0  L 2766 531  Q 2569 213 2275 61  Q 1981 -91 1556 -91  Q 1019 -91 701 211  Q 384 513 384 1019  Q 384 1609 779 1909  Q 1175 2209 1959 2209  L 2766 2209  L 2766 2266  Q 2766 2663 2505 2880  Q 2244 3097 1772 3097  Q 1472 3097 1187 3025  Q 903 2953 641 2809  L 641 3341  Q 956 3463 1253 3523  Q 1550 3584 1831 3584  Q 2591 3584 2966 3190  Q 3341 2797 3341 1997  z "
       transform="scale(0.015625)" /><path
       id="DejaVuSans-72-3"
       d="M 2631 2963  Q 2534 3019 2420 3045  Q 2306 3072 2169 3072  Q 1681 3072 1420 2755  Q 1159 2438 1159 1844  L 1159 0  L 581 0  L 581 3500  L 1159 3500  L 1159 2956  Q 1341 3275 1631 3429  Q 1922 3584 2338 3584  Q 2397 3584 2469 3576  Q 2541 3569 2628 3553  L 2631 2963  z "
       transform="scale(0.015625)" /><path
       id="DejaVuSans-62-9"
       d="M 3116 1747  Q 3116 2381 2855 2742  Q 2594 3103 2138 3103  Q 1681 3103 1420 2742  Q 1159 2381 1159 1747  Q 1159 1113 1420 752  Q 1681 391 2138 391  Q 2594 391 2855 752  Q 3116 1113 3116 1747  z M 1159 2969  Q 1341 3281 1617 3432  Q 1894 3584 2278 3584  Q 2916 3584 3314 3078  Q 3713 2572 3713 1747  Q 3713 922 3314 415  Q 2916 -91 2278 -91  Q 1894 -91 1617 61  Q 1341 213 1159 525  L 1159 0  L 581 0  L 581 4863  L 1159 4863  L 1159 2969  z "
       transform="scale(0.015625)" /><path
       id="DejaVuSans-75-4"
       d="M 544 1381  L 544 3500  L 1119 3500  L 1119 1403  Q 1119 906 1312 657  Q 1506 409 1894 409  Q 2359 409 2629 706  Q 2900 1003 2900 1516  L 2900 3500  L 3475 3500  L 3475 0  L 2900 0  L 2900 538  Q 2691 219 2414 64  Q 2138 -91 1772 -91  Q 1169 -91 856 284  Q 544 659 544 1381  z M 1991 3584  L 1991 3584  z "
       transform="scale(0.015625)" /><path
       id="DejaVuSans-6e-8"
       d="M 3513 2113  L 3513 0  L 2938 0  L 2938 2094  Q 2938 2591 2744 2837  Q 2550 3084 2163 3084  Q 1697 3084 1428 2787  Q 1159 2491 1159 1978  L 1159 0  L 581 0  L 581 3500  L 1159 3500  L 1159 2956  Q 1366 3272 1645 3428  Q 1925 3584 2291 3584  Q 2894 3584 3203 3211  Q 3513 2838 3513 2113  z "
       transform="scale(0.015625)" /><path
       id="DejaVuSans-69-1"
       d="M 603 3500  L 1178 3500  L 1178 0  L 603 0  L 603 3500  z M 603 4863  L 1178 4863  L 1178 4134  L 603 4134  L 603 4863  z "
       transform="scale(0.015625)" /><path
       id="DejaVuSans-74-2"
       d="M 1172 4494  L 1172 3500  L 2356 3500  L 2356 3053  L 1172 3053  L 1172 1153  Q 1172 725 1289 603  Q 1406 481 1766 481  L 2356 481  L 2356 0  L 1766 0  Q 1100 0 847 248  Q 594 497 594 1153  L 594 3053  L 172 3053  L 172 3500  L 594 3500  L 594 4494  L 1172 4494  z "
       transform="scale(0.015625)" /><path
       id="DejaVuSans-73-93"
       d="M 2834 3397  L 2834 2853  Q 2591 2978 2328 3040  Q 2066 3103 1784 3103  Q 1356 3103 1142 2972  Q 928 2841 928 2578  Q 928 2378 1081 2264  Q 1234 2150 1697 2047  L 1894 2003  Q 2506 1872 2764 1633  Q 3022 1394 3022 966  Q 3022 478 2636 193  Q 2250 -91 1575 -91  Q 1294 -91 989 -36  Q 684 19 347 128  L 347 722  Q 666 556 975 473  Q 1284 391 1588 391  Q 1994 391 2212 530  Q 2431 669 2431 922  Q 2431 1156 2273 1281  Q 2116 1406 1581 1522  L 1381 1569  Q 847 1681 609 1914  Q 372 2147 372 2553  Q 372 3047 722 3315  Q 1072 3584 1716 3584  Q 2034 3584 2315 3537  Q 2597 3491 2834 3397  z "
       transform="scale(0.015625)" /><path
       id="DejaVuSans-70-1"
       d="M 1159 525  L 1159 -1331  L 581 -1331  L 581 3500  L 1159 3500  L 1159 2969  Q 1341 3281 1617 3432  Q 1894 3584 2278 3584  Q 2916 3584 3314 3078  Q 3713 2572 3713 1747  Q 3713 922 3314 415  Q 2916 -91 2278 -91  Q 1894 -91 1617 61  Q 1341 213 1159 525  z M 3116 1747  Q 3116 2381 2855 2742  Q 2594 3103 2138 3103  Q 1681 3103 1420 2742  Q 1159 2381 1159 1747  Q 1159 1113 1420 752  Q 1681 391 2138 391  Q 2594 391 2855 752  Q 3116 1113 3116 1747  z "
       transform="scale(0.015625)" /><path
       id="DejaVuSans-64-8"
       d="M 2906 2969  L 2906 4863  L 3481 4863  L 3481 0  L 2906 0  L 2906 525  Q 2725 213 2448 61  Q 2172 -91 1784 -91  Q 1150 -91 751 415  Q 353 922 353 1747  Q 353 2572 751 3078  Q 1150 3584 1784 3584  Q 2172 3584 2448 3432  Q 2725 3281 2906 2969  z M 947 1747  Q 947 1113 1208 752  Q 1469 391 1925 391  Q 2381 391 2643 752  Q 2906 1113 2906 1747  Q 2906 2381 2643 2742  Q 2381 3103 1925 3103  Q 1469 3103 1208 2742  Q 947 2381 947 1747  z "
       transform="scale(0.015625)" /><clipPath
       id="p423e94f7d4"><rect
         x="86.4"
         y="18.767861"
         width="396"
         height="267.956239"
         id="rect3255" /></clipPath></defs><defs
     id="defs324"><clipPath
       id="p04b4e47dfd"><rect
         x="67.275"
         y="17.316"
         width="559.125"
         height="269.4081"
         id="rect321" /></clipPath></defs><g
     id="g1188"><g
       id="figure_1" /><g
       id="g1148"><g
         id="legend_1" /><g
         id="g2255"><g
           id="patch_1"
           transform="matrix(2.2752804,0,0,2.2752804,-344.10638,-224.83661)"><path
             d="M 0,346.32 H 648 V -18.875873 H 0 Z"
             style="fill:#ffffff;stroke-width:1.02689"
             id="path480" /></g><path
           d="M -191.03689,427.54111 H 1081.1293 V -185.43785 H -191.03689 Z"
           style="fill:#ffffff;stroke-width:2.27528"
           id="path483" /><g
           id="xtick_1-5"
           transform="matrix(2.2752804,0,0,2.2752804,-344.10638,-224.83661)"><g
             id="line2d_1-3"><defs
               id="defs487"><path
                 id="path818"
                 d="M 0,0 V 6"
                 style="stroke:#000000;stroke-width:1.2" /></defs><g
               id="g491"><use
                 xlink:href="#m797f07c795"
                 x="94.108459"
                 y="286.72409"
                 style="stroke:#000000;stroke-width:1.2"
                 id="use489" /></g></g><g
             id="text_1-5"><!-- −20 --><g
               transform="matrix(0.2,0,0,-0.2,73.003774,311.42097)"
               id="g505"><defs
                 id="defs497"><path
                   id="path824"
                   d="M 678,2272 H 4684 V 1741 H 678 Z"
                   transform="scale(0.015625)" /><path
                   id="path826"
                   d="M 1228,531 H 3431 V 0 H 469 v 531 q 359,372 979,998 621,627 780,809 303,340 423,576 121,236 121,464 0,372 -261,606 -261,235 -680,235 -297,0 -627,-103 -329,-103 -704,-313 v 638 q 381,153 712,231 332,78 607,78 725,0 1156,-363 431,-362 431,-968 0,-288 -108,-546 -107,-257 -392,-607 -78,-91 -497,-524 Q 1991,1309 1228,531 Z"
                   transform="scale(0.015625)" /><path
                   id="path828"
                   d="m 2034,4250 q -487,0 -733,-480 -245,-479 -245,-1442 0,-959 245,-1439 246,-480 733,-480 491,0 736,480 246,480 246,1439 0,963 -246,1442 -245,480 -736,480 z m 0,500 q 785,0 1199,-621 414,-620 414,-1801 0,-1178 -414,-1799 -414,-620 -1199,-620 -784,0 -1198,620 -414,621 -414,1799 0,1181 414,1801 414,621 1198,621 z"
                   transform="scale(0.015625)" /></defs><use
                 xlink:href="#DejaVuSans-2212-6"
                 id="use499" /><use
                 xlink:href="#DejaVuSans-32-2"
                 x="83.789062"
                 id="use501" /><use
                 xlink:href="#DejaVuSans-30-9"
                 x="147.41211"
                 id="use503" /></g></g></g><g
           id="xtick_2-1"
           transform="matrix(2.2752804,0,0,2.2752804,-344.10638,-224.83661)"><g
             id="line2d_2-2"><g
               id="g511"><use
                 xlink:href="#m797f07c795"
                 x="161.86659"
                 y="286.72409"
                 style="stroke:#000000;stroke-width:1.2"
                 id="use509" /></g></g><g
             id="text_2-7"><!-- −15 --><g
               transform="matrix(0.2,0,0,-0.2,140.76191,311.42097)"
               id="g524"><defs
                 id="defs516"><path
                   id="path840"
                   d="M 794,531 H 1825 V 4091 L 703,3866 v 575 l 1116,225 h 631 V 531 H 3481 V 0 H 794 Z"
                   transform="scale(0.015625)" /><path
                   id="path842"
                   d="M 691,4666 H 3169 V 4134 H 1269 V 2991 q 137,47 274,70 138,23 276,23 781,0 1237,-428 457,-428 457,-1159 Q 3513,744 3044,326 2575,-91 1722,-91 1428,-91 1123,-41 819,9 494,109 v 635 q 281,-153 581,-228 300,-75 634,-75 541,0 856,284 316,284 316,772 0,487 -316,771 -315,285 -856,285 -253,0 -505,-56 -251,-56 -513,-175 z"
                   transform="scale(0.015625)" /></defs><use
                 xlink:href="#DejaVuSans-2212-6"
                 id="use518" /><use
                 xlink:href="#DejaVuSans-31-0"
                 x="83.789062"
                 id="use520" /><use
                 xlink:href="#DejaVuSans-35-9"
                 x="147.41211"
                 id="use522" /></g></g></g><g
           id="xtick_3-3"
           transform="matrix(2.2752804,0,0,2.2752804,-344.10638,-224.83661)"><g
             id="line2d_3-6"><g
               id="g530"><use
                 xlink:href="#m797f07c795"
                 x="229.62474"
                 y="286.72409"
                 style="stroke:#000000;stroke-width:1.2"
                 id="use528" /></g></g><g
             id="text_3-0"><!-- −10 --><g
               transform="matrix(0.2,0,0,-0.2,208.52005,311.42097)"
               id="g539"><use
                 xlink:href="#DejaVuSans-2212-6"
                 id="use533" /><use
                 xlink:href="#DejaVuSans-31-0"
                 x="83.789062"
                 id="use535" /><use
                 xlink:href="#DejaVuSans-30-9"
                 x="147.41211"
                 id="use537" /></g></g></g><g
           id="xtick_4-6"
           transform="matrix(2.2752804,0,0,2.2752804,-344.10638,-224.83661)"><g
             id="line2d_4-2"><g
               id="g545"><use
                 xlink:href="#m797f07c795"
                 x="297.38287"
                 y="286.72409"
                 style="stroke:#000000;stroke-width:1.2"
                 id="use543" /></g></g><g
             id="text_4-6"><!-- −5 --><g
               transform="matrix(0.2,0,0,-0.2,282.64069,311.42097)"
               id="g552"><use
                 xlink:href="#DejaVuSans-2212-6"
                 id="use548" /><use
                 xlink:href="#DejaVuSans-35-9"
                 x="83.789062"
                 id="use550" /></g></g></g><g
           id="xtick_5-1"
           transform="matrix(2.2752804,0,0,2.2752804,-344.10638,-224.83661)"><g
             id="line2d_5-8"><g
               id="g558"><use
                 xlink:href="#m797f07c795"
                 x="365.14102"
                 y="286.72409"
                 style="stroke:#000000;stroke-width:1.2"
                 id="use556" /></g></g><g
             id="text_5-7"><!-- 0 --><g
               transform="matrix(0.2,0,0,-0.2,358.77852,311.42097)"
               id="g563"><use
                 xlink:href="#DejaVuSans-30-9"
                 id="use561" /></g></g></g><g
           id="xtick_6-9"
           transform="matrix(2.2752804,0,0,2.2752804,-344.10638,-224.83661)"><g
             id="line2d_6-2"><g
               id="g569"><use
                 xlink:href="#m797f07c795"
                 x="432.89917"
                 y="286.72409"
                 style="stroke:#000000;stroke-width:1.2"
                 id="use567" /></g></g><g
             id="text_6-0"><!-- 5 --><g
               transform="matrix(0.2,0,0,-0.2,426.53665,311.42097)"
               id="g574"><use
                 xlink:href="#DejaVuSans-35-9"
                 id="use572" /></g></g></g><g
           id="xtick_7-2"
           transform="matrix(2.2752804,0,0,2.2752804,-344.10638,-224.83661)"><g
             id="line2d_7-3"><g
               id="g580"><use
                 xlink:href="#m797f07c795"
                 x="500.65729"
                 y="286.72409"
                 style="stroke:#000000;stroke-width:1.2"
                 id="use578" /></g></g><g
             id="text_7-7"><!-- 10 --><g
               transform="matrix(0.2,0,0,-0.2,487.93229,311.42097)"
               id="g587"><use
                 xlink:href="#DejaVuSans-31-0"
                 id="use583" /><use
                 xlink:href="#DejaVuSans-30-9"
                 x="63.623047"
                 id="use585" /></g></g></g><g
           id="xtick_8-5"
           transform="matrix(2.2752804,0,0,2.2752804,-344.10638,-224.83661)"><g
             id="line2d_8-9"><g
               id="g593"><use
                 xlink:href="#m797f07c795"
                 x="568.41541"
                 y="286.72409"
                 style="stroke:#000000;stroke-width:1.2"
                 id="use591" /></g></g><g
             id="text_8-2"><!-- 15 --><g
               transform="matrix(0.2,0,0,-0.2,555.69043,311.42097)"
               id="g600"><use
                 xlink:href="#DejaVuSans-31-0"
                 id="use596" /><use
                 xlink:href="#DejaVuSans-35-9"
                 x="63.623047"
                 id="use598" /></g></g></g><g
           id="text_9-2"
           transform="matrix(2.2752804,0,0,2.2752804,-344.10638,-224.83661)"><!-- $\mathrm{E - E_F\ (eV)}$ --><g
             transform="matrix(0.2,0,0,-0.2,293.4375,334.77722)"
             id="g628"><defs
               id="defs610"><path
                 id="path898"
                 d="M 628,4666 H 3578 V 4134 H 1259 V 2753 H 3481 V 2222 H 1259 V 531 H 3634 V 0 H 628 Z"
                 transform="scale(0.015625)" /><path
                 id="path900"
                 d="M 628,4666 H 3309 V 4134 H 1259 V 2759 H 3109 V 2228 H 1259 V 0 H 628 Z"
                 transform="scale(0.015625)" /><path
                 id="path902"
                 d="m 1984,4856 q -418,-718 -622,-1422 -203,-703 -203,-1425 0,-721 205,-1429 205,-708 620,-1424 h -500 q -468,735 -701,1444 -233,709 -233,1409 0,697 231,1403 232,707 703,1444 z"
                 transform="scale(0.015625)" /><path
                 id="path904"
                 d="M 3597,1894 V 1613 H 953 q 38,-594 358,-905 320,-311 892,-311 331,0 642,81 311,81 618,244 V 178 Q 3153,47 2828,-22 2503,-91 2169,-91 1331,-91 842,396 353,884 353,1716 q 0,859 464,1363 464,505 1252,505 706,0 1117,-455 411,-454 411,-1235 z m -575,169 q -6,471 -264,752 -258,282 -683,282 -481,0 -770,-272 -289,-272 -333,-766 z"
                 transform="scale(0.015625)" /><path
                 id="path906"
                 d="M 1831,0 50,4666 H 709 L 2188,738 3669,4666 h 656 L 2547,0 Z"
                 transform="scale(0.015625)" /><path
                 id="path908"
                 d="m 513,4856 h 500 q 468,-737 701,-1444 233,-706 233,-1403 0,-700 -233,-1409 -233,-709 -701,-1444 H 513 q 415,716 620,1424 205,708 205,1429 0,722 -205,1425 -205,704 -620,1422 z"
                 transform="scale(0.015625)" /></defs><use
               xlink:href="#DejaVuSans-45-8"
               transform="translate(0,0.125)"
               id="use612" /><use
               xlink:href="#DejaVuSans-2212-6"
               transform="translate(82.666016,0.125)"
               id="use614" /><use
               xlink:href="#DejaVuSans-45-8"
               transform="translate(185.9375,0.125)"
               id="use616" /><use
               xlink:href="#DejaVuSans-46-9"
               transform="matrix(0.7,0,0,0.7,250.07812,-16.28125)"
               id="use618" /><use
               xlink:href="#DejaVuSans-28-7"
               transform="translate(325.54655,0.125)"
               id="use620" /><use
               xlink:href="#DejaVuSans-65-3"
               transform="translate(364.56022,0.125)"
               id="use622" /><use
               xlink:href="#DejaVuSans-56-6"
               transform="translate(426.08366,0.125)"
               id="use624" /><use
               xlink:href="#DejaVuSans-29-1"
               transform="translate(494.49186,0.125)"
               id="use626" /></g></g><g
           id="ytick_1-9"
           transform="matrix(2.2752804,0,0,2.2752804,-344.10638,-224.83661)"><g
             id="line2d_9-3"><defs
               id="defs633"><path
                 id="path922"
                 d="M 0,0 H -6"
                 style="stroke:#000000;stroke-width:1.2" /></defs><g
               id="g637"><use
                 xlink:href="#mcb728e19f6"
                 x="67.275002"
                 y="274.47827"
                 style="stroke:#000000;stroke-width:1.2"
                 id="use635" /></g></g><g
             id="text_10-1"><!-- 0 --><g
               transform="matrix(0.2,0,0,-0.2,45.05,282.07671)"
               id="g642"><use
                 xlink:href="#DejaVuSans-30-9"
                 id="use640" /></g></g></g><g
           id="ytick_2-9"
           transform="matrix(2.2752804,0,0,2.2752804,-344.10638,-224.83661)"><g
             id="line2d_10-4"><g
               id="g648"><use
                 xlink:href="#mcb728e19f6"
                 x="67.275002"
                 y="202.68051"
                 style="stroke:#000000;stroke-width:1.2"
                 id="use646" /></g></g><g
             id="text_11-7"><!-- 1 --><g
               transform="matrix(0.2,0,0,-0.2,45.05,210.27895)"
               id="g653"><use
                 xlink:href="#DejaVuSans-31-0"
                 id="use651" /></g></g></g><g
           id="ytick_3-8"
           transform="matrix(2.2752804,0,0,2.2752804,-344.10638,-224.83661)"><g
             id="line2d_11-4"><g
               id="g659"><use
                 xlink:href="#mcb728e19f6"
                 x="67.275002"
                 y="130.88275"
                 style="stroke:#000000;stroke-width:1.2"
                 id="use657" /></g></g><g
             id="text_12-5"><!-- 2 --><g
               transform="matrix(0.2,0,0,-0.2,45.05,138.48119)"
               id="g664"><use
                 xlink:href="#DejaVuSans-32-2"
                 id="use662" /></g></g></g><g
           id="ytick_4-0"
           transform="matrix(2.2752804,0,0,2.2752804,-344.10638,-224.83661)"><g
             id="line2d_12-3"><g
               id="g670"><use
                 xlink:href="#mcb728e19f6"
                 x="67.275002"
                 y="59.084984"
                 style="stroke:#000000;stroke-width:1.2"
                 id="use668" /></g></g><g
             id="text_13-6"><!-- 3 --><g
               transform="matrix(0.2,0,0,-0.2,45.05,66.683421)"
               id="g678"><defs
                 id="defs674"><path
                   id="path949"
                   d="m 2597,2516 q 453,-97 707,-404 255,-306 255,-756 0,-690 -475,-1069 -475,-378 -1350,-378 -293,0 -604,58 -311,58 -642,174 v 609 q 262,-153 574,-231 313,-78 654,-78 593,0 904,234 311,234 311,681 0,413 -289,645 -289,233 -804,233 h -544 v 519 h 569 q 465,0 712,186 247,186 247,536 0,359 -255,551 -254,193 -729,193 -260,0 -557,-57 -297,-56 -653,-174 v 562 q 360,100 674,150 314,50 592,50 719,0 1137,-327 419,-326 419,-882 0,-388 -222,-655 -222,-267 -631,-370 z"
                   transform="scale(0.015625)" /></defs><use
                 xlink:href="#DejaVuSans-33-1"
                 id="use676" /></g></g></g><g
           id="text_14-0"
           transform="matrix(2.2752804,0,0,2.2752804,-344.10638,-224.83661)"><!-- PDOS (arb. units) --><g
             transform="matrix(0,-0.2,-0.2,0,36.890625,238.47786)"
             id="g732"><defs
               id="defs696"><path
                 id="path956"
                 d="M 1259,4147 V 2394 h 794 q 441,0 681,228 241,228 241,650 0,419 -241,647 -240,228 -681,228 z m -631,519 h 1425 q 785,0 1186,-355 402,-355 402,-1039 0,-691 -402,-1044 -401,-353 -1186,-353 H 1259 V 0 H 628 Z"
                 transform="scale(0.015625)" /><path
                 id="path958"
                 d="M 1259,4147 V 519 h 763 q 966,0 1414,437 448,438 448,1382 0,937 -448,1373 -448,436 -1414,436 z m -631,519 h 1297 q 1356,0 1990,-564 635,-564 635,-1764 Q 4550,1131 3912,565 3275,0 1925,0 H 628 Z"
                 transform="scale(0.015625)" /><path
                 id="path960"
                 d="m 2522,4238 q -688,0 -1093,-513 -404,-512 -404,-1397 0,-881 404,-1394 405,-512 1093,-512 687,0 1089,512 402,513 402,1394 0,885 -402,1397 -402,513 -1089,513 z m 0,512 q 981,0 1568,-658 588,-658 588,-1764 0,-1103 -588,-1761 -587,-658 -1568,-658 -984,0 -1574,656 -589,657 -589,1763 0,1106 589,1764 590,658 1574,658 z"
                 transform="scale(0.015625)" /><path
                 id="path962"
                 d="m 3425,4513 v -616 q -359,172 -678,256 -319,85 -616,85 -515,0 -795,-200 -280,-200 -280,-569 0,-310 186,-468 186,-157 705,-254 l 381,-78 q 706,-135 1042,-474 336,-339 336,-907 0,-679 -455,-1029 -454,-350 -1332,-350 -331,0 -705,75 -373,75 -773,222 v 650 q 384,-215 753,-325 369,-109 725,-109 540,0 834,212 294,213 294,607 0,343 -211,537 -211,194 -692,291 l -385,75 q -706,140 -1022,440 -315,300 -315,835 0,619 436,975 436,356 1201,356 329,0 669,-60 341,-59 697,-177 z"
                 transform="scale(0.015625)" /><path
                 id="path964"
                 transform="scale(0.015625)"
                 d="" /><path
                 id="path966"
                 d="m 2194,1759 q -697,0 -966,-159 -269,-159 -269,-544 0,-306 202,-486 202,-179 548,-179 479,0 768,339 289,339 289,901 v 128 z m 1147,238 V 0 H 2766 V 531 Q 2569,213 2275,61 1981,-91 1556,-91 q -537,0 -855,302 -317,302 -317,808 0,590 395,890 396,300 1180,300 h 807 v 57 q 0,397 -261,614 -261,217 -733,217 -300,0 -585,-72 -284,-72 -546,-216 v 532 q 315,122 612,182 297,61 578,61 760,0 1135,-394 375,-393 375,-1193 z"
                 transform="scale(0.015625)" /><path
                 id="path968"
                 d="m 2631,2963 q -97,56 -211,82 -114,27 -251,27 -488,0 -749,-317 -261,-317 -261,-911 V 0 H 581 v 3500 h 578 v -544 q 182,319 472,473 291,155 707,155 59,0 131,-8 72,-7 159,-23 z"
                 transform="scale(0.015625)" /><path
                 id="path970"
                 d="m 3116,1747 q 0,634 -261,995 -261,361 -717,361 -457,0 -718,-361 -261,-361 -261,-995 0,-634 261,-995 261,-361 718,-361 456,0 717,361 261,361 261,995 z M 1159,2969 q 182,312 458,463 277,152 661,152 638,0 1036,-506 399,-506 399,-1331 Q 3713,922 3314,415 2916,-91 2278,-91 1894,-91 1617,61 1341,213 1159,525 V 0 H 581 v 4863 h 578 z"
                 transform="scale(0.015625)" /><path
                 id="path972"
                 d="m 684,794 h 660 V 0 H 684 Z"
                 transform="scale(0.015625)" /><path
                 id="path974"
                 d="m 544,1381 v 2119 h 575 V 1403 q 0,-497 193,-746 194,-248 582,-248 465,0 735,297 271,297 271,810 v 1984 h 575 V 0 H 2900 V 538 Q 2691,219 2414,64 2138,-91 1772,-91 1169,-91 856,284 544,659 544,1381 Z m 1447,2203 z"
                 transform="scale(0.015625)" /><path
                 id="path976"
                 d="M 3513,2113 V 0 h -575 v 2094 q 0,497 -194,743 -194,247 -581,247 -466,0 -735,-297 -269,-296 -269,-809 V 0 H 581 v 3500 h 578 v -544 q 207,316 486,472 280,156 646,156 603,0 912,-373 310,-373 310,-1098 z"
                 transform="scale(0.015625)" /><path
                 id="path978"
                 d="m 603,3500 h 575 V 0 H 603 Z m 0,1363 h 575 V 4134 H 603 Z"
                 transform="scale(0.015625)" /><path
                 id="path980"
                 d="M 1172,4494 V 3500 H 2356 V 3053 H 1172 V 1153 q 0,-428 117,-550 117,-122 477,-122 h 590 V 0 H 1766 Q 1100,0 847,248 594,497 594,1153 V 3053 H 172 v 447 h 422 v 994 z"
                 transform="scale(0.015625)" /><path
                 id="path982"
                 d="m 2834,3397 v -544 q -243,125 -506,187 -262,63 -544,63 -428,0 -642,-131 -214,-131 -214,-394 0,-200 153,-314 153,-114 616,-217 l 197,-44 q 612,-131 870,-370 258,-239 258,-667 0,-488 -386,-773 Q 2250,-91 1575,-91 1294,-91 989,-36 684,19 347,128 v 594 q 319,-166 628,-249 309,-82 613,-82 406,0 624,139 219,139 219,392 0,234 -158,359 -157,125 -692,241 l -200,47 q -534,112 -772,345 -237,233 -237,639 0,494 350,762 350,269 994,269 318,0 599,-47 282,-46 519,-140 z"
                 transform="scale(0.015625)" /></defs><use
               xlink:href="#DejaVuSans-50-6"
               id="use698" /><use
               xlink:href="#DejaVuSans-44-3"
               x="60.302734"
               id="use700" /><use
               xlink:href="#DejaVuSans-4f-2"
               x="137.30469"
               id="use702" /><use
               xlink:href="#DejaVuSans-53-0"
               x="216.01562"
               id="use704" /><use
               xlink:href="#DejaVuSans-20-6"
               x="279.49219"
               id="use706" /><use
               xlink:href="#DejaVuSans-28-7"
               x="311.2793"
               id="use708" /><use
               xlink:href="#DejaVuSans-61-1"
               x="350.29297"
               id="use710" /><use
               xlink:href="#DejaVuSans-72-5"
               x="411.57227"
               id="use712" /><use
               xlink:href="#DejaVuSans-62-5"
               x="452.68555"
               id="use714" /><use
               xlink:href="#DejaVuSans-2e-4"
               x="516.16211"
               id="use716" /><use
               xlink:href="#DejaVuSans-20-6"
               x="547.94922"
               id="use718" /><use
               xlink:href="#DejaVuSans-75-7"
               x="579.73633"
               id="use720" /><use
               xlink:href="#DejaVuSans-6e-6"
               x="643.11523"
               id="use722" /><use
               xlink:href="#DejaVuSans-69-5"
               x="706.49414"
               id="use724" /><use
               xlink:href="#DejaVuSans-74-6"
               x="734.27734"
               id="use726" /><use
               xlink:href="#DejaVuSans-73-9"
               x="773.48633"
               id="use728" /><use
               xlink:href="#DejaVuSans-29-1"
               x="825.58594"
               id="use730" /></g></g><path
           d="m 92.689773,274.47828 21.867637,-0.0777 0.50855,-0.23083 0.25428,-0.27474 0.25427,-0.48128 0.25427,-0.81123 0.25428,-1.3151 0.25427,-2.04935 0.50855,-7.47613 0.50855,-14.08869 0.50855,-22.27565 1.52565,-80.34874 0.25428,-5.06523 0.25427,-0.42866 0.25428,4.2524 0.50855,20.39193 1.52565,81.80332 0.50855,14.79372 0.50855,7.9716 0.50855,3.64011 0.50855,1.41827 0.50855,0.4736 0.76282,0.15874 3.0513,0.0196 151.29354,-0.0756 0.50855,-0.23425 0.25428,-0.2852 0.25427,-0.50819 0.25428,-0.87145 0.25427,-1.43755 0.25428,-2.2801 0.25427,-3.47519 0.50855,-12.22717 0.50855,-21.97637 0.50855,-33.00091 1.27138,-93.33251 0.25427,-9.428315 0.25427,-3.410912 0.25428,2.95931 0.25427,9.023167 0.50855,32.13014 1.27138,94.06598 0.50855,22.36957 0.50855,12.52298 0.50855,5.92899 0.50855,2.3921 0.50855,0.82645 0.50855,0.24533 1.0171,0.0765 15.51076,0.003 24.41039,-0.1091 0.50855,-0.33329 0.25428,-0.40262 0.25427,-0.71321 0.25427,-1.21578 0.25428,-1.99353 0.25427,-3.14272 0.25428,-4.76035 0.50855,-16.58042 0.50855,-29.40664 0.50855,-43.51821 1.27137,-118.793406 0.25428,-11.014986 0.25427,-3.138745 0.25428,5.062694 0.25427,12.741033 0.50855,42.84104 1.27138,120.05638 0.50855,27.7314 0.50855,15.31998 0.50855,7.16281 0.50855,2.85515 0.50854,0.97487 0.50856,0.28605 1.01709,0.0881 13.73085,0.004 2.79702,-0.0728 0.50855,-0.23533 0.25428,-0.29307 0.25427,-0.53119 0.25427,-0.92671 0.25428,-1.55553 0.25427,-2.51113 0.25428,-3.89647 0.50855,-14.11583 0.50855,-26.36054 0.50855,-41.27039 1.52565,-144.814725 0.25427,-8.332692 0.25428,0.144888 0.25427,8.607432 0.50855,38.353418 1.52565,147.876669 0.50855,26.12225 0.50855,13.94838 0.50855,6.31444 0.50855,2.43976 0.50855,0.80807 0.50855,0.23013 1.0171,0.0684 18.56206,0.003 68.90849,-0.0594 0.50855,-0.16876 0.25428,-0.19592 0.25427,-0.33683 0.25428,-0.55712 0.25427,-0.88602 0.25428,-1.35411 0.50855,-4.78552 0.50855,-8.65158 0.50855,-13.075 1.27137,-37.55116 0.25428,-3.92758 0.25427,-1.53676 0.25427,1.01286 0.25428,3.45757 0.50855,12.65898 1.27137,37.80772 0.50855,9.10775 0.50855,5.12873 0.50855,2.44169 0.50855,0.99038 0.50855,0.34396 0.76283,0.12037 3.55984,0.0158 23.13902,-0.10175 0.50855,-0.2765 0.25427,-0.31354 0.25428,-0.52969 0.25427,-0.86065 0.25428,-1.34428 0.50855,-4.92253 0.50855,-9.32216 0.50855,-14.81784 1.52564,-54.24537 0.25428,-3.579 0.25428,-0.47346 0.25427,2.68121 0.50855,13.44439 1.52565,55.14437 0.50855,10.10095 0.50855,5.46991 0.50855,2.50952 0.50855,0.98221 0.50855,0.32945 0.76282,0.11097 4.0684,0.0138 34.58138,-0.0917 0.50855,-0.26685 0.25428,-0.314 0.25427,-0.54537 0.25428,-0.91134 0.25427,-1.4645 0.25428,-2.26196 0.50854,-8.13287 0.50855,-15.0388 0.50855,-23.29435 1.27138,-70.9298 0.25427,-8.37527 0.25428,-4.08147 0.25427,0.63221 0.25428,5.28024 0.50855,21.96097 1.27137,71.11672 0.50855,17.7937 0.50855,9.55976 0.25428,2.12234 0.25427,0.52781 0.25428,-1.06202 0.25427,-2.77463 0.25428,-4.72441 0.50855,-16.52804 0.50855,-27.40671 1.77992,-115.23764 0.25428,-2.392528 0.25427,3.776158 0.25427,9.55467 0.50855,32.18536 1.27138,90.32525 0.50855,20.88428 0.50855,11.54249 0.50855,5.39893 0.50855,2.15293 0.50855,0.7354 0.50855,0.21586 1.0171,0.0665 3.55984,-0.0511 0.50855,-0.17239 0.25428,-0.21389 0.25427,-0.3866 0.25428,-0.67254 0.25427,-1.1257 0.25428,-1.81198 0.25427,-2.80337 0.50855,-10.10732 0.50855,-18.75719 0.50855,-29.1678 1.52565,-100.40715 0.25428,-5.39167 0.25427,0.5435 0.25428,6.42229 0.50855,27.36126 1.52564,102.75779 0.50855,17.86327 0.50856,9.4791 0.50855,4.26584 0.50854,1.63879 0.50855,0.53976 0.50855,0.15287 1.52565,0.0466 20.08772,2.6e-4 v 0"
           clip-path="url(#p0bbe8134c3)"
           style="fill:none;stroke:#243c6e;stroke-width:2.5;stroke-linecap:square"
           id="path736"
           transform="matrix(2.2752804,0,0,2.2752804,-344.10638,-224.83661)" /><path
           d="m 92.689773,274.47828 21.867637,-0.0867 0.50855,-0.25777 0.25428,-0.30679 0.25427,-0.53743 0.25427,-0.90587 0.25428,-1.46852 0.25427,-2.28843 0.50855,-8.3483 0.50855,-15.7323 0.50855,-24.87435 1.52565,-89.72233 0.25428,-5.65614 0.25427,-0.47867 0.25428,4.74848 0.50855,22.77088 1.52565,91.3466 0.50855,16.51958 0.50855,8.90158 0.50855,4.06477 0.50855,1.58372 0.50855,0.52886 0.50854,0.15182 1.52565,0.047 152.31065,-0.004 1.0171,-0.0847 0.50855,-0.24998 0.25427,-0.2892 0.25428,-0.49593 0.25427,-0.81807 0.25428,-1.29756 0.25427,-1.97765 0.50855,-6.95821 0.50855,-12.50625 0.50855,-18.78007 1.27138,-53.11342 0.25427,-5.36544 0.25427,-1.94107 0.25428,1.68408 0.25427,5.13488 0.50855,18.28453 1.27138,53.53082 0.50855,12.73002 0.50855,7.12654 0.50855,3.37406 0.50855,1.36128 0.50855,0.47032 0.76282,0.16366 2.79703,0.0213 38.3955,-0.0964 0.50855,-0.24316 0.25427,-0.26494 0.25428,-0.43443 0.25427,-0.68487 0.25428,-1.03738 0.50855,-3.61321 0.50855,-6.40831 0.50855,-9.4835 1.27137,-25.88752 0.25428,-2.40039 0.25427,-0.68399 0.25428,1.10326 0.25427,2.77653 0.50855,9.33594 1.27138,26.16274 0.50855,6.04324 0.50855,3.33854 0.50855,1.56092 0.50855,0.6222 0.50854,0.21244 1.01711,0.0781 12.20519,0.004 5.59405,-0.099 0.50854,-0.24014 0.50855,-0.66982 0.25428,-0.64179 0.50855,-2.32503 0.50855,-4.34187 0.50855,-6.79768 1.52565,-23.85255 0.25427,-1.37248 0.25428,0.0239 0.25427,1.41774 0.50855,6.31722 1.52565,24.35689 0.50855,4.30262 0.50855,2.29744 0.50855,1.04006 0.50855,0.40186 0.76283,0.15818 2.54274,0.0245 85.94491,-0.084 0.50855,-0.26196 0.25427,-0.32004 0.25428,-0.57175 0.25427,-0.98302 0.25428,-1.62588 0.25427,-2.58574 0.25428,-3.95178 0.50855,-13.96594 0.50855,-25.24855 0.50855,-38.15774 1.27137,-109.588307 0.25428,-11.462143 0.25427,-4.484858 0.25427,2.955918 0.25428,10.09048 0.50855,36.94364 1.27137,110.33705 0.50855,26.57982 0.50855,14.96755 0.50855,7.12575 0.50855,2.89031 0.50855,1.00379 0.50855,0.2995 1.0171,0.094 12.45947,0.004 13.22229,-0.10752 0.50855,-0.32137 0.25428,-0.38364 0.25427,-0.67354 0.25428,-1.13784 0.25427,-1.8488 0.25428,-2.88769 0.25427,-4.33305 0.50855,-14.86207 0.50855,-25.82948 0.76283,-59.07265 0.76282,-61.28619 0.50855,-21.261743 0.25428,-1.017052 0.25427,5.759606 0.50855,28.880429 1.52565,118.4578 0.50855,21.69824 0.50855,11.75013 0.50855,5.3908 0.50855,2.10993 0.50855,0.7077 0.50855,0.20406 1.27137,0.063 37.12413,-0.0216 0.76283,-0.18149 0.25427,-0.19239 0.25428,-0.34717 0.25427,-0.60299 0.25428,-1.0076 0.25427,-1.61921 0.25428,-2.5009 0.50854,-8.99198 0.50855,-16.62743 0.50855,-25.75504 1.27138,-78.42247 0.25427,-9.25998 0.25428,-4.51261 0.25427,0.69901 0.25428,5.83808 0.50855,24.28137 1.27137,78.66823 0.50855,19.79482 0.50855,10.97651 0.25428,2.79 0.25427,1.31087 0.25428,-0.0274 0.25427,-1.33028 0.25428,-2.69614 0.50855,-10.03376 0.50855,-16.91714 1.77992,-71.35534 0.25428,-1.4818 0.25427,2.33878 0.25427,5.91772 0.50855,19.93411 1.27138,55.94323 0.50855,12.93475 0.50855,7.14888 0.50855,3.34384 0.50855,1.33343 0.50855,0.45547 0.76282,0.15651 2.79702,0.0198 1.77993,-0.0749 0.50855,-0.21944 0.25427,-0.25879 0.25428,-0.45021 0.25427,-0.75354 0.25428,-1.21294 0.25427,-1.87659 0.50855,-6.76586 0.50855,-12.55611 0.50855,-19.525 1.52565,-67.21279 0.25428,-3.6092 0.25427,0.36383 0.25428,4.29909 0.50855,18.3157 1.52564,68.78631 0.50855,11.95772 0.50856,6.34533 0.50855,2.85556 0.50854,1.09702 0.50855,0.36131 0.76283,0.11929 3.81412,0.0144 h 17.54497 v 0"
           clip-path="url(#p0bbe8134c3)"
           style="fill:none;stroke:#d6c35d;stroke-width:2.49991166;stroke-linecap:square;stroke-dasharray:4.99982309,9.99964619;stroke-dashoffset:0"
           id="path739"
           transform="matrix(2.2752804,0,0,2.2752804,-344.10638,-224.83661)" /><path
           d="M 365.14102,286.7241 V 17.316"
           clip-path="url(#p0bbe8134c3)"
           style="fill:none;stroke:#000000;stroke-width:1.2;stroke-dasharray:4.44, 1.92;stroke-dashoffset:0"
           id="path742"
           transform="matrix(2.2752804,0,0,2.2752804,-344.10638,-224.83661)" /><path
           d="M -191.03689,427.54111 V -185.43785"
           style="fill:none;stroke:#000000;stroke-width:2.73034;stroke-linecap:square;stroke-linejoin:miter"
           id="path745" /><path
           d="M -191.03689,427.54111 H 1081.1293"
           style="fill:none;stroke:#000000;stroke-width:2.73034;stroke-linecap:square;stroke-linejoin:miter"
           id="path748" /><g
           id="line2d_16-4"
           transform="matrix(2.2752804,0,0,2.2752804,-1356.7226,-228.44391)"><path
             d="m 545.63062,40.893188 h 18 18"
             style="fill:none;stroke:#243c6e;stroke-width:2.5;stroke-linecap:square"
             id="path751" /></g><g
           id="text_15-7"
           transform="matrix(2.2752804,0,0,2.2752804,-1356.7226,-228.44391)"><!-- O --><g
             transform="matrix(0.18,0,0,-0.18,596.03062,47.193188)"
             id="g756"><use
               xlink:href="#DejaVuSans-4f-2"
               id="use754" /></g></g><g
           id="line2d_17-4"
           transform="matrix(2.2752804,0,0,2.2752804,-1356.7226,-228.44391)"><path
             d="m 545.63062,67.313812 h 18 18"
             style="fill:none;stroke:#d6c35d;stroke-width:2.5;stroke-linecap:square;stroke-dasharray:5,10;stroke-dashoffset:0"
             id="path759" /></g><g
           id="text_16-4"
           transform="matrix(2.2752804,0,0,2.2752804,-1356.7226,-228.44391)"><!-- H --><g
             transform="matrix(0.18,0,0,-0.18,596.03062,73.613812)"
             id="g767"><defs
               id="defs763"><path
                 id="path1022"
                 d="m 628,4666 h 631 V 2753 h 2294 v 1913 h 631 V 0 H 3553 V 2222 H 1259 V 0 H 628 Z"
                 transform="scale(0.015625)" /></defs><use
               xlink:href="#DejaVuSans-48"
               id="use765" /></g></g><text
           xml:space="preserve"
           transform="matrix(0.98074999,0,0,0.98074999,-231.392,91.725788)"
           id="text862"
           style="font-size:40px;line-height:1.25;font-family:'CMU Serif';-inkscape-font-specification:'CMU Serif, Normal';letter-spacing:0px;word-spacing:0px;white-space:pre;shape-inside:url(#rect864);display:inline;stroke-linecap:butt;stroke-linejoin:round"><tspan
             x="135.30078"
             y="-59.484375"
             id="tspan2579"><tspan
               style="font-family:sans-serif;-inkscape-font-specification:'sans-serif, Normal'"
               id="tspan2575">2a</tspan><tspan
               style="font-size:65%;baseline-shift:sub"
               id="tspan2577">1</tspan></tspan></text><text
           xml:space="preserve"
           transform="matrix(0.98074999,0,0,0.98074999,146.97055,17.192608)"
           id="text924"
           style="font-size:40px;line-height:1.25;font-family:'CMU Serif';-inkscape-font-specification:'CMU Serif, Normal';letter-spacing:0px;word-spacing:0px;white-space:pre;shape-inside:url(#rect926);display:inline;stroke-linecap:butt;stroke-linejoin:round"><tspan
             x="135.30078"
             y="-59.484375"
             id="tspan2585"><tspan
               style="font-family:sans-serif;-inkscape-font-specification:'sans-serif, Normal'"
               id="tspan2581">1b</tspan><tspan
               style="font-size:65%;baseline-shift:sub"
               id="tspan2583">2</tspan></tspan></text><text
           xml:space="preserve"
           transform="matrix(0.98074999,0,0,0.98074999,262.5386,-99.706514)"
           id="text932"
           style="font-size:40px;line-height:1.25;font-family:'CMU Serif';-inkscape-font-specification:'CMU Serif, Normal';letter-spacing:0px;word-spacing:0px;white-space:pre;shape-inside:url(#rect934);display:inline;stroke-linecap:butt;stroke-linejoin:round"><tspan
             x="135.30078"
             y="-59.484375"
             id="tspan2591"><tspan
               style="font-family:sans-serif;-inkscape-font-specification:'sans-serif, Normal'"
               id="tspan2587">3a</tspan><tspan
               style="font-size:65%;baseline-shift:sub"
               id="tspan2589">1</tspan></tspan></text><text
           xml:space="preserve"
           transform="matrix(0.98074999,0,0,0.98074999,326.32758,-148.51028)"
           id="text940"
           style="font-size:40px;line-height:1.25;font-family:'CMU Serif';-inkscape-font-specification:'CMU Serif, Normal';letter-spacing:0px;word-spacing:0px;white-space:pre;shape-inside:url(#rect942);display:inline;stroke-linecap:butt;stroke-linejoin:round"><tspan
             x="135.30078"
             y="-59.484375"
             id="tspan2597"><tspan
               style="font-family:sans-serif;-inkscape-font-specification:'sans-serif, Normal'"
               id="tspan2593">1b</tspan><tspan
               style="font-size:65%;baseline-shift:sub"
               id="tspan2595">1</tspan></tspan></text><text
           xml:space="preserve"
           transform="matrix(0.98074999,0,0,0.98074999,555.59255,-45.563896)"
           id="text948"
           style="font-size:40px;line-height:1.25;font-family:'CMU Serif';-inkscape-font-specification:'CMU Serif, Normal';letter-spacing:0px;word-spacing:0px;white-space:pre;shape-inside:url(#rect950);display:inline;stroke-linecap:butt;stroke-linejoin:round"><tspan
             x="135.30078"
             y="-59.484375"
             id="tspan2603"><tspan
               style="font-family:sans-serif;-inkscape-font-specification:'sans-serif, Normal'"
               id="tspan2599">4a</tspan><tspan
               style="font-size:65%;baseline-shift:sub"
               id="tspan2601">1</tspan></tspan></text><text
           xml:space="preserve"
           transform="matrix(0.98074999,0,0,0.98074999,639.87822,-9.3733155)"
           id="text956"
           style="font-size:40px;line-height:1.25;font-family:'CMU Serif';-inkscape-font-specification:'CMU Serif, Normal';letter-spacing:0px;word-spacing:0px;white-space:pre;shape-inside:url(#rect958);display:inline;stroke-linecap:butt;stroke-linejoin:round"><tspan
             x="135.30078"
             y="-59.484375"
             id="tspan2609"><tspan
               style="font-family:sans-serif;-inkscape-font-specification:'sans-serif, Normal'"
               id="tspan2605">2b</tspan><tspan
               style="font-size:65%;baseline-shift:sub"
               id="tspan2607">2</tspan></tspan></text><text
           xml:space="preserve"
           transform="matrix(0.98074999,0,0,0.98074999,491.94559,-22.786367)"
           id="text964"
           style="font-size:40px;line-height:1.05;font-family:'CMU Serif';-inkscape-font-specification:'CMU Serif, Normal';letter-spacing:0px;word-spacing:0px;white-space:pre;shape-inside:url(#rect966);display:inline;stroke-linecap:butt;stroke-linejoin:round"
           x="68.632812"
           y="0"><tspan
             x="380.15918"
             y="-63.484376"
             id="tspan2613"><tspan
               style="font-family:sans-serif;-inkscape-font-specification:'sans-serif, Normal';text-align:center;text-anchor:middle"
               id="tspan2611">Artificial
</tspan></tspan><tspan
             x="407.95215"
             y="-20.522367"
             id="tspan2617"><tspan
               style="font-family:sans-serif;-inkscape-font-specification:'sans-serif, Normal';text-align:center;text-anchor:middle"
               id="tspan2615">MOs</tspan></tspan></text></g></g></g></svg>
