<?xml version="1.0" encoding="UTF-8" standalone="no"?>
<svg
   width="648pt"
   height="346.32pt"
   viewBox="0 0 648 346.32"
   version="1.1"
   id="svg343"
   sodipodi:docname="04_PDOS_EPS_SCF.svg"
   inkscape:version="1.2.2 (b0a8486541, 2022-12-01)"
   xmlns:inkscape="http://www.inkscape.org/namespaces/inkscape"
   xmlns:sodipodi="http://sodipodi.sourceforge.net/DTD/sodipodi-0.dtd"
   xmlns:xlink="http://www.w3.org/1999/xlink"
   xmlns="http://www.w3.org/2000/svg"
   xmlns:svg="http://www.w3.org/2000/svg"
   xmlns:rdf="http://www.w3.org/1999/02/22-rdf-syntax-ns#"
   xmlns:cc="http://creativecommons.org/ns#"
   xmlns:dc="http://purl.org/dc/elements/1.1/">
  <sodipodi:namedview
     id="namedview345"
     pagecolor="#ffffff"
     bordercolor="#666666"
     borderopacity="1.0"
     inkscape:showpageshadow="2"
     inkscape:pageopacity="0.0"
     inkscape:pagecheckerboard="0"
     inkscape:deskcolor="#d1d1d1"
     inkscape:document-units="pt"
     showgrid="false"
     inkscape:zoom="0.511088"
     inkscape:cx="811.01493"
     inkscape:cy="406.97492"
     inkscape:window-width="1920"
     inkscape:window-height="1002"
     inkscape:window-x="1920"
     inkscape:window-y="0"
     inkscape:window-maximized="1"
     inkscape:current-layer="svg343" />
  <metadata
     id="metadata2">
    <rdf:RDF>
      <cc:Work>
        <dc:type
           rdf:resource="http://purl.org/dc/dcmitype/StillImage" />
        <dc:date>2025-12-15T14:45:21.610809</dc:date>
        <dc:format>image/svg+xml</dc:format>
        <dc:creator>
          <cc:Agent>
            <dc:title>Matplotlib v3.6.3, https://matplotlib.org/</dc:title>
          </cc:Agent>
        </dc:creator>
      </cc:Work>
    </rdf:RDF>
  </metadata>
  <defs
     id="defs6">
    <style
       type="text/css"
       id="style4">*{stroke-linejoin: round; stroke-linecap: butt}</style>
  </defs>
  <g
     id="g1242">
    <path
       d="M 0,346.32 H 648 V 0 H 0 Z"
       style="fill:#ffffff"
       id="path8" />
    <g
       id="patch_2">
      <path
         d="M 67.275,286.7241 H 626.4 V 17.316 H 67.275 Z"
         style="fill:#ffffff"
         id="path11" />
    </g>
    <g
       id="matplotlib.axis_1">
      <g
         id="xtick_1">
        <g
           id="line2d_1">
          <defs
             id="defs15">
            <path
               id="m385c464dd4"
               d="M 0,0 V 6"
               style="stroke:#000000;stroke-width:1.2" />
          </defs>
          <g
             id="g19">
            <use
               xlink:href="#m385c464dd4"
               x="67.275002"
               y="286.72409"
               style="stroke:#000000;stroke-width:1.2"
               id="use17" />
          </g>
        </g>
        <g
           id="text_1">
          <!-- −20 -->
          <g
             transform="matrix(0.2,0,0,-0.2,46.170312,311.42097)"
             id="g33">
            <defs
               id="defs25">
              <path
                 id="DejaVuSans-2212"
                 d="M 678,2272 H 4684 V 1741 H 678 Z"
                 transform="scale(0.015625)" />
              <path
                 id="DejaVuSans-32"
                 d="M 1228,531 H 3431 V 0 H 469 v 531 q 359,372 979,998 621,627 780,809 303,340 423,576 121,236 121,464 0,372 -261,606 -261,235 -680,235 -297,0 -627,-103 -329,-103 -704,-313 v 638 q 381,153 712,231 332,78 607,78 725,0 1156,-363 431,-362 431,-968 0,-288 -108,-546 -107,-257 -392,-607 -78,-91 -497,-524 Q 1991,1309 1228,531 Z"
                 transform="scale(0.015625)" />
              <path
                 id="DejaVuSans-30"
                 d="m 2034,4250 q -487,0 -733,-480 -245,-479 -245,-1442 0,-959 245,-1439 246,-480 733,-480 491,0 736,480 246,480 246,1439 0,963 -246,1442 -245,480 -736,480 z m 0,500 q 785,0 1199,-621 414,-620 414,-1801 0,-1178 -414,-1799 -414,-620 -1199,-620 -784,0 -1198,620 -414,621 -414,1799 0,1181 414,1801 414,621 1198,621 z"
                 transform="scale(0.015625)" />
            </defs>
            <use
               xlink:href="#DejaVuSans-2212"
               id="use27" />
            <use
               xlink:href="#DejaVuSans-32"
               x="83.789062"
               id="use29" />
            <use
               xlink:href="#DejaVuSans-30"
               x="147.41211"
               id="use31" />
          </g>
        </g>
      </g>
      <g
         id="xtick_2">
        <g
           id="line2d_2">
          <g
             id="g39">
            <use
               xlink:href="#m385c464dd4"
               x="154.63828"
               y="286.72409"
               style="stroke:#000000;stroke-width:1.2"
               id="use37" />
          </g>
        </g>
        <g
           id="text_2">
          <!-- −15 -->
          <g
             transform="matrix(0.2,0,0,-0.2,133.53359,311.42097)"
             id="g52">
            <defs
               id="defs44">
              <path
                 id="DejaVuSans-31"
                 d="M 794,531 H 1825 V 4091 L 703,3866 v 575 l 1116,225 h 631 V 531 H 3481 V 0 H 794 Z"
                 transform="scale(0.015625)" />
              <path
                 id="DejaVuSans-35"
                 d="M 691,4666 H 3169 V 4134 H 1269 V 2991 q 137,47 274,70 138,23 276,23 781,0 1237,-428 457,-428 457,-1159 Q 3513,744 3044,326 2575,-91 1722,-91 1428,-91 1123,-41 819,9 494,109 v 635 q 281,-153 581,-228 300,-75 634,-75 541,0 856,284 316,284 316,772 0,487 -316,771 -315,285 -856,285 -253,0 -505,-56 -251,-56 -513,-175 z"
                 transform="scale(0.015625)" />
            </defs>
            <use
               xlink:href="#DejaVuSans-2212"
               id="use46" />
            <use
               xlink:href="#DejaVuSans-31"
               x="83.789062"
               id="use48" />
            <use
               xlink:href="#DejaVuSans-35"
               x="147.41211"
               id="use50" />
          </g>
        </g>
      </g>
      <g
         id="xtick_3">
        <g
           id="line2d_3">
          <g
             id="g58">
            <use
               xlink:href="#m385c464dd4"
               x="242.00156"
               y="286.72409"
               style="stroke:#000000;stroke-width:1.2"
               id="use56" />
          </g>
        </g>
        <g
           id="text_3">
          <!-- −10 -->
          <g
             transform="matrix(0.2,0,0,-0.2,220.89687,311.42097)"
             id="g67">
            <use
               xlink:href="#DejaVuSans-2212"
               id="use61" />
            <use
               xlink:href="#DejaVuSans-31"
               x="83.789062"
               id="use63" />
            <use
               xlink:href="#DejaVuSans-30"
               x="147.41211"
               id="use65" />
          </g>
        </g>
      </g>
      <g
         id="xtick_4">
        <g
           id="line2d_4">
          <g
             id="g73">
            <use
               xlink:href="#m385c464dd4"
               x="329.36484"
               y="286.72409"
               style="stroke:#000000;stroke-width:1.2"
               id="use71" />
          </g>
        </g>
        <g
           id="text_4">
          <!-- −5 -->
          <g
             transform="matrix(0.2,0,0,-0.2,314.62266,311.42097)"
             id="g80">
            <use
               xlink:href="#DejaVuSans-2212"
               id="use76" />
            <use
               xlink:href="#DejaVuSans-35"
               x="83.789062"
               id="use78" />
          </g>
        </g>
      </g>
      <g
         id="xtick_5">
        <g
           id="line2d_5">
          <g
             id="g86">
            <use
               xlink:href="#m385c464dd4"
               x="416.72812"
               y="286.72409"
               style="stroke:#000000;stroke-width:1.2"
               id="use84" />
          </g>
        </g>
        <g
           id="text_5">
          <!-- 0 -->
          <g
             transform="matrix(0.2,0,0,-0.2,410.36563,311.42097)"
             id="g91">
            <use
               xlink:href="#DejaVuSans-30"
               id="use89" />
          </g>
        </g>
      </g>
      <g
         id="xtick_6">
        <g
           id="line2d_6">
          <g
             id="g97">
            <use
               xlink:href="#m385c464dd4"
               x="504.0914"
               y="286.72409"
               style="stroke:#000000;stroke-width:1.2"
               id="use95" />
          </g>
        </g>
        <g
           id="text_6">
          <!-- 5 -->
          <g
             transform="matrix(0.2,0,0,-0.2,497.72891,311.42097)"
             id="g102">
            <use
               xlink:href="#DejaVuSans-35"
               id="use100" />
          </g>
        </g>
      </g>
      <g
         id="xtick_7">
        <g
           id="line2d_7">
          <g
             id="g108">
            <use
               xlink:href="#m385c464dd4"
               x="591.45471"
               y="286.72409"
               style="stroke:#000000;stroke-width:1.2"
               id="use106" />
          </g>
        </g>
        <g
           id="text_7">
          <!-- 10 -->
          <g
             transform="matrix(0.2,0,0,-0.2,578.72969,311.42097)"
             id="g115">
            <use
               xlink:href="#DejaVuSans-31"
               id="use111" />
            <use
               xlink:href="#DejaVuSans-30"
               x="63.623047"
               id="use113" />
          </g>
        </g>
      </g>
      <g
         id="text_8">
        <!-- $\mathrm{E - E_F\ (eV)}$ -->
        <g
           transform="matrix(0.2,0,0,-0.2,293.4375,334.77722)"
           id="g143">
          <defs
             id="defs125">
            <path
               id="DejaVuSans-45"
               d="M 628,4666 H 3578 V 4134 H 1259 V 2753 H 3481 V 2222 H 1259 V 531 H 3634 V 0 H 628 Z"
               transform="scale(0.015625)" />
            <path
               id="DejaVuSans-46"
               d="M 628,4666 H 3309 V 4134 H 1259 V 2759 H 3109 V 2228 H 1259 V 0 H 628 Z"
               transform="scale(0.015625)" />
            <path
               id="DejaVuSans-28"
               d="m 1984,4856 q -418,-718 -622,-1422 -203,-703 -203,-1425 0,-721 205,-1429 205,-708 620,-1424 h -500 q -468,735 -701,1444 -233,709 -233,1409 0,697 231,1403 232,707 703,1444 z"
               transform="scale(0.015625)" />
            <path
               id="DejaVuSans-65"
               d="M 3597,1894 V 1613 H 953 q 38,-594 358,-905 320,-311 892,-311 331,0 642,81 311,81 618,244 V 178 Q 3153,47 2828,-22 2503,-91 2169,-91 1331,-91 842,396 353,884 353,1716 q 0,859 464,1363 464,505 1252,505 706,0 1117,-455 411,-454 411,-1235 z m -575,169 q -6,471 -264,752 -258,282 -683,282 -481,0 -770,-272 -289,-272 -333,-766 z"
               transform="scale(0.015625)" />
            <path
               id="DejaVuSans-56"
               d="M 1831,0 50,4666 H 709 L 2188,738 3669,4666 h 656 L 2547,0 Z"
               transform="scale(0.015625)" />
            <path
               id="DejaVuSans-29"
               d="m 513,4856 h 500 q 468,-737 701,-1444 233,-706 233,-1403 0,-700 -233,-1409 -233,-709 -701,-1444 H 513 q 415,716 620,1424 205,708 205,1429 0,722 -205,1425 -205,704 -620,1422 z"
               transform="scale(0.015625)" />
          </defs>
          <use
             xlink:href="#DejaVuSans-45"
             transform="translate(0,0.125)"
             id="use127" />
          <use
             xlink:href="#DejaVuSans-2212"
             transform="translate(82.666016,0.125)"
             id="use129" />
          <use
             xlink:href="#DejaVuSans-45"
             transform="translate(185.9375,0.125)"
             id="use131" />
          <use
             xlink:href="#DejaVuSans-46"
             transform="matrix(0.7,0,0,0.7,250.07812,-16.28125)"
             id="use133" />
          <use
             xlink:href="#DejaVuSans-28"
             transform="translate(325.54655,0.125)"
             id="use135" />
          <use
             xlink:href="#DejaVuSans-65"
             transform="translate(364.56022,0.125)"
             id="use137" />
          <use
             xlink:href="#DejaVuSans-56"
             transform="translate(426.08366,0.125)"
             id="use139" />
          <use
             xlink:href="#DejaVuSans-29"
             transform="translate(494.49186,0.125)"
             id="use141" />
        </g>
      </g>
    </g>
    <g
       id="matplotlib.axis_2">
      <g
         id="ytick_1">
        <g
           id="line2d_8">
          <defs
             id="defs148">
            <path
               id="m5937ad9e42"
               d="M 0,0 H -6"
               style="stroke:#000000;stroke-width:1.2" />
          </defs>
          <g
             id="g152">
            <use
               xlink:href="#m5937ad9e42"
               x="67.275002"
               y="274.47827"
               style="stroke:#000000;stroke-width:1.2"
               id="use150" />
          </g>
        </g>
        <g
           id="text_9">
          <!-- 0 -->
          <g
             transform="matrix(0.2,0,0,-0.2,45.05,282.07671)"
             id="g157">
            <use
               xlink:href="#DejaVuSans-30"
               id="use155" />
          </g>
        </g>
      </g>
      <g
         id="ytick_2">
        <g
           id="line2d_9">
          <g
             id="g163">
            <use
               xlink:href="#m5937ad9e42"
               x="67.275002"
               y="202.68051"
               style="stroke:#000000;stroke-width:1.2"
               id="use161" />
          </g>
        </g>
        <g
           id="text_10">
          <!-- 1 -->
          <g
             transform="matrix(0.2,0,0,-0.2,45.05,210.27895)"
             id="g168">
            <use
               xlink:href="#DejaVuSans-31"
               id="use166" />
          </g>
        </g>
      </g>
      <g
         id="ytick_3">
        <g
           id="line2d_10">
          <g
             id="g174">
            <use
               xlink:href="#m5937ad9e42"
               x="67.275002"
               y="130.88275"
               style="stroke:#000000;stroke-width:1.2"
               id="use172" />
          </g>
        </g>
        <g
           id="text_11">
          <!-- 2 -->
          <g
             transform="matrix(0.2,0,0,-0.2,45.05,138.48119)"
             id="g179">
            <use
               xlink:href="#DejaVuSans-32"
               id="use177" />
          </g>
        </g>
      </g>
      <g
         id="ytick_4">
        <g
           id="line2d_11">
          <g
             id="g185">
            <use
               xlink:href="#m5937ad9e42"
               x="67.275002"
               y="59.084984"
               style="stroke:#000000;stroke-width:1.2"
               id="use183" />
          </g>
        </g>
        <g
           id="text_12">
          <!-- 3 -->
          <g
             transform="matrix(0.2,0,0,-0.2,45.05,66.683421)"
             id="g193">
            <defs
               id="defs189">
              <path
                 id="DejaVuSans-33"
                 d="m 2597,2516 q 453,-97 707,-404 255,-306 255,-756 0,-690 -475,-1069 -475,-378 -1350,-378 -293,0 -604,58 -311,58 -642,174 v 609 q 262,-153 574,-231 313,-78 654,-78 593,0 904,234 311,234 311,681 0,413 -289,645 -289,233 -804,233 h -544 v 519 h 569 q 465,0 712,186 247,186 247,536 0,359 -255,551 -254,193 -729,193 -260,0 -557,-57 -297,-56 -653,-174 v 562 q 360,100 674,150 314,50 592,50 719,0 1137,-327 419,-326 419,-882 0,-388 -222,-655 -222,-267 -631,-370 z"
                 transform="scale(0.015625)" />
            </defs>
            <use
               xlink:href="#DejaVuSans-33"
               id="use191" />
          </g>
        </g>
      </g>
      <g
         id="text_13">
        <!-- PDOS (arb. units) -->
        <g
           transform="matrix(0,-0.2,-0.2,0,36.890625,238.47786)"
           id="g247">
          <defs
             id="defs211">
            <path
               id="DejaVuSans-50"
               d="M 1259,4147 V 2394 h 794 q 441,0 681,228 241,228 241,650 0,419 -241,647 -240,228 -681,228 z m -631,519 h 1425 q 785,0 1186,-355 402,-355 402,-1039 0,-691 -402,-1044 -401,-353 -1186,-353 H 1259 V 0 H 628 Z"
               transform="scale(0.015625)" />
            <path
               id="DejaVuSans-44"
               d="M 1259,4147 V 519 h 763 q 966,0 1414,437 448,438 448,1382 0,937 -448,1373 -448,436 -1414,436 z m -631,519 h 1297 q 1356,0 1990,-564 635,-564 635,-1764 Q 4550,1131 3912,565 3275,0 1925,0 H 628 Z"
               transform="scale(0.015625)" />
            <path
               id="DejaVuSans-4f"
               d="m 2522,4238 q -688,0 -1093,-513 -404,-512 -404,-1397 0,-881 404,-1394 405,-512 1093,-512 687,0 1089,512 402,513 402,1394 0,885 -402,1397 -402,513 -1089,513 z m 0,512 q 981,0 1568,-658 588,-658 588,-1764 0,-1103 -588,-1761 -587,-658 -1568,-658 -984,0 -1574,656 -589,657 -589,1763 0,1106 589,1764 590,658 1574,658 z"
               transform="scale(0.015625)" />
            <path
               id="DejaVuSans-53"
               d="m 3425,4513 v -616 q -359,172 -678,256 -319,85 -616,85 -515,0 -795,-200 -280,-200 -280,-569 0,-310 186,-468 186,-157 705,-254 l 381,-78 q 706,-135 1042,-474 336,-339 336,-907 0,-679 -455,-1029 -454,-350 -1332,-350 -331,0 -705,75 -373,75 -773,222 v 650 q 384,-215 753,-325 369,-109 725,-109 540,0 834,212 294,213 294,607 0,343 -211,537 -211,194 -692,291 l -385,75 q -706,140 -1022,440 -315,300 -315,835 0,619 436,975 436,356 1201,356 329,0 669,-60 341,-59 697,-177 z"
               transform="scale(0.015625)" />
            <path
               id="DejaVuSans-20"
               transform="scale(0.015625)"
               d="" />
            <path
               id="DejaVuSans-61"
               d="m 2194,1759 q -697,0 -966,-159 -269,-159 -269,-544 0,-306 202,-486 202,-179 548,-179 479,0 768,339 289,339 289,901 v 128 z m 1147,238 V 0 H 2766 V 531 Q 2569,213 2275,61 1981,-91 1556,-91 q -537,0 -855,302 -317,302 -317,808 0,590 395,890 396,300 1180,300 h 807 v 57 q 0,397 -261,614 -261,217 -733,217 -300,0 -585,-72 -284,-72 -546,-216 v 532 q 315,122 612,182 297,61 578,61 760,0 1135,-394 375,-393 375,-1193 z"
               transform="scale(0.015625)" />
            <path
               id="DejaVuSans-72"
               d="m 2631,2963 q -97,56 -211,82 -114,27 -251,27 -488,0 -749,-317 -261,-317 -261,-911 V 0 H 581 v 3500 h 578 v -544 q 182,319 472,473 291,155 707,155 59,0 131,-8 72,-7 159,-23 z"
               transform="scale(0.015625)" />
            <path
               id="DejaVuSans-62"
               d="m 3116,1747 q 0,634 -261,995 -261,361 -717,361 -457,0 -718,-361 -261,-361 -261,-995 0,-634 261,-995 261,-361 718,-361 456,0 717,361 261,361 261,995 z M 1159,2969 q 182,312 458,463 277,152 661,152 638,0 1036,-506 399,-506 399,-1331 Q 3713,922 3314,415 2916,-91 2278,-91 1894,-91 1617,61 1341,213 1159,525 V 0 H 581 v 4863 h 578 z"
               transform="scale(0.015625)" />
            <path
               id="DejaVuSans-2e"
               d="m 684,794 h 660 V 0 H 684 Z"
               transform="scale(0.015625)" />
            <path
               id="DejaVuSans-75"
               d="m 544,1381 v 2119 h 575 V 1403 q 0,-497 193,-746 194,-248 582,-248 465,0 735,297 271,297 271,810 v 1984 h 575 V 0 H 2900 V 538 Q 2691,219 2414,64 2138,-91 1772,-91 1169,-91 856,284 544,659 544,1381 Z m 1447,2203 z"
               transform="scale(0.015625)" />
            <path
               id="DejaVuSans-6e"
               d="M 3513,2113 V 0 h -575 v 2094 q 0,497 -194,743 -194,247 -581,247 -466,0 -735,-297 -269,-296 -269,-809 V 0 H 581 v 3500 h 578 v -544 q 207,316 486,472 280,156 646,156 603,0 912,-373 310,-373 310,-1098 z"
               transform="scale(0.015625)" />
            <path
               id="DejaVuSans-69"
               d="m 603,3500 h 575 V 0 H 603 Z m 0,1363 h 575 V 4134 H 603 Z"
               transform="scale(0.015625)" />
            <path
               id="DejaVuSans-74"
               d="M 1172,4494 V 3500 H 2356 V 3053 H 1172 V 1153 q 0,-428 117,-550 117,-122 477,-122 h 590 V 0 H 1766 Q 1100,0 847,248 594,497 594,1153 V 3053 H 172 v 447 h 422 v 994 z"
               transform="scale(0.015625)" />
            <path
               id="DejaVuSans-73"
               d="m 2834,3397 v -544 q -243,125 -506,187 -262,63 -544,63 -428,0 -642,-131 -214,-131 -214,-394 0,-200 153,-314 153,-114 616,-217 l 197,-44 q 612,-131 870,-370 258,-239 258,-667 0,-488 -386,-773 Q 2250,-91 1575,-91 1294,-91 989,-36 684,19 347,128 v 594 q 319,-166 628,-249 309,-82 613,-82 406,0 624,139 219,139 219,392 0,234 -158,359 -157,125 -692,241 l -200,47 q -534,112 -772,345 -237,233 -237,639 0,494 350,762 350,269 994,269 318,0 599,-47 282,-46 519,-140 z"
               transform="scale(0.015625)" />
          </defs>
          <use
             xlink:href="#DejaVuSans-50"
             id="use213" />
          <use
             xlink:href="#DejaVuSans-44"
             x="60.302734"
             id="use215" />
          <use
             xlink:href="#DejaVuSans-4f"
             x="137.30469"
             id="use217" />
          <use
             xlink:href="#DejaVuSans-53"
             x="216.01562"
             id="use219" />
          <use
             xlink:href="#DejaVuSans-20"
             x="279.49219"
             id="use221" />
          <use
             xlink:href="#DejaVuSans-28"
             x="311.2793"
             id="use223" />
          <use
             xlink:href="#DejaVuSans-61"
             x="350.29297"
             id="use225" />
          <use
             xlink:href="#DejaVuSans-72"
             x="411.57227"
             id="use227" />
          <use
             xlink:href="#DejaVuSans-62"
             x="452.68555"
             id="use229" />
          <use
             xlink:href="#DejaVuSans-2e"
             x="516.16211"
             id="use231" />
          <use
             xlink:href="#DejaVuSans-20"
             x="547.94922"
             id="use233" />
          <use
             xlink:href="#DejaVuSans-75"
             x="579.73633"
             id="use235" />
          <use
             xlink:href="#DejaVuSans-6e"
             x="643.11523"
             id="use237" />
          <use
             xlink:href="#DejaVuSans-69"
             x="706.49414"
             id="use239" />
          <use
             xlink:href="#DejaVuSans-74"
             x="734.27734"
             id="use241" />
          <use
             xlink:href="#DejaVuSans-73"
             x="773.48633"
             id="use243" />
          <use
             xlink:href="#DejaVuSans-29"
             x="825.58594"
             id="use245" />
        </g>
      </g>
    </g>
    <g
       id="line2d_12">
      <path
         d="m 67.085062,274.47828 26.555588,-0.0777 0.655694,-0.23083 0.327846,-0.27474 0.327847,-0.48128 0.327847,-0.81123 0.327847,-1.3151 0.327846,-2.04935 0.327847,-3.06786 0.327847,-4.40827 0.655693,-14.08869 0.655694,-22.27565 1.967081,-80.34874 0.327851,-5.06523 0.32784,-0.42866 0.32785,4.2524 0.32785,8.49633 0.65569,26.07651 1.31139,57.13062 0.65569,18.87857 0.65569,11.09288 0.6557,5.49667 0.32784,1.4291 0.32785,0.88783 0.32785,0.53044 0.65569,0.4736 0.98354,0.15874 3.93416,0.0196 195.06883,-0.0756 0.65569,-0.23425 0.32785,-0.2852 0.32784,-0.50819 0.32785,-0.87145 0.32785,-1.43755 0.32784,-2.2801 0.32785,-3.47519 0.32785,-5.08606 0.32784,-7.14111 0.6557,-21.97637 0.65569,-33.00091 1.63924,-93.33251 0.32784,-9.428315 0.32785,-3.410912 0.32784,2.95931 0.32785,9.023167 0.65569,32.13014 1.63924,94.06598 0.65569,22.36957 0.6557,12.52298 0.32784,3.576 0.32785,2.35299 0.32785,1.48772 0.32784,0.90438 0.32785,0.52885 0.65569,0.45882 0.98354,0.14682 4.26201,0.017 47.86563,-0.1091 0.65569,-0.33329 0.32785,-0.40262 0.32785,-0.71321 0.32784,-1.21578 0.32785,-1.99353 0.32785,-3.14272 0.32784,-4.76035 0.32785,-6.923 0.65569,-22.5642 0.6557,-36.6341 0.98354,-75.80894 0.65569,-48.595197 0.32785,-17.773239 0.32784,-11.014986 0.32785,-3.138745 0.32785,5.062694 0.32784,12.741033 0.6557,42.84104 1.31138,100.76474 0.6557,34.9244 0.65569,21.05895 0.6557,10.69044 0.32784,2.83204 0.32785,1.77973 0.32785,1.07542 0.32784,0.62514 0.6557,0.53809 0.65569,0.1465 1.96708,0.0426 20.3265,-0.0726 0.65569,-0.23533 0.32785,-0.29307 0.32785,-0.53119 0.32784,-0.92671 0.32785,-1.55553 0.32785,-2.51113 0.32784,-3.89647 0.32785,-5.80768 0.32785,-8.30815 0.65569,-26.36054 0.65569,-41.27039 1.96709,-144.814722 0.32784,-8.332692 0.32785,0.144888 0.32785,8.607432 0.32784,16.187328 0.6557,48.252126 1.31138,103.13417 0.6557,33.49597 0.65569,19.49704 0.65569,9.57592 0.32785,2.4726 0.32785,1.52966 0.32784,0.9101 0.32785,0.521 0.65569,0.43938 0.98354,0.13429 4.91771,0.0145 108.51727,-0.0594 0.6557,-0.16876 0.32784,-0.19592 0.32785,-0.33683 0.32785,-0.55712 0.32785,-0.88602 0.32784,-1.35411 0.32785,-1.98729 0.32784,-2.79823 0.6557,-8.65158 0.65569,-13.075 1.63924,-37.55116 0.32784,-3.92758 0.32785,-1.53676 0.32785,1.01286 0.32784,3.45757 0.6557,12.65898 1.63923,37.80772 0.65569,9.10775 0.6557,5.12873 0.65569,2.44169 0.32785,0.61533 0.65569,0.59494 0.6557,0.19145 1.63923,0.0675 32.78467,-0.0224 0.98355,-0.17588 0.32784,-0.17859 0.32785,-0.31354 0.32785,-0.52969 0.32784,-0.86065 0.32785,-1.34428 0.32785,-2.01712 0.32784,-2.90541 0.6557,-9.32216 0.65569,-14.81784 1.96708,-54.24537 0.32785,-3.579 0.32784,-0.47346 0.32785,2.68121 0.32785,5.55994 0.65569,17.35195 1.31139,38.54056 0.65569,12.85629 0.6557,7.59313 0.65569,3.78065 0.32785,0.98662 0.32784,0.61434 0.6557,0.57981 0.65569,0.18025 1.63923,0.0609 25.8999,10e-4 v 0"
         clip-path="url(#pf582455333)"
         style="fill:none;stroke:#243c6e;stroke-width:2.5;stroke-linecap:square"
         id="path251" />
    </g>
    <g
       id="line2d_13">
      <path
         d="m 67.085062,274.47828 26.555588,-0.0777 0.655694,-0.23083 0.327846,-0.27474 0.327847,-0.48128 0.327847,-0.81123 0.327847,-1.3151 0.327846,-2.04935 0.327847,-3.06786 0.327847,-4.40827 0.655693,-14.08869 0.655694,-22.27565 1.967081,-80.34874 0.327851,-5.06523 0.32784,-0.42866 0.32785,4.2524 0.32785,8.49633 0.65569,26.07651 1.31139,57.13062 0.65569,18.87857 0.65569,11.09288 0.6557,5.49667 0.32784,1.4291 0.32785,0.88783 0.32785,0.53044 0.65569,0.4736 0.98354,0.15874 3.93416,0.0196 195.06883,-0.0756 0.65569,-0.23425 0.32785,-0.2852 0.32784,-0.50819 0.32785,-0.87145 0.32785,-1.43755 0.32784,-2.2801 0.32785,-3.47519 0.32785,-5.08606 0.32784,-7.14111 0.6557,-21.97637 0.65569,-33.00091 1.63924,-93.33251 0.32784,-9.428315 0.32785,-3.410912 0.32784,2.95931 0.32785,9.023167 0.65569,32.13014 1.63924,94.06598 0.65569,22.36957 0.6557,12.52298 0.32784,3.576 0.32785,2.35299 0.32785,1.48772 0.32784,0.90438 0.32785,0.52885 0.65569,0.45882 0.98354,0.14682 4.26201,0.017 47.86563,-0.1091 0.65569,-0.33329 0.32785,-0.40262 0.32785,-0.71321 0.32784,-1.21578 0.32785,-1.99353 0.32785,-3.14272 0.32784,-4.76035 0.32785,-6.923 0.65569,-22.5642 0.6557,-36.6341 0.98354,-75.80894 0.65569,-48.595197 0.32785,-17.773239 0.32784,-11.014986 0.32785,-3.138745 0.32785,5.062694 0.32784,12.741033 0.6557,42.84104 1.31138,100.76474 0.6557,34.9244 0.65569,21.05895 0.6557,10.69044 0.32784,2.83204 0.32785,1.77973 0.32785,1.07542 0.32784,0.62514 0.6557,0.53809 0.65569,0.1465 1.96708,0.0426 20.3265,-0.0726 0.65569,-0.23533 0.32785,-0.29307 0.32785,-0.53119 0.32784,-0.92671 0.32785,-1.55553 0.32785,-2.51113 0.32784,-3.89647 0.32785,-5.80768 0.32785,-8.30815 0.65569,-26.36054 0.65569,-41.27039 1.96709,-144.814725 0.32784,-8.332692 0.32785,0.144888 0.32785,8.607432 0.32784,16.187328 0.6557,48.252129 1.31138,103.13417 0.6557,33.49597 0.65569,19.49704 0.65569,9.57592 0.32785,2.4726 0.32785,1.52966 0.32784,0.9101 0.32785,0.521 0.65569,0.43938 0.98354,0.13429 4.91771,0.0145 108.51727,-0.0594 0.6557,-0.16876 0.32784,-0.19592 0.32785,-0.33683 0.32785,-0.55712 0.32785,-0.88602 0.32784,-1.35411 0.32785,-1.98729 0.32784,-2.79823 0.6557,-8.65158 0.65569,-13.075 1.63924,-37.55116 0.32784,-3.92758 0.32785,-1.53676 0.32785,1.01286 0.32784,3.45757 0.6557,12.65898 1.63923,37.80772 0.65569,9.10775 0.6557,5.12873 0.65569,2.44169 0.32785,0.61533 0.65569,0.59494 0.6557,0.19145 1.63923,0.0675 32.78467,-0.0224 0.98355,-0.17588 0.32784,-0.17859 0.32785,-0.31354 0.32785,-0.52969 0.32784,-0.86065 0.32785,-1.34428 0.32785,-2.01712 0.32784,-2.90541 0.6557,-9.32216 0.65569,-14.81784 1.96708,-54.24537 0.32785,-3.579 0.32784,-0.47346 0.32785,2.68121 0.32785,5.55994 0.65569,17.35195 1.31139,38.54056 0.65569,12.85629 0.6557,7.59313 0.65569,3.78065 0.32785,0.98662 0.32784,0.61434 0.6557,0.57981 0.65569,0.18025 1.63923,0.0609 25.8999,10e-4 v 0"
         clip-path="url(#pf582455333)"
         style="fill:none;stroke:#7d7c78;stroke-width:2.5;stroke-linecap:square"
         id="path254" />
    </g>
    <g
       id="line2d_14">
      <path
         d="m 67.085062,274.47828 26.555588,-0.0777 0.655694,-0.23083 0.327846,-0.27474 0.327847,-0.48128 0.327847,-0.81123 0.327847,-1.3151 0.327846,-2.04935 0.327847,-3.06786 0.327847,-4.40827 0.655693,-14.08869 0.655694,-22.27565 1.967081,-80.34874 0.327851,-5.06523 0.32784,-0.42866 0.32785,4.2524 0.32785,8.49633 0.65569,26.07651 1.31139,57.13062 0.65569,18.87857 0.65569,11.09288 0.6557,5.49667 0.32784,1.4291 0.32785,0.88783 0.32785,0.53044 0.65569,0.4736 0.98354,0.15874 3.93416,0.0196 195.06883,-0.0756 0.65569,-0.23425 0.32785,-0.2852 0.32784,-0.50819 0.32785,-0.87145 0.32785,-1.43755 0.32784,-2.2801 0.32785,-3.47519 0.32785,-5.08606 0.32784,-7.14111 0.6557,-21.97637 0.65569,-33.00091 1.63924,-93.33251 0.32784,-9.428315 0.32785,-3.410912 0.32784,2.95931 0.32785,9.023167 0.65569,32.13014 1.63924,94.06598 0.65569,22.36957 0.6557,12.52298 0.32784,3.576 0.32785,2.35299 0.32785,1.48772 0.32784,0.90438 0.32785,0.52885 0.65569,0.45882 0.98354,0.14682 4.26201,0.017 47.86563,-0.1091 0.65569,-0.33329 0.32785,-0.40262 0.32785,-0.71321 0.32784,-1.21578 0.32785,-1.99353 0.32785,-3.14272 0.32784,-4.76035 0.32785,-6.923 0.65569,-22.5642 0.6557,-36.6341 0.98354,-75.80894 0.65569,-48.595197 0.32785,-17.773239 0.32784,-11.014986 0.32785,-3.138745 0.32785,5.062694 0.32784,12.741033 0.6557,42.84104 1.31138,100.76474 0.6557,34.9244 0.65569,21.05895 0.6557,10.69044 0.32784,2.83204 0.32785,1.77973 0.32785,1.07542 0.32784,0.62514 0.6557,0.53809 0.65569,0.1465 1.96708,0.0426 20.3265,-0.0726 0.65569,-0.23533 0.32785,-0.29307 0.32785,-0.53119 0.32784,-0.92671 0.32785,-1.55553 0.32785,-2.51113 0.32784,-3.89647 0.32785,-5.80768 0.32785,-8.30815 0.65569,-26.36054 0.65569,-41.27039 1.96709,-144.814725 0.32784,-8.332692 0.32785,0.144888 0.32785,8.607432 0.32784,16.187328 0.6557,48.252129 1.31138,103.13417 0.6557,33.49597 0.65569,19.49704 0.65569,9.57592 0.32785,2.4726 0.32785,1.52966 0.32784,0.9101 0.32785,0.521 0.65569,0.43938 0.98354,0.13429 4.91771,0.0145 108.51727,-0.0594 0.6557,-0.16876 0.32784,-0.19592 0.32785,-0.33683 0.32785,-0.55712 0.32785,-0.88602 0.32784,-1.35411 0.32785,-1.98729 0.32784,-2.79823 0.6557,-8.65158 0.65569,-13.075 1.63924,-37.55116 0.32784,-3.92758 0.32785,-1.53676 0.32785,1.01286 0.32784,3.45757 0.6557,12.65898 1.63923,37.80772 0.65569,9.10775 0.6557,5.12873 0.65569,2.44169 0.32785,0.61533 0.65569,0.59494 0.6557,0.19145 1.63923,0.0675 32.78467,-0.0224 0.98355,-0.17588 0.32784,-0.17859 0.32785,-0.31354 0.32785,-0.52969 0.32784,-0.86065 0.32785,-1.34428 0.32785,-2.01712 0.32784,-2.90541 0.6557,-9.32216 0.65569,-14.81784 1.96708,-54.24537 0.32785,-3.579 0.32784,-0.47346 0.32785,2.68121 0.32785,5.55994 0.65569,17.35195 1.31139,38.54056 0.65569,12.85629 0.6557,7.59313 0.65569,3.78065 0.32785,0.98662 0.32784,0.61434 0.6557,0.57981 0.65569,0.18025 1.63923,0.0609 25.8999,10e-4 v 0"
         clip-path="url(#pf582455333)"
         style="fill:none;stroke:#d6c35d;stroke-width:2.5;stroke-linecap:square"
         id="path257" />
    </g>
    <g
       id="line2d_15">
      <path
         d="M 416.72812,286.7241 V 17.316"
         clip-path="url(#pf582455333)"
         style="fill:none;stroke:#000000;stroke-width:1.2;stroke-dasharray:4.44, 1.92;stroke-dashoffset:0"
         id="path260" />
    </g>
    <g
       id="patch_3">
      <path
         d="M 67.275,286.7241 V 17.316"
         style="fill:none;stroke:#000000;stroke-width:1.2;stroke-linecap:square;stroke-linejoin:miter"
         id="path263" />
    </g>
    <g
       id="patch_4">
      <path
         d="M 67.275,286.7241 H 626.4"
         style="fill:none;stroke:#000000;stroke-width:1.2;stroke-linecap:square;stroke-linejoin:miter"
         id="path266" />
    </g>
    <g
       id="legend_1"
       transform="translate(-344.73984)">
      <g
         id="line2d_16">
        <path
           d="m 490.40156,40.893188 h 18 18"
           style="fill:none;stroke:#243c6e;stroke-width:2.5;stroke-linecap:square"
           id="path269" />
      </g>
      <g
         id="text_14">
        <!-- 1.0E-10 -->
        <g
           transform="matrix(0.18,0,0,-0.18,540.80156,47.193188)"
           id="g289">
          <defs
             id="defs273">
            <path
               id="DejaVuSans-2d"
               d="M 313,2009 H 1997 V 1497 H 313 Z"
               transform="scale(0.015625)" />
          </defs>
          <use
             xlink:href="#DejaVuSans-31"
             id="use275" />
          <use
             xlink:href="#DejaVuSans-2e"
             x="63.623047"
             id="use277" />
          <use
             xlink:href="#DejaVuSans-30"
             x="95.410156"
             id="use279" />
          <use
             xlink:href="#DejaVuSans-45"
             x="159.0332"
             id="use281" />
          <use
             xlink:href="#DejaVuSans-2d"
             x="222.2168"
             id="use283" />
          <use
             xlink:href="#DejaVuSans-31"
             x="258.30078"
             id="use285" />
          <use
             xlink:href="#DejaVuSans-30"
             x="321.92383"
             id="use287" />
        </g>
      </g>
      <g
         id="line2d_17">
        <path
           d="m 490.40156,67.313812 h 18 18"
           style="fill:none;stroke:#7d7c78;stroke-width:2.5;stroke-linecap:square"
           id="path292" />
      </g>
      <g
         id="text_15">
        <!-- 1.0E-12 -->
        <g
           transform="matrix(0.18,0,0,-0.18,540.80156,73.613812)"
           id="g309">
          <use
             xlink:href="#DejaVuSans-31"
             id="use295" />
          <use
             xlink:href="#DejaVuSans-2e"
             x="63.623047"
             id="use297" />
          <use
             xlink:href="#DejaVuSans-30"
             x="95.410156"
             id="use299" />
          <use
             xlink:href="#DejaVuSans-45"
             x="159.0332"
             id="use301" />
          <use
             xlink:href="#DejaVuSans-2d"
             x="222.2168"
             id="use303" />
          <use
             xlink:href="#DejaVuSans-31"
             x="258.30078"
             id="use305" />
          <use
             xlink:href="#DejaVuSans-32"
             x="321.92383"
             id="use307" />
        </g>
      </g>
      <g
         id="line2d_18">
        <path
           d="m 490.40156,93.734438 h 18 18"
           style="fill:none;stroke:#d6c35d;stroke-width:2.5;stroke-linecap:square"
           id="path312" />
      </g>
      <g
         id="text_16">
        <!-- 1.0E-14 -->
        <g
           transform="matrix(0.18,0,0,-0.18,540.80156,100.03444)"
           id="g332">
          <defs
             id="defs316">
            <path
               id="DejaVuSans-34"
               d="M 2419,4116 825,1625 h 1594 z m -166,550 h 794 V 1625 h 666 V 1100 H 3047 V 0 H 2419 V 1100 H 313 v 609 z"
               transform="scale(0.015625)" />
          </defs>
          <use
             xlink:href="#DejaVuSans-31"
             id="use318" />
          <use
             xlink:href="#DejaVuSans-2e"
             x="63.623047"
             id="use320" />
          <use
             xlink:href="#DejaVuSans-30"
             x="95.410156"
             id="use322" />
          <use
             xlink:href="#DejaVuSans-45"
             x="159.0332"
             id="use324" />
          <use
             xlink:href="#DejaVuSans-2d"
             x="222.2168"
             id="use326" />
          <use
             xlink:href="#DejaVuSans-31"
             x="258.30078"
             id="use328" />
          <use
             xlink:href="#DejaVuSans-34"
             x="321.92383"
             id="use330" />
        </g>
      </g>
    </g>
  </g>
  <defs
     id="defs341">
    <clipPath
       id="pf582455333">
      <rect
         x="67.275"
         y="17.316"
         width="559.125"
         height="269.4081"
         id="rect338" />
    </clipPath>
  </defs>
</svg>
